M48
; DRILL file {KiCad 6.0.11-3.fc36} date Tue 04 Apr 2023 07:11:23 PM JST
; FORMAT={-:-/ absolute / metric / decimal}
; #@! TF.CreationDate,2023-04-04T19:11:23+09:00
; #@! TF.GenerationSoftware,Kicad,Pcbnew,6.0.11-3.fc36
; #@! TF.FileFunction,Plated,1,2,PTH
FMAT,2
METRIC
; #@! TA.AperFunction,Plated,PTH,ViaDrill
T1C0.400
; #@! TA.AperFunction,Plated,PTH,ComponentDrill
T2C0.600
; #@! TA.AperFunction,Plated,PTH,ComponentDrill
T3C0.700
; #@! TA.AperFunction,Plated,PTH,ComponentDrill
T4C0.800
; #@! TA.AperFunction,Plated,PTH,ComponentDrill
T5C0.850
; #@! TA.AperFunction,Plated,PTH,ComponentDrill
T6C0.900
; #@! TA.AperFunction,Plated,PTH,ComponentDrill
T7C1.000
; #@! TA.AperFunction,Plated,PTH,ComponentDrill
T8C1.100
%
G90
G05
T1
X133.35Y-108.585
X139.7Y-85.725
X140.97Y-118.745
T3
X135.54Y-130.175
X135.54Y-137.795
X142.24Y-80.645
X142.24Y-88.265
X146.4Y-80.645
X146.4Y-88.265
X153.67Y-111.125
X153.67Y-118.745
X155.64Y-122.555
X155.64Y-130.175
X157.48Y-80.115
X157.48Y-87.735
X158.18Y-122.555
X158.18Y-130.175
X162.56Y-122.555
X162.56Y-130.175
X165.1Y-80.115
X165.1Y-87.735
X165.1Y-122.555
X165.1Y-130.175
T4
X124.38Y-75.565
X126.88Y-75.565
X127.06Y-82.677
X130.81Y-106.205
X130.81Y-113.705
X132.08Y-75.565
X132.09Y-88.275
X132.09Y-90.815
X132.09Y-93.355
X132.09Y-95.895
X134.56Y-82.677
X134.58Y-75.565
X135.95Y-109.915
X135.95Y-117.415
X135.95Y-120.075
X135.95Y-127.575
X138.13Y-130.175
X138.13Y-137.795
X138.43Y-73.145
X138.43Y-80.645
X139.71Y-88.275
X139.71Y-90.815
X139.71Y-93.355
X139.71Y-95.895
X143.5Y-103.495
X143.5Y-106.035
X143.5Y-108.575
X143.5Y-111.115
X143.5Y-113.655
X143.5Y-116.195
X143.5Y-118.735
X143.5Y-121.275
X143.5Y-123.815
X143.5Y-126.355
X143.5Y-128.895
X143.5Y-131.435
X143.5Y-133.975
X143.5Y-136.515
X150.66Y-80.705
X150.66Y-88.205
X151.12Y-103.495
X151.12Y-106.035
X151.12Y-108.575
X151.12Y-111.115
X151.12Y-113.655
X151.12Y-116.195
X151.12Y-118.735
X151.12Y-121.275
X151.12Y-123.815
X151.12Y-126.355
X151.12Y-128.895
X151.12Y-131.435
X151.12Y-133.975
X151.12Y-136.515
X158.75Y-112.505
X158.75Y-117.385
X161.29Y-80.175
X161.29Y-87.675
X163.195Y-112.395
X163.195Y-114.895
X163.195Y-117.475
X163.195Y-119.975
T5
X142.28Y-76.212
X147.28Y-76.212
T6
X155.34Y-135.255
X155.46Y-93.345
X157.88Y-135.255
X158.0Y-93.345
X162.56Y-135.255
X162.88Y-93.345
X165.1Y-135.255
X165.42Y-93.345
T7
X124.46Y-98.892
X124.46Y-101.432
X124.46Y-103.972
X124.46Y-106.512
X124.46Y-109.052
X124.46Y-111.593
X124.46Y-114.132
X124.46Y-116.672
X124.46Y-123.825
X124.46Y-126.365
X124.46Y-128.905
X124.46Y-131.445
X124.46Y-133.985
X124.46Y-136.525
X165.105Y-98.41
X165.105Y-100.95
X165.105Y-103.49
X167.645Y-98.41
X167.645Y-100.95
X167.645Y-103.49
X172.72Y-88.31
X172.72Y-90.85
X172.72Y-93.39
X172.72Y-95.93
X172.72Y-98.47
X172.72Y-101.01
X172.72Y-103.55
X172.72Y-106.09
X172.72Y-108.63
X172.72Y-111.17
X172.72Y-118.73
X172.72Y-121.27
X172.72Y-123.81
X172.72Y-126.35
X172.72Y-128.89
X172.72Y-131.43
X172.72Y-133.97
X172.72Y-136.51
T8
X125.6Y-88.265
X125.6Y-90.805
X125.6Y-93.345
X154.94Y-75.695
X157.48Y-75.695
X160.02Y-75.695
X168.93Y-73.585
X168.93Y-80.085
X173.43Y-73.585
X173.43Y-80.085
T2
X141.28Y-73.862G85X141.28Y-73.162
G05
X148.28Y-73.162G85X148.28Y-73.862
G05
T0
M30
