G04 #@! TF.GenerationSoftware,KiCad,Pcbnew,6.0.11-3.fc36*
G04 #@! TF.CreationDate,2023-04-04T19:10:39+09:00*
G04 #@! TF.ProjectId,Tetiduino,54657469-6475-4696-9e6f-2e6b69636164,rev?*
G04 #@! TF.SameCoordinates,Original*
G04 #@! TF.FileFunction,Legend,Bot*
G04 #@! TF.FilePolarity,Positive*
%FSLAX46Y46*%
G04 Gerber Fmt 4.6, Leading zero omitted, Abs format (unit mm)*
G04 Created by KiCad (PCBNEW 6.0.11-3.fc36) date 2023-04-04 19:10:39*
%MOMM*%
%LPD*%
G01*
G04 APERTURE LIST*
%ADD10R,1.700000X1.700000*%
%ADD11O,1.700000X1.700000*%
%ADD12C,1.400000*%
%ADD13O,1.400000X1.400000*%
%ADD14R,1.905000X2.000000*%
%ADD15O,1.905000X2.000000*%
%ADD16R,1.600000X1.600000*%
%ADD17O,1.600000X1.600000*%
%ADD18C,1.600000*%
%ADD19O,1.200000X1.900000*%
%ADD20C,1.450000*%
%ADD21C,2.000000*%
%ADD22R,1.800000X1.800000*%
%ADD23C,1.800000*%
%ADD24R,2.000000X1.905000*%
%ADD25O,2.000000X1.905000*%
%ADD26C,1.500000*%
G04 APERTURE END LIST*
%LPC*%
D10*
X124460000Y-98892500D03*
D11*
X124460000Y-101432500D03*
X124460000Y-103972500D03*
X124460000Y-106512500D03*
X124460000Y-109052500D03*
X124460000Y-111592500D03*
X124460000Y-114132500D03*
X124460000Y-116672500D03*
D12*
X165100000Y-80115000D03*
D13*
X165100000Y-87735000D03*
D14*
X154940000Y-75695000D03*
D15*
X157480000Y-75695000D03*
X160020000Y-75695000D03*
D16*
X138130000Y-130175000D03*
D17*
X138130000Y-137795000D03*
D18*
X163195000Y-117475000D03*
X163195000Y-119975000D03*
X163195000Y-112395000D03*
X163195000Y-114895000D03*
D16*
X132080000Y-75565000D03*
D18*
X134580000Y-75565000D03*
X130810000Y-106205000D03*
D17*
X130810000Y-113705000D03*
D18*
X150660000Y-88205000D03*
D17*
X150660000Y-80705000D03*
D19*
X141280000Y-73512500D03*
D20*
X147280000Y-76212500D03*
D19*
X148280000Y-73512500D03*
D20*
X142280000Y-76212500D03*
D21*
X173430000Y-73585000D03*
X173430000Y-80085000D03*
X168930000Y-80085000D03*
X168930000Y-73585000D03*
D22*
X162880000Y-93345000D03*
D23*
X165420000Y-93345000D03*
D18*
X127060000Y-82677000D03*
D17*
X134560000Y-82677000D03*
D22*
X162560000Y-135255000D03*
D23*
X165100000Y-135255000D03*
D18*
X161290000Y-80175000D03*
D17*
X161290000Y-87675000D03*
D16*
X132090000Y-88275000D03*
D17*
X132090000Y-90815000D03*
X132090000Y-93355000D03*
X132090000Y-95895000D03*
X139710000Y-95895000D03*
X139710000Y-93355000D03*
X139710000Y-90815000D03*
X139710000Y-88275000D03*
D12*
X142240000Y-80645000D03*
D13*
X142240000Y-88265000D03*
D16*
X151120000Y-136515000D03*
D17*
X151120000Y-133975000D03*
X151120000Y-131435000D03*
X151120000Y-128895000D03*
X151120000Y-126355000D03*
X151120000Y-123815000D03*
X151120000Y-121275000D03*
X151120000Y-118735000D03*
X151120000Y-116195000D03*
X151120000Y-113655000D03*
X151120000Y-111115000D03*
X151120000Y-108575000D03*
X151120000Y-106035000D03*
X151120000Y-103495000D03*
X143500000Y-103495000D03*
X143500000Y-106035000D03*
X143500000Y-108575000D03*
X143500000Y-111115000D03*
X143500000Y-113655000D03*
X143500000Y-116195000D03*
X143500000Y-118735000D03*
X143500000Y-121275000D03*
X143500000Y-123815000D03*
X143500000Y-126355000D03*
X143500000Y-128895000D03*
X143500000Y-131435000D03*
X143500000Y-133975000D03*
X143500000Y-136515000D03*
D12*
X165100000Y-122555000D03*
D13*
X165100000Y-130175000D03*
D12*
X157480000Y-80115000D03*
D13*
X157480000Y-87735000D03*
D12*
X162560000Y-122555000D03*
D13*
X162560000Y-130175000D03*
D16*
X124380000Y-75565000D03*
D18*
X126880000Y-75565000D03*
D12*
X135540000Y-130175000D03*
D13*
X135540000Y-137795000D03*
D12*
X153670000Y-118745000D03*
D13*
X153670000Y-111125000D03*
D10*
X172720000Y-136510000D03*
D11*
X172720000Y-133970000D03*
X172720000Y-131430000D03*
X172720000Y-128890000D03*
X172720000Y-126350000D03*
X172720000Y-123810000D03*
X172720000Y-121270000D03*
X172720000Y-118730000D03*
D10*
X167645000Y-103490000D03*
D11*
X165105000Y-103490000D03*
X167645000Y-100950000D03*
X165105000Y-100950000D03*
X167645000Y-98410000D03*
X165105000Y-98410000D03*
D12*
X155640000Y-130175000D03*
D13*
X155640000Y-122555000D03*
D18*
X138430000Y-80645000D03*
D17*
X138430000Y-73145000D03*
D24*
X125600000Y-88265000D03*
D25*
X125600000Y-90805000D03*
X125600000Y-93345000D03*
D22*
X155340000Y-135255000D03*
D23*
X157880000Y-135255000D03*
D10*
X124460000Y-123825000D03*
D11*
X124460000Y-126365000D03*
X124460000Y-128905000D03*
X124460000Y-131445000D03*
X124460000Y-133985000D03*
X124460000Y-136525000D03*
D26*
X158750000Y-117385000D03*
X158750000Y-112505000D03*
D18*
X135950000Y-109915000D03*
D17*
X135950000Y-117415000D03*
D22*
X155460000Y-93345000D03*
D23*
X158000000Y-93345000D03*
D18*
X135950000Y-127575000D03*
D17*
X135950000Y-120075000D03*
D10*
X172720000Y-111170000D03*
D11*
X172720000Y-108630000D03*
X172720000Y-106090000D03*
X172720000Y-103550000D03*
X172720000Y-101010000D03*
X172720000Y-98470000D03*
X172720000Y-95930000D03*
X172720000Y-93390000D03*
X172720000Y-90850000D03*
X172720000Y-88310000D03*
D12*
X158180000Y-122555000D03*
D13*
X158180000Y-130175000D03*
D12*
X146400000Y-88265000D03*
D13*
X146400000Y-80645000D03*
M02*
