%TF.GenerationSoftware,KiCad,Pcbnew,6.0.11-3.fc36*%
%TF.CreationDate,2023-04-04T19:11:32+09:00*%
%TF.ProjectId,Tetiduino,54657469-6475-4696-9e6f-2e6b69636164,rev?*%
%TF.SameCoordinates,Original*%
%TF.FileFunction,Drillmap*%
%TF.FilePolarity,Positive*%
%FSLAX45Y45*%
G04 Gerber Fmt 4.5, Leading zero omitted, Abs format (unit mm)*
G04 Created by KiCad (PCBNEW 6.0.11-3.fc36) date 2023-04-04 19:11:32*
%MOMM*%
%LPD*%
G01*
G04 APERTURE LIST*
%ADD10C,0.100000*%
%ADD11C,0.200000*%
%ADD12C,0.040000*%
%ADD13C,0.060000*%
%ADD14C,0.070000*%
%ADD15C,0.080000*%
%ADD16C,0.085000*%
%ADD17C,0.090000*%
%ADD18C,0.110000*%
G04 APERTURE END LIST*
D10*
X17526000Y-7175500D02*
X12192000Y-7175500D01*
X12192000Y-7175500D02*
X12192000Y-14033500D01*
X12192000Y-14033500D02*
X17526000Y-14033500D01*
X17526000Y-14033500D02*
X17526000Y-7175500D01*
D11*
D12*
X13315000Y-10838500D02*
X13355000Y-10878500D01*
X13355000Y-10838500D02*
X13315000Y-10878500D01*
X13950000Y-8552500D02*
X13990000Y-8592500D01*
X13990000Y-8552500D02*
X13950000Y-8592500D01*
X14077000Y-11854500D02*
X14117000Y-11894500D01*
X14117000Y-11854500D02*
X14077000Y-11894500D01*
D13*
X14158000Y-7351250D02*
G75*
G03*
X14158000Y-7351250I-30000J0D01*
G01*
D11*
X14158000Y-7386250D02*
X14158000Y-7316250D01*
X14098000Y-7386250D02*
X14098000Y-7316250D01*
X14158000Y-7316250D02*
G75*
G03*
X14098000Y-7316250I-30000J0D01*
G01*
X14098000Y-7386250D02*
G75*
G03*
X14158000Y-7386250I30000J0D01*
G01*
D13*
X14858000Y-7351250D02*
G75*
G03*
X14858000Y-7351250I-30000J0D01*
G01*
D11*
X14798000Y-7316250D02*
X14798000Y-7386250D01*
X14858000Y-7316250D02*
X14858000Y-7386250D01*
X14798000Y-7386250D02*
G75*
G03*
X14858000Y-7386250I30000J0D01*
G01*
X14858000Y-7316250D02*
G75*
G03*
X14798000Y-7316250I-30000J0D01*
G01*
D14*
X13554000Y-12982500D02*
X13554000Y-13052500D01*
X13519000Y-13017500D02*
X13589000Y-13017500D01*
X13554000Y-13744500D02*
X13554000Y-13814500D01*
X13519000Y-13779500D02*
X13589000Y-13779500D01*
X14224000Y-8029500D02*
X14224000Y-8099500D01*
X14189000Y-8064500D02*
X14259000Y-8064500D01*
X14224000Y-8791500D02*
X14224000Y-8861500D01*
X14189000Y-8826500D02*
X14259000Y-8826500D01*
X14640000Y-8029500D02*
X14640000Y-8099500D01*
X14605000Y-8064500D02*
X14675000Y-8064500D01*
X14640000Y-8791500D02*
X14640000Y-8861500D01*
X14605000Y-8826500D02*
X14675000Y-8826500D01*
X15367000Y-11077500D02*
X15367000Y-11147500D01*
X15332000Y-11112500D02*
X15402000Y-11112500D01*
X15367000Y-11839500D02*
X15367000Y-11909500D01*
X15332000Y-11874500D02*
X15402000Y-11874500D01*
X15564000Y-12220500D02*
X15564000Y-12290500D01*
X15529000Y-12255500D02*
X15599000Y-12255500D01*
X15564000Y-12982500D02*
X15564000Y-13052500D01*
X15529000Y-13017500D02*
X15599000Y-13017500D01*
X15748000Y-7976500D02*
X15748000Y-8046500D01*
X15713000Y-8011500D02*
X15783000Y-8011500D01*
X15748000Y-8738500D02*
X15748000Y-8808500D01*
X15713000Y-8773500D02*
X15783000Y-8773500D01*
X15818000Y-12220500D02*
X15818000Y-12290500D01*
X15783000Y-12255500D02*
X15853000Y-12255500D01*
X15818000Y-12982500D02*
X15818000Y-13052500D01*
X15783000Y-13017500D02*
X15853000Y-13017500D01*
X16256000Y-12220500D02*
X16256000Y-12290500D01*
X16221000Y-12255500D02*
X16291000Y-12255500D01*
X16256000Y-12982500D02*
X16256000Y-13052500D01*
X16221000Y-13017500D02*
X16291000Y-13017500D01*
X16510000Y-7976500D02*
X16510000Y-8046500D01*
X16475000Y-8011500D02*
X16545000Y-8011500D01*
X16510000Y-8738500D02*
X16510000Y-8808500D01*
X16475000Y-8773500D02*
X16545000Y-8773500D01*
X16510000Y-12220500D02*
X16510000Y-12290500D01*
X16475000Y-12255500D02*
X16545000Y-12255500D01*
X16510000Y-12982500D02*
X16510000Y-13052500D01*
X16475000Y-13017500D02*
X16545000Y-13017500D01*
D15*
X12466284Y-7584784D02*
X12466284Y-7528215D01*
X12409715Y-7528215D01*
X12409715Y-7584784D01*
X12466284Y-7584784D01*
X12716284Y-7584784D02*
X12716284Y-7528215D01*
X12659715Y-7528215D01*
X12659715Y-7584784D01*
X12716284Y-7584784D01*
X12734284Y-8295984D02*
X12734284Y-8239415D01*
X12677715Y-8239415D01*
X12677715Y-8295984D01*
X12734284Y-8295984D01*
X13109284Y-10648785D02*
X13109284Y-10592216D01*
X13052715Y-10592216D01*
X13052715Y-10648785D01*
X13109284Y-10648785D01*
X13109284Y-11398784D02*
X13109284Y-11342215D01*
X13052715Y-11342215D01*
X13052715Y-11398784D01*
X13109284Y-11398784D01*
X13236284Y-7584784D02*
X13236284Y-7528215D01*
X13179715Y-7528215D01*
X13179715Y-7584784D01*
X13236284Y-7584784D01*
X13237284Y-8855785D02*
X13237284Y-8799216D01*
X13180715Y-8799216D01*
X13180715Y-8855785D01*
X13237284Y-8855785D01*
X13237284Y-9109785D02*
X13237284Y-9053216D01*
X13180715Y-9053216D01*
X13180715Y-9109785D01*
X13237284Y-9109785D01*
X13237284Y-9363785D02*
X13237284Y-9307216D01*
X13180715Y-9307216D01*
X13180715Y-9363785D01*
X13237284Y-9363785D01*
X13237284Y-9617785D02*
X13237284Y-9561216D01*
X13180715Y-9561216D01*
X13180715Y-9617785D01*
X13237284Y-9617785D01*
X13484284Y-8295984D02*
X13484284Y-8239415D01*
X13427715Y-8239415D01*
X13427715Y-8295984D01*
X13484284Y-8295984D01*
X13486284Y-7584784D02*
X13486284Y-7528215D01*
X13429715Y-7528215D01*
X13429715Y-7584784D01*
X13486284Y-7584784D01*
X13623284Y-11019785D02*
X13623284Y-10963216D01*
X13566715Y-10963216D01*
X13566715Y-11019785D01*
X13623284Y-11019785D01*
X13623284Y-11769784D02*
X13623284Y-11713215D01*
X13566715Y-11713215D01*
X13566715Y-11769784D01*
X13623284Y-11769784D01*
X13623284Y-12035784D02*
X13623284Y-11979215D01*
X13566715Y-11979215D01*
X13566715Y-12035784D01*
X13623284Y-12035784D01*
X13623284Y-12785784D02*
X13623284Y-12729215D01*
X13566715Y-12729215D01*
X13566715Y-12785784D01*
X13623284Y-12785784D01*
X13841284Y-13045784D02*
X13841284Y-12989215D01*
X13784715Y-12989215D01*
X13784715Y-13045784D01*
X13841284Y-13045784D01*
X13841284Y-13807784D02*
X13841284Y-13751215D01*
X13784715Y-13751215D01*
X13784715Y-13807784D01*
X13841284Y-13807784D01*
X13871284Y-7342784D02*
X13871284Y-7286215D01*
X13814715Y-7286215D01*
X13814715Y-7342784D01*
X13871284Y-7342784D01*
X13871284Y-8092784D02*
X13871284Y-8036215D01*
X13814715Y-8036215D01*
X13814715Y-8092784D01*
X13871284Y-8092784D01*
X13999284Y-8855785D02*
X13999284Y-8799216D01*
X13942715Y-8799216D01*
X13942715Y-8855785D01*
X13999284Y-8855785D01*
X13999284Y-9109785D02*
X13999284Y-9053216D01*
X13942715Y-9053216D01*
X13942715Y-9109785D01*
X13999284Y-9109785D01*
X13999284Y-9363785D02*
X13999284Y-9307216D01*
X13942715Y-9307216D01*
X13942715Y-9363785D01*
X13999284Y-9363785D01*
X13999284Y-9617785D02*
X13999284Y-9561216D01*
X13942715Y-9561216D01*
X13942715Y-9617785D01*
X13999284Y-9617785D01*
X14378284Y-10377785D02*
X14378284Y-10321216D01*
X14321715Y-10321216D01*
X14321715Y-10377785D01*
X14378284Y-10377785D01*
X14378284Y-10631785D02*
X14378284Y-10575216D01*
X14321715Y-10575216D01*
X14321715Y-10631785D01*
X14378284Y-10631785D01*
X14378284Y-10885785D02*
X14378284Y-10829216D01*
X14321715Y-10829216D01*
X14321715Y-10885785D01*
X14378284Y-10885785D01*
X14378284Y-11139785D02*
X14378284Y-11083216D01*
X14321715Y-11083216D01*
X14321715Y-11139785D01*
X14378284Y-11139785D01*
X14378284Y-11393784D02*
X14378284Y-11337215D01*
X14321715Y-11337215D01*
X14321715Y-11393784D01*
X14378284Y-11393784D01*
X14378284Y-11647784D02*
X14378284Y-11591215D01*
X14321715Y-11591215D01*
X14321715Y-11647784D01*
X14378284Y-11647784D01*
X14378284Y-11901784D02*
X14378284Y-11845215D01*
X14321715Y-11845215D01*
X14321715Y-11901784D01*
X14378284Y-11901784D01*
X14378284Y-12155784D02*
X14378284Y-12099215D01*
X14321715Y-12099215D01*
X14321715Y-12155784D01*
X14378284Y-12155784D01*
X14378284Y-12409784D02*
X14378284Y-12353215D01*
X14321715Y-12353215D01*
X14321715Y-12409784D01*
X14378284Y-12409784D01*
X14378284Y-12663784D02*
X14378284Y-12607215D01*
X14321715Y-12607215D01*
X14321715Y-12663784D01*
X14378284Y-12663784D01*
X14378284Y-12917784D02*
X14378284Y-12861215D01*
X14321715Y-12861215D01*
X14321715Y-12917784D01*
X14378284Y-12917784D01*
X14378284Y-13171784D02*
X14378284Y-13115215D01*
X14321715Y-13115215D01*
X14321715Y-13171784D01*
X14378284Y-13171784D01*
X14378284Y-13425784D02*
X14378284Y-13369215D01*
X14321715Y-13369215D01*
X14321715Y-13425784D01*
X14378284Y-13425784D01*
X14378284Y-13679784D02*
X14378284Y-13623215D01*
X14321715Y-13623215D01*
X14321715Y-13679784D01*
X14378284Y-13679784D01*
X15094284Y-8098784D02*
X15094284Y-8042215D01*
X15037715Y-8042215D01*
X15037715Y-8098784D01*
X15094284Y-8098784D01*
X15094284Y-8848785D02*
X15094284Y-8792216D01*
X15037715Y-8792216D01*
X15037715Y-8848785D01*
X15094284Y-8848785D01*
X15140284Y-10377785D02*
X15140284Y-10321216D01*
X15083715Y-10321216D01*
X15083715Y-10377785D01*
X15140284Y-10377785D01*
X15140284Y-10631785D02*
X15140284Y-10575216D01*
X15083715Y-10575216D01*
X15083715Y-10631785D01*
X15140284Y-10631785D01*
X15140284Y-10885785D02*
X15140284Y-10829216D01*
X15083715Y-10829216D01*
X15083715Y-10885785D01*
X15140284Y-10885785D01*
X15140284Y-11139785D02*
X15140284Y-11083216D01*
X15083715Y-11083216D01*
X15083715Y-11139785D01*
X15140284Y-11139785D01*
X15140284Y-11393784D02*
X15140284Y-11337215D01*
X15083715Y-11337215D01*
X15083715Y-11393784D01*
X15140284Y-11393784D01*
X15140284Y-11647784D02*
X15140284Y-11591215D01*
X15083715Y-11591215D01*
X15083715Y-11647784D01*
X15140284Y-11647784D01*
X15140284Y-11901784D02*
X15140284Y-11845215D01*
X15083715Y-11845215D01*
X15083715Y-11901784D01*
X15140284Y-11901784D01*
X15140284Y-12155784D02*
X15140284Y-12099215D01*
X15083715Y-12099215D01*
X15083715Y-12155784D01*
X15140284Y-12155784D01*
X15140284Y-12409784D02*
X15140284Y-12353215D01*
X15083715Y-12353215D01*
X15083715Y-12409784D01*
X15140284Y-12409784D01*
X15140284Y-12663784D02*
X15140284Y-12607215D01*
X15083715Y-12607215D01*
X15083715Y-12663784D01*
X15140284Y-12663784D01*
X15140284Y-12917784D02*
X15140284Y-12861215D01*
X15083715Y-12861215D01*
X15083715Y-12917784D01*
X15140284Y-12917784D01*
X15140284Y-13171784D02*
X15140284Y-13115215D01*
X15083715Y-13115215D01*
X15083715Y-13171784D01*
X15140284Y-13171784D01*
X15140284Y-13425784D02*
X15140284Y-13369215D01*
X15083715Y-13369215D01*
X15083715Y-13425784D01*
X15140284Y-13425784D01*
X15140284Y-13679784D02*
X15140284Y-13623215D01*
X15083715Y-13623215D01*
X15083715Y-13679784D01*
X15140284Y-13679784D01*
X15903284Y-11278784D02*
X15903284Y-11222215D01*
X15846715Y-11222215D01*
X15846715Y-11278784D01*
X15903284Y-11278784D01*
X15903284Y-11766784D02*
X15903284Y-11710215D01*
X15846715Y-11710215D01*
X15846715Y-11766784D01*
X15903284Y-11766784D01*
X16157284Y-8045784D02*
X16157284Y-7989215D01*
X16100715Y-7989215D01*
X16100715Y-8045784D01*
X16157284Y-8045784D01*
X16157284Y-8795785D02*
X16157284Y-8739216D01*
X16100715Y-8739216D01*
X16100715Y-8795785D01*
X16157284Y-8795785D01*
X16347784Y-11267784D02*
X16347784Y-11211215D01*
X16291215Y-11211215D01*
X16291215Y-11267784D01*
X16347784Y-11267784D01*
X16347784Y-11517784D02*
X16347784Y-11461215D01*
X16291215Y-11461215D01*
X16291215Y-11517784D01*
X16347784Y-11517784D01*
X16347784Y-11775784D02*
X16347784Y-11719215D01*
X16291215Y-11719215D01*
X16291215Y-11775784D01*
X16347784Y-11775784D01*
X16347784Y-12025784D02*
X16347784Y-11969215D01*
X16291215Y-11969215D01*
X16291215Y-12025784D01*
X16347784Y-12025784D01*
D16*
X14228000Y-7663750D02*
X14270500Y-7621250D01*
X14228000Y-7578750D01*
X14185500Y-7621250D01*
X14228000Y-7663750D01*
X14728000Y-7663750D02*
X14770500Y-7621250D01*
X14728000Y-7578750D01*
X14685500Y-7621250D01*
X14728000Y-7663750D01*
D17*
X15489000Y-13480500D02*
X15579000Y-13570500D01*
X15579000Y-13480500D02*
X15489000Y-13570500D01*
X15579000Y-13525500D02*
G75*
G03*
X15579000Y-13525500I-45000J0D01*
G01*
X15501000Y-9289500D02*
X15591000Y-9379500D01*
X15591000Y-9289500D02*
X15501000Y-9379500D01*
X15591000Y-9334500D02*
G75*
G03*
X15591000Y-9334500I-45000J0D01*
G01*
X15743000Y-13480500D02*
X15833000Y-13570500D01*
X15833000Y-13480500D02*
X15743000Y-13570500D01*
X15833000Y-13525500D02*
G75*
G03*
X15833000Y-13525500I-45000J0D01*
G01*
X15755000Y-9289500D02*
X15845000Y-9379500D01*
X15845000Y-9289500D02*
X15755000Y-9379500D01*
X15845000Y-9334500D02*
G75*
G03*
X15845000Y-9334500I-45000J0D01*
G01*
X16211000Y-13480500D02*
X16301000Y-13570500D01*
X16301000Y-13480500D02*
X16211000Y-13570500D01*
X16301000Y-13525500D02*
G75*
G03*
X16301000Y-13525500I-45000J0D01*
G01*
X16243000Y-9289500D02*
X16333000Y-9379500D01*
X16333000Y-9289500D02*
X16243000Y-9379500D01*
X16333000Y-9334500D02*
G75*
G03*
X16333000Y-9334500I-45000J0D01*
G01*
X16465000Y-13480500D02*
X16555000Y-13570500D01*
X16555000Y-13480500D02*
X16465000Y-13570500D01*
X16555000Y-13525500D02*
G75*
G03*
X16555000Y-13525500I-45000J0D01*
G01*
X16497000Y-9289500D02*
X16587000Y-9379500D01*
X16587000Y-9289500D02*
X16497000Y-9379500D01*
X16587000Y-9334500D02*
G75*
G03*
X16587000Y-9334500I-45000J0D01*
G01*
D10*
X12396000Y-9839250D02*
X12496000Y-9939250D01*
X12496000Y-9839250D02*
X12396000Y-9939250D01*
X12446000Y-9839250D02*
X12446000Y-9939250D01*
X12396000Y-9889250D02*
X12496000Y-9889250D01*
X12396000Y-10093250D02*
X12496000Y-10193250D01*
X12496000Y-10093250D02*
X12396000Y-10193250D01*
X12446000Y-10093250D02*
X12446000Y-10193250D01*
X12396000Y-10143250D02*
X12496000Y-10143250D01*
X12396000Y-10347250D02*
X12496000Y-10447250D01*
X12496000Y-10347250D02*
X12396000Y-10447250D01*
X12446000Y-10347250D02*
X12446000Y-10447250D01*
X12396000Y-10397250D02*
X12496000Y-10397250D01*
X12396000Y-10601250D02*
X12496000Y-10701250D01*
X12496000Y-10601250D02*
X12396000Y-10701250D01*
X12446000Y-10601250D02*
X12446000Y-10701250D01*
X12396000Y-10651250D02*
X12496000Y-10651250D01*
X12396000Y-10855250D02*
X12496000Y-10955250D01*
X12496000Y-10855250D02*
X12396000Y-10955250D01*
X12446000Y-10855250D02*
X12446000Y-10955250D01*
X12396000Y-10905250D02*
X12496000Y-10905250D01*
X12396000Y-11109250D02*
X12496000Y-11209250D01*
X12496000Y-11109250D02*
X12396000Y-11209250D01*
X12446000Y-11109250D02*
X12446000Y-11209250D01*
X12396000Y-11159250D02*
X12496000Y-11159250D01*
X12396000Y-11363250D02*
X12496000Y-11463250D01*
X12496000Y-11363250D02*
X12396000Y-11463250D01*
X12446000Y-11363250D02*
X12446000Y-11463250D01*
X12396000Y-11413250D02*
X12496000Y-11413250D01*
X12396000Y-11617250D02*
X12496000Y-11717250D01*
X12496000Y-11617250D02*
X12396000Y-11717250D01*
X12446000Y-11617250D02*
X12446000Y-11717250D01*
X12396000Y-11667250D02*
X12496000Y-11667250D01*
X12396000Y-12332500D02*
X12496000Y-12432500D01*
X12496000Y-12332500D02*
X12396000Y-12432500D01*
X12446000Y-12332500D02*
X12446000Y-12432500D01*
X12396000Y-12382500D02*
X12496000Y-12382500D01*
X12396000Y-12586500D02*
X12496000Y-12686500D01*
X12496000Y-12586500D02*
X12396000Y-12686500D01*
X12446000Y-12586500D02*
X12446000Y-12686500D01*
X12396000Y-12636500D02*
X12496000Y-12636500D01*
X12396000Y-12840500D02*
X12496000Y-12940500D01*
X12496000Y-12840500D02*
X12396000Y-12940500D01*
X12446000Y-12840500D02*
X12446000Y-12940500D01*
X12396000Y-12890500D02*
X12496000Y-12890500D01*
X12396000Y-13094500D02*
X12496000Y-13194500D01*
X12496000Y-13094500D02*
X12396000Y-13194500D01*
X12446000Y-13094500D02*
X12446000Y-13194500D01*
X12396000Y-13144500D02*
X12496000Y-13144500D01*
X12396000Y-13348500D02*
X12496000Y-13448500D01*
X12496000Y-13348500D02*
X12396000Y-13448500D01*
X12446000Y-13348500D02*
X12446000Y-13448500D01*
X12396000Y-13398500D02*
X12496000Y-13398500D01*
X12396000Y-13602500D02*
X12496000Y-13702500D01*
X12496000Y-13602500D02*
X12396000Y-13702500D01*
X12446000Y-13602500D02*
X12446000Y-13702500D01*
X12396000Y-13652500D02*
X12496000Y-13652500D01*
X16460500Y-9791000D02*
X16560500Y-9891000D01*
X16560500Y-9791000D02*
X16460500Y-9891000D01*
X16510500Y-9791000D02*
X16510500Y-9891000D01*
X16460500Y-9841000D02*
X16560500Y-9841000D01*
X16460500Y-10045000D02*
X16560500Y-10145000D01*
X16560500Y-10045000D02*
X16460500Y-10145000D01*
X16510500Y-10045000D02*
X16510500Y-10145000D01*
X16460500Y-10095000D02*
X16560500Y-10095000D01*
X16460500Y-10299000D02*
X16560500Y-10399000D01*
X16560500Y-10299000D02*
X16460500Y-10399000D01*
X16510500Y-10299000D02*
X16510500Y-10399000D01*
X16460500Y-10349000D02*
X16560500Y-10349000D01*
X16714500Y-9791000D02*
X16814500Y-9891000D01*
X16814500Y-9791000D02*
X16714500Y-9891000D01*
X16764500Y-9791000D02*
X16764500Y-9891000D01*
X16714500Y-9841000D02*
X16814500Y-9841000D01*
X16714500Y-10045000D02*
X16814500Y-10145000D01*
X16814500Y-10045000D02*
X16714500Y-10145000D01*
X16764500Y-10045000D02*
X16764500Y-10145000D01*
X16714500Y-10095000D02*
X16814500Y-10095000D01*
X16714500Y-10299000D02*
X16814500Y-10399000D01*
X16814500Y-10299000D02*
X16714500Y-10399000D01*
X16764500Y-10299000D02*
X16764500Y-10399000D01*
X16714500Y-10349000D02*
X16814500Y-10349000D01*
X17222000Y-8781000D02*
X17322000Y-8881000D01*
X17322000Y-8781000D02*
X17222000Y-8881000D01*
X17272000Y-8781000D02*
X17272000Y-8881000D01*
X17222000Y-8831000D02*
X17322000Y-8831000D01*
X17222000Y-9035000D02*
X17322000Y-9135000D01*
X17322000Y-9035000D02*
X17222000Y-9135000D01*
X17272000Y-9035000D02*
X17272000Y-9135000D01*
X17222000Y-9085000D02*
X17322000Y-9085000D01*
X17222000Y-9289000D02*
X17322000Y-9389000D01*
X17322000Y-9289000D02*
X17222000Y-9389000D01*
X17272000Y-9289000D02*
X17272000Y-9389000D01*
X17222000Y-9339000D02*
X17322000Y-9339000D01*
X17222000Y-9543000D02*
X17322000Y-9643000D01*
X17322000Y-9543000D02*
X17222000Y-9643000D01*
X17272000Y-9543000D02*
X17272000Y-9643000D01*
X17222000Y-9593000D02*
X17322000Y-9593000D01*
X17222000Y-9797000D02*
X17322000Y-9897000D01*
X17322000Y-9797000D02*
X17222000Y-9897000D01*
X17272000Y-9797000D02*
X17272000Y-9897000D01*
X17222000Y-9847000D02*
X17322000Y-9847000D01*
X17222000Y-10051000D02*
X17322000Y-10151000D01*
X17322000Y-10051000D02*
X17222000Y-10151000D01*
X17272000Y-10051000D02*
X17272000Y-10151000D01*
X17222000Y-10101000D02*
X17322000Y-10101000D01*
X17222000Y-10305000D02*
X17322000Y-10405000D01*
X17322000Y-10305000D02*
X17222000Y-10405000D01*
X17272000Y-10305000D02*
X17272000Y-10405000D01*
X17222000Y-10355000D02*
X17322000Y-10355000D01*
X17222000Y-10559000D02*
X17322000Y-10659000D01*
X17322000Y-10559000D02*
X17222000Y-10659000D01*
X17272000Y-10559000D02*
X17272000Y-10659000D01*
X17222000Y-10609000D02*
X17322000Y-10609000D01*
X17222000Y-10813000D02*
X17322000Y-10913000D01*
X17322000Y-10813000D02*
X17222000Y-10913000D01*
X17272000Y-10813000D02*
X17272000Y-10913000D01*
X17222000Y-10863000D02*
X17322000Y-10863000D01*
X17222000Y-11067000D02*
X17322000Y-11167000D01*
X17322000Y-11067000D02*
X17222000Y-11167000D01*
X17272000Y-11067000D02*
X17272000Y-11167000D01*
X17222000Y-11117000D02*
X17322000Y-11117000D01*
X17222000Y-11823000D02*
X17322000Y-11923000D01*
X17322000Y-11823000D02*
X17222000Y-11923000D01*
X17272000Y-11823000D02*
X17272000Y-11923000D01*
X17222000Y-11873000D02*
X17322000Y-11873000D01*
X17222000Y-12077000D02*
X17322000Y-12177000D01*
X17322000Y-12077000D02*
X17222000Y-12177000D01*
X17272000Y-12077000D02*
X17272000Y-12177000D01*
X17222000Y-12127000D02*
X17322000Y-12127000D01*
X17222000Y-12331000D02*
X17322000Y-12431000D01*
X17322000Y-12331000D02*
X17222000Y-12431000D01*
X17272000Y-12331000D02*
X17272000Y-12431000D01*
X17222000Y-12381000D02*
X17322000Y-12381000D01*
X17222000Y-12585000D02*
X17322000Y-12685000D01*
X17322000Y-12585000D02*
X17222000Y-12685000D01*
X17272000Y-12585000D02*
X17272000Y-12685000D01*
X17222000Y-12635000D02*
X17322000Y-12635000D01*
X17222000Y-12839000D02*
X17322000Y-12939000D01*
X17322000Y-12839000D02*
X17222000Y-12939000D01*
X17272000Y-12839000D02*
X17272000Y-12939000D01*
X17222000Y-12889000D02*
X17322000Y-12889000D01*
X17222000Y-13093000D02*
X17322000Y-13193000D01*
X17322000Y-13093000D02*
X17222000Y-13193000D01*
X17272000Y-13093000D02*
X17272000Y-13193000D01*
X17222000Y-13143000D02*
X17322000Y-13143000D01*
X17222000Y-13347000D02*
X17322000Y-13447000D01*
X17322000Y-13347000D02*
X17222000Y-13447000D01*
X17272000Y-13347000D02*
X17272000Y-13447000D01*
X17222000Y-13397000D02*
X17322000Y-13397000D01*
X17222000Y-13601000D02*
X17322000Y-13701000D01*
X17322000Y-13601000D02*
X17222000Y-13701000D01*
X17272000Y-13601000D02*
X17272000Y-13701000D01*
X17222000Y-13651000D02*
X17322000Y-13651000D01*
D18*
X12505000Y-8771500D02*
X12615000Y-8881500D01*
X12615000Y-8771500D02*
X12505000Y-8881500D01*
X12598891Y-8865391D02*
X12598891Y-8787609D01*
X12521109Y-8787609D01*
X12521109Y-8865391D01*
X12598891Y-8865391D01*
X12505000Y-9025500D02*
X12615000Y-9135500D01*
X12615000Y-9025500D02*
X12505000Y-9135500D01*
X12598891Y-9119391D02*
X12598891Y-9041609D01*
X12521109Y-9041609D01*
X12521109Y-9119391D01*
X12598891Y-9119391D01*
X12505000Y-9279500D02*
X12615000Y-9389500D01*
X12615000Y-9279500D02*
X12505000Y-9389500D01*
X12598891Y-9373391D02*
X12598891Y-9295609D01*
X12521109Y-9295609D01*
X12521109Y-9373391D01*
X12598891Y-9373391D01*
X15439000Y-7514500D02*
X15549000Y-7624500D01*
X15549000Y-7514500D02*
X15439000Y-7624500D01*
X15532891Y-7608391D02*
X15532891Y-7530609D01*
X15455109Y-7530609D01*
X15455109Y-7608391D01*
X15532891Y-7608391D01*
X15693000Y-7514500D02*
X15803000Y-7624500D01*
X15803000Y-7514500D02*
X15693000Y-7624500D01*
X15786891Y-7608391D02*
X15786891Y-7530609D01*
X15709109Y-7530609D01*
X15709109Y-7608391D01*
X15786891Y-7608391D01*
X15947000Y-7514500D02*
X16057000Y-7624500D01*
X16057000Y-7514500D02*
X15947000Y-7624500D01*
X16040891Y-7608391D02*
X16040891Y-7530609D01*
X15963109Y-7530609D01*
X15963109Y-7608391D01*
X16040891Y-7608391D01*
X16838000Y-7303500D02*
X16948000Y-7413500D01*
X16948000Y-7303500D02*
X16838000Y-7413500D01*
X16931891Y-7397391D02*
X16931891Y-7319609D01*
X16854109Y-7319609D01*
X16854109Y-7397391D01*
X16931891Y-7397391D01*
X16838000Y-7953500D02*
X16948000Y-8063500D01*
X16948000Y-7953500D02*
X16838000Y-8063500D01*
X16931891Y-8047391D02*
X16931891Y-7969609D01*
X16854109Y-7969609D01*
X16854109Y-8047391D01*
X16931891Y-8047391D01*
X17288000Y-7303500D02*
X17398000Y-7413500D01*
X17398000Y-7303500D02*
X17288000Y-7413500D01*
X17381891Y-7397391D02*
X17381891Y-7319609D01*
X17304109Y-7319609D01*
X17304109Y-7397391D01*
X17381891Y-7397391D01*
X17288000Y-7953500D02*
X17398000Y-8063500D01*
X17398000Y-7953500D02*
X17288000Y-8063500D01*
X17381891Y-8047391D02*
X17381891Y-7969609D01*
X17304109Y-7969609D01*
X17304109Y-8047391D01*
X17381891Y-8047391D01*
D11*
X12444619Y-14348976D02*
X12444619Y-14148976D01*
X12492238Y-14148976D01*
X12520809Y-14158500D01*
X12539857Y-14177548D01*
X12549381Y-14196595D01*
X12558905Y-14234690D01*
X12558905Y-14263262D01*
X12549381Y-14301357D01*
X12539857Y-14320405D01*
X12520809Y-14339452D01*
X12492238Y-14348976D01*
X12444619Y-14348976D01*
X12644619Y-14348976D02*
X12644619Y-14215643D01*
X12644619Y-14253738D02*
X12654143Y-14234690D01*
X12663667Y-14225167D01*
X12682714Y-14215643D01*
X12701762Y-14215643D01*
X12768428Y-14348976D02*
X12768428Y-14215643D01*
X12768428Y-14148976D02*
X12758905Y-14158500D01*
X12768428Y-14168024D01*
X12777952Y-14158500D01*
X12768428Y-14148976D01*
X12768428Y-14168024D01*
X12892238Y-14348976D02*
X12873190Y-14339452D01*
X12863667Y-14320405D01*
X12863667Y-14148976D01*
X12997000Y-14348976D02*
X12977952Y-14339452D01*
X12968428Y-14320405D01*
X12968428Y-14148976D01*
X13225571Y-14348976D02*
X13225571Y-14148976D01*
X13292238Y-14291833D01*
X13358905Y-14148976D01*
X13358905Y-14348976D01*
X13539857Y-14348976D02*
X13539857Y-14244214D01*
X13530333Y-14225167D01*
X13511286Y-14215643D01*
X13473190Y-14215643D01*
X13454143Y-14225167D01*
X13539857Y-14339452D02*
X13520809Y-14348976D01*
X13473190Y-14348976D01*
X13454143Y-14339452D01*
X13444619Y-14320405D01*
X13444619Y-14301357D01*
X13454143Y-14282309D01*
X13473190Y-14272786D01*
X13520809Y-14272786D01*
X13539857Y-14263262D01*
X13635095Y-14215643D02*
X13635095Y-14415643D01*
X13635095Y-14225167D02*
X13654143Y-14215643D01*
X13692238Y-14215643D01*
X13711286Y-14225167D01*
X13720809Y-14234690D01*
X13730333Y-14253738D01*
X13730333Y-14310881D01*
X13720809Y-14329928D01*
X13711286Y-14339452D01*
X13692238Y-14348976D01*
X13654143Y-14348976D01*
X13635095Y-14339452D01*
X13816048Y-14329928D02*
X13825571Y-14339452D01*
X13816048Y-14348976D01*
X13806524Y-14339452D01*
X13816048Y-14329928D01*
X13816048Y-14348976D01*
X13816048Y-14225167D02*
X13825571Y-14234690D01*
X13816048Y-14244214D01*
X13806524Y-14234690D01*
X13816048Y-14225167D01*
X13816048Y-14244214D01*
D12*
X12147000Y-14658500D02*
X12187000Y-14698500D01*
X12187000Y-14658500D02*
X12147000Y-14698500D01*
D11*
X12482714Y-14568976D02*
X12501762Y-14568976D01*
X12520809Y-14578500D01*
X12530333Y-14588024D01*
X12539857Y-14607071D01*
X12549381Y-14645167D01*
X12549381Y-14692786D01*
X12539857Y-14730881D01*
X12530333Y-14749928D01*
X12520809Y-14759452D01*
X12501762Y-14768976D01*
X12482714Y-14768976D01*
X12463667Y-14759452D01*
X12454143Y-14749928D01*
X12444619Y-14730881D01*
X12435095Y-14692786D01*
X12435095Y-14645167D01*
X12444619Y-14607071D01*
X12454143Y-14588024D01*
X12463667Y-14578500D01*
X12482714Y-14568976D01*
X12635095Y-14749928D02*
X12644619Y-14759452D01*
X12635095Y-14768976D01*
X12625571Y-14759452D01*
X12635095Y-14749928D01*
X12635095Y-14768976D01*
X12816048Y-14635643D02*
X12816048Y-14768976D01*
X12768428Y-14559452D02*
X12720809Y-14702309D01*
X12844619Y-14702309D01*
X12958905Y-14568976D02*
X12977952Y-14568976D01*
X12997000Y-14578500D01*
X13006524Y-14588024D01*
X13016048Y-14607071D01*
X13025571Y-14645167D01*
X13025571Y-14692786D01*
X13016048Y-14730881D01*
X13006524Y-14749928D01*
X12997000Y-14759452D01*
X12977952Y-14768976D01*
X12958905Y-14768976D01*
X12939857Y-14759452D01*
X12930333Y-14749928D01*
X12920809Y-14730881D01*
X12911286Y-14692786D01*
X12911286Y-14645167D01*
X12920809Y-14607071D01*
X12930333Y-14588024D01*
X12939857Y-14578500D01*
X12958905Y-14568976D01*
X13149381Y-14568976D02*
X13168428Y-14568976D01*
X13187476Y-14578500D01*
X13197000Y-14588024D01*
X13206524Y-14607071D01*
X13216048Y-14645167D01*
X13216048Y-14692786D01*
X13206524Y-14730881D01*
X13197000Y-14749928D01*
X13187476Y-14759452D01*
X13168428Y-14768976D01*
X13149381Y-14768976D01*
X13130333Y-14759452D01*
X13120809Y-14749928D01*
X13111286Y-14730881D01*
X13101762Y-14692786D01*
X13101762Y-14645167D01*
X13111286Y-14607071D01*
X13120809Y-14588024D01*
X13130333Y-14578500D01*
X13149381Y-14568976D01*
X13301762Y-14768976D02*
X13301762Y-14635643D01*
X13301762Y-14654690D02*
X13311286Y-14645167D01*
X13330333Y-14635643D01*
X13358905Y-14635643D01*
X13377952Y-14645167D01*
X13387476Y-14664214D01*
X13387476Y-14768976D01*
X13387476Y-14664214D02*
X13397000Y-14645167D01*
X13416048Y-14635643D01*
X13444619Y-14635643D01*
X13463667Y-14645167D01*
X13473190Y-14664214D01*
X13473190Y-14768976D01*
X13568428Y-14768976D02*
X13568428Y-14635643D01*
X13568428Y-14654690D02*
X13577952Y-14645167D01*
X13597000Y-14635643D01*
X13625571Y-14635643D01*
X13644619Y-14645167D01*
X13654143Y-14664214D01*
X13654143Y-14768976D01*
X13654143Y-14664214D02*
X13663667Y-14645167D01*
X13682714Y-14635643D01*
X13711286Y-14635643D01*
X13730333Y-14645167D01*
X13739857Y-14664214D01*
X13739857Y-14768976D01*
X14130333Y-14559452D02*
X13958905Y-14816595D01*
X14387476Y-14568976D02*
X14406524Y-14568976D01*
X14425571Y-14578500D01*
X14435095Y-14588024D01*
X14444619Y-14607071D01*
X14454143Y-14645167D01*
X14454143Y-14692786D01*
X14444619Y-14730881D01*
X14435095Y-14749928D01*
X14425571Y-14759452D01*
X14406524Y-14768976D01*
X14387476Y-14768976D01*
X14368428Y-14759452D01*
X14358905Y-14749928D01*
X14349381Y-14730881D01*
X14339857Y-14692786D01*
X14339857Y-14645167D01*
X14349381Y-14607071D01*
X14358905Y-14588024D01*
X14368428Y-14578500D01*
X14387476Y-14568976D01*
X14539857Y-14749928D02*
X14549381Y-14759452D01*
X14539857Y-14768976D01*
X14530333Y-14759452D01*
X14539857Y-14749928D01*
X14539857Y-14768976D01*
X14673190Y-14568976D02*
X14692238Y-14568976D01*
X14711286Y-14578500D01*
X14720809Y-14588024D01*
X14730333Y-14607071D01*
X14739857Y-14645167D01*
X14739857Y-14692786D01*
X14730333Y-14730881D01*
X14720809Y-14749928D01*
X14711286Y-14759452D01*
X14692238Y-14768976D01*
X14673190Y-14768976D01*
X14654143Y-14759452D01*
X14644619Y-14749928D01*
X14635095Y-14730881D01*
X14625571Y-14692786D01*
X14625571Y-14645167D01*
X14635095Y-14607071D01*
X14644619Y-14588024D01*
X14654143Y-14578500D01*
X14673190Y-14568976D01*
X14930333Y-14768976D02*
X14816048Y-14768976D01*
X14873190Y-14768976D02*
X14873190Y-14568976D01*
X14854143Y-14597548D01*
X14835095Y-14616595D01*
X14816048Y-14626119D01*
X15111286Y-14568976D02*
X15016048Y-14568976D01*
X15006524Y-14664214D01*
X15016048Y-14654690D01*
X15035095Y-14645167D01*
X15082714Y-14645167D01*
X15101762Y-14654690D01*
X15111286Y-14664214D01*
X15120809Y-14683262D01*
X15120809Y-14730881D01*
X15111286Y-14749928D01*
X15101762Y-14759452D01*
X15082714Y-14768976D01*
X15035095Y-14768976D01*
X15016048Y-14759452D01*
X15006524Y-14749928D01*
X15187476Y-14568976D02*
X15320809Y-14568976D01*
X15235095Y-14768976D01*
X15387476Y-14568976D02*
X15387476Y-14607071D01*
X15463667Y-14568976D02*
X15463667Y-14607071D01*
X15758905Y-14845167D02*
X15749381Y-14835643D01*
X15730333Y-14807071D01*
X15720809Y-14788024D01*
X15711286Y-14759452D01*
X15701762Y-14711833D01*
X15701762Y-14673738D01*
X15711286Y-14626119D01*
X15720809Y-14597548D01*
X15730333Y-14578500D01*
X15749381Y-14549928D01*
X15758905Y-14540405D01*
X15816048Y-14568976D02*
X15939857Y-14568976D01*
X15873190Y-14645167D01*
X15901762Y-14645167D01*
X15920809Y-14654690D01*
X15930333Y-14664214D01*
X15939857Y-14683262D01*
X15939857Y-14730881D01*
X15930333Y-14749928D01*
X15920809Y-14759452D01*
X15901762Y-14768976D01*
X15844619Y-14768976D01*
X15825571Y-14759452D01*
X15816048Y-14749928D01*
X16177952Y-14768976D02*
X16177952Y-14568976D01*
X16263667Y-14768976D02*
X16263667Y-14664214D01*
X16254143Y-14645167D01*
X16235095Y-14635643D01*
X16206524Y-14635643D01*
X16187476Y-14645167D01*
X16177952Y-14654690D01*
X16387476Y-14768976D02*
X16368428Y-14759452D01*
X16358905Y-14749928D01*
X16349381Y-14730881D01*
X16349381Y-14673738D01*
X16358905Y-14654690D01*
X16368428Y-14645167D01*
X16387476Y-14635643D01*
X16416048Y-14635643D01*
X16435095Y-14645167D01*
X16444619Y-14654690D01*
X16454143Y-14673738D01*
X16454143Y-14730881D01*
X16444619Y-14749928D01*
X16435095Y-14759452D01*
X16416048Y-14768976D01*
X16387476Y-14768976D01*
X16568428Y-14768976D02*
X16549381Y-14759452D01*
X16539857Y-14740405D01*
X16539857Y-14568976D01*
X16720809Y-14759452D02*
X16701762Y-14768976D01*
X16663667Y-14768976D01*
X16644619Y-14759452D01*
X16635095Y-14740405D01*
X16635095Y-14664214D01*
X16644619Y-14645167D01*
X16663667Y-14635643D01*
X16701762Y-14635643D01*
X16720809Y-14645167D01*
X16730333Y-14664214D01*
X16730333Y-14683262D01*
X16635095Y-14702309D01*
X16806524Y-14759452D02*
X16825571Y-14768976D01*
X16863667Y-14768976D01*
X16882714Y-14759452D01*
X16892238Y-14740405D01*
X16892238Y-14730881D01*
X16882714Y-14711833D01*
X16863667Y-14702309D01*
X16835095Y-14702309D01*
X16816048Y-14692786D01*
X16806524Y-14673738D01*
X16806524Y-14664214D01*
X16816048Y-14645167D01*
X16835095Y-14635643D01*
X16863667Y-14635643D01*
X16882714Y-14645167D01*
X16958905Y-14845167D02*
X16968429Y-14835643D01*
X16987476Y-14807071D01*
X16997000Y-14788024D01*
X17006524Y-14759452D01*
X17016048Y-14711833D01*
X17016048Y-14673738D01*
X17006524Y-14626119D01*
X16997000Y-14597548D01*
X16987476Y-14578500D01*
X16968429Y-14549928D01*
X16958905Y-14540405D01*
D13*
X12187000Y-14942500D02*
G75*
G03*
X12187000Y-14942500I-30000J0D01*
G01*
D11*
X12482714Y-14832976D02*
X12501762Y-14832976D01*
X12520809Y-14842500D01*
X12530333Y-14852024D01*
X12539857Y-14871071D01*
X12549381Y-14909167D01*
X12549381Y-14956786D01*
X12539857Y-14994881D01*
X12530333Y-15013928D01*
X12520809Y-15023452D01*
X12501762Y-15032976D01*
X12482714Y-15032976D01*
X12463667Y-15023452D01*
X12454143Y-15013928D01*
X12444619Y-14994881D01*
X12435095Y-14956786D01*
X12435095Y-14909167D01*
X12444619Y-14871071D01*
X12454143Y-14852024D01*
X12463667Y-14842500D01*
X12482714Y-14832976D01*
X12635095Y-15013928D02*
X12644619Y-15023452D01*
X12635095Y-15032976D01*
X12625571Y-15023452D01*
X12635095Y-15013928D01*
X12635095Y-15032976D01*
X12816048Y-14832976D02*
X12777952Y-14832976D01*
X12758905Y-14842500D01*
X12749381Y-14852024D01*
X12730333Y-14880595D01*
X12720809Y-14918690D01*
X12720809Y-14994881D01*
X12730333Y-15013928D01*
X12739857Y-15023452D01*
X12758905Y-15032976D01*
X12797000Y-15032976D01*
X12816048Y-15023452D01*
X12825571Y-15013928D01*
X12835095Y-14994881D01*
X12835095Y-14947262D01*
X12825571Y-14928214D01*
X12816048Y-14918690D01*
X12797000Y-14909167D01*
X12758905Y-14909167D01*
X12739857Y-14918690D01*
X12730333Y-14928214D01*
X12720809Y-14947262D01*
X12958905Y-14832976D02*
X12977952Y-14832976D01*
X12997000Y-14842500D01*
X13006524Y-14852024D01*
X13016048Y-14871071D01*
X13025571Y-14909167D01*
X13025571Y-14956786D01*
X13016048Y-14994881D01*
X13006524Y-15013928D01*
X12997000Y-15023452D01*
X12977952Y-15032976D01*
X12958905Y-15032976D01*
X12939857Y-15023452D01*
X12930333Y-15013928D01*
X12920809Y-14994881D01*
X12911286Y-14956786D01*
X12911286Y-14909167D01*
X12920809Y-14871071D01*
X12930333Y-14852024D01*
X12939857Y-14842500D01*
X12958905Y-14832976D01*
X13149381Y-14832976D02*
X13168428Y-14832976D01*
X13187476Y-14842500D01*
X13197000Y-14852024D01*
X13206524Y-14871071D01*
X13216048Y-14909167D01*
X13216048Y-14956786D01*
X13206524Y-14994881D01*
X13197000Y-15013928D01*
X13187476Y-15023452D01*
X13168428Y-15032976D01*
X13149381Y-15032976D01*
X13130333Y-15023452D01*
X13120809Y-15013928D01*
X13111286Y-14994881D01*
X13101762Y-14956786D01*
X13101762Y-14909167D01*
X13111286Y-14871071D01*
X13120809Y-14852024D01*
X13130333Y-14842500D01*
X13149381Y-14832976D01*
X13301762Y-15032976D02*
X13301762Y-14899643D01*
X13301762Y-14918690D02*
X13311286Y-14909167D01*
X13330333Y-14899643D01*
X13358905Y-14899643D01*
X13377952Y-14909167D01*
X13387476Y-14928214D01*
X13387476Y-15032976D01*
X13387476Y-14928214D02*
X13397000Y-14909167D01*
X13416048Y-14899643D01*
X13444619Y-14899643D01*
X13463667Y-14909167D01*
X13473190Y-14928214D01*
X13473190Y-15032976D01*
X13568428Y-15032976D02*
X13568428Y-14899643D01*
X13568428Y-14918690D02*
X13577952Y-14909167D01*
X13597000Y-14899643D01*
X13625571Y-14899643D01*
X13644619Y-14909167D01*
X13654143Y-14928214D01*
X13654143Y-15032976D01*
X13654143Y-14928214D02*
X13663667Y-14909167D01*
X13682714Y-14899643D01*
X13711286Y-14899643D01*
X13730333Y-14909167D01*
X13739857Y-14928214D01*
X13739857Y-15032976D01*
X14130333Y-14823452D02*
X13958905Y-15080595D01*
X14387476Y-14832976D02*
X14406524Y-14832976D01*
X14425571Y-14842500D01*
X14435095Y-14852024D01*
X14444619Y-14871071D01*
X14454143Y-14909167D01*
X14454143Y-14956786D01*
X14444619Y-14994881D01*
X14435095Y-15013928D01*
X14425571Y-15023452D01*
X14406524Y-15032976D01*
X14387476Y-15032976D01*
X14368428Y-15023452D01*
X14358905Y-15013928D01*
X14349381Y-14994881D01*
X14339857Y-14956786D01*
X14339857Y-14909167D01*
X14349381Y-14871071D01*
X14358905Y-14852024D01*
X14368428Y-14842500D01*
X14387476Y-14832976D01*
X14539857Y-15013928D02*
X14549381Y-15023452D01*
X14539857Y-15032976D01*
X14530333Y-15023452D01*
X14539857Y-15013928D01*
X14539857Y-15032976D01*
X14673190Y-14832976D02*
X14692238Y-14832976D01*
X14711286Y-14842500D01*
X14720809Y-14852024D01*
X14730333Y-14871071D01*
X14739857Y-14909167D01*
X14739857Y-14956786D01*
X14730333Y-14994881D01*
X14720809Y-15013928D01*
X14711286Y-15023452D01*
X14692238Y-15032976D01*
X14673190Y-15032976D01*
X14654143Y-15023452D01*
X14644619Y-15013928D01*
X14635095Y-14994881D01*
X14625571Y-14956786D01*
X14625571Y-14909167D01*
X14635095Y-14871071D01*
X14644619Y-14852024D01*
X14654143Y-14842500D01*
X14673190Y-14832976D01*
X14816048Y-14852024D02*
X14825571Y-14842500D01*
X14844619Y-14832976D01*
X14892238Y-14832976D01*
X14911286Y-14842500D01*
X14920809Y-14852024D01*
X14930333Y-14871071D01*
X14930333Y-14890119D01*
X14920809Y-14918690D01*
X14806524Y-15032976D01*
X14930333Y-15032976D01*
X14997000Y-14832976D02*
X15120809Y-14832976D01*
X15054143Y-14909167D01*
X15082714Y-14909167D01*
X15101762Y-14918690D01*
X15111286Y-14928214D01*
X15120809Y-14947262D01*
X15120809Y-14994881D01*
X15111286Y-15013928D01*
X15101762Y-15023452D01*
X15082714Y-15032976D01*
X15025571Y-15032976D01*
X15006524Y-15023452D01*
X14997000Y-15013928D01*
X15292238Y-14832976D02*
X15254143Y-14832976D01*
X15235095Y-14842500D01*
X15225571Y-14852024D01*
X15206524Y-14880595D01*
X15197000Y-14918690D01*
X15197000Y-14994881D01*
X15206524Y-15013928D01*
X15216048Y-15023452D01*
X15235095Y-15032976D01*
X15273190Y-15032976D01*
X15292238Y-15023452D01*
X15301762Y-15013928D01*
X15311286Y-14994881D01*
X15311286Y-14947262D01*
X15301762Y-14928214D01*
X15292238Y-14918690D01*
X15273190Y-14909167D01*
X15235095Y-14909167D01*
X15216048Y-14918690D01*
X15206524Y-14928214D01*
X15197000Y-14947262D01*
X15387476Y-14832976D02*
X15387476Y-14871071D01*
X15463667Y-14832976D02*
X15463667Y-14871071D01*
X15758905Y-15109167D02*
X15749381Y-15099643D01*
X15730333Y-15071071D01*
X15720809Y-15052024D01*
X15711286Y-15023452D01*
X15701762Y-14975833D01*
X15701762Y-14937738D01*
X15711286Y-14890119D01*
X15720809Y-14861548D01*
X15730333Y-14842500D01*
X15749381Y-14813928D01*
X15758905Y-14804405D01*
X15873190Y-14832976D02*
X15892238Y-14832976D01*
X15911286Y-14842500D01*
X15920809Y-14852024D01*
X15930333Y-14871071D01*
X15939857Y-14909167D01*
X15939857Y-14956786D01*
X15930333Y-14994881D01*
X15920809Y-15013928D01*
X15911286Y-15023452D01*
X15892238Y-15032976D01*
X15873190Y-15032976D01*
X15854143Y-15023452D01*
X15844619Y-15013928D01*
X15835095Y-14994881D01*
X15825571Y-14956786D01*
X15825571Y-14909167D01*
X15835095Y-14871071D01*
X15844619Y-14852024D01*
X15854143Y-14842500D01*
X15873190Y-14832976D01*
X16177952Y-15032976D02*
X16177952Y-14832976D01*
X16263667Y-15032976D02*
X16263667Y-14928214D01*
X16254143Y-14909167D01*
X16235095Y-14899643D01*
X16206524Y-14899643D01*
X16187476Y-14909167D01*
X16177952Y-14918690D01*
X16387476Y-15032976D02*
X16368428Y-15023452D01*
X16358905Y-15013928D01*
X16349381Y-14994881D01*
X16349381Y-14937738D01*
X16358905Y-14918690D01*
X16368428Y-14909167D01*
X16387476Y-14899643D01*
X16416048Y-14899643D01*
X16435095Y-14909167D01*
X16444619Y-14918690D01*
X16454143Y-14937738D01*
X16454143Y-14994881D01*
X16444619Y-15013928D01*
X16435095Y-15023452D01*
X16416048Y-15032976D01*
X16387476Y-15032976D01*
X16568428Y-15032976D02*
X16549381Y-15023452D01*
X16539857Y-15004405D01*
X16539857Y-14832976D01*
X16720809Y-15023452D02*
X16701762Y-15032976D01*
X16663667Y-15032976D01*
X16644619Y-15023452D01*
X16635095Y-15004405D01*
X16635095Y-14928214D01*
X16644619Y-14909167D01*
X16663667Y-14899643D01*
X16701762Y-14899643D01*
X16720809Y-14909167D01*
X16730333Y-14928214D01*
X16730333Y-14947262D01*
X16635095Y-14966309D01*
X16806524Y-15023452D02*
X16825571Y-15032976D01*
X16863667Y-15032976D01*
X16882714Y-15023452D01*
X16892238Y-15004405D01*
X16892238Y-14994881D01*
X16882714Y-14975833D01*
X16863667Y-14966309D01*
X16835095Y-14966309D01*
X16816048Y-14956786D01*
X16806524Y-14937738D01*
X16806524Y-14928214D01*
X16816048Y-14909167D01*
X16835095Y-14899643D01*
X16863667Y-14899643D01*
X16882714Y-14909167D01*
X17130333Y-14956786D02*
X17282714Y-14956786D01*
X17206524Y-15032976D02*
X17206524Y-14880595D01*
X17520810Y-14852024D02*
X17530333Y-14842500D01*
X17549381Y-14832976D01*
X17597000Y-14832976D01*
X17616048Y-14842500D01*
X17625571Y-14852024D01*
X17635095Y-14871071D01*
X17635095Y-14890119D01*
X17625571Y-14918690D01*
X17511286Y-15032976D01*
X17635095Y-15032976D01*
X17863667Y-15023452D02*
X17882714Y-15032976D01*
X17920810Y-15032976D01*
X17939857Y-15023452D01*
X17949381Y-15004405D01*
X17949381Y-14994881D01*
X17939857Y-14975833D01*
X17920810Y-14966309D01*
X17892238Y-14966309D01*
X17873190Y-14956786D01*
X17863667Y-14937738D01*
X17863667Y-14928214D01*
X17873190Y-14909167D01*
X17892238Y-14899643D01*
X17920810Y-14899643D01*
X17939857Y-14909167D01*
X18063667Y-15032976D02*
X18044619Y-15023452D01*
X18035095Y-15004405D01*
X18035095Y-14832976D01*
X18168429Y-15032976D02*
X18149381Y-15023452D01*
X18139857Y-15013928D01*
X18130333Y-14994881D01*
X18130333Y-14937738D01*
X18139857Y-14918690D01*
X18149381Y-14909167D01*
X18168429Y-14899643D01*
X18197000Y-14899643D01*
X18216048Y-14909167D01*
X18225571Y-14918690D01*
X18235095Y-14937738D01*
X18235095Y-14994881D01*
X18225571Y-15013928D01*
X18216048Y-15023452D01*
X18197000Y-15032976D01*
X18168429Y-15032976D01*
X18292238Y-14899643D02*
X18368429Y-14899643D01*
X18320810Y-14832976D02*
X18320810Y-15004405D01*
X18330333Y-15023452D01*
X18349381Y-15032976D01*
X18368429Y-15032976D01*
X18425571Y-15023452D02*
X18444619Y-15032976D01*
X18482714Y-15032976D01*
X18501762Y-15023452D01*
X18511286Y-15004405D01*
X18511286Y-14994881D01*
X18501762Y-14975833D01*
X18482714Y-14966309D01*
X18454143Y-14966309D01*
X18435095Y-14956786D01*
X18425571Y-14937738D01*
X18425571Y-14928214D01*
X18435095Y-14909167D01*
X18454143Y-14899643D01*
X18482714Y-14899643D01*
X18501762Y-14909167D01*
X18577952Y-15109167D02*
X18587476Y-15099643D01*
X18606524Y-15071071D01*
X18616048Y-15052024D01*
X18625571Y-15023452D01*
X18635095Y-14975833D01*
X18635095Y-14937738D01*
X18625571Y-14890119D01*
X18616048Y-14861548D01*
X18606524Y-14842500D01*
X18587476Y-14813928D01*
X18577952Y-14804405D01*
D14*
X12152000Y-15171500D02*
X12152000Y-15241500D01*
X12117000Y-15206500D02*
X12187000Y-15206500D01*
D11*
X12482714Y-15096976D02*
X12501762Y-15096976D01*
X12520809Y-15106500D01*
X12530333Y-15116024D01*
X12539857Y-15135071D01*
X12549381Y-15173167D01*
X12549381Y-15220786D01*
X12539857Y-15258881D01*
X12530333Y-15277928D01*
X12520809Y-15287452D01*
X12501762Y-15296976D01*
X12482714Y-15296976D01*
X12463667Y-15287452D01*
X12454143Y-15277928D01*
X12444619Y-15258881D01*
X12435095Y-15220786D01*
X12435095Y-15173167D01*
X12444619Y-15135071D01*
X12454143Y-15116024D01*
X12463667Y-15106500D01*
X12482714Y-15096976D01*
X12635095Y-15277928D02*
X12644619Y-15287452D01*
X12635095Y-15296976D01*
X12625571Y-15287452D01*
X12635095Y-15277928D01*
X12635095Y-15296976D01*
X12711286Y-15096976D02*
X12844619Y-15096976D01*
X12758905Y-15296976D01*
X12958905Y-15096976D02*
X12977952Y-15096976D01*
X12997000Y-15106500D01*
X13006524Y-15116024D01*
X13016048Y-15135071D01*
X13025571Y-15173167D01*
X13025571Y-15220786D01*
X13016048Y-15258881D01*
X13006524Y-15277928D01*
X12997000Y-15287452D01*
X12977952Y-15296976D01*
X12958905Y-15296976D01*
X12939857Y-15287452D01*
X12930333Y-15277928D01*
X12920809Y-15258881D01*
X12911286Y-15220786D01*
X12911286Y-15173167D01*
X12920809Y-15135071D01*
X12930333Y-15116024D01*
X12939857Y-15106500D01*
X12958905Y-15096976D01*
X13149381Y-15096976D02*
X13168428Y-15096976D01*
X13187476Y-15106500D01*
X13197000Y-15116024D01*
X13206524Y-15135071D01*
X13216048Y-15173167D01*
X13216048Y-15220786D01*
X13206524Y-15258881D01*
X13197000Y-15277928D01*
X13187476Y-15287452D01*
X13168428Y-15296976D01*
X13149381Y-15296976D01*
X13130333Y-15287452D01*
X13120809Y-15277928D01*
X13111286Y-15258881D01*
X13101762Y-15220786D01*
X13101762Y-15173167D01*
X13111286Y-15135071D01*
X13120809Y-15116024D01*
X13130333Y-15106500D01*
X13149381Y-15096976D01*
X13301762Y-15296976D02*
X13301762Y-15163643D01*
X13301762Y-15182690D02*
X13311286Y-15173167D01*
X13330333Y-15163643D01*
X13358905Y-15163643D01*
X13377952Y-15173167D01*
X13387476Y-15192214D01*
X13387476Y-15296976D01*
X13387476Y-15192214D02*
X13397000Y-15173167D01*
X13416048Y-15163643D01*
X13444619Y-15163643D01*
X13463667Y-15173167D01*
X13473190Y-15192214D01*
X13473190Y-15296976D01*
X13568428Y-15296976D02*
X13568428Y-15163643D01*
X13568428Y-15182690D02*
X13577952Y-15173167D01*
X13597000Y-15163643D01*
X13625571Y-15163643D01*
X13644619Y-15173167D01*
X13654143Y-15192214D01*
X13654143Y-15296976D01*
X13654143Y-15192214D02*
X13663667Y-15173167D01*
X13682714Y-15163643D01*
X13711286Y-15163643D01*
X13730333Y-15173167D01*
X13739857Y-15192214D01*
X13739857Y-15296976D01*
X14130333Y-15087452D02*
X13958905Y-15344595D01*
X14387476Y-15096976D02*
X14406524Y-15096976D01*
X14425571Y-15106500D01*
X14435095Y-15116024D01*
X14444619Y-15135071D01*
X14454143Y-15173167D01*
X14454143Y-15220786D01*
X14444619Y-15258881D01*
X14435095Y-15277928D01*
X14425571Y-15287452D01*
X14406524Y-15296976D01*
X14387476Y-15296976D01*
X14368428Y-15287452D01*
X14358905Y-15277928D01*
X14349381Y-15258881D01*
X14339857Y-15220786D01*
X14339857Y-15173167D01*
X14349381Y-15135071D01*
X14358905Y-15116024D01*
X14368428Y-15106500D01*
X14387476Y-15096976D01*
X14539857Y-15277928D02*
X14549381Y-15287452D01*
X14539857Y-15296976D01*
X14530333Y-15287452D01*
X14539857Y-15277928D01*
X14539857Y-15296976D01*
X14673190Y-15096976D02*
X14692238Y-15096976D01*
X14711286Y-15106500D01*
X14720809Y-15116024D01*
X14730333Y-15135071D01*
X14739857Y-15173167D01*
X14739857Y-15220786D01*
X14730333Y-15258881D01*
X14720809Y-15277928D01*
X14711286Y-15287452D01*
X14692238Y-15296976D01*
X14673190Y-15296976D01*
X14654143Y-15287452D01*
X14644619Y-15277928D01*
X14635095Y-15258881D01*
X14625571Y-15220786D01*
X14625571Y-15173167D01*
X14635095Y-15135071D01*
X14644619Y-15116024D01*
X14654143Y-15106500D01*
X14673190Y-15096976D01*
X14816048Y-15116024D02*
X14825571Y-15106500D01*
X14844619Y-15096976D01*
X14892238Y-15096976D01*
X14911286Y-15106500D01*
X14920809Y-15116024D01*
X14930333Y-15135071D01*
X14930333Y-15154119D01*
X14920809Y-15182690D01*
X14806524Y-15296976D01*
X14930333Y-15296976D01*
X14997000Y-15096976D02*
X15130333Y-15096976D01*
X15044619Y-15296976D01*
X15292238Y-15096976D02*
X15254143Y-15096976D01*
X15235095Y-15106500D01*
X15225571Y-15116024D01*
X15206524Y-15144595D01*
X15197000Y-15182690D01*
X15197000Y-15258881D01*
X15206524Y-15277928D01*
X15216048Y-15287452D01*
X15235095Y-15296976D01*
X15273190Y-15296976D01*
X15292238Y-15287452D01*
X15301762Y-15277928D01*
X15311286Y-15258881D01*
X15311286Y-15211262D01*
X15301762Y-15192214D01*
X15292238Y-15182690D01*
X15273190Y-15173167D01*
X15235095Y-15173167D01*
X15216048Y-15182690D01*
X15206524Y-15192214D01*
X15197000Y-15211262D01*
X15387476Y-15096976D02*
X15387476Y-15135071D01*
X15463667Y-15096976D02*
X15463667Y-15135071D01*
X15758905Y-15373167D02*
X15749381Y-15363643D01*
X15730333Y-15335071D01*
X15720809Y-15316024D01*
X15711286Y-15287452D01*
X15701762Y-15239833D01*
X15701762Y-15201738D01*
X15711286Y-15154119D01*
X15720809Y-15125548D01*
X15730333Y-15106500D01*
X15749381Y-15077928D01*
X15758905Y-15068405D01*
X15825571Y-15116024D02*
X15835095Y-15106500D01*
X15854143Y-15096976D01*
X15901762Y-15096976D01*
X15920809Y-15106500D01*
X15930333Y-15116024D01*
X15939857Y-15135071D01*
X15939857Y-15154119D01*
X15930333Y-15182690D01*
X15816048Y-15296976D01*
X15939857Y-15296976D01*
X16063667Y-15096976D02*
X16082714Y-15096976D01*
X16101762Y-15106500D01*
X16111286Y-15116024D01*
X16120809Y-15135071D01*
X16130333Y-15173167D01*
X16130333Y-15220786D01*
X16120809Y-15258881D01*
X16111286Y-15277928D01*
X16101762Y-15287452D01*
X16082714Y-15296976D01*
X16063667Y-15296976D01*
X16044619Y-15287452D01*
X16035095Y-15277928D01*
X16025571Y-15258881D01*
X16016048Y-15220786D01*
X16016048Y-15173167D01*
X16025571Y-15135071D01*
X16035095Y-15116024D01*
X16044619Y-15106500D01*
X16063667Y-15096976D01*
X16368428Y-15296976D02*
X16368428Y-15096976D01*
X16454143Y-15296976D02*
X16454143Y-15192214D01*
X16444619Y-15173167D01*
X16425571Y-15163643D01*
X16397000Y-15163643D01*
X16377952Y-15173167D01*
X16368428Y-15182690D01*
X16577952Y-15296976D02*
X16558905Y-15287452D01*
X16549381Y-15277928D01*
X16539857Y-15258881D01*
X16539857Y-15201738D01*
X16549381Y-15182690D01*
X16558905Y-15173167D01*
X16577952Y-15163643D01*
X16606524Y-15163643D01*
X16625571Y-15173167D01*
X16635095Y-15182690D01*
X16644619Y-15201738D01*
X16644619Y-15258881D01*
X16635095Y-15277928D01*
X16625571Y-15287452D01*
X16606524Y-15296976D01*
X16577952Y-15296976D01*
X16758905Y-15296976D02*
X16739857Y-15287452D01*
X16730333Y-15268405D01*
X16730333Y-15096976D01*
X16911286Y-15287452D02*
X16892238Y-15296976D01*
X16854143Y-15296976D01*
X16835095Y-15287452D01*
X16825571Y-15268405D01*
X16825571Y-15192214D01*
X16835095Y-15173167D01*
X16854143Y-15163643D01*
X16892238Y-15163643D01*
X16911286Y-15173167D01*
X16920810Y-15192214D01*
X16920810Y-15211262D01*
X16825571Y-15230309D01*
X16997000Y-15287452D02*
X17016048Y-15296976D01*
X17054143Y-15296976D01*
X17073190Y-15287452D01*
X17082714Y-15268405D01*
X17082714Y-15258881D01*
X17073190Y-15239833D01*
X17054143Y-15230309D01*
X17025571Y-15230309D01*
X17006524Y-15220786D01*
X16997000Y-15201738D01*
X16997000Y-15192214D01*
X17006524Y-15173167D01*
X17025571Y-15163643D01*
X17054143Y-15163643D01*
X17073190Y-15173167D01*
X17149381Y-15373167D02*
X17158905Y-15363643D01*
X17177952Y-15335071D01*
X17187476Y-15316024D01*
X17197000Y-15287452D01*
X17206524Y-15239833D01*
X17206524Y-15201738D01*
X17197000Y-15154119D01*
X17187476Y-15125548D01*
X17177952Y-15106500D01*
X17158905Y-15077928D01*
X17149381Y-15068405D01*
D15*
X12175284Y-15498784D02*
X12175284Y-15442215D01*
X12118715Y-15442215D01*
X12118715Y-15498784D01*
X12175284Y-15498784D01*
D11*
X12482714Y-15360976D02*
X12501762Y-15360976D01*
X12520809Y-15370500D01*
X12530333Y-15380024D01*
X12539857Y-15399071D01*
X12549381Y-15437167D01*
X12549381Y-15484786D01*
X12539857Y-15522881D01*
X12530333Y-15541928D01*
X12520809Y-15551452D01*
X12501762Y-15560976D01*
X12482714Y-15560976D01*
X12463667Y-15551452D01*
X12454143Y-15541928D01*
X12444619Y-15522881D01*
X12435095Y-15484786D01*
X12435095Y-15437167D01*
X12444619Y-15399071D01*
X12454143Y-15380024D01*
X12463667Y-15370500D01*
X12482714Y-15360976D01*
X12635095Y-15541928D02*
X12644619Y-15551452D01*
X12635095Y-15560976D01*
X12625571Y-15551452D01*
X12635095Y-15541928D01*
X12635095Y-15560976D01*
X12758905Y-15446690D02*
X12739857Y-15437167D01*
X12730333Y-15427643D01*
X12720809Y-15408595D01*
X12720809Y-15399071D01*
X12730333Y-15380024D01*
X12739857Y-15370500D01*
X12758905Y-15360976D01*
X12797000Y-15360976D01*
X12816048Y-15370500D01*
X12825571Y-15380024D01*
X12835095Y-15399071D01*
X12835095Y-15408595D01*
X12825571Y-15427643D01*
X12816048Y-15437167D01*
X12797000Y-15446690D01*
X12758905Y-15446690D01*
X12739857Y-15456214D01*
X12730333Y-15465738D01*
X12720809Y-15484786D01*
X12720809Y-15522881D01*
X12730333Y-15541928D01*
X12739857Y-15551452D01*
X12758905Y-15560976D01*
X12797000Y-15560976D01*
X12816048Y-15551452D01*
X12825571Y-15541928D01*
X12835095Y-15522881D01*
X12835095Y-15484786D01*
X12825571Y-15465738D01*
X12816048Y-15456214D01*
X12797000Y-15446690D01*
X12958905Y-15360976D02*
X12977952Y-15360976D01*
X12997000Y-15370500D01*
X13006524Y-15380024D01*
X13016048Y-15399071D01*
X13025571Y-15437167D01*
X13025571Y-15484786D01*
X13016048Y-15522881D01*
X13006524Y-15541928D01*
X12997000Y-15551452D01*
X12977952Y-15560976D01*
X12958905Y-15560976D01*
X12939857Y-15551452D01*
X12930333Y-15541928D01*
X12920809Y-15522881D01*
X12911286Y-15484786D01*
X12911286Y-15437167D01*
X12920809Y-15399071D01*
X12930333Y-15380024D01*
X12939857Y-15370500D01*
X12958905Y-15360976D01*
X13149381Y-15360976D02*
X13168428Y-15360976D01*
X13187476Y-15370500D01*
X13197000Y-15380024D01*
X13206524Y-15399071D01*
X13216048Y-15437167D01*
X13216048Y-15484786D01*
X13206524Y-15522881D01*
X13197000Y-15541928D01*
X13187476Y-15551452D01*
X13168428Y-15560976D01*
X13149381Y-15560976D01*
X13130333Y-15551452D01*
X13120809Y-15541928D01*
X13111286Y-15522881D01*
X13101762Y-15484786D01*
X13101762Y-15437167D01*
X13111286Y-15399071D01*
X13120809Y-15380024D01*
X13130333Y-15370500D01*
X13149381Y-15360976D01*
X13301762Y-15560976D02*
X13301762Y-15427643D01*
X13301762Y-15446690D02*
X13311286Y-15437167D01*
X13330333Y-15427643D01*
X13358905Y-15427643D01*
X13377952Y-15437167D01*
X13387476Y-15456214D01*
X13387476Y-15560976D01*
X13387476Y-15456214D02*
X13397000Y-15437167D01*
X13416048Y-15427643D01*
X13444619Y-15427643D01*
X13463667Y-15437167D01*
X13473190Y-15456214D01*
X13473190Y-15560976D01*
X13568428Y-15560976D02*
X13568428Y-15427643D01*
X13568428Y-15446690D02*
X13577952Y-15437167D01*
X13597000Y-15427643D01*
X13625571Y-15427643D01*
X13644619Y-15437167D01*
X13654143Y-15456214D01*
X13654143Y-15560976D01*
X13654143Y-15456214D02*
X13663667Y-15437167D01*
X13682714Y-15427643D01*
X13711286Y-15427643D01*
X13730333Y-15437167D01*
X13739857Y-15456214D01*
X13739857Y-15560976D01*
X14130333Y-15351452D02*
X13958905Y-15608595D01*
X14387476Y-15360976D02*
X14406524Y-15360976D01*
X14425571Y-15370500D01*
X14435095Y-15380024D01*
X14444619Y-15399071D01*
X14454143Y-15437167D01*
X14454143Y-15484786D01*
X14444619Y-15522881D01*
X14435095Y-15541928D01*
X14425571Y-15551452D01*
X14406524Y-15560976D01*
X14387476Y-15560976D01*
X14368428Y-15551452D01*
X14358905Y-15541928D01*
X14349381Y-15522881D01*
X14339857Y-15484786D01*
X14339857Y-15437167D01*
X14349381Y-15399071D01*
X14358905Y-15380024D01*
X14368428Y-15370500D01*
X14387476Y-15360976D01*
X14539857Y-15541928D02*
X14549381Y-15551452D01*
X14539857Y-15560976D01*
X14530333Y-15551452D01*
X14539857Y-15541928D01*
X14539857Y-15560976D01*
X14673190Y-15360976D02*
X14692238Y-15360976D01*
X14711286Y-15370500D01*
X14720809Y-15380024D01*
X14730333Y-15399071D01*
X14739857Y-15437167D01*
X14739857Y-15484786D01*
X14730333Y-15522881D01*
X14720809Y-15541928D01*
X14711286Y-15551452D01*
X14692238Y-15560976D01*
X14673190Y-15560976D01*
X14654143Y-15551452D01*
X14644619Y-15541928D01*
X14635095Y-15522881D01*
X14625571Y-15484786D01*
X14625571Y-15437167D01*
X14635095Y-15399071D01*
X14644619Y-15380024D01*
X14654143Y-15370500D01*
X14673190Y-15360976D01*
X14806524Y-15360976D02*
X14930333Y-15360976D01*
X14863667Y-15437167D01*
X14892238Y-15437167D01*
X14911286Y-15446690D01*
X14920809Y-15456214D01*
X14930333Y-15475262D01*
X14930333Y-15522881D01*
X14920809Y-15541928D01*
X14911286Y-15551452D01*
X14892238Y-15560976D01*
X14835095Y-15560976D01*
X14816048Y-15551452D01*
X14806524Y-15541928D01*
X15120809Y-15560976D02*
X15006524Y-15560976D01*
X15063667Y-15560976D02*
X15063667Y-15360976D01*
X15044619Y-15389548D01*
X15025571Y-15408595D01*
X15006524Y-15418119D01*
X15301762Y-15360976D02*
X15206524Y-15360976D01*
X15197000Y-15456214D01*
X15206524Y-15446690D01*
X15225571Y-15437167D01*
X15273190Y-15437167D01*
X15292238Y-15446690D01*
X15301762Y-15456214D01*
X15311286Y-15475262D01*
X15311286Y-15522881D01*
X15301762Y-15541928D01*
X15292238Y-15551452D01*
X15273190Y-15560976D01*
X15225571Y-15560976D01*
X15206524Y-15551452D01*
X15197000Y-15541928D01*
X15387476Y-15360976D02*
X15387476Y-15399071D01*
X15463667Y-15360976D02*
X15463667Y-15399071D01*
X15758905Y-15637167D02*
X15749381Y-15627643D01*
X15730333Y-15599071D01*
X15720809Y-15580024D01*
X15711286Y-15551452D01*
X15701762Y-15503833D01*
X15701762Y-15465738D01*
X15711286Y-15418119D01*
X15720809Y-15389548D01*
X15730333Y-15370500D01*
X15749381Y-15341928D01*
X15758905Y-15332405D01*
X15920809Y-15360976D02*
X15882714Y-15360976D01*
X15863667Y-15370500D01*
X15854143Y-15380024D01*
X15835095Y-15408595D01*
X15825571Y-15446690D01*
X15825571Y-15522881D01*
X15835095Y-15541928D01*
X15844619Y-15551452D01*
X15863667Y-15560976D01*
X15901762Y-15560976D01*
X15920809Y-15551452D01*
X15930333Y-15541928D01*
X15939857Y-15522881D01*
X15939857Y-15475262D01*
X15930333Y-15456214D01*
X15920809Y-15446690D01*
X15901762Y-15437167D01*
X15863667Y-15437167D01*
X15844619Y-15446690D01*
X15835095Y-15456214D01*
X15825571Y-15475262D01*
X16016048Y-15380024D02*
X16025571Y-15370500D01*
X16044619Y-15360976D01*
X16092238Y-15360976D01*
X16111286Y-15370500D01*
X16120809Y-15380024D01*
X16130333Y-15399071D01*
X16130333Y-15418119D01*
X16120809Y-15446690D01*
X16006524Y-15560976D01*
X16130333Y-15560976D01*
X16368428Y-15560976D02*
X16368428Y-15360976D01*
X16454143Y-15560976D02*
X16454143Y-15456214D01*
X16444619Y-15437167D01*
X16425571Y-15427643D01*
X16397000Y-15427643D01*
X16377952Y-15437167D01*
X16368428Y-15446690D01*
X16577952Y-15560976D02*
X16558905Y-15551452D01*
X16549381Y-15541928D01*
X16539857Y-15522881D01*
X16539857Y-15465738D01*
X16549381Y-15446690D01*
X16558905Y-15437167D01*
X16577952Y-15427643D01*
X16606524Y-15427643D01*
X16625571Y-15437167D01*
X16635095Y-15446690D01*
X16644619Y-15465738D01*
X16644619Y-15522881D01*
X16635095Y-15541928D01*
X16625571Y-15551452D01*
X16606524Y-15560976D01*
X16577952Y-15560976D01*
X16758905Y-15560976D02*
X16739857Y-15551452D01*
X16730333Y-15532405D01*
X16730333Y-15360976D01*
X16911286Y-15551452D02*
X16892238Y-15560976D01*
X16854143Y-15560976D01*
X16835095Y-15551452D01*
X16825571Y-15532405D01*
X16825571Y-15456214D01*
X16835095Y-15437167D01*
X16854143Y-15427643D01*
X16892238Y-15427643D01*
X16911286Y-15437167D01*
X16920810Y-15456214D01*
X16920810Y-15475262D01*
X16825571Y-15494309D01*
X16997000Y-15551452D02*
X17016048Y-15560976D01*
X17054143Y-15560976D01*
X17073190Y-15551452D01*
X17082714Y-15532405D01*
X17082714Y-15522881D01*
X17073190Y-15503833D01*
X17054143Y-15494309D01*
X17025571Y-15494309D01*
X17006524Y-15484786D01*
X16997000Y-15465738D01*
X16997000Y-15456214D01*
X17006524Y-15437167D01*
X17025571Y-15427643D01*
X17054143Y-15427643D01*
X17073190Y-15437167D01*
X17149381Y-15637167D02*
X17158905Y-15627643D01*
X17177952Y-15599071D01*
X17187476Y-15580024D01*
X17197000Y-15551452D01*
X17206524Y-15503833D01*
X17206524Y-15465738D01*
X17197000Y-15418119D01*
X17187476Y-15389548D01*
X17177952Y-15370500D01*
X17158905Y-15341928D01*
X17149381Y-15332405D01*
D16*
X12144500Y-15777000D02*
X12187000Y-15734500D01*
X12144500Y-15692000D01*
X12102000Y-15734500D01*
X12144500Y-15777000D01*
D11*
X12482714Y-15624976D02*
X12501762Y-15624976D01*
X12520809Y-15634500D01*
X12530333Y-15644024D01*
X12539857Y-15663071D01*
X12549381Y-15701167D01*
X12549381Y-15748786D01*
X12539857Y-15786881D01*
X12530333Y-15805928D01*
X12520809Y-15815452D01*
X12501762Y-15824976D01*
X12482714Y-15824976D01*
X12463667Y-15815452D01*
X12454143Y-15805928D01*
X12444619Y-15786881D01*
X12435095Y-15748786D01*
X12435095Y-15701167D01*
X12444619Y-15663071D01*
X12454143Y-15644024D01*
X12463667Y-15634500D01*
X12482714Y-15624976D01*
X12635095Y-15805928D02*
X12644619Y-15815452D01*
X12635095Y-15824976D01*
X12625571Y-15815452D01*
X12635095Y-15805928D01*
X12635095Y-15824976D01*
X12758905Y-15710690D02*
X12739857Y-15701167D01*
X12730333Y-15691643D01*
X12720809Y-15672595D01*
X12720809Y-15663071D01*
X12730333Y-15644024D01*
X12739857Y-15634500D01*
X12758905Y-15624976D01*
X12797000Y-15624976D01*
X12816048Y-15634500D01*
X12825571Y-15644024D01*
X12835095Y-15663071D01*
X12835095Y-15672595D01*
X12825571Y-15691643D01*
X12816048Y-15701167D01*
X12797000Y-15710690D01*
X12758905Y-15710690D01*
X12739857Y-15720214D01*
X12730333Y-15729738D01*
X12720809Y-15748786D01*
X12720809Y-15786881D01*
X12730333Y-15805928D01*
X12739857Y-15815452D01*
X12758905Y-15824976D01*
X12797000Y-15824976D01*
X12816048Y-15815452D01*
X12825571Y-15805928D01*
X12835095Y-15786881D01*
X12835095Y-15748786D01*
X12825571Y-15729738D01*
X12816048Y-15720214D01*
X12797000Y-15710690D01*
X13016048Y-15624976D02*
X12920809Y-15624976D01*
X12911286Y-15720214D01*
X12920809Y-15710690D01*
X12939857Y-15701167D01*
X12987476Y-15701167D01*
X13006524Y-15710690D01*
X13016048Y-15720214D01*
X13025571Y-15739262D01*
X13025571Y-15786881D01*
X13016048Y-15805928D01*
X13006524Y-15815452D01*
X12987476Y-15824976D01*
X12939857Y-15824976D01*
X12920809Y-15815452D01*
X12911286Y-15805928D01*
X13149381Y-15624976D02*
X13168428Y-15624976D01*
X13187476Y-15634500D01*
X13197000Y-15644024D01*
X13206524Y-15663071D01*
X13216048Y-15701167D01*
X13216048Y-15748786D01*
X13206524Y-15786881D01*
X13197000Y-15805928D01*
X13187476Y-15815452D01*
X13168428Y-15824976D01*
X13149381Y-15824976D01*
X13130333Y-15815452D01*
X13120809Y-15805928D01*
X13111286Y-15786881D01*
X13101762Y-15748786D01*
X13101762Y-15701167D01*
X13111286Y-15663071D01*
X13120809Y-15644024D01*
X13130333Y-15634500D01*
X13149381Y-15624976D01*
X13301762Y-15824976D02*
X13301762Y-15691643D01*
X13301762Y-15710690D02*
X13311286Y-15701167D01*
X13330333Y-15691643D01*
X13358905Y-15691643D01*
X13377952Y-15701167D01*
X13387476Y-15720214D01*
X13387476Y-15824976D01*
X13387476Y-15720214D02*
X13397000Y-15701167D01*
X13416048Y-15691643D01*
X13444619Y-15691643D01*
X13463667Y-15701167D01*
X13473190Y-15720214D01*
X13473190Y-15824976D01*
X13568428Y-15824976D02*
X13568428Y-15691643D01*
X13568428Y-15710690D02*
X13577952Y-15701167D01*
X13597000Y-15691643D01*
X13625571Y-15691643D01*
X13644619Y-15701167D01*
X13654143Y-15720214D01*
X13654143Y-15824976D01*
X13654143Y-15720214D02*
X13663667Y-15701167D01*
X13682714Y-15691643D01*
X13711286Y-15691643D01*
X13730333Y-15701167D01*
X13739857Y-15720214D01*
X13739857Y-15824976D01*
X14130333Y-15615452D02*
X13958905Y-15872595D01*
X14387476Y-15624976D02*
X14406524Y-15624976D01*
X14425571Y-15634500D01*
X14435095Y-15644024D01*
X14444619Y-15663071D01*
X14454143Y-15701167D01*
X14454143Y-15748786D01*
X14444619Y-15786881D01*
X14435095Y-15805928D01*
X14425571Y-15815452D01*
X14406524Y-15824976D01*
X14387476Y-15824976D01*
X14368428Y-15815452D01*
X14358905Y-15805928D01*
X14349381Y-15786881D01*
X14339857Y-15748786D01*
X14339857Y-15701167D01*
X14349381Y-15663071D01*
X14358905Y-15644024D01*
X14368428Y-15634500D01*
X14387476Y-15624976D01*
X14539857Y-15805928D02*
X14549381Y-15815452D01*
X14539857Y-15824976D01*
X14530333Y-15815452D01*
X14539857Y-15805928D01*
X14539857Y-15824976D01*
X14673190Y-15624976D02*
X14692238Y-15624976D01*
X14711286Y-15634500D01*
X14720809Y-15644024D01*
X14730333Y-15663071D01*
X14739857Y-15701167D01*
X14739857Y-15748786D01*
X14730333Y-15786881D01*
X14720809Y-15805928D01*
X14711286Y-15815452D01*
X14692238Y-15824976D01*
X14673190Y-15824976D01*
X14654143Y-15815452D01*
X14644619Y-15805928D01*
X14635095Y-15786881D01*
X14625571Y-15748786D01*
X14625571Y-15701167D01*
X14635095Y-15663071D01*
X14644619Y-15644024D01*
X14654143Y-15634500D01*
X14673190Y-15624976D01*
X14806524Y-15624976D02*
X14930333Y-15624976D01*
X14863667Y-15701167D01*
X14892238Y-15701167D01*
X14911286Y-15710690D01*
X14920809Y-15720214D01*
X14930333Y-15739262D01*
X14930333Y-15786881D01*
X14920809Y-15805928D01*
X14911286Y-15815452D01*
X14892238Y-15824976D01*
X14835095Y-15824976D01*
X14816048Y-15815452D01*
X14806524Y-15805928D01*
X14997000Y-15624976D02*
X15120809Y-15624976D01*
X15054143Y-15701167D01*
X15082714Y-15701167D01*
X15101762Y-15710690D01*
X15111286Y-15720214D01*
X15120809Y-15739262D01*
X15120809Y-15786881D01*
X15111286Y-15805928D01*
X15101762Y-15815452D01*
X15082714Y-15824976D01*
X15025571Y-15824976D01*
X15006524Y-15815452D01*
X14997000Y-15805928D01*
X15301762Y-15624976D02*
X15206524Y-15624976D01*
X15197000Y-15720214D01*
X15206524Y-15710690D01*
X15225571Y-15701167D01*
X15273190Y-15701167D01*
X15292238Y-15710690D01*
X15301762Y-15720214D01*
X15311286Y-15739262D01*
X15311286Y-15786881D01*
X15301762Y-15805928D01*
X15292238Y-15815452D01*
X15273190Y-15824976D01*
X15225571Y-15824976D01*
X15206524Y-15815452D01*
X15197000Y-15805928D01*
X15387476Y-15624976D02*
X15387476Y-15663071D01*
X15463667Y-15624976D02*
X15463667Y-15663071D01*
X15758905Y-15901167D02*
X15749381Y-15891643D01*
X15730333Y-15863071D01*
X15720809Y-15844024D01*
X15711286Y-15815452D01*
X15701762Y-15767833D01*
X15701762Y-15729738D01*
X15711286Y-15682119D01*
X15720809Y-15653548D01*
X15730333Y-15634500D01*
X15749381Y-15605928D01*
X15758905Y-15596405D01*
X15825571Y-15644024D02*
X15835095Y-15634500D01*
X15854143Y-15624976D01*
X15901762Y-15624976D01*
X15920809Y-15634500D01*
X15930333Y-15644024D01*
X15939857Y-15663071D01*
X15939857Y-15682119D01*
X15930333Y-15710690D01*
X15816048Y-15824976D01*
X15939857Y-15824976D01*
X16177952Y-15824976D02*
X16177952Y-15624976D01*
X16263667Y-15824976D02*
X16263667Y-15720214D01*
X16254143Y-15701167D01*
X16235095Y-15691643D01*
X16206524Y-15691643D01*
X16187476Y-15701167D01*
X16177952Y-15710690D01*
X16387476Y-15824976D02*
X16368428Y-15815452D01*
X16358905Y-15805928D01*
X16349381Y-15786881D01*
X16349381Y-15729738D01*
X16358905Y-15710690D01*
X16368428Y-15701167D01*
X16387476Y-15691643D01*
X16416048Y-15691643D01*
X16435095Y-15701167D01*
X16444619Y-15710690D01*
X16454143Y-15729738D01*
X16454143Y-15786881D01*
X16444619Y-15805928D01*
X16435095Y-15815452D01*
X16416048Y-15824976D01*
X16387476Y-15824976D01*
X16568428Y-15824976D02*
X16549381Y-15815452D01*
X16539857Y-15796405D01*
X16539857Y-15624976D01*
X16720809Y-15815452D02*
X16701762Y-15824976D01*
X16663667Y-15824976D01*
X16644619Y-15815452D01*
X16635095Y-15796405D01*
X16635095Y-15720214D01*
X16644619Y-15701167D01*
X16663667Y-15691643D01*
X16701762Y-15691643D01*
X16720809Y-15701167D01*
X16730333Y-15720214D01*
X16730333Y-15739262D01*
X16635095Y-15758309D01*
X16806524Y-15815452D02*
X16825571Y-15824976D01*
X16863667Y-15824976D01*
X16882714Y-15815452D01*
X16892238Y-15796405D01*
X16892238Y-15786881D01*
X16882714Y-15767833D01*
X16863667Y-15758309D01*
X16835095Y-15758309D01*
X16816048Y-15748786D01*
X16806524Y-15729738D01*
X16806524Y-15720214D01*
X16816048Y-15701167D01*
X16835095Y-15691643D01*
X16863667Y-15691643D01*
X16882714Y-15701167D01*
X16958905Y-15901167D02*
X16968429Y-15891643D01*
X16987476Y-15863071D01*
X16997000Y-15844024D01*
X17006524Y-15815452D01*
X17016048Y-15767833D01*
X17016048Y-15729738D01*
X17006524Y-15682119D01*
X16997000Y-15653548D01*
X16987476Y-15634500D01*
X16968429Y-15605928D01*
X16958905Y-15596405D01*
D17*
X12097000Y-15953500D02*
X12187000Y-16043500D01*
X12187000Y-15953500D02*
X12097000Y-16043500D01*
X12187000Y-15998500D02*
G75*
G03*
X12187000Y-15998500I-45000J0D01*
G01*
D11*
X12482714Y-15888976D02*
X12501762Y-15888976D01*
X12520809Y-15898500D01*
X12530333Y-15908024D01*
X12539857Y-15927071D01*
X12549381Y-15965167D01*
X12549381Y-16012786D01*
X12539857Y-16050881D01*
X12530333Y-16069928D01*
X12520809Y-16079452D01*
X12501762Y-16088976D01*
X12482714Y-16088976D01*
X12463667Y-16079452D01*
X12454143Y-16069928D01*
X12444619Y-16050881D01*
X12435095Y-16012786D01*
X12435095Y-15965167D01*
X12444619Y-15927071D01*
X12454143Y-15908024D01*
X12463667Y-15898500D01*
X12482714Y-15888976D01*
X12635095Y-16069928D02*
X12644619Y-16079452D01*
X12635095Y-16088976D01*
X12625571Y-16079452D01*
X12635095Y-16069928D01*
X12635095Y-16088976D01*
X12739857Y-16088976D02*
X12777952Y-16088976D01*
X12797000Y-16079452D01*
X12806524Y-16069928D01*
X12825571Y-16041357D01*
X12835095Y-16003262D01*
X12835095Y-15927071D01*
X12825571Y-15908024D01*
X12816048Y-15898500D01*
X12797000Y-15888976D01*
X12758905Y-15888976D01*
X12739857Y-15898500D01*
X12730333Y-15908024D01*
X12720809Y-15927071D01*
X12720809Y-15974690D01*
X12730333Y-15993738D01*
X12739857Y-16003262D01*
X12758905Y-16012786D01*
X12797000Y-16012786D01*
X12816048Y-16003262D01*
X12825571Y-15993738D01*
X12835095Y-15974690D01*
X12958905Y-15888976D02*
X12977952Y-15888976D01*
X12997000Y-15898500D01*
X13006524Y-15908024D01*
X13016048Y-15927071D01*
X13025571Y-15965167D01*
X13025571Y-16012786D01*
X13016048Y-16050881D01*
X13006524Y-16069928D01*
X12997000Y-16079452D01*
X12977952Y-16088976D01*
X12958905Y-16088976D01*
X12939857Y-16079452D01*
X12930333Y-16069928D01*
X12920809Y-16050881D01*
X12911286Y-16012786D01*
X12911286Y-15965167D01*
X12920809Y-15927071D01*
X12930333Y-15908024D01*
X12939857Y-15898500D01*
X12958905Y-15888976D01*
X13149381Y-15888976D02*
X13168428Y-15888976D01*
X13187476Y-15898500D01*
X13197000Y-15908024D01*
X13206524Y-15927071D01*
X13216048Y-15965167D01*
X13216048Y-16012786D01*
X13206524Y-16050881D01*
X13197000Y-16069928D01*
X13187476Y-16079452D01*
X13168428Y-16088976D01*
X13149381Y-16088976D01*
X13130333Y-16079452D01*
X13120809Y-16069928D01*
X13111286Y-16050881D01*
X13101762Y-16012786D01*
X13101762Y-15965167D01*
X13111286Y-15927071D01*
X13120809Y-15908024D01*
X13130333Y-15898500D01*
X13149381Y-15888976D01*
X13301762Y-16088976D02*
X13301762Y-15955643D01*
X13301762Y-15974690D02*
X13311286Y-15965167D01*
X13330333Y-15955643D01*
X13358905Y-15955643D01*
X13377952Y-15965167D01*
X13387476Y-15984214D01*
X13387476Y-16088976D01*
X13387476Y-15984214D02*
X13397000Y-15965167D01*
X13416048Y-15955643D01*
X13444619Y-15955643D01*
X13463667Y-15965167D01*
X13473190Y-15984214D01*
X13473190Y-16088976D01*
X13568428Y-16088976D02*
X13568428Y-15955643D01*
X13568428Y-15974690D02*
X13577952Y-15965167D01*
X13597000Y-15955643D01*
X13625571Y-15955643D01*
X13644619Y-15965167D01*
X13654143Y-15984214D01*
X13654143Y-16088976D01*
X13654143Y-15984214D02*
X13663667Y-15965167D01*
X13682714Y-15955643D01*
X13711286Y-15955643D01*
X13730333Y-15965167D01*
X13739857Y-15984214D01*
X13739857Y-16088976D01*
X14130333Y-15879452D02*
X13958905Y-16136595D01*
X14387476Y-15888976D02*
X14406524Y-15888976D01*
X14425571Y-15898500D01*
X14435095Y-15908024D01*
X14444619Y-15927071D01*
X14454143Y-15965167D01*
X14454143Y-16012786D01*
X14444619Y-16050881D01*
X14435095Y-16069928D01*
X14425571Y-16079452D01*
X14406524Y-16088976D01*
X14387476Y-16088976D01*
X14368428Y-16079452D01*
X14358905Y-16069928D01*
X14349381Y-16050881D01*
X14339857Y-16012786D01*
X14339857Y-15965167D01*
X14349381Y-15927071D01*
X14358905Y-15908024D01*
X14368428Y-15898500D01*
X14387476Y-15888976D01*
X14539857Y-16069928D02*
X14549381Y-16079452D01*
X14539857Y-16088976D01*
X14530333Y-16079452D01*
X14539857Y-16069928D01*
X14539857Y-16088976D01*
X14673190Y-15888976D02*
X14692238Y-15888976D01*
X14711286Y-15898500D01*
X14720809Y-15908024D01*
X14730333Y-15927071D01*
X14739857Y-15965167D01*
X14739857Y-16012786D01*
X14730333Y-16050881D01*
X14720809Y-16069928D01*
X14711286Y-16079452D01*
X14692238Y-16088976D01*
X14673190Y-16088976D01*
X14654143Y-16079452D01*
X14644619Y-16069928D01*
X14635095Y-16050881D01*
X14625571Y-16012786D01*
X14625571Y-15965167D01*
X14635095Y-15927071D01*
X14644619Y-15908024D01*
X14654143Y-15898500D01*
X14673190Y-15888976D01*
X14806524Y-15888976D02*
X14930333Y-15888976D01*
X14863667Y-15965167D01*
X14892238Y-15965167D01*
X14911286Y-15974690D01*
X14920809Y-15984214D01*
X14930333Y-16003262D01*
X14930333Y-16050881D01*
X14920809Y-16069928D01*
X14911286Y-16079452D01*
X14892238Y-16088976D01*
X14835095Y-16088976D01*
X14816048Y-16079452D01*
X14806524Y-16069928D01*
X15111286Y-15888976D02*
X15016048Y-15888976D01*
X15006524Y-15984214D01*
X15016048Y-15974690D01*
X15035095Y-15965167D01*
X15082714Y-15965167D01*
X15101762Y-15974690D01*
X15111286Y-15984214D01*
X15120809Y-16003262D01*
X15120809Y-16050881D01*
X15111286Y-16069928D01*
X15101762Y-16079452D01*
X15082714Y-16088976D01*
X15035095Y-16088976D01*
X15016048Y-16079452D01*
X15006524Y-16069928D01*
X15292238Y-15955643D02*
X15292238Y-16088976D01*
X15244619Y-15879452D02*
X15197000Y-16022309D01*
X15320809Y-16022309D01*
X15387476Y-15888976D02*
X15387476Y-15927071D01*
X15463667Y-15888976D02*
X15463667Y-15927071D01*
X15758905Y-16165167D02*
X15749381Y-16155643D01*
X15730333Y-16127071D01*
X15720809Y-16108024D01*
X15711286Y-16079452D01*
X15701762Y-16031833D01*
X15701762Y-15993738D01*
X15711286Y-15946119D01*
X15720809Y-15917548D01*
X15730333Y-15898500D01*
X15749381Y-15869928D01*
X15758905Y-15860405D01*
X15863667Y-15974690D02*
X15844619Y-15965167D01*
X15835095Y-15955643D01*
X15825571Y-15936595D01*
X15825571Y-15927071D01*
X15835095Y-15908024D01*
X15844619Y-15898500D01*
X15863667Y-15888976D01*
X15901762Y-15888976D01*
X15920809Y-15898500D01*
X15930333Y-15908024D01*
X15939857Y-15927071D01*
X15939857Y-15936595D01*
X15930333Y-15955643D01*
X15920809Y-15965167D01*
X15901762Y-15974690D01*
X15863667Y-15974690D01*
X15844619Y-15984214D01*
X15835095Y-15993738D01*
X15825571Y-16012786D01*
X15825571Y-16050881D01*
X15835095Y-16069928D01*
X15844619Y-16079452D01*
X15863667Y-16088976D01*
X15901762Y-16088976D01*
X15920809Y-16079452D01*
X15930333Y-16069928D01*
X15939857Y-16050881D01*
X15939857Y-16012786D01*
X15930333Y-15993738D01*
X15920809Y-15984214D01*
X15901762Y-15974690D01*
X16177952Y-16088976D02*
X16177952Y-15888976D01*
X16263667Y-16088976D02*
X16263667Y-15984214D01*
X16254143Y-15965167D01*
X16235095Y-15955643D01*
X16206524Y-15955643D01*
X16187476Y-15965167D01*
X16177952Y-15974690D01*
X16387476Y-16088976D02*
X16368428Y-16079452D01*
X16358905Y-16069928D01*
X16349381Y-16050881D01*
X16349381Y-15993738D01*
X16358905Y-15974690D01*
X16368428Y-15965167D01*
X16387476Y-15955643D01*
X16416048Y-15955643D01*
X16435095Y-15965167D01*
X16444619Y-15974690D01*
X16454143Y-15993738D01*
X16454143Y-16050881D01*
X16444619Y-16069928D01*
X16435095Y-16079452D01*
X16416048Y-16088976D01*
X16387476Y-16088976D01*
X16568428Y-16088976D02*
X16549381Y-16079452D01*
X16539857Y-16060405D01*
X16539857Y-15888976D01*
X16720809Y-16079452D02*
X16701762Y-16088976D01*
X16663667Y-16088976D01*
X16644619Y-16079452D01*
X16635095Y-16060405D01*
X16635095Y-15984214D01*
X16644619Y-15965167D01*
X16663667Y-15955643D01*
X16701762Y-15955643D01*
X16720809Y-15965167D01*
X16730333Y-15984214D01*
X16730333Y-16003262D01*
X16635095Y-16022309D01*
X16806524Y-16079452D02*
X16825571Y-16088976D01*
X16863667Y-16088976D01*
X16882714Y-16079452D01*
X16892238Y-16060405D01*
X16892238Y-16050881D01*
X16882714Y-16031833D01*
X16863667Y-16022309D01*
X16835095Y-16022309D01*
X16816048Y-16012786D01*
X16806524Y-15993738D01*
X16806524Y-15984214D01*
X16816048Y-15965167D01*
X16835095Y-15955643D01*
X16863667Y-15955643D01*
X16882714Y-15965167D01*
X16958905Y-16165167D02*
X16968429Y-16155643D01*
X16987476Y-16127071D01*
X16997000Y-16108024D01*
X17006524Y-16079452D01*
X17016048Y-16031833D01*
X17016048Y-15993738D01*
X17006524Y-15946119D01*
X16997000Y-15917548D01*
X16987476Y-15898500D01*
X16968429Y-15869928D01*
X16958905Y-15860405D01*
D10*
X12087000Y-16212500D02*
X12187000Y-16312500D01*
X12187000Y-16212500D02*
X12087000Y-16312500D01*
X12137000Y-16212500D02*
X12137000Y-16312500D01*
X12087000Y-16262500D02*
X12187000Y-16262500D01*
D11*
X12549381Y-16352976D02*
X12435095Y-16352976D01*
X12492238Y-16352976D02*
X12492238Y-16152976D01*
X12473190Y-16181548D01*
X12454143Y-16200595D01*
X12435095Y-16210119D01*
X12635095Y-16333928D02*
X12644619Y-16343452D01*
X12635095Y-16352976D01*
X12625571Y-16343452D01*
X12635095Y-16333928D01*
X12635095Y-16352976D01*
X12768428Y-16152976D02*
X12787476Y-16152976D01*
X12806524Y-16162500D01*
X12816048Y-16172024D01*
X12825571Y-16191071D01*
X12835095Y-16229167D01*
X12835095Y-16276786D01*
X12825571Y-16314881D01*
X12816048Y-16333928D01*
X12806524Y-16343452D01*
X12787476Y-16352976D01*
X12768428Y-16352976D01*
X12749381Y-16343452D01*
X12739857Y-16333928D01*
X12730333Y-16314881D01*
X12720809Y-16276786D01*
X12720809Y-16229167D01*
X12730333Y-16191071D01*
X12739857Y-16172024D01*
X12749381Y-16162500D01*
X12768428Y-16152976D01*
X12958905Y-16152976D02*
X12977952Y-16152976D01*
X12997000Y-16162500D01*
X13006524Y-16172024D01*
X13016048Y-16191071D01*
X13025571Y-16229167D01*
X13025571Y-16276786D01*
X13016048Y-16314881D01*
X13006524Y-16333928D01*
X12997000Y-16343452D01*
X12977952Y-16352976D01*
X12958905Y-16352976D01*
X12939857Y-16343452D01*
X12930333Y-16333928D01*
X12920809Y-16314881D01*
X12911286Y-16276786D01*
X12911286Y-16229167D01*
X12920809Y-16191071D01*
X12930333Y-16172024D01*
X12939857Y-16162500D01*
X12958905Y-16152976D01*
X13149381Y-16152976D02*
X13168428Y-16152976D01*
X13187476Y-16162500D01*
X13197000Y-16172024D01*
X13206524Y-16191071D01*
X13216048Y-16229167D01*
X13216048Y-16276786D01*
X13206524Y-16314881D01*
X13197000Y-16333928D01*
X13187476Y-16343452D01*
X13168428Y-16352976D01*
X13149381Y-16352976D01*
X13130333Y-16343452D01*
X13120809Y-16333928D01*
X13111286Y-16314881D01*
X13101762Y-16276786D01*
X13101762Y-16229167D01*
X13111286Y-16191071D01*
X13120809Y-16172024D01*
X13130333Y-16162500D01*
X13149381Y-16152976D01*
X13301762Y-16352976D02*
X13301762Y-16219643D01*
X13301762Y-16238690D02*
X13311286Y-16229167D01*
X13330333Y-16219643D01*
X13358905Y-16219643D01*
X13377952Y-16229167D01*
X13387476Y-16248214D01*
X13387476Y-16352976D01*
X13387476Y-16248214D02*
X13397000Y-16229167D01*
X13416048Y-16219643D01*
X13444619Y-16219643D01*
X13463667Y-16229167D01*
X13473190Y-16248214D01*
X13473190Y-16352976D01*
X13568428Y-16352976D02*
X13568428Y-16219643D01*
X13568428Y-16238690D02*
X13577952Y-16229167D01*
X13597000Y-16219643D01*
X13625571Y-16219643D01*
X13644619Y-16229167D01*
X13654143Y-16248214D01*
X13654143Y-16352976D01*
X13654143Y-16248214D02*
X13663667Y-16229167D01*
X13682714Y-16219643D01*
X13711286Y-16219643D01*
X13730333Y-16229167D01*
X13739857Y-16248214D01*
X13739857Y-16352976D01*
X14130333Y-16143452D02*
X13958905Y-16400595D01*
X14387476Y-16152976D02*
X14406524Y-16152976D01*
X14425571Y-16162500D01*
X14435095Y-16172024D01*
X14444619Y-16191071D01*
X14454143Y-16229167D01*
X14454143Y-16276786D01*
X14444619Y-16314881D01*
X14435095Y-16333928D01*
X14425571Y-16343452D01*
X14406524Y-16352976D01*
X14387476Y-16352976D01*
X14368428Y-16343452D01*
X14358905Y-16333928D01*
X14349381Y-16314881D01*
X14339857Y-16276786D01*
X14339857Y-16229167D01*
X14349381Y-16191071D01*
X14358905Y-16172024D01*
X14368428Y-16162500D01*
X14387476Y-16152976D01*
X14539857Y-16333928D02*
X14549381Y-16343452D01*
X14539857Y-16352976D01*
X14530333Y-16343452D01*
X14539857Y-16333928D01*
X14539857Y-16352976D01*
X14673190Y-16152976D02*
X14692238Y-16152976D01*
X14711286Y-16162500D01*
X14720809Y-16172024D01*
X14730333Y-16191071D01*
X14739857Y-16229167D01*
X14739857Y-16276786D01*
X14730333Y-16314881D01*
X14720809Y-16333928D01*
X14711286Y-16343452D01*
X14692238Y-16352976D01*
X14673190Y-16352976D01*
X14654143Y-16343452D01*
X14644619Y-16333928D01*
X14635095Y-16314881D01*
X14625571Y-16276786D01*
X14625571Y-16229167D01*
X14635095Y-16191071D01*
X14644619Y-16172024D01*
X14654143Y-16162500D01*
X14673190Y-16152976D01*
X14806524Y-16152976D02*
X14930333Y-16152976D01*
X14863667Y-16229167D01*
X14892238Y-16229167D01*
X14911286Y-16238690D01*
X14920809Y-16248214D01*
X14930333Y-16267262D01*
X14930333Y-16314881D01*
X14920809Y-16333928D01*
X14911286Y-16343452D01*
X14892238Y-16352976D01*
X14835095Y-16352976D01*
X14816048Y-16343452D01*
X14806524Y-16333928D01*
X15025571Y-16352976D02*
X15063667Y-16352976D01*
X15082714Y-16343452D01*
X15092238Y-16333928D01*
X15111286Y-16305357D01*
X15120809Y-16267262D01*
X15120809Y-16191071D01*
X15111286Y-16172024D01*
X15101762Y-16162500D01*
X15082714Y-16152976D01*
X15044619Y-16152976D01*
X15025571Y-16162500D01*
X15016048Y-16172024D01*
X15006524Y-16191071D01*
X15006524Y-16238690D01*
X15016048Y-16257738D01*
X15025571Y-16267262D01*
X15044619Y-16276786D01*
X15082714Y-16276786D01*
X15101762Y-16267262D01*
X15111286Y-16257738D01*
X15120809Y-16238690D01*
X15292238Y-16219643D02*
X15292238Y-16352976D01*
X15244619Y-16143452D02*
X15197000Y-16286309D01*
X15320809Y-16286309D01*
X15387476Y-16152976D02*
X15387476Y-16191071D01*
X15463667Y-16152976D02*
X15463667Y-16191071D01*
X15758905Y-16429167D02*
X15749381Y-16419643D01*
X15730333Y-16391071D01*
X15720809Y-16372024D01*
X15711286Y-16343452D01*
X15701762Y-16295833D01*
X15701762Y-16257738D01*
X15711286Y-16210119D01*
X15720809Y-16181548D01*
X15730333Y-16162500D01*
X15749381Y-16133928D01*
X15758905Y-16124405D01*
X15816048Y-16152976D02*
X15939857Y-16152976D01*
X15873190Y-16229167D01*
X15901762Y-16229167D01*
X15920809Y-16238690D01*
X15930333Y-16248214D01*
X15939857Y-16267262D01*
X15939857Y-16314881D01*
X15930333Y-16333928D01*
X15920809Y-16343452D01*
X15901762Y-16352976D01*
X15844619Y-16352976D01*
X15825571Y-16343452D01*
X15816048Y-16333928D01*
X16054143Y-16238690D02*
X16035095Y-16229167D01*
X16025571Y-16219643D01*
X16016048Y-16200595D01*
X16016048Y-16191071D01*
X16025571Y-16172024D01*
X16035095Y-16162500D01*
X16054143Y-16152976D01*
X16092238Y-16152976D01*
X16111286Y-16162500D01*
X16120809Y-16172024D01*
X16130333Y-16191071D01*
X16130333Y-16200595D01*
X16120809Y-16219643D01*
X16111286Y-16229167D01*
X16092238Y-16238690D01*
X16054143Y-16238690D01*
X16035095Y-16248214D01*
X16025571Y-16257738D01*
X16016048Y-16276786D01*
X16016048Y-16314881D01*
X16025571Y-16333928D01*
X16035095Y-16343452D01*
X16054143Y-16352976D01*
X16092238Y-16352976D01*
X16111286Y-16343452D01*
X16120809Y-16333928D01*
X16130333Y-16314881D01*
X16130333Y-16276786D01*
X16120809Y-16257738D01*
X16111286Y-16248214D01*
X16092238Y-16238690D01*
X16368428Y-16352976D02*
X16368428Y-16152976D01*
X16454143Y-16352976D02*
X16454143Y-16248214D01*
X16444619Y-16229167D01*
X16425571Y-16219643D01*
X16397000Y-16219643D01*
X16377952Y-16229167D01*
X16368428Y-16238690D01*
X16577952Y-16352976D02*
X16558905Y-16343452D01*
X16549381Y-16333928D01*
X16539857Y-16314881D01*
X16539857Y-16257738D01*
X16549381Y-16238690D01*
X16558905Y-16229167D01*
X16577952Y-16219643D01*
X16606524Y-16219643D01*
X16625571Y-16229167D01*
X16635095Y-16238690D01*
X16644619Y-16257738D01*
X16644619Y-16314881D01*
X16635095Y-16333928D01*
X16625571Y-16343452D01*
X16606524Y-16352976D01*
X16577952Y-16352976D01*
X16758905Y-16352976D02*
X16739857Y-16343452D01*
X16730333Y-16324405D01*
X16730333Y-16152976D01*
X16911286Y-16343452D02*
X16892238Y-16352976D01*
X16854143Y-16352976D01*
X16835095Y-16343452D01*
X16825571Y-16324405D01*
X16825571Y-16248214D01*
X16835095Y-16229167D01*
X16854143Y-16219643D01*
X16892238Y-16219643D01*
X16911286Y-16229167D01*
X16920810Y-16248214D01*
X16920810Y-16267262D01*
X16825571Y-16286309D01*
X16997000Y-16343452D02*
X17016048Y-16352976D01*
X17054143Y-16352976D01*
X17073190Y-16343452D01*
X17082714Y-16324405D01*
X17082714Y-16314881D01*
X17073190Y-16295833D01*
X17054143Y-16286309D01*
X17025571Y-16286309D01*
X17006524Y-16276786D01*
X16997000Y-16257738D01*
X16997000Y-16248214D01*
X17006524Y-16229167D01*
X17025571Y-16219643D01*
X17054143Y-16219643D01*
X17073190Y-16229167D01*
X17149381Y-16429167D02*
X17158905Y-16419643D01*
X17177952Y-16391071D01*
X17187476Y-16372024D01*
X17197000Y-16343452D01*
X17206524Y-16295833D01*
X17206524Y-16257738D01*
X17197000Y-16210119D01*
X17187476Y-16181548D01*
X17177952Y-16162500D01*
X17158905Y-16133928D01*
X17149381Y-16124405D01*
D18*
X12077000Y-16471500D02*
X12187000Y-16581500D01*
X12187000Y-16471500D02*
X12077000Y-16581500D01*
X12170891Y-16565391D02*
X12170891Y-16487609D01*
X12093109Y-16487609D01*
X12093109Y-16565391D01*
X12170891Y-16565391D01*
D11*
X12549381Y-16616976D02*
X12435095Y-16616976D01*
X12492238Y-16616976D02*
X12492238Y-16416976D01*
X12473190Y-16445548D01*
X12454143Y-16464595D01*
X12435095Y-16474119D01*
X12635095Y-16597928D02*
X12644619Y-16607452D01*
X12635095Y-16616976D01*
X12625571Y-16607452D01*
X12635095Y-16597928D01*
X12635095Y-16616976D01*
X12835095Y-16616976D02*
X12720809Y-16616976D01*
X12777952Y-16616976D02*
X12777952Y-16416976D01*
X12758905Y-16445548D01*
X12739857Y-16464595D01*
X12720809Y-16474119D01*
X12958905Y-16416976D02*
X12977952Y-16416976D01*
X12997000Y-16426500D01*
X13006524Y-16436024D01*
X13016048Y-16455071D01*
X13025571Y-16493167D01*
X13025571Y-16540786D01*
X13016048Y-16578881D01*
X13006524Y-16597928D01*
X12997000Y-16607452D01*
X12977952Y-16616976D01*
X12958905Y-16616976D01*
X12939857Y-16607452D01*
X12930333Y-16597928D01*
X12920809Y-16578881D01*
X12911286Y-16540786D01*
X12911286Y-16493167D01*
X12920809Y-16455071D01*
X12930333Y-16436024D01*
X12939857Y-16426500D01*
X12958905Y-16416976D01*
X13149381Y-16416976D02*
X13168428Y-16416976D01*
X13187476Y-16426500D01*
X13197000Y-16436024D01*
X13206524Y-16455071D01*
X13216048Y-16493167D01*
X13216048Y-16540786D01*
X13206524Y-16578881D01*
X13197000Y-16597928D01*
X13187476Y-16607452D01*
X13168428Y-16616976D01*
X13149381Y-16616976D01*
X13130333Y-16607452D01*
X13120809Y-16597928D01*
X13111286Y-16578881D01*
X13101762Y-16540786D01*
X13101762Y-16493167D01*
X13111286Y-16455071D01*
X13120809Y-16436024D01*
X13130333Y-16426500D01*
X13149381Y-16416976D01*
X13301762Y-16616976D02*
X13301762Y-16483643D01*
X13301762Y-16502690D02*
X13311286Y-16493167D01*
X13330333Y-16483643D01*
X13358905Y-16483643D01*
X13377952Y-16493167D01*
X13387476Y-16512214D01*
X13387476Y-16616976D01*
X13387476Y-16512214D02*
X13397000Y-16493167D01*
X13416048Y-16483643D01*
X13444619Y-16483643D01*
X13463667Y-16493167D01*
X13473190Y-16512214D01*
X13473190Y-16616976D01*
X13568428Y-16616976D02*
X13568428Y-16483643D01*
X13568428Y-16502690D02*
X13577952Y-16493167D01*
X13597000Y-16483643D01*
X13625571Y-16483643D01*
X13644619Y-16493167D01*
X13654143Y-16512214D01*
X13654143Y-16616976D01*
X13654143Y-16512214D02*
X13663667Y-16493167D01*
X13682714Y-16483643D01*
X13711286Y-16483643D01*
X13730333Y-16493167D01*
X13739857Y-16512214D01*
X13739857Y-16616976D01*
X14130333Y-16407452D02*
X13958905Y-16664595D01*
X14387476Y-16416976D02*
X14406524Y-16416976D01*
X14425571Y-16426500D01*
X14435095Y-16436024D01*
X14444619Y-16455071D01*
X14454143Y-16493167D01*
X14454143Y-16540786D01*
X14444619Y-16578881D01*
X14435095Y-16597928D01*
X14425571Y-16607452D01*
X14406524Y-16616976D01*
X14387476Y-16616976D01*
X14368428Y-16607452D01*
X14358905Y-16597928D01*
X14349381Y-16578881D01*
X14339857Y-16540786D01*
X14339857Y-16493167D01*
X14349381Y-16455071D01*
X14358905Y-16436024D01*
X14368428Y-16426500D01*
X14387476Y-16416976D01*
X14539857Y-16597928D02*
X14549381Y-16607452D01*
X14539857Y-16616976D01*
X14530333Y-16607452D01*
X14539857Y-16597928D01*
X14539857Y-16616976D01*
X14673190Y-16416976D02*
X14692238Y-16416976D01*
X14711286Y-16426500D01*
X14720809Y-16436024D01*
X14730333Y-16455071D01*
X14739857Y-16493167D01*
X14739857Y-16540786D01*
X14730333Y-16578881D01*
X14720809Y-16597928D01*
X14711286Y-16607452D01*
X14692238Y-16616976D01*
X14673190Y-16616976D01*
X14654143Y-16607452D01*
X14644619Y-16597928D01*
X14635095Y-16578881D01*
X14625571Y-16540786D01*
X14625571Y-16493167D01*
X14635095Y-16455071D01*
X14644619Y-16436024D01*
X14654143Y-16426500D01*
X14673190Y-16416976D01*
X14911286Y-16483643D02*
X14911286Y-16616976D01*
X14863667Y-16407452D02*
X14816048Y-16550309D01*
X14939857Y-16550309D01*
X14997000Y-16416976D02*
X15120809Y-16416976D01*
X15054143Y-16493167D01*
X15082714Y-16493167D01*
X15101762Y-16502690D01*
X15111286Y-16512214D01*
X15120809Y-16531262D01*
X15120809Y-16578881D01*
X15111286Y-16597928D01*
X15101762Y-16607452D01*
X15082714Y-16616976D01*
X15025571Y-16616976D01*
X15006524Y-16607452D01*
X14997000Y-16597928D01*
X15187476Y-16416976D02*
X15311286Y-16416976D01*
X15244619Y-16493167D01*
X15273190Y-16493167D01*
X15292238Y-16502690D01*
X15301762Y-16512214D01*
X15311286Y-16531262D01*
X15311286Y-16578881D01*
X15301762Y-16597928D01*
X15292238Y-16607452D01*
X15273190Y-16616976D01*
X15216048Y-16616976D01*
X15197000Y-16607452D01*
X15187476Y-16597928D01*
X15387476Y-16416976D02*
X15387476Y-16455071D01*
X15463667Y-16416976D02*
X15463667Y-16455071D01*
X15758905Y-16693167D02*
X15749381Y-16683643D01*
X15730333Y-16655071D01*
X15720809Y-16636024D01*
X15711286Y-16607452D01*
X15701762Y-16559833D01*
X15701762Y-16521738D01*
X15711286Y-16474119D01*
X15720809Y-16445548D01*
X15730333Y-16426500D01*
X15749381Y-16397928D01*
X15758905Y-16388405D01*
X15939857Y-16616976D02*
X15825571Y-16616976D01*
X15882714Y-16616976D02*
X15882714Y-16416976D01*
X15863667Y-16445548D01*
X15844619Y-16464595D01*
X15825571Y-16474119D01*
X16063667Y-16416976D02*
X16082714Y-16416976D01*
X16101762Y-16426500D01*
X16111286Y-16436024D01*
X16120809Y-16455071D01*
X16130333Y-16493167D01*
X16130333Y-16540786D01*
X16120809Y-16578881D01*
X16111286Y-16597928D01*
X16101762Y-16607452D01*
X16082714Y-16616976D01*
X16063667Y-16616976D01*
X16044619Y-16607452D01*
X16035095Y-16597928D01*
X16025571Y-16578881D01*
X16016048Y-16540786D01*
X16016048Y-16493167D01*
X16025571Y-16455071D01*
X16035095Y-16436024D01*
X16044619Y-16426500D01*
X16063667Y-16416976D01*
X16368428Y-16616976D02*
X16368428Y-16416976D01*
X16454143Y-16616976D02*
X16454143Y-16512214D01*
X16444619Y-16493167D01*
X16425571Y-16483643D01*
X16397000Y-16483643D01*
X16377952Y-16493167D01*
X16368428Y-16502690D01*
X16577952Y-16616976D02*
X16558905Y-16607452D01*
X16549381Y-16597928D01*
X16539857Y-16578881D01*
X16539857Y-16521738D01*
X16549381Y-16502690D01*
X16558905Y-16493167D01*
X16577952Y-16483643D01*
X16606524Y-16483643D01*
X16625571Y-16493167D01*
X16635095Y-16502690D01*
X16644619Y-16521738D01*
X16644619Y-16578881D01*
X16635095Y-16597928D01*
X16625571Y-16607452D01*
X16606524Y-16616976D01*
X16577952Y-16616976D01*
X16758905Y-16616976D02*
X16739857Y-16607452D01*
X16730333Y-16588405D01*
X16730333Y-16416976D01*
X16911286Y-16607452D02*
X16892238Y-16616976D01*
X16854143Y-16616976D01*
X16835095Y-16607452D01*
X16825571Y-16588405D01*
X16825571Y-16512214D01*
X16835095Y-16493167D01*
X16854143Y-16483643D01*
X16892238Y-16483643D01*
X16911286Y-16493167D01*
X16920810Y-16512214D01*
X16920810Y-16531262D01*
X16825571Y-16550309D01*
X16997000Y-16607452D02*
X17016048Y-16616976D01*
X17054143Y-16616976D01*
X17073190Y-16607452D01*
X17082714Y-16588405D01*
X17082714Y-16578881D01*
X17073190Y-16559833D01*
X17054143Y-16550309D01*
X17025571Y-16550309D01*
X17006524Y-16540786D01*
X16997000Y-16521738D01*
X16997000Y-16512214D01*
X17006524Y-16493167D01*
X17025571Y-16483643D01*
X17054143Y-16483643D01*
X17073190Y-16493167D01*
X17149381Y-16693167D02*
X17158905Y-16683643D01*
X17177952Y-16655071D01*
X17187476Y-16636024D01*
X17197000Y-16607452D01*
X17206524Y-16559833D01*
X17206524Y-16521738D01*
X17197000Y-16474119D01*
X17187476Y-16445548D01*
X17177952Y-16426500D01*
X17158905Y-16397928D01*
X17149381Y-16388405D01*
M02*
