G04 #@! TF.GenerationSoftware,KiCad,Pcbnew,6.0.11-3.fc36*
G04 #@! TF.CreationDate,2023-04-04T19:10:39+09:00*
G04 #@! TF.ProjectId,Tetiduino,54657469-6475-4696-9e6f-2e6b69636164,rev?*
G04 #@! TF.SameCoordinates,Original*
G04 #@! TF.FileFunction,Legend,Top*
G04 #@! TF.FilePolarity,Positive*
%FSLAX46Y46*%
G04 Gerber Fmt 4.6, Leading zero omitted, Abs format (unit mm)*
G04 Created by KiCad (PCBNEW 6.0.11-3.fc36) date 2023-04-04 19:10:39*
%MOMM*%
%LPD*%
G01*
G04 APERTURE LIST*
G04 Aperture macros list*
%AMRoundRect*
0 Rectangle with rounded corners*
0 $1 Rounding radius*
0 $2 $3 $4 $5 $6 $7 $8 $9 X,Y pos of 4 corners*
0 Add a 4 corners polygon primitive as box body*
4,1,4,$2,$3,$4,$5,$6,$7,$8,$9,$2,$3,0*
0 Add four circle primitives for the rounded corners*
1,1,$1+$1,$2,$3*
1,1,$1+$1,$4,$5*
1,1,$1+$1,$6,$7*
1,1,$1+$1,$8,$9*
0 Add four rect primitives between the rounded corners*
20,1,$1+$1,$2,$3,$4,$5,0*
20,1,$1+$1,$4,$5,$6,$7,0*
20,1,$1+$1,$6,$7,$8,$9,0*
20,1,$1+$1,$8,$9,$2,$3,0*%
G04 Aperture macros list end*
%ADD10C,0.300000*%
%ADD11C,0.150000*%
%ADD12C,0.120000*%
%ADD13R,1.700000X1.700000*%
%ADD14O,1.700000X1.700000*%
%ADD15C,1.400000*%
%ADD16O,1.400000X1.400000*%
%ADD17R,1.905000X2.000000*%
%ADD18O,1.905000X2.000000*%
%ADD19R,1.600000X1.600000*%
%ADD20O,1.600000X1.600000*%
%ADD21C,1.600000*%
%ADD22R,0.400000X1.350000*%
%ADD23R,1.500000X1.900000*%
%ADD24R,1.200000X1.900000*%
%ADD25O,1.200000X1.900000*%
%ADD26C,1.450000*%
%ADD27C,2.000000*%
%ADD28R,1.800000X1.800000*%
%ADD29C,1.800000*%
%ADD30R,1.500000X2.000000*%
%ADD31R,3.800000X2.000000*%
%ADD32RoundRect,0.150000X0.825000X0.150000X-0.825000X0.150000X-0.825000X-0.150000X0.825000X-0.150000X0*%
%ADD33R,2.000000X1.905000*%
%ADD34O,2.000000X1.905000*%
%ADD35C,1.500000*%
G04 APERTURE END LIST*
D10*
X127623333Y-138635000D02*
X127623333Y-137435000D01*
X131123333Y-138035000D02*
X127623333Y-138035000D01*
X130956666Y-135935000D02*
X131123333Y-136135000D01*
X131123333Y-136535000D01*
X130956666Y-136735000D01*
X130623333Y-136835000D01*
X129290000Y-136835000D01*
X128956666Y-136735000D01*
X128790000Y-136535000D01*
X128790000Y-136135000D01*
X128956666Y-135935000D01*
X129290000Y-135835000D01*
X129623333Y-135835000D01*
X129956666Y-136835000D01*
X128790000Y-135235000D02*
X128790000Y-134435000D01*
X127623333Y-134935000D02*
X130623333Y-134935000D01*
X130956666Y-134835000D01*
X131123333Y-134635000D01*
X131123333Y-134435000D01*
X131123333Y-133735000D02*
X128790000Y-133735000D01*
X127623333Y-133735000D02*
X127790000Y-133835000D01*
X127956666Y-133735000D01*
X127790000Y-133635000D01*
X127623333Y-133735000D01*
X127956666Y-133735000D01*
X131123333Y-131835000D02*
X127623333Y-131835000D01*
X130956666Y-131835000D02*
X131123333Y-132035000D01*
X131123333Y-132435000D01*
X130956666Y-132635000D01*
X130790000Y-132735000D01*
X130456666Y-132835000D01*
X129456666Y-132835000D01*
X129123333Y-132735000D01*
X128956666Y-132635000D01*
X128790000Y-132435000D01*
X128790000Y-132035000D01*
X128956666Y-131835000D01*
X128790000Y-129935000D02*
X131123333Y-129935000D01*
X128790000Y-130835000D02*
X130623333Y-130835000D01*
X130956666Y-130735000D01*
X131123333Y-130535000D01*
X131123333Y-130235000D01*
X130956666Y-130035000D01*
X130790000Y-129935000D01*
X131123333Y-128935000D02*
X128790000Y-128935000D01*
X127623333Y-128935000D02*
X127790000Y-129035000D01*
X127956666Y-128935000D01*
X127790000Y-128835000D01*
X127623333Y-128935000D01*
X127956666Y-128935000D01*
X128790000Y-127935000D02*
X131123333Y-127935000D01*
X129123333Y-127935000D02*
X128956666Y-127835000D01*
X128790000Y-127635000D01*
X128790000Y-127335000D01*
X128956666Y-127135000D01*
X129290000Y-127035000D01*
X131123333Y-127035000D01*
X131123333Y-125735000D02*
X130956666Y-125935000D01*
X130790000Y-126035000D01*
X130456666Y-126135000D01*
X129456666Y-126135000D01*
X129123333Y-126035000D01*
X128956666Y-125935000D01*
X128790000Y-125735000D01*
X128790000Y-125435000D01*
X128956666Y-125235000D01*
X129123333Y-125135000D01*
X129456666Y-125035000D01*
X130456666Y-125035000D01*
X130790000Y-125135000D01*
X130956666Y-125235000D01*
X131123333Y-125435000D01*
X131123333Y-125735000D01*
X128790000Y-122735000D02*
X131123333Y-122235000D01*
X128790000Y-121735000D01*
X131123333Y-119835000D02*
X131123333Y-121035000D01*
X131123333Y-120435000D02*
X127623333Y-120435000D01*
X128123333Y-120635000D01*
X128456666Y-120835000D01*
X128623333Y-121035000D01*
X130790000Y-118935000D02*
X130956666Y-118835000D01*
X131123333Y-118935000D01*
X130956666Y-119035000D01*
X130790000Y-118935000D01*
X131123333Y-118935000D01*
X127623333Y-117535000D02*
X127623333Y-117335000D01*
X127790000Y-117135000D01*
X127956666Y-117035000D01*
X128290000Y-116935000D01*
X128956666Y-116835000D01*
X129790000Y-116835000D01*
X130456666Y-116935000D01*
X130790000Y-117035000D01*
X130956666Y-117135000D01*
X131123333Y-117335000D01*
X131123333Y-117535000D01*
X130956666Y-117735000D01*
X130790000Y-117835000D01*
X130456666Y-117935000D01*
X129790000Y-118035000D01*
X128956666Y-118035000D01*
X128290000Y-117935000D01*
X127956666Y-117835000D01*
X127790000Y-117735000D01*
X127623333Y-117535000D01*
D11*
X124126666Y-118197380D02*
X124126666Y-118911666D01*
X124079047Y-119054523D01*
X123983809Y-119149761D01*
X123840952Y-119197380D01*
X123745714Y-119197380D01*
X125031428Y-118530714D02*
X125031428Y-119197380D01*
X124793333Y-118149761D02*
X124555238Y-118864047D01*
X125174285Y-118864047D01*
X167330380Y-84091666D02*
X166854190Y-84425000D01*
X167330380Y-84663095D02*
X166330380Y-84663095D01*
X166330380Y-84282142D01*
X166378000Y-84186904D01*
X166425619Y-84139285D01*
X166520857Y-84091666D01*
X166663714Y-84091666D01*
X166758952Y-84139285D01*
X166806571Y-84186904D01*
X166854190Y-84282142D01*
X166854190Y-84663095D01*
X166330380Y-83758333D02*
X166330380Y-83139285D01*
X166711333Y-83472619D01*
X166711333Y-83329761D01*
X166758952Y-83234523D01*
X166806571Y-83186904D01*
X166901809Y-83139285D01*
X167139904Y-83139285D01*
X167235142Y-83186904D01*
X167282761Y-83234523D01*
X167330380Y-83329761D01*
X167330380Y-83615476D01*
X167282761Y-83710714D01*
X167235142Y-83758333D01*
X157384761Y-78652619D02*
X157289523Y-78605000D01*
X157194285Y-78509761D01*
X157051428Y-78366904D01*
X156956190Y-78319285D01*
X156860952Y-78319285D01*
X156908571Y-78557380D02*
X156813333Y-78509761D01*
X156718095Y-78414523D01*
X156670476Y-78224047D01*
X156670476Y-77890714D01*
X156718095Y-77700238D01*
X156813333Y-77605000D01*
X156908571Y-77557380D01*
X157099047Y-77557380D01*
X157194285Y-77605000D01*
X157289523Y-77700238D01*
X157337142Y-77890714D01*
X157337142Y-78224047D01*
X157289523Y-78414523D01*
X157194285Y-78509761D01*
X157099047Y-78557380D01*
X156908571Y-78557380D01*
X158289523Y-78557380D02*
X157718095Y-78557380D01*
X158003809Y-78557380D02*
X158003809Y-77557380D01*
X157908571Y-77700238D01*
X157813333Y-77795476D01*
X157718095Y-77843095D01*
X140702380Y-134723095D02*
X139702380Y-134723095D01*
X139702380Y-134485000D01*
X139750000Y-134342142D01*
X139845238Y-134246904D01*
X139940476Y-134199285D01*
X140130952Y-134151666D01*
X140273809Y-134151666D01*
X140464285Y-134199285D01*
X140559523Y-134246904D01*
X140654761Y-134342142D01*
X140702380Y-134485000D01*
X140702380Y-134723095D01*
X140702380Y-133199285D02*
X140702380Y-133770714D01*
X140702380Y-133485000D02*
X139702380Y-133485000D01*
X139845238Y-133580238D01*
X139940476Y-133675476D01*
X139988095Y-133770714D01*
X140382380Y-130436904D02*
X139382380Y-130436904D01*
X140382380Y-129865476D02*
X139810952Y-130294047D01*
X139382380Y-129865476D02*
X139953809Y-130436904D01*
X165602142Y-118891666D02*
X165649761Y-118939285D01*
X165697380Y-119082142D01*
X165697380Y-119177380D01*
X165649761Y-119320238D01*
X165554523Y-119415476D01*
X165459285Y-119463095D01*
X165268809Y-119510714D01*
X165125952Y-119510714D01*
X164935476Y-119463095D01*
X164840238Y-119415476D01*
X164745000Y-119320238D01*
X164697380Y-119177380D01*
X164697380Y-119082142D01*
X164745000Y-118939285D01*
X164792619Y-118891666D01*
X165125952Y-118320238D02*
X165078333Y-118415476D01*
X165030714Y-118463095D01*
X164935476Y-118510714D01*
X164887857Y-118510714D01*
X164792619Y-118463095D01*
X164745000Y-118415476D01*
X164697380Y-118320238D01*
X164697380Y-118129761D01*
X164745000Y-118034523D01*
X164792619Y-117986904D01*
X164887857Y-117939285D01*
X164935476Y-117939285D01*
X165030714Y-117986904D01*
X165078333Y-118034523D01*
X165125952Y-118129761D01*
X165125952Y-118320238D01*
X165173571Y-118415476D01*
X165221190Y-118463095D01*
X165316428Y-118510714D01*
X165506904Y-118510714D01*
X165602142Y-118463095D01*
X165649761Y-118415476D01*
X165697380Y-118320238D01*
X165697380Y-118129761D01*
X165649761Y-118034523D01*
X165602142Y-117986904D01*
X165506904Y-117939285D01*
X165316428Y-117939285D01*
X165221190Y-117986904D01*
X165173571Y-118034523D01*
X165125952Y-118129761D01*
X165602142Y-113811666D02*
X165649761Y-113859285D01*
X165697380Y-114002142D01*
X165697380Y-114097380D01*
X165649761Y-114240238D01*
X165554523Y-114335476D01*
X165459285Y-114383095D01*
X165268809Y-114430714D01*
X165125952Y-114430714D01*
X164935476Y-114383095D01*
X164840238Y-114335476D01*
X164745000Y-114240238D01*
X164697380Y-114097380D01*
X164697380Y-114002142D01*
X164745000Y-113859285D01*
X164792619Y-113811666D01*
X165697380Y-113335476D02*
X165697380Y-113145000D01*
X165649761Y-113049761D01*
X165602142Y-113002142D01*
X165459285Y-112906904D01*
X165268809Y-112859285D01*
X164887857Y-112859285D01*
X164792619Y-112906904D01*
X164745000Y-112954523D01*
X164697380Y-113049761D01*
X164697380Y-113240238D01*
X164745000Y-113335476D01*
X164792619Y-113383095D01*
X164887857Y-113430714D01*
X165125952Y-113430714D01*
X165221190Y-113383095D01*
X165268809Y-113335476D01*
X165316428Y-113240238D01*
X165316428Y-113049761D01*
X165268809Y-112954523D01*
X165221190Y-112906904D01*
X165125952Y-112859285D01*
X132683333Y-80113142D02*
X132635714Y-80160761D01*
X132492857Y-80208380D01*
X132397619Y-80208380D01*
X132254761Y-80160761D01*
X132159523Y-80065523D01*
X132111904Y-79970285D01*
X132064285Y-79779809D01*
X132064285Y-79636952D01*
X132111904Y-79446476D01*
X132159523Y-79351238D01*
X132254761Y-79256000D01*
X132397619Y-79208380D01*
X132492857Y-79208380D01*
X132635714Y-79256000D01*
X132683333Y-79303619D01*
X133111904Y-80208380D02*
X133111904Y-79208380D01*
X133492857Y-79208380D01*
X133588095Y-79256000D01*
X133635714Y-79303619D01*
X133683333Y-79398857D01*
X133683333Y-79541714D01*
X133635714Y-79636952D01*
X133588095Y-79684571D01*
X133492857Y-79732190D01*
X133111904Y-79732190D01*
X134064285Y-79303619D02*
X134111904Y-79256000D01*
X134207142Y-79208380D01*
X134445238Y-79208380D01*
X134540476Y-79256000D01*
X134588095Y-79303619D01*
X134635714Y-79398857D01*
X134635714Y-79494095D01*
X134588095Y-79636952D01*
X134016666Y-80208380D01*
X134635714Y-80208380D01*
X133707142Y-110121666D02*
X133754761Y-110169285D01*
X133802380Y-110312142D01*
X133802380Y-110407380D01*
X133754761Y-110550238D01*
X133659523Y-110645476D01*
X133564285Y-110693095D01*
X133373809Y-110740714D01*
X133230952Y-110740714D01*
X133040476Y-110693095D01*
X132945238Y-110645476D01*
X132850000Y-110550238D01*
X132802380Y-110407380D01*
X132802380Y-110312142D01*
X132850000Y-110169285D01*
X132897619Y-110121666D01*
X133135714Y-109264523D02*
X133802380Y-109264523D01*
X132754761Y-109502619D02*
X133469047Y-109740714D01*
X133469047Y-109121666D01*
X153392142Y-84621666D02*
X153439761Y-84669285D01*
X153487380Y-84812142D01*
X153487380Y-84907380D01*
X153439761Y-85050238D01*
X153344523Y-85145476D01*
X153249285Y-85193095D01*
X153058809Y-85240714D01*
X152915952Y-85240714D01*
X152725476Y-85193095D01*
X152630238Y-85145476D01*
X152535000Y-85050238D01*
X152487380Y-84907380D01*
X152487380Y-84812142D01*
X152535000Y-84669285D01*
X152582619Y-84621666D01*
X152487380Y-84288333D02*
X152487380Y-83621666D01*
X153487380Y-84050238D01*
X144446666Y-77314880D02*
X144446666Y-78029166D01*
X144399047Y-78172023D01*
X144303809Y-78267261D01*
X144160952Y-78314880D01*
X144065714Y-78314880D01*
X145351428Y-77314880D02*
X145160952Y-77314880D01*
X145065714Y-77362500D01*
X145018095Y-77410119D01*
X144922857Y-77552976D01*
X144875238Y-77743452D01*
X144875238Y-78124404D01*
X144922857Y-78219642D01*
X144970476Y-78267261D01*
X145065714Y-78314880D01*
X145256190Y-78314880D01*
X145351428Y-78267261D01*
X145399047Y-78219642D01*
X145446666Y-78124404D01*
X145446666Y-77886309D01*
X145399047Y-77791071D01*
X145351428Y-77743452D01*
X145256190Y-77695833D01*
X145065714Y-77695833D01*
X144970476Y-77743452D01*
X144922857Y-77791071D01*
X144875238Y-77886309D01*
X169862666Y-82827761D02*
X170005523Y-82875380D01*
X170243619Y-82875380D01*
X170338857Y-82827761D01*
X170386476Y-82780142D01*
X170434095Y-82684904D01*
X170434095Y-82589666D01*
X170386476Y-82494428D01*
X170338857Y-82446809D01*
X170243619Y-82399190D01*
X170053142Y-82351571D01*
X169957904Y-82303952D01*
X169910285Y-82256333D01*
X169862666Y-82161095D01*
X169862666Y-82065857D01*
X169910285Y-81970619D01*
X169957904Y-81923000D01*
X170053142Y-81875380D01*
X170291238Y-81875380D01*
X170434095Y-81923000D01*
X170767428Y-81875380D02*
X171005523Y-82875380D01*
X171196000Y-82161095D01*
X171386476Y-82875380D01*
X171624571Y-81875380D01*
X172529333Y-82875380D02*
X171957904Y-82875380D01*
X172243619Y-82875380D02*
X172243619Y-81875380D01*
X172148380Y-82018238D01*
X172053142Y-82113476D01*
X171957904Y-82161095D01*
X166393904Y-96845380D02*
X166393904Y-95845380D01*
X166632000Y-95845380D01*
X166774857Y-95893000D01*
X166870095Y-95988238D01*
X166917714Y-96083476D01*
X166965333Y-96273952D01*
X166965333Y-96416809D01*
X166917714Y-96607285D01*
X166870095Y-96702523D01*
X166774857Y-96797761D01*
X166632000Y-96845380D01*
X166393904Y-96845380D01*
X167870095Y-95845380D02*
X167393904Y-95845380D01*
X167346285Y-96321571D01*
X167393904Y-96273952D01*
X167489142Y-96226333D01*
X167727238Y-96226333D01*
X167822476Y-96273952D01*
X167870095Y-96321571D01*
X167917714Y-96416809D01*
X167917714Y-96654904D01*
X167870095Y-96750142D01*
X167822476Y-96797761D01*
X167727238Y-96845380D01*
X167489142Y-96845380D01*
X167393904Y-96797761D01*
X167346285Y-96750142D01*
X131572095Y-102957380D02*
X131572095Y-103766904D01*
X131619714Y-103862142D01*
X131667333Y-103909761D01*
X131762571Y-103957380D01*
X131953047Y-103957380D01*
X132048285Y-103909761D01*
X132095904Y-103862142D01*
X132143523Y-103766904D01*
X132143523Y-102957380D01*
X133048285Y-103290714D02*
X133048285Y-103957380D01*
X132810190Y-102909761D02*
X132572095Y-103624047D01*
X133191142Y-103624047D01*
X130643333Y-85574142D02*
X130595714Y-85621761D01*
X130452857Y-85669380D01*
X130357619Y-85669380D01*
X130214761Y-85621761D01*
X130119523Y-85526523D01*
X130071904Y-85431285D01*
X130024285Y-85240809D01*
X130024285Y-85097952D01*
X130071904Y-84907476D01*
X130119523Y-84812238D01*
X130214761Y-84717000D01*
X130357619Y-84669380D01*
X130452857Y-84669380D01*
X130595714Y-84717000D01*
X130643333Y-84764619D01*
X131595714Y-85669380D02*
X131024285Y-85669380D01*
X131310000Y-85669380D02*
X131310000Y-84669380D01*
X131214761Y-84812238D01*
X131119523Y-84907476D01*
X131024285Y-84955095D01*
X163091904Y-139517380D02*
X163091904Y-138517380D01*
X163330000Y-138517380D01*
X163472857Y-138565000D01*
X163568095Y-138660238D01*
X163615714Y-138755476D01*
X163663333Y-138945952D01*
X163663333Y-139088809D01*
X163615714Y-139279285D01*
X163568095Y-139374523D01*
X163472857Y-139469761D01*
X163330000Y-139517380D01*
X163091904Y-139517380D01*
X163996666Y-138517380D02*
X164615714Y-138517380D01*
X164282380Y-138898333D01*
X164425238Y-138898333D01*
X164520476Y-138945952D01*
X164568095Y-138993571D01*
X164615714Y-139088809D01*
X164615714Y-139326904D01*
X164568095Y-139422142D01*
X164520476Y-139469761D01*
X164425238Y-139517380D01*
X164139523Y-139517380D01*
X164044285Y-139469761D01*
X163996666Y-139422142D01*
X161123333Y-78462142D02*
X161075714Y-78509761D01*
X160932857Y-78557380D01*
X160837619Y-78557380D01*
X160694761Y-78509761D01*
X160599523Y-78414523D01*
X160551904Y-78319285D01*
X160504285Y-78128809D01*
X160504285Y-77985952D01*
X160551904Y-77795476D01*
X160599523Y-77700238D01*
X160694761Y-77605000D01*
X160837619Y-77557380D01*
X160932857Y-77557380D01*
X161075714Y-77605000D01*
X161123333Y-77652619D01*
X161504285Y-77652619D02*
X161551904Y-77605000D01*
X161647142Y-77557380D01*
X161885238Y-77557380D01*
X161980476Y-77605000D01*
X162028095Y-77652619D01*
X162075714Y-77747857D01*
X162075714Y-77843095D01*
X162028095Y-77985952D01*
X161456666Y-78557380D01*
X162075714Y-78557380D01*
X135138095Y-85397380D02*
X135138095Y-86206904D01*
X135185714Y-86302142D01*
X135233333Y-86349761D01*
X135328571Y-86397380D01*
X135519047Y-86397380D01*
X135614285Y-86349761D01*
X135661904Y-86302142D01*
X135709523Y-86206904D01*
X135709523Y-85397380D01*
X136090476Y-85397380D02*
X136709523Y-85397380D01*
X136376190Y-85778333D01*
X136519047Y-85778333D01*
X136614285Y-85825952D01*
X136661904Y-85873571D01*
X136709523Y-85968809D01*
X136709523Y-86206904D01*
X136661904Y-86302142D01*
X136614285Y-86349761D01*
X136519047Y-86397380D01*
X136233333Y-86397380D01*
X136138095Y-86349761D01*
X136090476Y-86302142D01*
X148661380Y-84621666D02*
X148185190Y-84955000D01*
X148661380Y-85193095D02*
X147661380Y-85193095D01*
X147661380Y-84812142D01*
X147709000Y-84716904D01*
X147756619Y-84669285D01*
X147851857Y-84621666D01*
X147994714Y-84621666D01*
X148089952Y-84669285D01*
X148137571Y-84716904D01*
X148185190Y-84812142D01*
X148185190Y-85193095D01*
X148661380Y-83669285D02*
X148661380Y-84240714D01*
X148661380Y-83955000D02*
X147661380Y-83955000D01*
X147804238Y-84050238D01*
X147899476Y-84145476D01*
X147947095Y-84240714D01*
X146548095Y-138297380D02*
X146548095Y-139106904D01*
X146595714Y-139202142D01*
X146643333Y-139249761D01*
X146738571Y-139297380D01*
X146929047Y-139297380D01*
X147024285Y-139249761D01*
X147071904Y-139202142D01*
X147119523Y-139106904D01*
X147119523Y-138297380D01*
X148119523Y-139297380D02*
X147548095Y-139297380D01*
X147833809Y-139297380D02*
X147833809Y-138297380D01*
X147738571Y-138440238D01*
X147643333Y-138535476D01*
X147548095Y-138583095D01*
X167330380Y-126531666D02*
X166854190Y-126865000D01*
X167330380Y-127103095D02*
X166330380Y-127103095D01*
X166330380Y-126722142D01*
X166378000Y-126626904D01*
X166425619Y-126579285D01*
X166520857Y-126531666D01*
X166663714Y-126531666D01*
X166758952Y-126579285D01*
X166806571Y-126626904D01*
X166854190Y-126722142D01*
X166854190Y-127103095D01*
X166758952Y-125960238D02*
X166711333Y-126055476D01*
X166663714Y-126103095D01*
X166568476Y-126150714D01*
X166520857Y-126150714D01*
X166425619Y-126103095D01*
X166378000Y-126055476D01*
X166330380Y-125960238D01*
X166330380Y-125769761D01*
X166378000Y-125674523D01*
X166425619Y-125626904D01*
X166520857Y-125579285D01*
X166568476Y-125579285D01*
X166663714Y-125626904D01*
X166711333Y-125674523D01*
X166758952Y-125769761D01*
X166758952Y-125960238D01*
X166806571Y-126055476D01*
X166854190Y-126103095D01*
X166949428Y-126150714D01*
X167139904Y-126150714D01*
X167235142Y-126103095D01*
X167282761Y-126055476D01*
X167330380Y-125960238D01*
X167330380Y-125769761D01*
X167282761Y-125674523D01*
X167235142Y-125626904D01*
X167139904Y-125579285D01*
X166949428Y-125579285D01*
X166854190Y-125626904D01*
X166806571Y-125674523D01*
X166758952Y-125769761D01*
X156154380Y-84091666D02*
X155678190Y-84425000D01*
X156154380Y-84663095D02*
X155154380Y-84663095D01*
X155154380Y-84282142D01*
X155202000Y-84186904D01*
X155249619Y-84139285D01*
X155344857Y-84091666D01*
X155487714Y-84091666D01*
X155582952Y-84139285D01*
X155630571Y-84186904D01*
X155678190Y-84282142D01*
X155678190Y-84663095D01*
X155487714Y-83234523D02*
X156154380Y-83234523D01*
X155106761Y-83472619D02*
X155821047Y-83710714D01*
X155821047Y-83091666D01*
X161234380Y-128817666D02*
X160758190Y-129151000D01*
X161234380Y-129389095D02*
X160234380Y-129389095D01*
X160234380Y-129008142D01*
X160282000Y-128912904D01*
X160329619Y-128865285D01*
X160424857Y-128817666D01*
X160567714Y-128817666D01*
X160662952Y-128865285D01*
X160710571Y-128912904D01*
X160758190Y-129008142D01*
X160758190Y-129389095D01*
X160234380Y-127912904D02*
X160234380Y-128389095D01*
X160710571Y-128436714D01*
X160662952Y-128389095D01*
X160615333Y-128293857D01*
X160615333Y-128055761D01*
X160662952Y-127960523D01*
X160710571Y-127912904D01*
X160805809Y-127865285D01*
X161043904Y-127865285D01*
X161139142Y-127912904D01*
X161186761Y-127960523D01*
X161234380Y-128055761D01*
X161234380Y-128293857D01*
X161186761Y-128389095D01*
X161139142Y-128436714D01*
X124936333Y-80113142D02*
X124888714Y-80160761D01*
X124745857Y-80208380D01*
X124650619Y-80208380D01*
X124507761Y-80160761D01*
X124412523Y-80065523D01*
X124364904Y-79970285D01*
X124317285Y-79779809D01*
X124317285Y-79636952D01*
X124364904Y-79446476D01*
X124412523Y-79351238D01*
X124507761Y-79256000D01*
X124650619Y-79208380D01*
X124745857Y-79208380D01*
X124888714Y-79256000D01*
X124936333Y-79303619D01*
X125364904Y-80208380D02*
X125364904Y-79208380D01*
X125745857Y-79208380D01*
X125841095Y-79256000D01*
X125888714Y-79303619D01*
X125936333Y-79398857D01*
X125936333Y-79541714D01*
X125888714Y-79636952D01*
X125841095Y-79684571D01*
X125745857Y-79732190D01*
X125364904Y-79732190D01*
X126888714Y-80208380D02*
X126317285Y-80208380D01*
X126603000Y-80208380D02*
X126603000Y-79208380D01*
X126507761Y-79351238D01*
X126412523Y-79446476D01*
X126317285Y-79494095D01*
X134310380Y-134151666D02*
X133834190Y-134485000D01*
X134310380Y-134723095D02*
X133310380Y-134723095D01*
X133310380Y-134342142D01*
X133358000Y-134246904D01*
X133405619Y-134199285D01*
X133500857Y-134151666D01*
X133643714Y-134151666D01*
X133738952Y-134199285D01*
X133786571Y-134246904D01*
X133834190Y-134342142D01*
X133834190Y-134723095D01*
X134310380Y-133675476D02*
X134310380Y-133485000D01*
X134262761Y-133389761D01*
X134215142Y-133342142D01*
X134072285Y-133246904D01*
X133881809Y-133199285D01*
X133500857Y-133199285D01*
X133405619Y-133246904D01*
X133358000Y-133294523D01*
X133310380Y-133389761D01*
X133310380Y-133580238D01*
X133358000Y-133675476D01*
X133405619Y-133723095D01*
X133500857Y-133770714D01*
X133738952Y-133770714D01*
X133834190Y-133723095D01*
X133881809Y-133675476D01*
X133929428Y-133580238D01*
X133929428Y-133389761D01*
X133881809Y-133294523D01*
X133834190Y-133246904D01*
X133738952Y-133199285D01*
X155900380Y-115101666D02*
X155424190Y-115435000D01*
X155900380Y-115673095D02*
X154900380Y-115673095D01*
X154900380Y-115292142D01*
X154948000Y-115196904D01*
X154995619Y-115149285D01*
X155090857Y-115101666D01*
X155233714Y-115101666D01*
X155328952Y-115149285D01*
X155376571Y-115196904D01*
X155424190Y-115292142D01*
X155424190Y-115673095D01*
X154900380Y-114768333D02*
X154900380Y-114101666D01*
X155900380Y-114530238D01*
X172386666Y-138292380D02*
X172386666Y-139006666D01*
X172339047Y-139149523D01*
X172243809Y-139244761D01*
X172100952Y-139292380D01*
X172005714Y-139292380D01*
X173386666Y-139292380D02*
X172815238Y-139292380D01*
X173100952Y-139292380D02*
X173100952Y-138292380D01*
X173005714Y-138435238D01*
X172910476Y-138530476D01*
X172815238Y-138578095D01*
X166041666Y-105272380D02*
X166041666Y-105986666D01*
X165994047Y-106129523D01*
X165898809Y-106224761D01*
X165755952Y-106272380D01*
X165660714Y-106272380D01*
X166994047Y-105272380D02*
X166517857Y-105272380D01*
X166470238Y-105748571D01*
X166517857Y-105700952D01*
X166613095Y-105653333D01*
X166851190Y-105653333D01*
X166946428Y-105700952D01*
X166994047Y-105748571D01*
X167041666Y-105843809D01*
X167041666Y-106081904D01*
X166994047Y-106177142D01*
X166946428Y-106224761D01*
X166851190Y-106272380D01*
X166613095Y-106272380D01*
X166517857Y-106224761D01*
X166470238Y-106177142D01*
X151638095Y-95337380D02*
X151638095Y-96146904D01*
X151685714Y-96242142D01*
X151733333Y-96289761D01*
X151828571Y-96337380D01*
X152019047Y-96337380D01*
X152114285Y-96289761D01*
X152161904Y-96242142D01*
X152209523Y-96146904D01*
X152209523Y-95337380D01*
X152638095Y-95432619D02*
X152685714Y-95385000D01*
X152780952Y-95337380D01*
X153019047Y-95337380D01*
X153114285Y-95385000D01*
X153161904Y-95432619D01*
X153209523Y-95527857D01*
X153209523Y-95623095D01*
X153161904Y-95765952D01*
X152590476Y-96337380D01*
X153209523Y-96337380D01*
X154376380Y-126531666D02*
X153900190Y-126865000D01*
X154376380Y-127103095D02*
X153376380Y-127103095D01*
X153376380Y-126722142D01*
X153424000Y-126626904D01*
X153471619Y-126579285D01*
X153566857Y-126531666D01*
X153709714Y-126531666D01*
X153804952Y-126579285D01*
X153852571Y-126626904D01*
X153900190Y-126722142D01*
X153900190Y-127103095D01*
X153376380Y-125674523D02*
X153376380Y-125865000D01*
X153424000Y-125960238D01*
X153471619Y-126007857D01*
X153614476Y-126103095D01*
X153804952Y-126150714D01*
X154185904Y-126150714D01*
X154281142Y-126103095D01*
X154328761Y-126055476D01*
X154376380Y-125960238D01*
X154376380Y-125769761D01*
X154328761Y-125674523D01*
X154281142Y-125626904D01*
X154185904Y-125579285D01*
X153947809Y-125579285D01*
X153852571Y-125626904D01*
X153804952Y-125674523D01*
X153757333Y-125769761D01*
X153757333Y-125960238D01*
X153804952Y-126055476D01*
X153852571Y-126103095D01*
X153947809Y-126150714D01*
X138263333Y-83034142D02*
X138215714Y-83081761D01*
X138072857Y-83129380D01*
X137977619Y-83129380D01*
X137834761Y-83081761D01*
X137739523Y-82986523D01*
X137691904Y-82891285D01*
X137644285Y-82700809D01*
X137644285Y-82557952D01*
X137691904Y-82367476D01*
X137739523Y-82272238D01*
X137834761Y-82177000D01*
X137977619Y-82129380D01*
X138072857Y-82129380D01*
X138215714Y-82177000D01*
X138263333Y-82224619D01*
X139120476Y-82129380D02*
X138930000Y-82129380D01*
X138834761Y-82177000D01*
X138787142Y-82224619D01*
X138691904Y-82367476D01*
X138644285Y-82557952D01*
X138644285Y-82938904D01*
X138691904Y-83034142D01*
X138739523Y-83081761D01*
X138834761Y-83129380D01*
X139025238Y-83129380D01*
X139120476Y-83081761D01*
X139168095Y-83034142D01*
X139215714Y-82938904D01*
X139215714Y-82700809D01*
X139168095Y-82605571D01*
X139120476Y-82557952D01*
X139025238Y-82510333D01*
X138834761Y-82510333D01*
X138739523Y-82557952D01*
X138691904Y-82605571D01*
X138644285Y-82700809D01*
X129322380Y-91566904D02*
X130131904Y-91566904D01*
X130227142Y-91519285D01*
X130274761Y-91471666D01*
X130322380Y-91376428D01*
X130322380Y-91185952D01*
X130274761Y-91090714D01*
X130227142Y-91043095D01*
X130131904Y-90995476D01*
X129322380Y-90995476D01*
X129322380Y-90043095D02*
X129322380Y-90519285D01*
X129798571Y-90566904D01*
X129750952Y-90519285D01*
X129703333Y-90424047D01*
X129703333Y-90185952D01*
X129750952Y-90090714D01*
X129798571Y-90043095D01*
X129893809Y-89995476D01*
X130131904Y-89995476D01*
X130227142Y-90043095D01*
X130274761Y-90090714D01*
X130322380Y-90185952D01*
X130322380Y-90424047D01*
X130274761Y-90519285D01*
X130227142Y-90566904D01*
X155871904Y-139517380D02*
X155871904Y-138517380D01*
X156110000Y-138517380D01*
X156252857Y-138565000D01*
X156348095Y-138660238D01*
X156395714Y-138755476D01*
X156443333Y-138945952D01*
X156443333Y-139088809D01*
X156395714Y-139279285D01*
X156348095Y-139374523D01*
X156252857Y-139469761D01*
X156110000Y-139517380D01*
X155871904Y-139517380D01*
X156824285Y-138612619D02*
X156871904Y-138565000D01*
X156967142Y-138517380D01*
X157205238Y-138517380D01*
X157300476Y-138565000D01*
X157348095Y-138612619D01*
X157395714Y-138707857D01*
X157395714Y-138803095D01*
X157348095Y-138945952D01*
X156776666Y-139517380D01*
X157395714Y-139517380D01*
X124126666Y-138517380D02*
X124126666Y-139231666D01*
X124079047Y-139374523D01*
X123983809Y-139469761D01*
X123840952Y-139517380D01*
X123745714Y-139517380D01*
X124555238Y-138612619D02*
X124602857Y-138565000D01*
X124698095Y-138517380D01*
X124936190Y-138517380D01*
X125031428Y-138565000D01*
X125079047Y-138612619D01*
X125126666Y-138707857D01*
X125126666Y-138803095D01*
X125079047Y-138945952D01*
X124507619Y-139517380D01*
X125126666Y-139517380D01*
X162282190Y-110585190D02*
X162758380Y-110585190D01*
X161758380Y-110918523D02*
X162282190Y-110585190D01*
X161758380Y-110251857D01*
X162758380Y-109394714D02*
X162758380Y-109966142D01*
X162758380Y-109680428D02*
X161758380Y-109680428D01*
X161901238Y-109775666D01*
X161996476Y-109870904D01*
X162044095Y-109966142D01*
X138727142Y-113831666D02*
X138774761Y-113879285D01*
X138822380Y-114022142D01*
X138822380Y-114117380D01*
X138774761Y-114260238D01*
X138679523Y-114355476D01*
X138584285Y-114403095D01*
X138393809Y-114450714D01*
X138250952Y-114450714D01*
X138060476Y-114403095D01*
X137965238Y-114355476D01*
X137870000Y-114260238D01*
X137822380Y-114117380D01*
X137822380Y-114022142D01*
X137870000Y-113879285D01*
X137917619Y-113831666D01*
X137822380Y-112926904D02*
X137822380Y-113403095D01*
X138298571Y-113450714D01*
X138250952Y-113403095D01*
X138203333Y-113307857D01*
X138203333Y-113069761D01*
X138250952Y-112974523D01*
X138298571Y-112926904D01*
X138393809Y-112879285D01*
X138631904Y-112879285D01*
X138727142Y-112926904D01*
X138774761Y-112974523D01*
X138822380Y-113069761D01*
X138822380Y-113307857D01*
X138774761Y-113403095D01*
X138727142Y-113450714D01*
X158773904Y-96845380D02*
X158773904Y-95845380D01*
X159012000Y-95845380D01*
X159154857Y-95893000D01*
X159250095Y-95988238D01*
X159297714Y-96083476D01*
X159345333Y-96273952D01*
X159345333Y-96416809D01*
X159297714Y-96607285D01*
X159250095Y-96702523D01*
X159154857Y-96797761D01*
X159012000Y-96845380D01*
X158773904Y-96845380D01*
X160202476Y-96178714D02*
X160202476Y-96845380D01*
X159964380Y-95797761D02*
X159726285Y-96512047D01*
X160345333Y-96512047D01*
X138787142Y-123991666D02*
X138834761Y-124039285D01*
X138882380Y-124182142D01*
X138882380Y-124277380D01*
X138834761Y-124420238D01*
X138739523Y-124515476D01*
X138644285Y-124563095D01*
X138453809Y-124610714D01*
X138310952Y-124610714D01*
X138120476Y-124563095D01*
X138025238Y-124515476D01*
X137930000Y-124420238D01*
X137882380Y-124277380D01*
X137882380Y-124182142D01*
X137930000Y-124039285D01*
X137977619Y-123991666D01*
X137882380Y-123658333D02*
X137882380Y-123039285D01*
X138263333Y-123372619D01*
X138263333Y-123229761D01*
X138310952Y-123134523D01*
X138358571Y-123086904D01*
X138453809Y-123039285D01*
X138691904Y-123039285D01*
X138787142Y-123086904D01*
X138834761Y-123134523D01*
X138882380Y-123229761D01*
X138882380Y-123515476D01*
X138834761Y-123610714D01*
X138787142Y-123658333D01*
X172386666Y-112952380D02*
X172386666Y-113666666D01*
X172339047Y-113809523D01*
X172243809Y-113904761D01*
X172100952Y-113952380D01*
X172005714Y-113952380D01*
X172767619Y-112952380D02*
X173386666Y-112952380D01*
X173053333Y-113333333D01*
X173196190Y-113333333D01*
X173291428Y-113380952D01*
X173339047Y-113428571D01*
X173386666Y-113523809D01*
X173386666Y-113761904D01*
X173339047Y-113857142D01*
X173291428Y-113904761D01*
X173196190Y-113952380D01*
X172910476Y-113952380D01*
X172815238Y-113904761D01*
X172767619Y-113857142D01*
X160472380Y-125229857D02*
X159996190Y-125563190D01*
X160472380Y-125801285D02*
X159472380Y-125801285D01*
X159472380Y-125420333D01*
X159520000Y-125325095D01*
X159567619Y-125277476D01*
X159662857Y-125229857D01*
X159805714Y-125229857D01*
X159900952Y-125277476D01*
X159948571Y-125325095D01*
X159996190Y-125420333D01*
X159996190Y-125801285D01*
X160472380Y-124277476D02*
X160472380Y-124848904D01*
X160472380Y-124563190D02*
X159472380Y-124563190D01*
X159615238Y-124658428D01*
X159710476Y-124753666D01*
X159758095Y-124848904D01*
X159472380Y-123658428D02*
X159472380Y-123563190D01*
X159520000Y-123467952D01*
X159567619Y-123420333D01*
X159662857Y-123372714D01*
X159853333Y-123325095D01*
X160091428Y-123325095D01*
X160281904Y-123372714D01*
X160377142Y-123420333D01*
X160424761Y-123467952D01*
X160472380Y-123563190D01*
X160472380Y-123658428D01*
X160424761Y-123753666D01*
X160377142Y-123801285D01*
X160281904Y-123848904D01*
X160091428Y-123896523D01*
X159853333Y-123896523D01*
X159662857Y-123848904D01*
X159567619Y-123801285D01*
X159520000Y-123753666D01*
X159472380Y-123658428D01*
X144470380Y-84621666D02*
X143994190Y-84955000D01*
X144470380Y-85193095D02*
X143470380Y-85193095D01*
X143470380Y-84812142D01*
X143518000Y-84716904D01*
X143565619Y-84669285D01*
X143660857Y-84621666D01*
X143803714Y-84621666D01*
X143898952Y-84669285D01*
X143946571Y-84716904D01*
X143994190Y-84812142D01*
X143994190Y-85193095D01*
X143565619Y-84240714D02*
X143518000Y-84193095D01*
X143470380Y-84097857D01*
X143470380Y-83859761D01*
X143518000Y-83764523D01*
X143565619Y-83716904D01*
X143660857Y-83669285D01*
X143756095Y-83669285D01*
X143898952Y-83716904D01*
X144470380Y-84288333D01*
X144470380Y-83669285D01*
D12*
X123130000Y-98892500D02*
X123130000Y-97562500D01*
X123130000Y-100162500D02*
X123130000Y-118002500D01*
X123130000Y-100162500D02*
X125790000Y-100162500D01*
X125790000Y-100162500D02*
X125790000Y-118002500D01*
X123130000Y-118002500D02*
X125790000Y-118002500D01*
X123130000Y-97562500D02*
X124460000Y-97562500D01*
X164180000Y-85845000D02*
X166020000Y-85845000D01*
X165100000Y-86795000D02*
X165100000Y-85845000D01*
X164180000Y-82005000D02*
X164180000Y-85845000D01*
X165100000Y-81055000D02*
X165100000Y-82005000D01*
X166020000Y-82005000D02*
X164180000Y-82005000D01*
X166020000Y-85845000D02*
X166020000Y-82005000D01*
X155630000Y-72425000D02*
X155630000Y-73935000D01*
X152360000Y-77066000D02*
X162600000Y-77066000D01*
X152360000Y-73935000D02*
X162600000Y-73935000D01*
X159331000Y-72425000D02*
X159331000Y-73935000D01*
X152360000Y-72425000D02*
X162600000Y-72425000D01*
X152360000Y-72425000D02*
X152360000Y-77066000D01*
X162600000Y-72425000D02*
X162600000Y-77066000D01*
X139250000Y-136105000D02*
X139250000Y-131865000D01*
X139250000Y-132585000D02*
X137010000Y-132585000D01*
X137010000Y-131865000D02*
X137010000Y-136105000D01*
X139250000Y-131865000D02*
X137010000Y-131865000D01*
X137010000Y-136105000D02*
X139250000Y-136105000D01*
X138130000Y-136755000D02*
X138130000Y-136105000D01*
X138130000Y-131215000D02*
X138130000Y-131865000D01*
X139250000Y-132465000D02*
X137010000Y-132465000D01*
X139250000Y-132705000D02*
X137010000Y-132705000D01*
X162275000Y-118096000D02*
X162275000Y-119354000D01*
X164115000Y-118096000D02*
X164115000Y-119354000D01*
X164115000Y-113016000D02*
X164115000Y-114274000D01*
X162275000Y-113016000D02*
X162275000Y-114274000D01*
X135411000Y-76605000D02*
X135411000Y-78049000D01*
X130144759Y-73411000D02*
X130144759Y-74041000D01*
X134851000Y-76605000D02*
X134851000Y-78421000D01*
X134251000Y-76605000D02*
X134251000Y-78663000D01*
X133490000Y-72338000D02*
X133490000Y-78792000D01*
X133890000Y-72383000D02*
X133890000Y-74525000D01*
X136531000Y-74932000D02*
X136531000Y-76198000D01*
X135931000Y-73621000D02*
X135931000Y-77509000D01*
X133330000Y-72335000D02*
X133330000Y-78795000D01*
X134931000Y-76605000D02*
X134931000Y-78377000D01*
X136171000Y-73984000D02*
X136171000Y-77146000D01*
X133930000Y-76605000D02*
X133930000Y-78740000D01*
X133930000Y-72390000D02*
X133930000Y-74525000D01*
X133690000Y-72354000D02*
X133690000Y-74525000D01*
X135371000Y-76605000D02*
X135371000Y-78081000D01*
X133570000Y-76605000D02*
X133570000Y-78787000D01*
X133610000Y-76605000D02*
X133610000Y-78783000D01*
X135851000Y-73521000D02*
X135851000Y-77609000D01*
X135651000Y-73300000D02*
X135651000Y-77830000D01*
X134891000Y-76605000D02*
X134891000Y-78399000D01*
X134291000Y-76605000D02*
X134291000Y-78651000D01*
X134611000Y-72595000D02*
X134611000Y-74525000D01*
X134731000Y-76605000D02*
X134731000Y-78481000D01*
X136451000Y-74625000D02*
X136451000Y-76505000D01*
X134931000Y-72753000D02*
X134931000Y-74525000D01*
X134051000Y-76605000D02*
X134051000Y-78715000D01*
X134891000Y-72731000D02*
X134891000Y-74525000D01*
X135611000Y-73260000D02*
X135611000Y-74525000D01*
X135451000Y-73115000D02*
X135451000Y-74525000D01*
X134651000Y-72613000D02*
X134651000Y-74525000D01*
X134051000Y-72415000D02*
X134051000Y-74525000D01*
X134010000Y-72406000D02*
X134010000Y-74525000D01*
X136411000Y-74506000D02*
X136411000Y-76624000D01*
X136091000Y-73851000D02*
X136091000Y-77279000D01*
X136371000Y-74400000D02*
X136371000Y-76730000D01*
X134651000Y-76605000D02*
X134651000Y-78517000D01*
X136051000Y-73789000D02*
X136051000Y-77341000D01*
X136211000Y-74056000D02*
X136211000Y-77074000D01*
X135371000Y-73049000D02*
X135371000Y-74525000D01*
X134331000Y-72491000D02*
X134331000Y-74525000D01*
X133850000Y-76605000D02*
X133850000Y-78754000D01*
X134771000Y-76605000D02*
X134771000Y-78461000D01*
X134691000Y-76605000D02*
X134691000Y-78499000D01*
X133370000Y-72335000D02*
X133370000Y-78795000D01*
X135731000Y-73383000D02*
X135731000Y-77747000D01*
X135011000Y-72799000D02*
X135011000Y-74525000D01*
X133770000Y-76605000D02*
X133770000Y-78766000D01*
X134371000Y-76605000D02*
X134371000Y-78626000D01*
X135011000Y-76605000D02*
X135011000Y-78331000D01*
X135531000Y-76605000D02*
X135531000Y-77945000D01*
X135291000Y-76605000D02*
X135291000Y-78143000D01*
X135051000Y-76605000D02*
X135051000Y-78307000D01*
X135331000Y-76605000D02*
X135331000Y-78113000D01*
X136251000Y-74133000D02*
X136251000Y-76997000D01*
X135571000Y-73222000D02*
X135571000Y-74525000D01*
X135171000Y-72901000D02*
X135171000Y-74525000D01*
X134571000Y-72579000D02*
X134571000Y-74525000D01*
X133810000Y-72370000D02*
X133810000Y-74525000D01*
X134851000Y-72709000D02*
X134851000Y-74525000D01*
X134211000Y-76605000D02*
X134211000Y-78675000D01*
X135771000Y-73428000D02*
X135771000Y-77702000D01*
X134531000Y-72563000D02*
X134531000Y-74525000D01*
X135491000Y-73149000D02*
X135491000Y-74525000D01*
X134010000Y-76605000D02*
X134010000Y-78724000D01*
X136131000Y-73915000D02*
X136131000Y-77215000D01*
X134171000Y-76605000D02*
X134171000Y-78686000D01*
X135091000Y-76605000D02*
X135091000Y-78281000D01*
X133690000Y-76605000D02*
X133690000Y-78776000D01*
X134491000Y-72547000D02*
X134491000Y-74525000D01*
X135251000Y-72958000D02*
X135251000Y-74525000D01*
X134971000Y-76605000D02*
X134971000Y-78355000D01*
X135091000Y-72849000D02*
X135091000Y-74525000D01*
X133410000Y-72335000D02*
X133410000Y-78795000D01*
X133650000Y-72350000D02*
X133650000Y-74525000D01*
X134691000Y-72631000D02*
X134691000Y-74525000D01*
X136331000Y-74303000D02*
X136331000Y-76827000D01*
X133970000Y-72398000D02*
X133970000Y-74525000D01*
X136011000Y-73731000D02*
X136011000Y-77399000D01*
X134451000Y-76605000D02*
X134451000Y-78598000D01*
X134531000Y-76605000D02*
X134531000Y-78567000D01*
X133970000Y-76605000D02*
X133970000Y-78732000D01*
X133650000Y-76605000D02*
X133650000Y-78780000D01*
X133850000Y-72376000D02*
X133850000Y-74525000D01*
X134171000Y-72444000D02*
X134171000Y-74525000D01*
X134771000Y-72669000D02*
X134771000Y-74525000D01*
X134331000Y-76605000D02*
X134331000Y-78639000D01*
X136291000Y-74215000D02*
X136291000Y-76915000D01*
X133450000Y-72337000D02*
X133450000Y-78793000D01*
X134291000Y-72479000D02*
X134291000Y-74525000D01*
X135491000Y-76605000D02*
X135491000Y-77981000D01*
X135171000Y-76605000D02*
X135171000Y-78229000D01*
X136571000Y-75163000D02*
X136571000Y-75967000D01*
X134091000Y-72424000D02*
X134091000Y-74525000D01*
X134211000Y-72455000D02*
X134211000Y-74525000D01*
X135811000Y-73473000D02*
X135811000Y-77657000D01*
X134411000Y-76605000D02*
X134411000Y-78612000D01*
X135531000Y-73185000D02*
X135531000Y-74525000D01*
X134251000Y-72467000D02*
X134251000Y-74525000D01*
X135291000Y-72987000D02*
X135291000Y-74525000D01*
X135051000Y-72823000D02*
X135051000Y-74525000D01*
X134411000Y-72518000D02*
X134411000Y-74525000D01*
X135571000Y-76605000D02*
X135571000Y-77908000D01*
X133610000Y-72347000D02*
X133610000Y-74525000D01*
X135131000Y-76605000D02*
X135131000Y-78255000D01*
X134451000Y-72532000D02*
X134451000Y-74525000D01*
X135691000Y-73341000D02*
X135691000Y-77789000D01*
X133730000Y-76605000D02*
X133730000Y-78771000D01*
X135411000Y-73081000D02*
X135411000Y-74525000D01*
X133810000Y-76605000D02*
X133810000Y-78760000D01*
X133770000Y-72364000D02*
X133770000Y-74525000D01*
X133730000Y-72359000D02*
X133730000Y-74525000D01*
X134131000Y-76605000D02*
X134131000Y-78696000D01*
X135451000Y-76605000D02*
X135451000Y-78015000D01*
X135331000Y-73017000D02*
X135331000Y-74525000D01*
X133530000Y-72341000D02*
X133530000Y-78789000D01*
X134491000Y-76605000D02*
X134491000Y-78583000D01*
X133890000Y-76605000D02*
X133890000Y-78747000D01*
X129829759Y-73726000D02*
X130459759Y-73726000D01*
X135211000Y-76605000D02*
X135211000Y-78201000D01*
X134731000Y-72649000D02*
X134731000Y-74525000D01*
X134091000Y-76605000D02*
X134091000Y-78706000D01*
X135611000Y-76605000D02*
X135611000Y-77870000D01*
X134571000Y-76605000D02*
X134571000Y-78551000D01*
X134131000Y-72434000D02*
X134131000Y-74525000D01*
X136491000Y-74763000D02*
X136491000Y-76367000D01*
X135211000Y-72929000D02*
X135211000Y-74525000D01*
X135891000Y-73570000D02*
X135891000Y-77560000D01*
X135251000Y-76605000D02*
X135251000Y-78172000D01*
X134611000Y-76605000D02*
X134611000Y-78535000D01*
X135971000Y-73675000D02*
X135971000Y-77455000D01*
X134811000Y-72689000D02*
X134811000Y-74525000D01*
X134371000Y-72504000D02*
X134371000Y-74525000D01*
X134971000Y-72775000D02*
X134971000Y-74525000D01*
X134811000Y-76605000D02*
X134811000Y-78441000D01*
X135131000Y-72875000D02*
X135131000Y-74525000D01*
X133570000Y-72343000D02*
X133570000Y-74525000D01*
X136600000Y-75565000D02*
G75*
G03*
X136600000Y-75565000I-3270000J0D01*
G01*
X129390000Y-107935000D02*
X129390000Y-111975000D01*
X130810000Y-112665000D02*
X130810000Y-111975000D01*
X132230000Y-107935000D02*
X129390000Y-107935000D01*
X132230000Y-111975000D02*
X132230000Y-107935000D01*
X129390000Y-111975000D02*
X132230000Y-111975000D01*
X130810000Y-107245000D02*
X130810000Y-107935000D01*
X150660000Y-81745000D02*
X150660000Y-82435000D01*
X150660000Y-87165000D02*
X150660000Y-86475000D01*
X152080000Y-82435000D02*
X149240000Y-82435000D01*
X149240000Y-86475000D02*
X152080000Y-86475000D01*
X149240000Y-82435000D02*
X149240000Y-86475000D01*
X152080000Y-86475000D02*
X152080000Y-82435000D01*
X148680000Y-76512500D02*
X148230000Y-76512500D01*
X148680000Y-74662500D02*
X148680000Y-76512500D01*
X146480000Y-77062500D02*
X146480000Y-76612500D01*
X146480000Y-77062500D02*
X146030000Y-77062500D01*
X140880000Y-72112500D02*
X140880000Y-72362500D01*
X148680000Y-72112500D02*
X148680000Y-72362500D01*
X140880000Y-74662500D02*
X140880000Y-76512500D01*
X140880000Y-76512500D02*
X141330000Y-76512500D01*
X170430000Y-80335000D02*
X171930000Y-80335000D01*
X167930000Y-74585000D02*
X167930000Y-79085000D01*
X171930000Y-73335000D02*
X170430000Y-73335000D01*
X174430000Y-79085000D02*
X174430000Y-74585000D01*
X161590000Y-91800000D02*
X161590000Y-94890000D01*
X167140000Y-93345462D02*
G75*
G03*
X161590000Y-91800170I-2990000J462D01*
G01*
X161590000Y-94889830D02*
G75*
G03*
X167140000Y-93344538I2560000J1544830D01*
G01*
X166650000Y-93345000D02*
G75*
G03*
X166650000Y-93345000I-2500000J0D01*
G01*
X133750000Y-105415000D02*
X135010000Y-105415000D01*
X133750000Y-101655000D02*
X133750000Y-105415000D01*
X140570000Y-105415000D02*
X139310000Y-105415000D01*
X140570000Y-99405000D02*
X140570000Y-105415000D01*
X128790000Y-84097000D02*
X132830000Y-84097000D01*
X132830000Y-81257000D02*
X128790000Y-81257000D01*
X128790000Y-81257000D02*
X128790000Y-84097000D01*
X132830000Y-84097000D02*
X132830000Y-81257000D01*
X133520000Y-82677000D02*
X132830000Y-82677000D01*
X128100000Y-82677000D02*
X128790000Y-82677000D01*
X161270000Y-133710000D02*
X161270000Y-136800000D01*
X161270000Y-136799830D02*
G75*
G03*
X166820000Y-135254538I2560000J1544830D01*
G01*
X166820000Y-135255462D02*
G75*
G03*
X161270000Y-133710170I-2990000J462D01*
G01*
X166330000Y-135255000D02*
G75*
G03*
X166330000Y-135255000I-2500000J0D01*
G01*
X162710000Y-85945000D02*
X162710000Y-81905000D01*
X161290000Y-86635000D02*
X161290000Y-85945000D01*
X162710000Y-81905000D02*
X159870000Y-81905000D01*
X159870000Y-85945000D02*
X162710000Y-85945000D01*
X161290000Y-81215000D02*
X161290000Y-81905000D01*
X159870000Y-81905000D02*
X159870000Y-85945000D01*
X134900000Y-86945000D02*
X133250000Y-86945000D01*
X133250000Y-86945000D02*
X133250000Y-97225000D01*
X138550000Y-86945000D02*
X136900000Y-86945000D01*
X138550000Y-97225000D02*
X138550000Y-86945000D01*
X133250000Y-97225000D02*
X138550000Y-97225000D01*
X134900000Y-86945000D02*
G75*
G03*
X136900000Y-86945000I1000000J0D01*
G01*
X143160000Y-82535000D02*
X141320000Y-82535000D01*
X141320000Y-82535000D02*
X141320000Y-86375000D01*
X141320000Y-86375000D02*
X143160000Y-86375000D01*
X142240000Y-87325000D02*
X142240000Y-86375000D01*
X142240000Y-81585000D02*
X142240000Y-82535000D01*
X143160000Y-86375000D02*
X143160000Y-82535000D01*
X149960000Y-102165000D02*
X144660000Y-102165000D01*
X148310000Y-137845000D02*
X149960000Y-137845000D01*
X149960000Y-137845000D02*
X149960000Y-102165000D01*
X144660000Y-102165000D02*
X144660000Y-137845000D01*
X144660000Y-137845000D02*
X146310000Y-137845000D01*
X148310000Y-137845000D02*
G75*
G03*
X146310000Y-137845000I-1000000J0D01*
G01*
X166020000Y-128285000D02*
X166020000Y-124445000D01*
X165100000Y-123495000D02*
X165100000Y-124445000D01*
X165100000Y-129235000D02*
X165100000Y-128285000D01*
X166020000Y-124445000D02*
X164180000Y-124445000D01*
X164180000Y-128285000D02*
X166020000Y-128285000D01*
X164180000Y-124445000D02*
X164180000Y-128285000D01*
X157480000Y-86795000D02*
X157480000Y-85845000D01*
X156560000Y-82005000D02*
X156560000Y-85845000D01*
X156560000Y-85845000D02*
X158400000Y-85845000D01*
X158400000Y-82005000D02*
X156560000Y-82005000D01*
X158400000Y-85845000D02*
X158400000Y-82005000D01*
X157480000Y-81055000D02*
X157480000Y-82005000D01*
X161640000Y-124445000D02*
X161640000Y-128285000D01*
X161640000Y-128285000D02*
X163480000Y-128285000D01*
X163480000Y-124445000D02*
X161640000Y-124445000D01*
X162560000Y-129235000D02*
X162560000Y-128285000D01*
X162560000Y-123495000D02*
X162560000Y-124445000D01*
X163480000Y-128285000D02*
X163480000Y-124445000D01*
X128311000Y-73731000D02*
X128311000Y-77399000D01*
X127151000Y-76605000D02*
X127151000Y-78421000D01*
X127111000Y-76605000D02*
X127111000Y-78441000D01*
X126711000Y-76605000D02*
X126711000Y-78612000D01*
X127191000Y-76605000D02*
X127191000Y-78399000D01*
X127151000Y-72709000D02*
X127151000Y-74525000D01*
X126270000Y-72398000D02*
X126270000Y-74525000D01*
X127911000Y-73260000D02*
X127911000Y-74525000D01*
X125750000Y-72337000D02*
X125750000Y-78793000D01*
X125670000Y-72335000D02*
X125670000Y-78795000D01*
X126230000Y-72390000D02*
X126230000Y-74525000D01*
X125870000Y-72343000D02*
X125870000Y-74525000D01*
X122444759Y-73411000D02*
X122444759Y-74041000D01*
X125950000Y-76605000D02*
X125950000Y-78780000D01*
X126471000Y-72444000D02*
X126471000Y-74525000D01*
X128591000Y-74215000D02*
X128591000Y-76915000D01*
X126030000Y-72359000D02*
X126030000Y-74525000D01*
X127031000Y-72649000D02*
X127031000Y-74525000D01*
X126070000Y-72364000D02*
X126070000Y-74525000D01*
X125910000Y-72347000D02*
X125910000Y-74525000D01*
X128631000Y-74303000D02*
X128631000Y-76827000D01*
X128191000Y-73570000D02*
X128191000Y-77560000D01*
X126631000Y-72491000D02*
X126631000Y-74525000D01*
X127511000Y-72929000D02*
X127511000Y-74525000D01*
X125790000Y-72338000D02*
X125790000Y-78792000D01*
X127831000Y-73185000D02*
X127831000Y-74525000D01*
X126511000Y-72455000D02*
X126511000Y-74525000D01*
X127791000Y-73149000D02*
X127791000Y-74525000D01*
X127271000Y-76605000D02*
X127271000Y-78355000D01*
X126871000Y-76605000D02*
X126871000Y-78551000D01*
X122129759Y-73726000D02*
X122759759Y-73726000D01*
X126791000Y-76605000D02*
X126791000Y-78583000D01*
X126871000Y-72579000D02*
X126871000Y-74525000D01*
X128351000Y-73789000D02*
X128351000Y-77341000D01*
X126310000Y-76605000D02*
X126310000Y-78724000D01*
X126190000Y-72383000D02*
X126190000Y-74525000D01*
X127231000Y-72753000D02*
X127231000Y-74525000D01*
X126471000Y-76605000D02*
X126471000Y-78686000D01*
X126831000Y-72563000D02*
X126831000Y-74525000D01*
X126711000Y-72518000D02*
X126711000Y-74525000D01*
X126030000Y-76605000D02*
X126030000Y-78771000D01*
X126511000Y-76605000D02*
X126511000Y-78675000D01*
X127711000Y-76605000D02*
X127711000Y-78049000D01*
X127871000Y-76605000D02*
X127871000Y-77908000D01*
X125710000Y-72335000D02*
X125710000Y-78795000D01*
X128151000Y-73521000D02*
X128151000Y-77609000D01*
X127711000Y-73081000D02*
X127711000Y-74525000D01*
X125990000Y-72354000D02*
X125990000Y-74525000D01*
X127271000Y-72775000D02*
X127271000Y-74525000D01*
X126551000Y-76605000D02*
X126551000Y-78663000D01*
X128831000Y-74932000D02*
X128831000Y-76198000D01*
X128711000Y-74506000D02*
X128711000Y-76624000D01*
X127431000Y-76605000D02*
X127431000Y-78255000D01*
X128471000Y-73984000D02*
X128471000Y-77146000D01*
X126150000Y-72376000D02*
X126150000Y-74525000D01*
X127311000Y-76605000D02*
X127311000Y-78331000D01*
X127791000Y-76605000D02*
X127791000Y-77981000D01*
X128671000Y-74400000D02*
X128671000Y-76730000D01*
X126591000Y-72479000D02*
X126591000Y-74525000D01*
X126070000Y-76605000D02*
X126070000Y-78766000D01*
X127871000Y-73222000D02*
X127871000Y-74525000D01*
X128071000Y-73428000D02*
X128071000Y-77702000D01*
X126951000Y-76605000D02*
X126951000Y-78517000D01*
X126110000Y-76605000D02*
X126110000Y-78760000D01*
X127111000Y-72689000D02*
X127111000Y-74525000D01*
X128231000Y-73621000D02*
X128231000Y-77509000D01*
X128791000Y-74763000D02*
X128791000Y-76367000D01*
X126751000Y-72532000D02*
X126751000Y-74525000D01*
X126591000Y-76605000D02*
X126591000Y-78651000D01*
X127071000Y-76605000D02*
X127071000Y-78461000D01*
X126671000Y-76605000D02*
X126671000Y-78626000D01*
X127311000Y-72799000D02*
X127311000Y-74525000D01*
X127951000Y-73300000D02*
X127951000Y-77830000D01*
X127551000Y-72958000D02*
X127551000Y-74525000D01*
X126431000Y-76605000D02*
X126431000Y-78696000D01*
X127031000Y-76605000D02*
X127031000Y-78481000D01*
X126351000Y-76605000D02*
X126351000Y-78715000D01*
X126310000Y-72406000D02*
X126310000Y-74525000D01*
X127551000Y-76605000D02*
X127551000Y-78172000D01*
X127631000Y-73017000D02*
X127631000Y-74525000D01*
X128511000Y-74056000D02*
X128511000Y-77074000D01*
X126190000Y-76605000D02*
X126190000Y-78747000D01*
X128031000Y-73383000D02*
X128031000Y-77747000D01*
X127391000Y-72849000D02*
X127391000Y-74525000D01*
X125950000Y-72350000D02*
X125950000Y-74525000D01*
X128751000Y-74625000D02*
X128751000Y-76505000D01*
X126551000Y-72467000D02*
X126551000Y-74525000D01*
X127391000Y-76605000D02*
X127391000Y-78281000D01*
X127751000Y-76605000D02*
X127751000Y-78015000D01*
X127991000Y-73341000D02*
X127991000Y-77789000D01*
X127071000Y-72669000D02*
X127071000Y-74525000D01*
X126431000Y-72434000D02*
X126431000Y-74525000D01*
X126951000Y-72613000D02*
X126951000Y-74525000D01*
X126230000Y-76605000D02*
X126230000Y-78740000D01*
X126791000Y-72547000D02*
X126791000Y-74525000D01*
X126671000Y-72504000D02*
X126671000Y-74525000D01*
X126110000Y-72370000D02*
X126110000Y-74525000D01*
X126831000Y-76605000D02*
X126831000Y-78567000D01*
X126991000Y-72631000D02*
X126991000Y-74525000D01*
X126351000Y-72415000D02*
X126351000Y-74525000D01*
X126391000Y-76605000D02*
X126391000Y-78706000D01*
X128871000Y-75163000D02*
X128871000Y-75967000D01*
X125830000Y-72341000D02*
X125830000Y-78789000D01*
X127671000Y-76605000D02*
X127671000Y-78081000D01*
X127511000Y-76605000D02*
X127511000Y-78201000D01*
X128111000Y-73473000D02*
X128111000Y-77657000D01*
X125630000Y-72335000D02*
X125630000Y-78795000D01*
X127231000Y-76605000D02*
X127231000Y-78377000D01*
X128431000Y-73915000D02*
X128431000Y-77215000D01*
X127351000Y-72823000D02*
X127351000Y-74525000D01*
X128391000Y-73851000D02*
X128391000Y-77279000D01*
X127471000Y-76605000D02*
X127471000Y-78229000D01*
X125910000Y-76605000D02*
X125910000Y-78783000D01*
X127431000Y-72875000D02*
X127431000Y-74525000D01*
X127191000Y-72731000D02*
X127191000Y-74525000D01*
X125870000Y-76605000D02*
X125870000Y-78787000D01*
X126150000Y-76605000D02*
X126150000Y-78754000D01*
X127671000Y-73049000D02*
X127671000Y-74525000D01*
X128551000Y-74133000D02*
X128551000Y-76997000D01*
X126751000Y-76605000D02*
X126751000Y-78598000D01*
X127631000Y-76605000D02*
X127631000Y-78113000D01*
X126391000Y-72424000D02*
X126391000Y-74525000D01*
X126911000Y-76605000D02*
X126911000Y-78535000D01*
X126991000Y-76605000D02*
X126991000Y-78499000D01*
X127751000Y-73115000D02*
X127751000Y-74525000D01*
X127351000Y-76605000D02*
X127351000Y-78307000D01*
X126270000Y-76605000D02*
X126270000Y-78732000D01*
X127591000Y-72987000D02*
X127591000Y-74525000D01*
X125990000Y-76605000D02*
X125990000Y-78776000D01*
X126911000Y-72595000D02*
X126911000Y-74525000D01*
X127831000Y-76605000D02*
X127831000Y-77945000D01*
X127471000Y-72901000D02*
X127471000Y-74525000D01*
X128271000Y-73675000D02*
X128271000Y-77455000D01*
X126631000Y-76605000D02*
X126631000Y-78639000D01*
X127911000Y-76605000D02*
X127911000Y-77870000D01*
X127591000Y-76605000D02*
X127591000Y-78143000D01*
X128900000Y-75565000D02*
G75*
G03*
X128900000Y-75565000I-3270000J0D01*
G01*
X134620000Y-135905000D02*
X136460000Y-135905000D01*
X135540000Y-136855000D02*
X135540000Y-135905000D01*
X134620000Y-132065000D02*
X134620000Y-135905000D01*
X136460000Y-135905000D02*
X136460000Y-132065000D01*
X136460000Y-132065000D02*
X134620000Y-132065000D01*
X135540000Y-131115000D02*
X135540000Y-132065000D01*
X152750000Y-113015000D02*
X152750000Y-116855000D01*
X154590000Y-116855000D02*
X154590000Y-113015000D01*
X153670000Y-117805000D02*
X153670000Y-116855000D01*
X153670000Y-112065000D02*
X153670000Y-113015000D01*
X154590000Y-113015000D02*
X152750000Y-113015000D01*
X152750000Y-116855000D02*
X154590000Y-116855000D01*
X171390000Y-135240000D02*
X171390000Y-117400000D01*
X174050000Y-135240000D02*
X174050000Y-117400000D01*
X174050000Y-135240000D02*
X171390000Y-135240000D01*
X174050000Y-137840000D02*
X172720000Y-137840000D01*
X174050000Y-136510000D02*
X174050000Y-137840000D01*
X174050000Y-117400000D02*
X171390000Y-117400000D01*
X168975000Y-102220000D02*
X166375000Y-102220000D01*
X168975000Y-102220000D02*
X168975000Y-97080000D01*
X166375000Y-104820000D02*
X163775000Y-104820000D01*
X163775000Y-104820000D02*
X163775000Y-97080000D01*
X168975000Y-104820000D02*
X167645000Y-104820000D01*
X168975000Y-103490000D02*
X168975000Y-104820000D01*
X168975000Y-97080000D02*
X163775000Y-97080000D01*
X166375000Y-102220000D02*
X166375000Y-104820000D01*
X147320000Y-100945000D02*
X150770000Y-100945000D01*
X147320000Y-90825000D02*
X145370000Y-90825000D01*
X147320000Y-90825000D02*
X149270000Y-90825000D01*
X147320000Y-100945000D02*
X145370000Y-100945000D01*
X154720000Y-124445000D02*
X154720000Y-128285000D01*
X155640000Y-129235000D02*
X155640000Y-128285000D01*
X155640000Y-123495000D02*
X155640000Y-124445000D01*
X154720000Y-128285000D02*
X156560000Y-128285000D01*
X156560000Y-128285000D02*
X156560000Y-124445000D01*
X156560000Y-124445000D02*
X154720000Y-124445000D01*
X138430000Y-79605000D02*
X138430000Y-78915000D01*
X137010000Y-74875000D02*
X137010000Y-78915000D01*
X138430000Y-74185000D02*
X138430000Y-74875000D01*
X139850000Y-78915000D02*
X139850000Y-74875000D01*
X139850000Y-74875000D02*
X137010000Y-74875000D01*
X137010000Y-78915000D02*
X139850000Y-78915000D01*
X128870000Y-95925000D02*
X124229000Y-95925000D01*
X128870000Y-85685000D02*
X128870000Y-95925000D01*
X124229000Y-85685000D02*
X124229000Y-95925000D01*
X127360000Y-85685000D02*
X127360000Y-95925000D01*
X128870000Y-85685000D02*
X124229000Y-85685000D01*
X128870000Y-88955000D02*
X127360000Y-88955000D01*
X128870000Y-92656000D02*
X127360000Y-92656000D01*
X154050000Y-133710000D02*
X154050000Y-136800000D01*
X154050000Y-136799830D02*
G75*
G03*
X159600000Y-135254538I2560000J1544830D01*
G01*
X159600000Y-135255462D02*
G75*
G03*
X154050000Y-133710170I-2990000J462D01*
G01*
X159110000Y-135255000D02*
G75*
G03*
X159110000Y-135255000I-2500000J0D01*
G01*
X123130000Y-125095000D02*
X125790000Y-125095000D01*
X123130000Y-125095000D02*
X123130000Y-137855000D01*
X125790000Y-125095000D02*
X125790000Y-137855000D01*
X123130000Y-122495000D02*
X124460000Y-122495000D01*
X123130000Y-137855000D02*
X125790000Y-137855000D01*
X123130000Y-123825000D02*
X123130000Y-122495000D01*
X156225000Y-118145000D02*
X156225000Y-111745000D01*
X161275000Y-118145000D02*
X161275000Y-111745000D01*
X161275000Y-111745000D02*
G75*
G03*
X156225000Y-111745000I-2525000J0D01*
G01*
X156225000Y-118145000D02*
G75*
G03*
X161275000Y-118145000I2525000J0D01*
G01*
X134530000Y-115685000D02*
X137370000Y-115685000D01*
X137370000Y-115685000D02*
X137370000Y-111645000D01*
X135950000Y-116375000D02*
X135950000Y-115685000D01*
X137370000Y-111645000D02*
X134530000Y-111645000D01*
X135950000Y-110955000D02*
X135950000Y-111645000D01*
X134530000Y-111645000D02*
X134530000Y-115685000D01*
X154170000Y-91800000D02*
X154170000Y-94890000D01*
X159720000Y-93345462D02*
G75*
G03*
X154170000Y-91800170I-2990000J462D01*
G01*
X154170000Y-94889830D02*
G75*
G03*
X159720000Y-93344538I2560000J1544830D01*
G01*
X159230000Y-93345000D02*
G75*
G03*
X159230000Y-93345000I-2500000J0D01*
G01*
X137370000Y-125845000D02*
X137370000Y-121805000D01*
X134530000Y-121805000D02*
X134530000Y-125845000D01*
X135950000Y-126535000D02*
X135950000Y-125845000D01*
X137370000Y-121805000D02*
X134530000Y-121805000D01*
X135950000Y-121115000D02*
X135950000Y-121805000D01*
X134530000Y-125845000D02*
X137370000Y-125845000D01*
X174050000Y-112500000D02*
X172720000Y-112500000D01*
X171390000Y-109900000D02*
X171390000Y-86980000D01*
X174050000Y-86980000D02*
X171390000Y-86980000D01*
X174050000Y-111170000D02*
X174050000Y-112500000D01*
X174050000Y-109900000D02*
X171390000Y-109900000D01*
X174050000Y-109900000D02*
X174050000Y-86980000D01*
X158180000Y-129235000D02*
X158180000Y-128285000D01*
X158180000Y-123495000D02*
X158180000Y-124445000D01*
X159100000Y-124445000D02*
X157260000Y-124445000D01*
X159100000Y-128285000D02*
X159100000Y-124445000D01*
X157260000Y-124445000D02*
X157260000Y-128285000D01*
X157260000Y-128285000D02*
X159100000Y-128285000D01*
X147320000Y-82535000D02*
X145480000Y-82535000D01*
X145480000Y-86375000D02*
X147320000Y-86375000D01*
X146400000Y-87325000D02*
X146400000Y-86375000D01*
X145480000Y-82535000D02*
X145480000Y-86375000D01*
X146400000Y-81585000D02*
X146400000Y-82535000D01*
X147320000Y-86375000D02*
X147320000Y-82535000D01*
%LPC*%
D13*
X124460000Y-98892500D03*
D14*
X124460000Y-101432500D03*
X124460000Y-103972500D03*
X124460000Y-106512500D03*
X124460000Y-109052500D03*
X124460000Y-111592500D03*
X124460000Y-114132500D03*
X124460000Y-116672500D03*
D15*
X165100000Y-80115000D03*
D16*
X165100000Y-87735000D03*
D17*
X154940000Y-75695000D03*
D18*
X157480000Y-75695000D03*
X160020000Y-75695000D03*
D19*
X138130000Y-130175000D03*
D20*
X138130000Y-137795000D03*
D21*
X163195000Y-117475000D03*
X163195000Y-119975000D03*
X163195000Y-112395000D03*
X163195000Y-114895000D03*
D19*
X132080000Y-75565000D03*
D21*
X134580000Y-75565000D03*
X130810000Y-106205000D03*
D20*
X130810000Y-113705000D03*
D21*
X150660000Y-88205000D03*
D20*
X150660000Y-80705000D03*
D22*
X146080000Y-76212500D03*
X145430000Y-76212500D03*
X144780000Y-76212500D03*
X144130000Y-76212500D03*
X143480000Y-76212500D03*
D23*
X143780000Y-73512500D03*
D24*
X147680000Y-73512500D03*
D23*
X145780000Y-73512500D03*
D25*
X141280000Y-73512500D03*
D26*
X147280000Y-76212500D03*
D25*
X148280000Y-73512500D03*
D26*
X142280000Y-76212500D03*
D24*
X141880000Y-73512500D03*
D27*
X173430000Y-73585000D03*
X173430000Y-80085000D03*
X168930000Y-80085000D03*
X168930000Y-73585000D03*
D28*
X162880000Y-93345000D03*
D29*
X165420000Y-93345000D03*
D30*
X139460000Y-100355000D03*
D31*
X137160000Y-106655000D03*
D30*
X137160000Y-100355000D03*
X134860000Y-100355000D03*
D21*
X127060000Y-82677000D03*
D20*
X134560000Y-82677000D03*
D28*
X162560000Y-135255000D03*
D29*
X165100000Y-135255000D03*
D21*
X161290000Y-80175000D03*
D20*
X161290000Y-87675000D03*
D19*
X132090000Y-88275000D03*
D20*
X132090000Y-90815000D03*
X132090000Y-93355000D03*
X132090000Y-95895000D03*
X139710000Y-95895000D03*
X139710000Y-93355000D03*
X139710000Y-90815000D03*
X139710000Y-88275000D03*
D15*
X142240000Y-80645000D03*
D16*
X142240000Y-88265000D03*
D19*
X151120000Y-136515000D03*
D20*
X151120000Y-133975000D03*
X151120000Y-131435000D03*
X151120000Y-128895000D03*
X151120000Y-126355000D03*
X151120000Y-123815000D03*
X151120000Y-121275000D03*
X151120000Y-118735000D03*
X151120000Y-116195000D03*
X151120000Y-113655000D03*
X151120000Y-111115000D03*
X151120000Y-108575000D03*
X151120000Y-106035000D03*
X151120000Y-103495000D03*
X143500000Y-103495000D03*
X143500000Y-106035000D03*
X143500000Y-108575000D03*
X143500000Y-111115000D03*
X143500000Y-113655000D03*
X143500000Y-116195000D03*
X143500000Y-118735000D03*
X143500000Y-121275000D03*
X143500000Y-123815000D03*
X143500000Y-126355000D03*
X143500000Y-128895000D03*
X143500000Y-131435000D03*
X143500000Y-133975000D03*
X143500000Y-136515000D03*
D15*
X165100000Y-122555000D03*
D16*
X165100000Y-130175000D03*
D15*
X157480000Y-80115000D03*
D16*
X157480000Y-87735000D03*
D15*
X162560000Y-122555000D03*
D16*
X162560000Y-130175000D03*
D19*
X124380000Y-75565000D03*
D21*
X126880000Y-75565000D03*
D15*
X135540000Y-130175000D03*
D16*
X135540000Y-137795000D03*
D15*
X153670000Y-118745000D03*
D16*
X153670000Y-111125000D03*
D13*
X172720000Y-136510000D03*
D14*
X172720000Y-133970000D03*
X172720000Y-131430000D03*
X172720000Y-128890000D03*
X172720000Y-126350000D03*
X172720000Y-123810000D03*
X172720000Y-121270000D03*
X172720000Y-118730000D03*
D13*
X167645000Y-103490000D03*
D14*
X165105000Y-103490000D03*
X167645000Y-100950000D03*
X165105000Y-100950000D03*
X167645000Y-98410000D03*
X165105000Y-98410000D03*
D32*
X149795000Y-100330000D03*
X149795000Y-99060000D03*
X149795000Y-97790000D03*
X149795000Y-96520000D03*
X149795000Y-95250000D03*
X149795000Y-93980000D03*
X149795000Y-92710000D03*
X149795000Y-91440000D03*
X144845000Y-91440000D03*
X144845000Y-92710000D03*
X144845000Y-93980000D03*
X144845000Y-95250000D03*
X144845000Y-96520000D03*
X144845000Y-97790000D03*
X144845000Y-99060000D03*
X144845000Y-100330000D03*
D15*
X155640000Y-130175000D03*
D16*
X155640000Y-122555000D03*
D21*
X138430000Y-80645000D03*
D20*
X138430000Y-73145000D03*
D33*
X125600000Y-88265000D03*
D34*
X125600000Y-90805000D03*
X125600000Y-93345000D03*
D28*
X155340000Y-135255000D03*
D29*
X157880000Y-135255000D03*
D13*
X124460000Y-123825000D03*
D14*
X124460000Y-126365000D03*
X124460000Y-128905000D03*
X124460000Y-131445000D03*
X124460000Y-133985000D03*
X124460000Y-136525000D03*
D35*
X158750000Y-117385000D03*
X158750000Y-112505000D03*
D21*
X135950000Y-109915000D03*
D20*
X135950000Y-117415000D03*
D28*
X155460000Y-93345000D03*
D29*
X158000000Y-93345000D03*
D21*
X135950000Y-127575000D03*
D20*
X135950000Y-120075000D03*
D13*
X172720000Y-111170000D03*
D14*
X172720000Y-108630000D03*
X172720000Y-106090000D03*
X172720000Y-103550000D03*
X172720000Y-101010000D03*
X172720000Y-98470000D03*
X172720000Y-95930000D03*
X172720000Y-93390000D03*
X172720000Y-90850000D03*
X172720000Y-88310000D03*
D15*
X158180000Y-122555000D03*
D16*
X158180000Y-130175000D03*
D15*
X146400000Y-88265000D03*
D16*
X146400000Y-80645000D03*
M02*
