G04 #@! TF.GenerationSoftware,KiCad,Pcbnew,6.0.11-3.fc36*
G04 #@! TF.CreationDate,2023-04-04T19:13:08+09:00*
G04 #@! TF.ProjectId,Tetiduino,54657469-6475-4696-9e6f-2e6b69636164,rev?*
G04 #@! TF.SameCoordinates,Original*
G04 #@! TF.FileFunction,Soldermask,Top*
G04 #@! TF.FilePolarity,Negative*
%FSLAX46Y46*%
G04 Gerber Fmt 4.6, Leading zero omitted, Abs format (unit mm)*
G04 Created by KiCad (PCBNEW 6.0.11-3.fc36) date 2023-04-04 19:13:08*
%MOMM*%
%LPD*%
G01*
G04 APERTURE LIST*
%ADD10R,1.700000X1.700000*%
%ADD11O,1.700000X1.700000*%
%ADD12C,1.400000*%
%ADD13O,1.400000X1.400000*%
%ADD14R,1.600000X1.600000*%
%ADD15O,1.600000X1.600000*%
%ADD16C,1.600000*%
%ADD17C,2.000000*%
%ADD18R,1.800000X1.800000*%
%ADD19C,1.800000*%
%ADD20R,1.500000X2.000000*%
%ADD21R,3.800000X2.000000*%
%ADD22R,2.000000X1.905000*%
%ADD23O,2.000000X1.905000*%
%ADD24C,1.500000*%
G04 APERTURE END LIST*
D10*
X124460000Y-102255000D03*
D11*
X124460000Y-104795000D03*
X124460000Y-107335000D03*
X124460000Y-109875000D03*
X124460000Y-112415000D03*
X124460000Y-114955000D03*
X124460000Y-117495000D03*
D12*
X146050000Y-91155000D03*
D13*
X153670000Y-91155000D03*
D14*
X136525000Y-137795000D03*
D15*
X136525000Y-130175000D03*
D16*
X160655000Y-112090000D03*
X163155000Y-112090000D03*
X160655000Y-107315000D03*
X163155000Y-107315000D03*
D14*
X126912380Y-88900000D03*
D16*
X124412380Y-88900000D03*
X130810000Y-106045000D03*
D15*
X130810000Y-113545000D03*
D16*
X139700000Y-117415000D03*
D15*
X139700000Y-109915000D03*
D10*
X155600000Y-118720000D03*
D11*
X158140000Y-118720000D03*
X160680000Y-118720000D03*
X163220000Y-118720000D03*
X165760000Y-118720000D03*
X168300000Y-118720000D03*
D17*
X136600000Y-127345000D03*
X130100000Y-127345000D03*
X130100000Y-122845000D03*
X136600000Y-122845000D03*
D18*
X164500000Y-88265000D03*
D19*
X161960000Y-88265000D03*
D20*
X140730000Y-100355000D03*
D21*
X138430000Y-106655000D03*
D20*
X138430000Y-100355000D03*
X136130000Y-100355000D03*
D16*
X146110000Y-88265000D03*
D15*
X153610000Y-88265000D03*
D18*
X165730000Y-135255000D03*
D19*
X168270000Y-135255000D03*
D14*
X135900000Y-88275000D03*
D15*
X135900000Y-90815000D03*
X135900000Y-93355000D03*
X135900000Y-95895000D03*
X143520000Y-95895000D03*
X143520000Y-93355000D03*
X143520000Y-90815000D03*
X143520000Y-88275000D03*
D12*
X135890000Y-85090000D03*
D13*
X143510000Y-85090000D03*
D14*
X151120000Y-136515000D03*
D15*
X151120000Y-133975000D03*
X151120000Y-131435000D03*
X151120000Y-128895000D03*
X151120000Y-126355000D03*
X151120000Y-123815000D03*
X151120000Y-121275000D03*
X151120000Y-118735000D03*
X151120000Y-116195000D03*
X151120000Y-113655000D03*
X151120000Y-111115000D03*
X151120000Y-108575000D03*
X151120000Y-106035000D03*
X151120000Y-103495000D03*
X143500000Y-103495000D03*
X143500000Y-106035000D03*
X143500000Y-108575000D03*
X143500000Y-111115000D03*
X143500000Y-113655000D03*
X143500000Y-116195000D03*
X143500000Y-118735000D03*
X143500000Y-121275000D03*
X143500000Y-123815000D03*
X143500000Y-126355000D03*
X143500000Y-128895000D03*
X143500000Y-131435000D03*
X143500000Y-133975000D03*
X143500000Y-136515000D03*
D12*
X168275000Y-122555000D03*
D13*
X168275000Y-130175000D03*
D12*
X139700000Y-130175000D03*
D13*
X139700000Y-122555000D03*
D12*
X165735000Y-122555000D03*
D13*
X165735000Y-130175000D03*
D14*
X126932380Y-96520000D03*
D16*
X124432380Y-96520000D03*
D12*
X130175000Y-137795000D03*
D13*
X130175000Y-130175000D03*
D12*
X166370000Y-114935000D03*
D13*
X166370000Y-107315000D03*
D10*
X172720000Y-136510000D03*
D11*
X172720000Y-133970000D03*
X172720000Y-131430000D03*
X172720000Y-128890000D03*
X172720000Y-126350000D03*
X172720000Y-123810000D03*
X172720000Y-121270000D03*
X172720000Y-118730000D03*
D10*
X167005000Y-98425000D03*
D11*
X167005000Y-100965000D03*
X164465000Y-98425000D03*
X164465000Y-100965000D03*
X161925000Y-98425000D03*
X161925000Y-100965000D03*
D12*
X158670000Y-130175000D03*
D13*
X158670000Y-122555000D03*
D16*
X132080000Y-85785000D03*
D15*
X132080000Y-93285000D03*
D22*
X130810000Y-97155000D03*
D23*
X130810000Y-99695000D03*
X130810000Y-102235000D03*
D18*
X158670000Y-135255000D03*
D19*
X161210000Y-135255000D03*
D10*
X124460000Y-123825000D03*
D11*
X124460000Y-126365000D03*
X124460000Y-128905000D03*
X124460000Y-131445000D03*
X124460000Y-133985000D03*
X124460000Y-136525000D03*
D24*
X156210000Y-112305000D03*
X156210000Y-107425000D03*
D16*
X135950000Y-109915000D03*
D15*
X135950000Y-117415000D03*
D18*
X130810000Y-116840000D03*
D19*
X130810000Y-119380000D03*
D16*
X154305000Y-137735000D03*
D15*
X154305000Y-130235000D03*
D10*
X172720000Y-112395000D03*
D11*
X172720000Y-109855000D03*
X172720000Y-107315000D03*
X172720000Y-104775000D03*
X172720000Y-102235000D03*
X172720000Y-99695000D03*
X172720000Y-97155000D03*
X172720000Y-94615000D03*
X172720000Y-92075000D03*
X172720000Y-89535000D03*
D12*
X161290000Y-122555000D03*
D13*
X161290000Y-130175000D03*
D12*
X146050000Y-85090000D03*
D13*
X153670000Y-85090000D03*
M02*
