%TF.GenerationSoftware,KiCad,Pcbnew,6.0.11-3.fc36*%
%TF.CreationDate,2023-04-04T19:13:18+09:00*%
%TF.ProjectId,Tetiduino,54657469-6475-4696-9e6f-2e6b69636164,rev?*%
%TF.SameCoordinates,Original*%
%TF.FileFunction,Drillmap*%
%TF.FilePolarity,Positive*%
%FSLAX45Y45*%
G04 Gerber Fmt 4.5, Leading zero omitted, Abs format (unit mm)*
G04 Created by KiCad (PCBNEW 6.0.11-3.fc36) date 2023-04-04 19:13:18*
%MOMM*%
%LPD*%
G01*
G04 APERTURE LIST*
%ADD10C,0.100000*%
%ADD11C,0.200000*%
%ADD12C,0.040000*%
%ADD13C,0.070000*%
%ADD14C,0.080000*%
%ADD15C,0.090000*%
%ADD16C,0.110000*%
G04 APERTURE END LIST*
D10*
X12509500Y-14033500D02*
X17208500Y-14033500D01*
X17526000Y-9017000D02*
G75*
G03*
X16764000Y-8255000I-762000J0D01*
G01*
X12763500Y-8255000D02*
G75*
G03*
X12192000Y-8826500I0J-571500D01*
G01*
X17526000Y-13716000D02*
X17526000Y-9017000D01*
X12763500Y-8255000D02*
X16764000Y-8255000D01*
X12192000Y-13716000D02*
G75*
G03*
X12509500Y-14033500I317500J0D01*
G01*
X12192000Y-8826500D02*
X12192000Y-13716000D01*
X17208500Y-14033500D02*
G75*
G03*
X17526000Y-13716000I0J317500D01*
G01*
D11*
D12*
X12807000Y-10584500D02*
X12847000Y-10624500D01*
X12847000Y-10584500D02*
X12807000Y-10624500D01*
X15505750Y-9282750D02*
X15545750Y-9322750D01*
X15545750Y-9282750D02*
X15505750Y-9322750D01*
X15918500Y-9060500D02*
X15958500Y-9100500D01*
X15958500Y-9060500D02*
X15918500Y-9100500D01*
D13*
X13052500Y-13017500D02*
G75*
G03*
X13052500Y-13017500I-35000J0D01*
G01*
X13052500Y-13779500D02*
G75*
G03*
X13052500Y-13779500I-35000J0D01*
G01*
X13624000Y-8509000D02*
G75*
G03*
X13624000Y-8509000I-35000J0D01*
G01*
X14005000Y-12255500D02*
G75*
G03*
X14005000Y-12255500I-35000J0D01*
G01*
X14005000Y-13017500D02*
G75*
G03*
X14005000Y-13017500I-35000J0D01*
G01*
X14386000Y-8509000D02*
G75*
G03*
X14386000Y-8509000I-35000J0D01*
G01*
X14640000Y-8509000D02*
G75*
G03*
X14640000Y-8509000I-35000J0D01*
G01*
X14640000Y-9115500D02*
G75*
G03*
X14640000Y-9115500I-35000J0D01*
G01*
X15402000Y-8509000D02*
G75*
G03*
X15402000Y-8509000I-35000J0D01*
G01*
X15402000Y-9115500D02*
G75*
G03*
X15402000Y-9115500I-35000J0D01*
G01*
X15902000Y-12255500D02*
G75*
G03*
X15902000Y-12255500I-35000J0D01*
G01*
X15902000Y-13017500D02*
G75*
G03*
X15902000Y-13017500I-35000J0D01*
G01*
X16164000Y-12255500D02*
G75*
G03*
X16164000Y-12255500I-35000J0D01*
G01*
X16164000Y-13017500D02*
G75*
G03*
X16164000Y-13017500I-35000J0D01*
G01*
X16608500Y-12255500D02*
G75*
G03*
X16608500Y-12255500I-35000J0D01*
G01*
X16608500Y-13017500D02*
G75*
G03*
X16608500Y-13017500I-35000J0D01*
G01*
X16672000Y-10731500D02*
G75*
G03*
X16672000Y-10731500I-35000J0D01*
G01*
X16672000Y-11493500D02*
G75*
G03*
X16672000Y-11493500I-35000J0D01*
G01*
X16862500Y-12255500D02*
G75*
G03*
X16862500Y-12255500I-35000J0D01*
G01*
X16862500Y-13017500D02*
G75*
G03*
X16862500Y-13017500I-35000J0D01*
G01*
D14*
X12441238Y-8850000D02*
X12441238Y-8930000D01*
X12401238Y-8890000D02*
X12481238Y-8890000D01*
X12443238Y-9612000D02*
X12443238Y-9692000D01*
X12403238Y-9652000D02*
X12483238Y-9652000D01*
X12691238Y-8850000D02*
X12691238Y-8930000D01*
X12651238Y-8890000D02*
X12731238Y-8890000D01*
X12693238Y-9612000D02*
X12693238Y-9692000D01*
X12653238Y-9652000D02*
X12733238Y-9652000D01*
X13081000Y-10564500D02*
X13081000Y-10644500D01*
X13041000Y-10604500D02*
X13121000Y-10604500D01*
X13081000Y-11314500D02*
X13081000Y-11394500D01*
X13041000Y-11354500D02*
X13121000Y-11354500D01*
X13208000Y-8538500D02*
X13208000Y-8618500D01*
X13168000Y-8578500D02*
X13248000Y-8578500D01*
X13208000Y-9288500D02*
X13208000Y-9368500D01*
X13168000Y-9328500D02*
X13248000Y-9328500D01*
X13590000Y-8787500D02*
X13590000Y-8867500D01*
X13550000Y-8827500D02*
X13630000Y-8827500D01*
X13590000Y-9041500D02*
X13590000Y-9121500D01*
X13550000Y-9081500D02*
X13630000Y-9081500D01*
X13590000Y-9295500D02*
X13590000Y-9375500D01*
X13550000Y-9335500D02*
X13630000Y-9335500D01*
X13590000Y-9549500D02*
X13590000Y-9629500D01*
X13550000Y-9589500D02*
X13630000Y-9589500D01*
X13595000Y-10951500D02*
X13595000Y-11031500D01*
X13555000Y-10991500D02*
X13635000Y-10991500D01*
X13595000Y-11701500D02*
X13595000Y-11781500D01*
X13555000Y-11741500D02*
X13635000Y-11741500D01*
X13652500Y-12977500D02*
X13652500Y-13057500D01*
X13612500Y-13017500D02*
X13692500Y-13017500D01*
X13652500Y-13739500D02*
X13652500Y-13819500D01*
X13612500Y-13779500D02*
X13692500Y-13779500D01*
X13970000Y-10951500D02*
X13970000Y-11031500D01*
X13930000Y-10991500D02*
X14010000Y-10991500D01*
X13970000Y-11701500D02*
X13970000Y-11781500D01*
X13930000Y-11741500D02*
X14010000Y-11741500D01*
X14350000Y-10309500D02*
X14350000Y-10389500D01*
X14310000Y-10349500D02*
X14390000Y-10349500D01*
X14350000Y-10563500D02*
X14350000Y-10643500D01*
X14310000Y-10603500D02*
X14390000Y-10603500D01*
X14350000Y-10817500D02*
X14350000Y-10897500D01*
X14310000Y-10857500D02*
X14390000Y-10857500D01*
X14350000Y-11071500D02*
X14350000Y-11151500D01*
X14310000Y-11111500D02*
X14390000Y-11111500D01*
X14350000Y-11325500D02*
X14350000Y-11405500D01*
X14310000Y-11365500D02*
X14390000Y-11365500D01*
X14350000Y-11579500D02*
X14350000Y-11659500D01*
X14310000Y-11619500D02*
X14390000Y-11619500D01*
X14350000Y-11833500D02*
X14350000Y-11913500D01*
X14310000Y-11873500D02*
X14390000Y-11873500D01*
X14350000Y-12087500D02*
X14350000Y-12167500D01*
X14310000Y-12127500D02*
X14390000Y-12127500D01*
X14350000Y-12341500D02*
X14350000Y-12421500D01*
X14310000Y-12381500D02*
X14390000Y-12381500D01*
X14350000Y-12595500D02*
X14350000Y-12675500D01*
X14310000Y-12635500D02*
X14390000Y-12635500D01*
X14350000Y-12849500D02*
X14350000Y-12929500D01*
X14310000Y-12889500D02*
X14390000Y-12889500D01*
X14350000Y-13103500D02*
X14350000Y-13183500D01*
X14310000Y-13143500D02*
X14390000Y-13143500D01*
X14350000Y-13357500D02*
X14350000Y-13437500D01*
X14310000Y-13397500D02*
X14390000Y-13397500D01*
X14350000Y-13611500D02*
X14350000Y-13691500D01*
X14310000Y-13651500D02*
X14390000Y-13651500D01*
X14352000Y-8787500D02*
X14352000Y-8867500D01*
X14312000Y-8827500D02*
X14392000Y-8827500D01*
X14352000Y-9041500D02*
X14352000Y-9121500D01*
X14312000Y-9081500D02*
X14392000Y-9081500D01*
X14352000Y-9295500D02*
X14352000Y-9375500D01*
X14312000Y-9335500D02*
X14392000Y-9335500D01*
X14352000Y-9549500D02*
X14352000Y-9629500D01*
X14312000Y-9589500D02*
X14392000Y-9589500D01*
X14611000Y-8786500D02*
X14611000Y-8866500D01*
X14571000Y-8826500D02*
X14651000Y-8826500D01*
X15112000Y-10309500D02*
X15112000Y-10389500D01*
X15072000Y-10349500D02*
X15152000Y-10349500D01*
X15112000Y-10563500D02*
X15112000Y-10643500D01*
X15072000Y-10603500D02*
X15152000Y-10603500D01*
X15112000Y-10817500D02*
X15112000Y-10897500D01*
X15072000Y-10857500D02*
X15152000Y-10857500D01*
X15112000Y-11071500D02*
X15112000Y-11151500D01*
X15072000Y-11111500D02*
X15152000Y-11111500D01*
X15112000Y-11325500D02*
X15112000Y-11405500D01*
X15072000Y-11365500D02*
X15152000Y-11365500D01*
X15112000Y-11579500D02*
X15112000Y-11659500D01*
X15072000Y-11619500D02*
X15152000Y-11619500D01*
X15112000Y-11833500D02*
X15112000Y-11913500D01*
X15072000Y-11873500D02*
X15152000Y-11873500D01*
X15112000Y-12087500D02*
X15112000Y-12167500D01*
X15072000Y-12127500D02*
X15152000Y-12127500D01*
X15112000Y-12341500D02*
X15112000Y-12421500D01*
X15072000Y-12381500D02*
X15152000Y-12381500D01*
X15112000Y-12595500D02*
X15112000Y-12675500D01*
X15072000Y-12635500D02*
X15152000Y-12635500D01*
X15112000Y-12849500D02*
X15112000Y-12929500D01*
X15072000Y-12889500D02*
X15152000Y-12889500D01*
X15112000Y-13103500D02*
X15112000Y-13183500D01*
X15072000Y-13143500D02*
X15152000Y-13143500D01*
X15112000Y-13357500D02*
X15112000Y-13437500D01*
X15072000Y-13397500D02*
X15152000Y-13397500D01*
X15112000Y-13611500D02*
X15112000Y-13691500D01*
X15072000Y-13651500D02*
X15152000Y-13651500D01*
X15361000Y-8786500D02*
X15361000Y-8866500D01*
X15321000Y-8826500D02*
X15401000Y-8826500D01*
X15430500Y-12983500D02*
X15430500Y-13063500D01*
X15390500Y-13023500D02*
X15470500Y-13023500D01*
X15430500Y-13733500D02*
X15430500Y-13813500D01*
X15390500Y-13773500D02*
X15470500Y-13773500D01*
X15621000Y-10702500D02*
X15621000Y-10782500D01*
X15581000Y-10742500D02*
X15661000Y-10742500D01*
X15621000Y-11190500D02*
X15621000Y-11270500D01*
X15581000Y-11230500D02*
X15661000Y-11230500D01*
X16065500Y-10691500D02*
X16065500Y-10771500D01*
X16025500Y-10731500D02*
X16105500Y-10731500D01*
X16065500Y-11169000D02*
X16065500Y-11249000D01*
X16025500Y-11209000D02*
X16105500Y-11209000D01*
X16315500Y-10691500D02*
X16315500Y-10771500D01*
X16275500Y-10731500D02*
X16355500Y-10731500D01*
X16315500Y-11169000D02*
X16315500Y-11249000D01*
X16275500Y-11209000D02*
X16355500Y-11209000D01*
D15*
X13112820Y-11715820D02*
X13112820Y-11652180D01*
X13049180Y-11652180D01*
X13049180Y-11715820D01*
X13112820Y-11715820D01*
X13112820Y-11969820D02*
X13112820Y-11906180D01*
X13049180Y-11906180D01*
X13049180Y-11969820D01*
X13112820Y-11969820D01*
X15898820Y-13557320D02*
X15898820Y-13493680D01*
X15835180Y-13493680D01*
X15835180Y-13557320D01*
X15898820Y-13557320D01*
X16152820Y-13557320D02*
X16152820Y-13493680D01*
X16089180Y-13493680D01*
X16089180Y-13557320D01*
X16152820Y-13557320D01*
X16227820Y-8858320D02*
X16227820Y-8794680D01*
X16164180Y-8794680D01*
X16164180Y-8858320D01*
X16227820Y-8858320D01*
X16481820Y-8858320D02*
X16481820Y-8794680D01*
X16418180Y-8794680D01*
X16418180Y-8858320D01*
X16481820Y-8858320D01*
X16604820Y-13557320D02*
X16604820Y-13493680D01*
X16541180Y-13493680D01*
X16541180Y-13557320D01*
X16604820Y-13557320D01*
X16858820Y-13557320D02*
X16858820Y-13493680D01*
X16795180Y-13493680D01*
X16795180Y-13557320D01*
X16858820Y-13557320D01*
D10*
X12446000Y-10275500D02*
X12496000Y-10225500D01*
X12446000Y-10175500D01*
X12396000Y-10225500D01*
X12446000Y-10275500D01*
X12446000Y-10529500D02*
X12496000Y-10479500D01*
X12446000Y-10429500D01*
X12396000Y-10479500D01*
X12446000Y-10529500D01*
X12446000Y-10783500D02*
X12496000Y-10733500D01*
X12446000Y-10683500D01*
X12396000Y-10733500D01*
X12446000Y-10783500D01*
X12446000Y-11037500D02*
X12496000Y-10987500D01*
X12446000Y-10937500D01*
X12396000Y-10987500D01*
X12446000Y-11037500D01*
X12446000Y-11291500D02*
X12496000Y-11241500D01*
X12446000Y-11191500D01*
X12396000Y-11241500D01*
X12446000Y-11291500D01*
X12446000Y-11545500D02*
X12496000Y-11495500D01*
X12446000Y-11445500D01*
X12396000Y-11495500D01*
X12446000Y-11545500D01*
X12446000Y-11799500D02*
X12496000Y-11749500D01*
X12446000Y-11699500D01*
X12396000Y-11749500D01*
X12446000Y-11799500D01*
X12446000Y-12432500D02*
X12496000Y-12382500D01*
X12446000Y-12332500D01*
X12396000Y-12382500D01*
X12446000Y-12432500D01*
X12446000Y-12686500D02*
X12496000Y-12636500D01*
X12446000Y-12586500D01*
X12396000Y-12636500D01*
X12446000Y-12686500D01*
X12446000Y-12940500D02*
X12496000Y-12890500D01*
X12446000Y-12840500D01*
X12396000Y-12890500D01*
X12446000Y-12940500D01*
X12446000Y-13194500D02*
X12496000Y-13144500D01*
X12446000Y-13094500D01*
X12396000Y-13144500D01*
X12446000Y-13194500D01*
X12446000Y-13448500D02*
X12496000Y-13398500D01*
X12446000Y-13348500D01*
X12396000Y-13398500D01*
X12446000Y-13448500D01*
X12446000Y-13702500D02*
X12496000Y-13652500D01*
X12446000Y-13602500D01*
X12396000Y-13652500D01*
X12446000Y-13702500D01*
X15560000Y-11922000D02*
X15610000Y-11872000D01*
X15560000Y-11822000D01*
X15510000Y-11872000D01*
X15560000Y-11922000D01*
X15814000Y-11922000D02*
X15864000Y-11872000D01*
X15814000Y-11822000D01*
X15764000Y-11872000D01*
X15814000Y-11922000D01*
X16068000Y-11922000D02*
X16118000Y-11872000D01*
X16068000Y-11822000D01*
X16018000Y-11872000D01*
X16068000Y-11922000D01*
X16192500Y-9892500D02*
X16242500Y-9842500D01*
X16192500Y-9792500D01*
X16142500Y-9842500D01*
X16192500Y-9892500D01*
X16192500Y-10146500D02*
X16242500Y-10096500D01*
X16192500Y-10046500D01*
X16142500Y-10096500D01*
X16192500Y-10146500D01*
X16322000Y-11922000D02*
X16372000Y-11872000D01*
X16322000Y-11822000D01*
X16272000Y-11872000D01*
X16322000Y-11922000D01*
X16446500Y-9892500D02*
X16496500Y-9842500D01*
X16446500Y-9792500D01*
X16396500Y-9842500D01*
X16446500Y-9892500D01*
X16446500Y-10146500D02*
X16496500Y-10096500D01*
X16446500Y-10046500D01*
X16396500Y-10096500D01*
X16446500Y-10146500D01*
X16576000Y-11922000D02*
X16626000Y-11872000D01*
X16576000Y-11822000D01*
X16526000Y-11872000D01*
X16576000Y-11922000D01*
X16700500Y-9892500D02*
X16750500Y-9842500D01*
X16700500Y-9792500D01*
X16650500Y-9842500D01*
X16700500Y-9892500D01*
X16700500Y-10146500D02*
X16750500Y-10096500D01*
X16700500Y-10046500D01*
X16650500Y-10096500D01*
X16700500Y-10146500D01*
X16830000Y-11922000D02*
X16880000Y-11872000D01*
X16830000Y-11822000D01*
X16780000Y-11872000D01*
X16830000Y-11922000D01*
X17272000Y-9003500D02*
X17322000Y-8953500D01*
X17272000Y-8903500D01*
X17222000Y-8953500D01*
X17272000Y-9003500D01*
X17272000Y-9257500D02*
X17322000Y-9207500D01*
X17272000Y-9157500D01*
X17222000Y-9207500D01*
X17272000Y-9257500D01*
X17272000Y-9511500D02*
X17322000Y-9461500D01*
X17272000Y-9411500D01*
X17222000Y-9461500D01*
X17272000Y-9511500D01*
X17272000Y-9765500D02*
X17322000Y-9715500D01*
X17272000Y-9665500D01*
X17222000Y-9715500D01*
X17272000Y-9765500D01*
X17272000Y-10019500D02*
X17322000Y-9969500D01*
X17272000Y-9919500D01*
X17222000Y-9969500D01*
X17272000Y-10019500D01*
X17272000Y-10273500D02*
X17322000Y-10223500D01*
X17272000Y-10173500D01*
X17222000Y-10223500D01*
X17272000Y-10273500D01*
X17272000Y-10527500D02*
X17322000Y-10477500D01*
X17272000Y-10427500D01*
X17222000Y-10477500D01*
X17272000Y-10527500D01*
X17272000Y-10781500D02*
X17322000Y-10731500D01*
X17272000Y-10681500D01*
X17222000Y-10731500D01*
X17272000Y-10781500D01*
X17272000Y-11035500D02*
X17322000Y-10985500D01*
X17272000Y-10935500D01*
X17222000Y-10985500D01*
X17272000Y-11035500D01*
X17272000Y-11289500D02*
X17322000Y-11239500D01*
X17272000Y-11189500D01*
X17222000Y-11239500D01*
X17272000Y-11289500D01*
X17272000Y-11923000D02*
X17322000Y-11873000D01*
X17272000Y-11823000D01*
X17222000Y-11873000D01*
X17272000Y-11923000D01*
X17272000Y-12177000D02*
X17322000Y-12127000D01*
X17272000Y-12077000D01*
X17222000Y-12127000D01*
X17272000Y-12177000D01*
X17272000Y-12431000D02*
X17322000Y-12381000D01*
X17272000Y-12331000D01*
X17222000Y-12381000D01*
X17272000Y-12431000D01*
X17272000Y-12685000D02*
X17322000Y-12635000D01*
X17272000Y-12585000D01*
X17222000Y-12635000D01*
X17272000Y-12685000D01*
X17272000Y-12939000D02*
X17322000Y-12889000D01*
X17272000Y-12839000D01*
X17222000Y-12889000D01*
X17272000Y-12939000D01*
X17272000Y-13193000D02*
X17322000Y-13143000D01*
X17272000Y-13093000D01*
X17222000Y-13143000D01*
X17272000Y-13193000D01*
X17272000Y-13447000D02*
X17322000Y-13397000D01*
X17272000Y-13347000D01*
X17222000Y-13397000D01*
X17272000Y-13447000D01*
X17272000Y-13701000D02*
X17322000Y-13651000D01*
X17272000Y-13601000D01*
X17222000Y-13651000D01*
X17272000Y-13701000D01*
D16*
X12955000Y-12229500D02*
X13065000Y-12339500D01*
X13065000Y-12229500D02*
X12955000Y-12339500D01*
X13065000Y-12284500D02*
G75*
G03*
X13065000Y-12284500I-55000J0D01*
G01*
X12955000Y-12679500D02*
X13065000Y-12789500D01*
X13065000Y-12679500D02*
X12955000Y-12789500D01*
X13065000Y-12734500D02*
G75*
G03*
X13065000Y-12734500I-55000J0D01*
G01*
X13026000Y-9660500D02*
X13136000Y-9770500D01*
X13136000Y-9660500D02*
X13026000Y-9770500D01*
X13136000Y-9715500D02*
G75*
G03*
X13136000Y-9715500I-55000J0D01*
G01*
X13026000Y-9914500D02*
X13136000Y-10024500D01*
X13136000Y-9914500D02*
X13026000Y-10024500D01*
X13136000Y-9969500D02*
G75*
G03*
X13136000Y-9969500I-55000J0D01*
G01*
X13026000Y-10168500D02*
X13136000Y-10278500D01*
X13136000Y-10168500D02*
X13026000Y-10278500D01*
X13136000Y-10223500D02*
G75*
G03*
X13136000Y-10223500I-55000J0D01*
G01*
X13605000Y-12229500D02*
X13715000Y-12339500D01*
X13715000Y-12229500D02*
X13605000Y-12339500D01*
X13715000Y-12284500D02*
G75*
G03*
X13715000Y-12284500I-55000J0D01*
G01*
X13605000Y-12679500D02*
X13715000Y-12789500D01*
X13715000Y-12679500D02*
X13605000Y-12789500D01*
X13715000Y-12734500D02*
G75*
G03*
X13715000Y-12734500I-55000J0D01*
G01*
D11*
X12444619Y-14348976D02*
X12444619Y-14148976D01*
X12492238Y-14148976D01*
X12520809Y-14158500D01*
X12539857Y-14177548D01*
X12549381Y-14196595D01*
X12558905Y-14234690D01*
X12558905Y-14263262D01*
X12549381Y-14301357D01*
X12539857Y-14320405D01*
X12520809Y-14339452D01*
X12492238Y-14348976D01*
X12444619Y-14348976D01*
X12644619Y-14348976D02*
X12644619Y-14215643D01*
X12644619Y-14253738D02*
X12654143Y-14234690D01*
X12663667Y-14225167D01*
X12682714Y-14215643D01*
X12701762Y-14215643D01*
X12768428Y-14348976D02*
X12768428Y-14215643D01*
X12768428Y-14148976D02*
X12758905Y-14158500D01*
X12768428Y-14168024D01*
X12777952Y-14158500D01*
X12768428Y-14148976D01*
X12768428Y-14168024D01*
X12892238Y-14348976D02*
X12873190Y-14339452D01*
X12863667Y-14320405D01*
X12863667Y-14148976D01*
X12997000Y-14348976D02*
X12977952Y-14339452D01*
X12968428Y-14320405D01*
X12968428Y-14148976D01*
X13225571Y-14348976D02*
X13225571Y-14148976D01*
X13292238Y-14291833D01*
X13358905Y-14148976D01*
X13358905Y-14348976D01*
X13539857Y-14348976D02*
X13539857Y-14244214D01*
X13530333Y-14225167D01*
X13511286Y-14215643D01*
X13473190Y-14215643D01*
X13454143Y-14225167D01*
X13539857Y-14339452D02*
X13520809Y-14348976D01*
X13473190Y-14348976D01*
X13454143Y-14339452D01*
X13444619Y-14320405D01*
X13444619Y-14301357D01*
X13454143Y-14282309D01*
X13473190Y-14272786D01*
X13520809Y-14272786D01*
X13539857Y-14263262D01*
X13635095Y-14215643D02*
X13635095Y-14415643D01*
X13635095Y-14225167D02*
X13654143Y-14215643D01*
X13692238Y-14215643D01*
X13711286Y-14225167D01*
X13720809Y-14234690D01*
X13730333Y-14253738D01*
X13730333Y-14310881D01*
X13720809Y-14329928D01*
X13711286Y-14339452D01*
X13692238Y-14348976D01*
X13654143Y-14348976D01*
X13635095Y-14339452D01*
X13816048Y-14329928D02*
X13825571Y-14339452D01*
X13816048Y-14348976D01*
X13806524Y-14339452D01*
X13816048Y-14329928D01*
X13816048Y-14348976D01*
X13816048Y-14225167D02*
X13825571Y-14234690D01*
X13816048Y-14244214D01*
X13806524Y-14234690D01*
X13816048Y-14225167D01*
X13816048Y-14244214D01*
D12*
X12147000Y-14658500D02*
X12187000Y-14698500D01*
X12187000Y-14658500D02*
X12147000Y-14698500D01*
D11*
X12482714Y-14568976D02*
X12501762Y-14568976D01*
X12520809Y-14578500D01*
X12530333Y-14588024D01*
X12539857Y-14607071D01*
X12549381Y-14645167D01*
X12549381Y-14692786D01*
X12539857Y-14730881D01*
X12530333Y-14749928D01*
X12520809Y-14759452D01*
X12501762Y-14768976D01*
X12482714Y-14768976D01*
X12463667Y-14759452D01*
X12454143Y-14749928D01*
X12444619Y-14730881D01*
X12435095Y-14692786D01*
X12435095Y-14645167D01*
X12444619Y-14607071D01*
X12454143Y-14588024D01*
X12463667Y-14578500D01*
X12482714Y-14568976D01*
X12635095Y-14749928D02*
X12644619Y-14759452D01*
X12635095Y-14768976D01*
X12625571Y-14759452D01*
X12635095Y-14749928D01*
X12635095Y-14768976D01*
X12816048Y-14635643D02*
X12816048Y-14768976D01*
X12768428Y-14559452D02*
X12720809Y-14702309D01*
X12844619Y-14702309D01*
X12958905Y-14568976D02*
X12977952Y-14568976D01*
X12997000Y-14578500D01*
X13006524Y-14588024D01*
X13016048Y-14607071D01*
X13025571Y-14645167D01*
X13025571Y-14692786D01*
X13016048Y-14730881D01*
X13006524Y-14749928D01*
X12997000Y-14759452D01*
X12977952Y-14768976D01*
X12958905Y-14768976D01*
X12939857Y-14759452D01*
X12930333Y-14749928D01*
X12920809Y-14730881D01*
X12911286Y-14692786D01*
X12911286Y-14645167D01*
X12920809Y-14607071D01*
X12930333Y-14588024D01*
X12939857Y-14578500D01*
X12958905Y-14568976D01*
X13149381Y-14568976D02*
X13168428Y-14568976D01*
X13187476Y-14578500D01*
X13197000Y-14588024D01*
X13206524Y-14607071D01*
X13216048Y-14645167D01*
X13216048Y-14692786D01*
X13206524Y-14730881D01*
X13197000Y-14749928D01*
X13187476Y-14759452D01*
X13168428Y-14768976D01*
X13149381Y-14768976D01*
X13130333Y-14759452D01*
X13120809Y-14749928D01*
X13111286Y-14730881D01*
X13101762Y-14692786D01*
X13101762Y-14645167D01*
X13111286Y-14607071D01*
X13120809Y-14588024D01*
X13130333Y-14578500D01*
X13149381Y-14568976D01*
X13301762Y-14768976D02*
X13301762Y-14635643D01*
X13301762Y-14654690D02*
X13311286Y-14645167D01*
X13330333Y-14635643D01*
X13358905Y-14635643D01*
X13377952Y-14645167D01*
X13387476Y-14664214D01*
X13387476Y-14768976D01*
X13387476Y-14664214D02*
X13397000Y-14645167D01*
X13416048Y-14635643D01*
X13444619Y-14635643D01*
X13463667Y-14645167D01*
X13473190Y-14664214D01*
X13473190Y-14768976D01*
X13568428Y-14768976D02*
X13568428Y-14635643D01*
X13568428Y-14654690D02*
X13577952Y-14645167D01*
X13597000Y-14635643D01*
X13625571Y-14635643D01*
X13644619Y-14645167D01*
X13654143Y-14664214D01*
X13654143Y-14768976D01*
X13654143Y-14664214D02*
X13663667Y-14645167D01*
X13682714Y-14635643D01*
X13711286Y-14635643D01*
X13730333Y-14645167D01*
X13739857Y-14664214D01*
X13739857Y-14768976D01*
X14130333Y-14559452D02*
X13958905Y-14816595D01*
X14387476Y-14568976D02*
X14406524Y-14568976D01*
X14425571Y-14578500D01*
X14435095Y-14588024D01*
X14444619Y-14607071D01*
X14454143Y-14645167D01*
X14454143Y-14692786D01*
X14444619Y-14730881D01*
X14435095Y-14749928D01*
X14425571Y-14759452D01*
X14406524Y-14768976D01*
X14387476Y-14768976D01*
X14368428Y-14759452D01*
X14358905Y-14749928D01*
X14349381Y-14730881D01*
X14339857Y-14692786D01*
X14339857Y-14645167D01*
X14349381Y-14607071D01*
X14358905Y-14588024D01*
X14368428Y-14578500D01*
X14387476Y-14568976D01*
X14539857Y-14749928D02*
X14549381Y-14759452D01*
X14539857Y-14768976D01*
X14530333Y-14759452D01*
X14539857Y-14749928D01*
X14539857Y-14768976D01*
X14673190Y-14568976D02*
X14692238Y-14568976D01*
X14711286Y-14578500D01*
X14720809Y-14588024D01*
X14730333Y-14607071D01*
X14739857Y-14645167D01*
X14739857Y-14692786D01*
X14730333Y-14730881D01*
X14720809Y-14749928D01*
X14711286Y-14759452D01*
X14692238Y-14768976D01*
X14673190Y-14768976D01*
X14654143Y-14759452D01*
X14644619Y-14749928D01*
X14635095Y-14730881D01*
X14625571Y-14692786D01*
X14625571Y-14645167D01*
X14635095Y-14607071D01*
X14644619Y-14588024D01*
X14654143Y-14578500D01*
X14673190Y-14568976D01*
X14930333Y-14768976D02*
X14816048Y-14768976D01*
X14873190Y-14768976D02*
X14873190Y-14568976D01*
X14854143Y-14597548D01*
X14835095Y-14616595D01*
X14816048Y-14626119D01*
X15111286Y-14568976D02*
X15016048Y-14568976D01*
X15006524Y-14664214D01*
X15016048Y-14654690D01*
X15035095Y-14645167D01*
X15082714Y-14645167D01*
X15101762Y-14654690D01*
X15111286Y-14664214D01*
X15120809Y-14683262D01*
X15120809Y-14730881D01*
X15111286Y-14749928D01*
X15101762Y-14759452D01*
X15082714Y-14768976D01*
X15035095Y-14768976D01*
X15016048Y-14759452D01*
X15006524Y-14749928D01*
X15187476Y-14568976D02*
X15320809Y-14568976D01*
X15235095Y-14768976D01*
X15387476Y-14568976D02*
X15387476Y-14607071D01*
X15463667Y-14568976D02*
X15463667Y-14607071D01*
X15758905Y-14845167D02*
X15749381Y-14835643D01*
X15730333Y-14807071D01*
X15720809Y-14788024D01*
X15711286Y-14759452D01*
X15701762Y-14711833D01*
X15701762Y-14673738D01*
X15711286Y-14626119D01*
X15720809Y-14597548D01*
X15730333Y-14578500D01*
X15749381Y-14549928D01*
X15758905Y-14540405D01*
X15816048Y-14568976D02*
X15939857Y-14568976D01*
X15873190Y-14645167D01*
X15901762Y-14645167D01*
X15920809Y-14654690D01*
X15930333Y-14664214D01*
X15939857Y-14683262D01*
X15939857Y-14730881D01*
X15930333Y-14749928D01*
X15920809Y-14759452D01*
X15901762Y-14768976D01*
X15844619Y-14768976D01*
X15825571Y-14759452D01*
X15816048Y-14749928D01*
X16177952Y-14768976D02*
X16177952Y-14568976D01*
X16263667Y-14768976D02*
X16263667Y-14664214D01*
X16254143Y-14645167D01*
X16235095Y-14635643D01*
X16206524Y-14635643D01*
X16187476Y-14645167D01*
X16177952Y-14654690D01*
X16387476Y-14768976D02*
X16368428Y-14759452D01*
X16358905Y-14749928D01*
X16349381Y-14730881D01*
X16349381Y-14673738D01*
X16358905Y-14654690D01*
X16368428Y-14645167D01*
X16387476Y-14635643D01*
X16416048Y-14635643D01*
X16435095Y-14645167D01*
X16444619Y-14654690D01*
X16454143Y-14673738D01*
X16454143Y-14730881D01*
X16444619Y-14749928D01*
X16435095Y-14759452D01*
X16416048Y-14768976D01*
X16387476Y-14768976D01*
X16568428Y-14768976D02*
X16549381Y-14759452D01*
X16539857Y-14740405D01*
X16539857Y-14568976D01*
X16720809Y-14759452D02*
X16701762Y-14768976D01*
X16663667Y-14768976D01*
X16644619Y-14759452D01*
X16635095Y-14740405D01*
X16635095Y-14664214D01*
X16644619Y-14645167D01*
X16663667Y-14635643D01*
X16701762Y-14635643D01*
X16720809Y-14645167D01*
X16730333Y-14664214D01*
X16730333Y-14683262D01*
X16635095Y-14702309D01*
X16806524Y-14759452D02*
X16825571Y-14768976D01*
X16863667Y-14768976D01*
X16882714Y-14759452D01*
X16892238Y-14740405D01*
X16892238Y-14730881D01*
X16882714Y-14711833D01*
X16863667Y-14702309D01*
X16835095Y-14702309D01*
X16816048Y-14692786D01*
X16806524Y-14673738D01*
X16806524Y-14664214D01*
X16816048Y-14645167D01*
X16835095Y-14635643D01*
X16863667Y-14635643D01*
X16882714Y-14645167D01*
X16958905Y-14845167D02*
X16968429Y-14835643D01*
X16987476Y-14807071D01*
X16997000Y-14788024D01*
X17006524Y-14759452D01*
X17016048Y-14711833D01*
X17016048Y-14673738D01*
X17006524Y-14626119D01*
X16997000Y-14597548D01*
X16987476Y-14578500D01*
X16968429Y-14549928D01*
X16958905Y-14540405D01*
D13*
X12187000Y-14942500D02*
G75*
G03*
X12187000Y-14942500I-35000J0D01*
G01*
D11*
X12482714Y-14832976D02*
X12501762Y-14832976D01*
X12520809Y-14842500D01*
X12530333Y-14852024D01*
X12539857Y-14871071D01*
X12549381Y-14909167D01*
X12549381Y-14956786D01*
X12539857Y-14994881D01*
X12530333Y-15013928D01*
X12520809Y-15023452D01*
X12501762Y-15032976D01*
X12482714Y-15032976D01*
X12463667Y-15023452D01*
X12454143Y-15013928D01*
X12444619Y-14994881D01*
X12435095Y-14956786D01*
X12435095Y-14909167D01*
X12444619Y-14871071D01*
X12454143Y-14852024D01*
X12463667Y-14842500D01*
X12482714Y-14832976D01*
X12635095Y-15013928D02*
X12644619Y-15023452D01*
X12635095Y-15032976D01*
X12625571Y-15023452D01*
X12635095Y-15013928D01*
X12635095Y-15032976D01*
X12711286Y-14832976D02*
X12844619Y-14832976D01*
X12758905Y-15032976D01*
X12958905Y-14832976D02*
X12977952Y-14832976D01*
X12997000Y-14842500D01*
X13006524Y-14852024D01*
X13016048Y-14871071D01*
X13025571Y-14909167D01*
X13025571Y-14956786D01*
X13016048Y-14994881D01*
X13006524Y-15013928D01*
X12997000Y-15023452D01*
X12977952Y-15032976D01*
X12958905Y-15032976D01*
X12939857Y-15023452D01*
X12930333Y-15013928D01*
X12920809Y-14994881D01*
X12911286Y-14956786D01*
X12911286Y-14909167D01*
X12920809Y-14871071D01*
X12930333Y-14852024D01*
X12939857Y-14842500D01*
X12958905Y-14832976D01*
X13149381Y-14832976D02*
X13168428Y-14832976D01*
X13187476Y-14842500D01*
X13197000Y-14852024D01*
X13206524Y-14871071D01*
X13216048Y-14909167D01*
X13216048Y-14956786D01*
X13206524Y-14994881D01*
X13197000Y-15013928D01*
X13187476Y-15023452D01*
X13168428Y-15032976D01*
X13149381Y-15032976D01*
X13130333Y-15023452D01*
X13120809Y-15013928D01*
X13111286Y-14994881D01*
X13101762Y-14956786D01*
X13101762Y-14909167D01*
X13111286Y-14871071D01*
X13120809Y-14852024D01*
X13130333Y-14842500D01*
X13149381Y-14832976D01*
X13301762Y-15032976D02*
X13301762Y-14899643D01*
X13301762Y-14918690D02*
X13311286Y-14909167D01*
X13330333Y-14899643D01*
X13358905Y-14899643D01*
X13377952Y-14909167D01*
X13387476Y-14928214D01*
X13387476Y-15032976D01*
X13387476Y-14928214D02*
X13397000Y-14909167D01*
X13416048Y-14899643D01*
X13444619Y-14899643D01*
X13463667Y-14909167D01*
X13473190Y-14928214D01*
X13473190Y-15032976D01*
X13568428Y-15032976D02*
X13568428Y-14899643D01*
X13568428Y-14918690D02*
X13577952Y-14909167D01*
X13597000Y-14899643D01*
X13625571Y-14899643D01*
X13644619Y-14909167D01*
X13654143Y-14928214D01*
X13654143Y-15032976D01*
X13654143Y-14928214D02*
X13663667Y-14909167D01*
X13682714Y-14899643D01*
X13711286Y-14899643D01*
X13730333Y-14909167D01*
X13739857Y-14928214D01*
X13739857Y-15032976D01*
X14130333Y-14823452D02*
X13958905Y-15080595D01*
X14387476Y-14832976D02*
X14406524Y-14832976D01*
X14425571Y-14842500D01*
X14435095Y-14852024D01*
X14444619Y-14871071D01*
X14454143Y-14909167D01*
X14454143Y-14956786D01*
X14444619Y-14994881D01*
X14435095Y-15013928D01*
X14425571Y-15023452D01*
X14406524Y-15032976D01*
X14387476Y-15032976D01*
X14368428Y-15023452D01*
X14358905Y-15013928D01*
X14349381Y-14994881D01*
X14339857Y-14956786D01*
X14339857Y-14909167D01*
X14349381Y-14871071D01*
X14358905Y-14852024D01*
X14368428Y-14842500D01*
X14387476Y-14832976D01*
X14539857Y-15013928D02*
X14549381Y-15023452D01*
X14539857Y-15032976D01*
X14530333Y-15023452D01*
X14539857Y-15013928D01*
X14539857Y-15032976D01*
X14673190Y-14832976D02*
X14692238Y-14832976D01*
X14711286Y-14842500D01*
X14720809Y-14852024D01*
X14730333Y-14871071D01*
X14739857Y-14909167D01*
X14739857Y-14956786D01*
X14730333Y-14994881D01*
X14720809Y-15013928D01*
X14711286Y-15023452D01*
X14692238Y-15032976D01*
X14673190Y-15032976D01*
X14654143Y-15023452D01*
X14644619Y-15013928D01*
X14635095Y-14994881D01*
X14625571Y-14956786D01*
X14625571Y-14909167D01*
X14635095Y-14871071D01*
X14644619Y-14852024D01*
X14654143Y-14842500D01*
X14673190Y-14832976D01*
X14816048Y-14852024D02*
X14825571Y-14842500D01*
X14844619Y-14832976D01*
X14892238Y-14832976D01*
X14911286Y-14842500D01*
X14920809Y-14852024D01*
X14930333Y-14871071D01*
X14930333Y-14890119D01*
X14920809Y-14918690D01*
X14806524Y-15032976D01*
X14930333Y-15032976D01*
X14997000Y-14832976D02*
X15130333Y-14832976D01*
X15044619Y-15032976D01*
X15292238Y-14832976D02*
X15254143Y-14832976D01*
X15235095Y-14842500D01*
X15225571Y-14852024D01*
X15206524Y-14880595D01*
X15197000Y-14918690D01*
X15197000Y-14994881D01*
X15206524Y-15013928D01*
X15216048Y-15023452D01*
X15235095Y-15032976D01*
X15273190Y-15032976D01*
X15292238Y-15023452D01*
X15301762Y-15013928D01*
X15311286Y-14994881D01*
X15311286Y-14947262D01*
X15301762Y-14928214D01*
X15292238Y-14918690D01*
X15273190Y-14909167D01*
X15235095Y-14909167D01*
X15216048Y-14918690D01*
X15206524Y-14928214D01*
X15197000Y-14947262D01*
X15387476Y-14832976D02*
X15387476Y-14871071D01*
X15463667Y-14832976D02*
X15463667Y-14871071D01*
X15758905Y-15109167D02*
X15749381Y-15099643D01*
X15730333Y-15071071D01*
X15720809Y-15052024D01*
X15711286Y-15023452D01*
X15701762Y-14975833D01*
X15701762Y-14937738D01*
X15711286Y-14890119D01*
X15720809Y-14861548D01*
X15730333Y-14842500D01*
X15749381Y-14813928D01*
X15758905Y-14804405D01*
X15825571Y-14852024D02*
X15835095Y-14842500D01*
X15854143Y-14832976D01*
X15901762Y-14832976D01*
X15920809Y-14842500D01*
X15930333Y-14852024D01*
X15939857Y-14871071D01*
X15939857Y-14890119D01*
X15930333Y-14918690D01*
X15816048Y-15032976D01*
X15939857Y-15032976D01*
X16063667Y-14832976D02*
X16082714Y-14832976D01*
X16101762Y-14842500D01*
X16111286Y-14852024D01*
X16120809Y-14871071D01*
X16130333Y-14909167D01*
X16130333Y-14956786D01*
X16120809Y-14994881D01*
X16111286Y-15013928D01*
X16101762Y-15023452D01*
X16082714Y-15032976D01*
X16063667Y-15032976D01*
X16044619Y-15023452D01*
X16035095Y-15013928D01*
X16025571Y-14994881D01*
X16016048Y-14956786D01*
X16016048Y-14909167D01*
X16025571Y-14871071D01*
X16035095Y-14852024D01*
X16044619Y-14842500D01*
X16063667Y-14832976D01*
X16368428Y-15032976D02*
X16368428Y-14832976D01*
X16454143Y-15032976D02*
X16454143Y-14928214D01*
X16444619Y-14909167D01*
X16425571Y-14899643D01*
X16397000Y-14899643D01*
X16377952Y-14909167D01*
X16368428Y-14918690D01*
X16577952Y-15032976D02*
X16558905Y-15023452D01*
X16549381Y-15013928D01*
X16539857Y-14994881D01*
X16539857Y-14937738D01*
X16549381Y-14918690D01*
X16558905Y-14909167D01*
X16577952Y-14899643D01*
X16606524Y-14899643D01*
X16625571Y-14909167D01*
X16635095Y-14918690D01*
X16644619Y-14937738D01*
X16644619Y-14994881D01*
X16635095Y-15013928D01*
X16625571Y-15023452D01*
X16606524Y-15032976D01*
X16577952Y-15032976D01*
X16758905Y-15032976D02*
X16739857Y-15023452D01*
X16730333Y-15004405D01*
X16730333Y-14832976D01*
X16911286Y-15023452D02*
X16892238Y-15032976D01*
X16854143Y-15032976D01*
X16835095Y-15023452D01*
X16825571Y-15004405D01*
X16825571Y-14928214D01*
X16835095Y-14909167D01*
X16854143Y-14899643D01*
X16892238Y-14899643D01*
X16911286Y-14909167D01*
X16920810Y-14928214D01*
X16920810Y-14947262D01*
X16825571Y-14966309D01*
X16997000Y-15023452D02*
X17016048Y-15032976D01*
X17054143Y-15032976D01*
X17073190Y-15023452D01*
X17082714Y-15004405D01*
X17082714Y-14994881D01*
X17073190Y-14975833D01*
X17054143Y-14966309D01*
X17025571Y-14966309D01*
X17006524Y-14956786D01*
X16997000Y-14937738D01*
X16997000Y-14928214D01*
X17006524Y-14909167D01*
X17025571Y-14899643D01*
X17054143Y-14899643D01*
X17073190Y-14909167D01*
X17149381Y-15109167D02*
X17158905Y-15099643D01*
X17177952Y-15071071D01*
X17187476Y-15052024D01*
X17197000Y-15023452D01*
X17206524Y-14975833D01*
X17206524Y-14937738D01*
X17197000Y-14890119D01*
X17187476Y-14861548D01*
X17177952Y-14842500D01*
X17158905Y-14813928D01*
X17149381Y-14804405D01*
D14*
X12147000Y-15166500D02*
X12147000Y-15246500D01*
X12107000Y-15206500D02*
X12187000Y-15206500D01*
D11*
X12482714Y-15096976D02*
X12501762Y-15096976D01*
X12520809Y-15106500D01*
X12530333Y-15116024D01*
X12539857Y-15135071D01*
X12549381Y-15173167D01*
X12549381Y-15220786D01*
X12539857Y-15258881D01*
X12530333Y-15277928D01*
X12520809Y-15287452D01*
X12501762Y-15296976D01*
X12482714Y-15296976D01*
X12463667Y-15287452D01*
X12454143Y-15277928D01*
X12444619Y-15258881D01*
X12435095Y-15220786D01*
X12435095Y-15173167D01*
X12444619Y-15135071D01*
X12454143Y-15116024D01*
X12463667Y-15106500D01*
X12482714Y-15096976D01*
X12635095Y-15277928D02*
X12644619Y-15287452D01*
X12635095Y-15296976D01*
X12625571Y-15287452D01*
X12635095Y-15277928D01*
X12635095Y-15296976D01*
X12758905Y-15182690D02*
X12739857Y-15173167D01*
X12730333Y-15163643D01*
X12720809Y-15144595D01*
X12720809Y-15135071D01*
X12730333Y-15116024D01*
X12739857Y-15106500D01*
X12758905Y-15096976D01*
X12797000Y-15096976D01*
X12816048Y-15106500D01*
X12825571Y-15116024D01*
X12835095Y-15135071D01*
X12835095Y-15144595D01*
X12825571Y-15163643D01*
X12816048Y-15173167D01*
X12797000Y-15182690D01*
X12758905Y-15182690D01*
X12739857Y-15192214D01*
X12730333Y-15201738D01*
X12720809Y-15220786D01*
X12720809Y-15258881D01*
X12730333Y-15277928D01*
X12739857Y-15287452D01*
X12758905Y-15296976D01*
X12797000Y-15296976D01*
X12816048Y-15287452D01*
X12825571Y-15277928D01*
X12835095Y-15258881D01*
X12835095Y-15220786D01*
X12825571Y-15201738D01*
X12816048Y-15192214D01*
X12797000Y-15182690D01*
X12958905Y-15096976D02*
X12977952Y-15096976D01*
X12997000Y-15106500D01*
X13006524Y-15116024D01*
X13016048Y-15135071D01*
X13025571Y-15173167D01*
X13025571Y-15220786D01*
X13016048Y-15258881D01*
X13006524Y-15277928D01*
X12997000Y-15287452D01*
X12977952Y-15296976D01*
X12958905Y-15296976D01*
X12939857Y-15287452D01*
X12930333Y-15277928D01*
X12920809Y-15258881D01*
X12911286Y-15220786D01*
X12911286Y-15173167D01*
X12920809Y-15135071D01*
X12930333Y-15116024D01*
X12939857Y-15106500D01*
X12958905Y-15096976D01*
X13149381Y-15096976D02*
X13168428Y-15096976D01*
X13187476Y-15106500D01*
X13197000Y-15116024D01*
X13206524Y-15135071D01*
X13216048Y-15173167D01*
X13216048Y-15220786D01*
X13206524Y-15258881D01*
X13197000Y-15277928D01*
X13187476Y-15287452D01*
X13168428Y-15296976D01*
X13149381Y-15296976D01*
X13130333Y-15287452D01*
X13120809Y-15277928D01*
X13111286Y-15258881D01*
X13101762Y-15220786D01*
X13101762Y-15173167D01*
X13111286Y-15135071D01*
X13120809Y-15116024D01*
X13130333Y-15106500D01*
X13149381Y-15096976D01*
X13301762Y-15296976D02*
X13301762Y-15163643D01*
X13301762Y-15182690D02*
X13311286Y-15173167D01*
X13330333Y-15163643D01*
X13358905Y-15163643D01*
X13377952Y-15173167D01*
X13387476Y-15192214D01*
X13387476Y-15296976D01*
X13387476Y-15192214D02*
X13397000Y-15173167D01*
X13416048Y-15163643D01*
X13444619Y-15163643D01*
X13463667Y-15173167D01*
X13473190Y-15192214D01*
X13473190Y-15296976D01*
X13568428Y-15296976D02*
X13568428Y-15163643D01*
X13568428Y-15182690D02*
X13577952Y-15173167D01*
X13597000Y-15163643D01*
X13625571Y-15163643D01*
X13644619Y-15173167D01*
X13654143Y-15192214D01*
X13654143Y-15296976D01*
X13654143Y-15192214D02*
X13663667Y-15173167D01*
X13682714Y-15163643D01*
X13711286Y-15163643D01*
X13730333Y-15173167D01*
X13739857Y-15192214D01*
X13739857Y-15296976D01*
X14130333Y-15087452D02*
X13958905Y-15344595D01*
X14387476Y-15096976D02*
X14406524Y-15096976D01*
X14425571Y-15106500D01*
X14435095Y-15116024D01*
X14444619Y-15135071D01*
X14454143Y-15173167D01*
X14454143Y-15220786D01*
X14444619Y-15258881D01*
X14435095Y-15277928D01*
X14425571Y-15287452D01*
X14406524Y-15296976D01*
X14387476Y-15296976D01*
X14368428Y-15287452D01*
X14358905Y-15277928D01*
X14349381Y-15258881D01*
X14339857Y-15220786D01*
X14339857Y-15173167D01*
X14349381Y-15135071D01*
X14358905Y-15116024D01*
X14368428Y-15106500D01*
X14387476Y-15096976D01*
X14539857Y-15277928D02*
X14549381Y-15287452D01*
X14539857Y-15296976D01*
X14530333Y-15287452D01*
X14539857Y-15277928D01*
X14539857Y-15296976D01*
X14673190Y-15096976D02*
X14692238Y-15096976D01*
X14711286Y-15106500D01*
X14720809Y-15116024D01*
X14730333Y-15135071D01*
X14739857Y-15173167D01*
X14739857Y-15220786D01*
X14730333Y-15258881D01*
X14720809Y-15277928D01*
X14711286Y-15287452D01*
X14692238Y-15296976D01*
X14673190Y-15296976D01*
X14654143Y-15287452D01*
X14644619Y-15277928D01*
X14635095Y-15258881D01*
X14625571Y-15220786D01*
X14625571Y-15173167D01*
X14635095Y-15135071D01*
X14644619Y-15116024D01*
X14654143Y-15106500D01*
X14673190Y-15096976D01*
X14806524Y-15096976D02*
X14930333Y-15096976D01*
X14863667Y-15173167D01*
X14892238Y-15173167D01*
X14911286Y-15182690D01*
X14920809Y-15192214D01*
X14930333Y-15211262D01*
X14930333Y-15258881D01*
X14920809Y-15277928D01*
X14911286Y-15287452D01*
X14892238Y-15296976D01*
X14835095Y-15296976D01*
X14816048Y-15287452D01*
X14806524Y-15277928D01*
X15120809Y-15296976D02*
X15006524Y-15296976D01*
X15063667Y-15296976D02*
X15063667Y-15096976D01*
X15044619Y-15125548D01*
X15025571Y-15144595D01*
X15006524Y-15154119D01*
X15301762Y-15096976D02*
X15206524Y-15096976D01*
X15197000Y-15192214D01*
X15206524Y-15182690D01*
X15225571Y-15173167D01*
X15273190Y-15173167D01*
X15292238Y-15182690D01*
X15301762Y-15192214D01*
X15311286Y-15211262D01*
X15311286Y-15258881D01*
X15301762Y-15277928D01*
X15292238Y-15287452D01*
X15273190Y-15296976D01*
X15225571Y-15296976D01*
X15206524Y-15287452D01*
X15197000Y-15277928D01*
X15387476Y-15096976D02*
X15387476Y-15135071D01*
X15463667Y-15096976D02*
X15463667Y-15135071D01*
X15758905Y-15373167D02*
X15749381Y-15363643D01*
X15730333Y-15335071D01*
X15720809Y-15316024D01*
X15711286Y-15287452D01*
X15701762Y-15239833D01*
X15701762Y-15201738D01*
X15711286Y-15154119D01*
X15720809Y-15125548D01*
X15730333Y-15106500D01*
X15749381Y-15077928D01*
X15758905Y-15068405D01*
X15920809Y-15096976D02*
X15882714Y-15096976D01*
X15863667Y-15106500D01*
X15854143Y-15116024D01*
X15835095Y-15144595D01*
X15825571Y-15182690D01*
X15825571Y-15258881D01*
X15835095Y-15277928D01*
X15844619Y-15287452D01*
X15863667Y-15296976D01*
X15901762Y-15296976D01*
X15920809Y-15287452D01*
X15930333Y-15277928D01*
X15939857Y-15258881D01*
X15939857Y-15211262D01*
X15930333Y-15192214D01*
X15920809Y-15182690D01*
X15901762Y-15173167D01*
X15863667Y-15173167D01*
X15844619Y-15182690D01*
X15835095Y-15192214D01*
X15825571Y-15211262D01*
X16063667Y-15096976D02*
X16082714Y-15096976D01*
X16101762Y-15106500D01*
X16111286Y-15116024D01*
X16120809Y-15135071D01*
X16130333Y-15173167D01*
X16130333Y-15220786D01*
X16120809Y-15258881D01*
X16111286Y-15277928D01*
X16101762Y-15287452D01*
X16082714Y-15296976D01*
X16063667Y-15296976D01*
X16044619Y-15287452D01*
X16035095Y-15277928D01*
X16025571Y-15258881D01*
X16016048Y-15220786D01*
X16016048Y-15173167D01*
X16025571Y-15135071D01*
X16035095Y-15116024D01*
X16044619Y-15106500D01*
X16063667Y-15096976D01*
X16368428Y-15296976D02*
X16368428Y-15096976D01*
X16454143Y-15296976D02*
X16454143Y-15192214D01*
X16444619Y-15173167D01*
X16425571Y-15163643D01*
X16397000Y-15163643D01*
X16377952Y-15173167D01*
X16368428Y-15182690D01*
X16577952Y-15296976D02*
X16558905Y-15287452D01*
X16549381Y-15277928D01*
X16539857Y-15258881D01*
X16539857Y-15201738D01*
X16549381Y-15182690D01*
X16558905Y-15173167D01*
X16577952Y-15163643D01*
X16606524Y-15163643D01*
X16625571Y-15173167D01*
X16635095Y-15182690D01*
X16644619Y-15201738D01*
X16644619Y-15258881D01*
X16635095Y-15277928D01*
X16625571Y-15287452D01*
X16606524Y-15296976D01*
X16577952Y-15296976D01*
X16758905Y-15296976D02*
X16739857Y-15287452D01*
X16730333Y-15268405D01*
X16730333Y-15096976D01*
X16911286Y-15287452D02*
X16892238Y-15296976D01*
X16854143Y-15296976D01*
X16835095Y-15287452D01*
X16825571Y-15268405D01*
X16825571Y-15192214D01*
X16835095Y-15173167D01*
X16854143Y-15163643D01*
X16892238Y-15163643D01*
X16911286Y-15173167D01*
X16920810Y-15192214D01*
X16920810Y-15211262D01*
X16825571Y-15230309D01*
X16997000Y-15287452D02*
X17016048Y-15296976D01*
X17054143Y-15296976D01*
X17073190Y-15287452D01*
X17082714Y-15268405D01*
X17082714Y-15258881D01*
X17073190Y-15239833D01*
X17054143Y-15230309D01*
X17025571Y-15230309D01*
X17006524Y-15220786D01*
X16997000Y-15201738D01*
X16997000Y-15192214D01*
X17006524Y-15173167D01*
X17025571Y-15163643D01*
X17054143Y-15163643D01*
X17073190Y-15173167D01*
X17149381Y-15373167D02*
X17158905Y-15363643D01*
X17177952Y-15335071D01*
X17187476Y-15316024D01*
X17197000Y-15287452D01*
X17206524Y-15239833D01*
X17206524Y-15201738D01*
X17197000Y-15154119D01*
X17187476Y-15125548D01*
X17177952Y-15106500D01*
X17158905Y-15077928D01*
X17149381Y-15068405D01*
D15*
X12173820Y-15502320D02*
X12173820Y-15438680D01*
X12110180Y-15438680D01*
X12110180Y-15502320D01*
X12173820Y-15502320D01*
D11*
X12482714Y-15360976D02*
X12501762Y-15360976D01*
X12520809Y-15370500D01*
X12530333Y-15380024D01*
X12539857Y-15399071D01*
X12549381Y-15437167D01*
X12549381Y-15484786D01*
X12539857Y-15522881D01*
X12530333Y-15541928D01*
X12520809Y-15551452D01*
X12501762Y-15560976D01*
X12482714Y-15560976D01*
X12463667Y-15551452D01*
X12454143Y-15541928D01*
X12444619Y-15522881D01*
X12435095Y-15484786D01*
X12435095Y-15437167D01*
X12444619Y-15399071D01*
X12454143Y-15380024D01*
X12463667Y-15370500D01*
X12482714Y-15360976D01*
X12635095Y-15541928D02*
X12644619Y-15551452D01*
X12635095Y-15560976D01*
X12625571Y-15551452D01*
X12635095Y-15541928D01*
X12635095Y-15560976D01*
X12739857Y-15560976D02*
X12777952Y-15560976D01*
X12797000Y-15551452D01*
X12806524Y-15541928D01*
X12825571Y-15513357D01*
X12835095Y-15475262D01*
X12835095Y-15399071D01*
X12825571Y-15380024D01*
X12816048Y-15370500D01*
X12797000Y-15360976D01*
X12758905Y-15360976D01*
X12739857Y-15370500D01*
X12730333Y-15380024D01*
X12720809Y-15399071D01*
X12720809Y-15446690D01*
X12730333Y-15465738D01*
X12739857Y-15475262D01*
X12758905Y-15484786D01*
X12797000Y-15484786D01*
X12816048Y-15475262D01*
X12825571Y-15465738D01*
X12835095Y-15446690D01*
X12958905Y-15360976D02*
X12977952Y-15360976D01*
X12997000Y-15370500D01*
X13006524Y-15380024D01*
X13016048Y-15399071D01*
X13025571Y-15437167D01*
X13025571Y-15484786D01*
X13016048Y-15522881D01*
X13006524Y-15541928D01*
X12997000Y-15551452D01*
X12977952Y-15560976D01*
X12958905Y-15560976D01*
X12939857Y-15551452D01*
X12930333Y-15541928D01*
X12920809Y-15522881D01*
X12911286Y-15484786D01*
X12911286Y-15437167D01*
X12920809Y-15399071D01*
X12930333Y-15380024D01*
X12939857Y-15370500D01*
X12958905Y-15360976D01*
X13149381Y-15360976D02*
X13168428Y-15360976D01*
X13187476Y-15370500D01*
X13197000Y-15380024D01*
X13206524Y-15399071D01*
X13216048Y-15437167D01*
X13216048Y-15484786D01*
X13206524Y-15522881D01*
X13197000Y-15541928D01*
X13187476Y-15551452D01*
X13168428Y-15560976D01*
X13149381Y-15560976D01*
X13130333Y-15551452D01*
X13120809Y-15541928D01*
X13111286Y-15522881D01*
X13101762Y-15484786D01*
X13101762Y-15437167D01*
X13111286Y-15399071D01*
X13120809Y-15380024D01*
X13130333Y-15370500D01*
X13149381Y-15360976D01*
X13301762Y-15560976D02*
X13301762Y-15427643D01*
X13301762Y-15446690D02*
X13311286Y-15437167D01*
X13330333Y-15427643D01*
X13358905Y-15427643D01*
X13377952Y-15437167D01*
X13387476Y-15456214D01*
X13387476Y-15560976D01*
X13387476Y-15456214D02*
X13397000Y-15437167D01*
X13416048Y-15427643D01*
X13444619Y-15427643D01*
X13463667Y-15437167D01*
X13473190Y-15456214D01*
X13473190Y-15560976D01*
X13568428Y-15560976D02*
X13568428Y-15427643D01*
X13568428Y-15446690D02*
X13577952Y-15437167D01*
X13597000Y-15427643D01*
X13625571Y-15427643D01*
X13644619Y-15437167D01*
X13654143Y-15456214D01*
X13654143Y-15560976D01*
X13654143Y-15456214D02*
X13663667Y-15437167D01*
X13682714Y-15427643D01*
X13711286Y-15427643D01*
X13730333Y-15437167D01*
X13739857Y-15456214D01*
X13739857Y-15560976D01*
X14130333Y-15351452D02*
X13958905Y-15608595D01*
X14387476Y-15360976D02*
X14406524Y-15360976D01*
X14425571Y-15370500D01*
X14435095Y-15380024D01*
X14444619Y-15399071D01*
X14454143Y-15437167D01*
X14454143Y-15484786D01*
X14444619Y-15522881D01*
X14435095Y-15541928D01*
X14425571Y-15551452D01*
X14406524Y-15560976D01*
X14387476Y-15560976D01*
X14368428Y-15551452D01*
X14358905Y-15541928D01*
X14349381Y-15522881D01*
X14339857Y-15484786D01*
X14339857Y-15437167D01*
X14349381Y-15399071D01*
X14358905Y-15380024D01*
X14368428Y-15370500D01*
X14387476Y-15360976D01*
X14539857Y-15541928D02*
X14549381Y-15551452D01*
X14539857Y-15560976D01*
X14530333Y-15551452D01*
X14539857Y-15541928D01*
X14539857Y-15560976D01*
X14673190Y-15360976D02*
X14692238Y-15360976D01*
X14711286Y-15370500D01*
X14720809Y-15380024D01*
X14730333Y-15399071D01*
X14739857Y-15437167D01*
X14739857Y-15484786D01*
X14730333Y-15522881D01*
X14720809Y-15541928D01*
X14711286Y-15551452D01*
X14692238Y-15560976D01*
X14673190Y-15560976D01*
X14654143Y-15551452D01*
X14644619Y-15541928D01*
X14635095Y-15522881D01*
X14625571Y-15484786D01*
X14625571Y-15437167D01*
X14635095Y-15399071D01*
X14644619Y-15380024D01*
X14654143Y-15370500D01*
X14673190Y-15360976D01*
X14806524Y-15360976D02*
X14930333Y-15360976D01*
X14863667Y-15437167D01*
X14892238Y-15437167D01*
X14911286Y-15446690D01*
X14920809Y-15456214D01*
X14930333Y-15475262D01*
X14930333Y-15522881D01*
X14920809Y-15541928D01*
X14911286Y-15551452D01*
X14892238Y-15560976D01*
X14835095Y-15560976D01*
X14816048Y-15551452D01*
X14806524Y-15541928D01*
X15111286Y-15360976D02*
X15016048Y-15360976D01*
X15006524Y-15456214D01*
X15016048Y-15446690D01*
X15035095Y-15437167D01*
X15082714Y-15437167D01*
X15101762Y-15446690D01*
X15111286Y-15456214D01*
X15120809Y-15475262D01*
X15120809Y-15522881D01*
X15111286Y-15541928D01*
X15101762Y-15551452D01*
X15082714Y-15560976D01*
X15035095Y-15560976D01*
X15016048Y-15551452D01*
X15006524Y-15541928D01*
X15292238Y-15427643D02*
X15292238Y-15560976D01*
X15244619Y-15351452D02*
X15197000Y-15494309D01*
X15320809Y-15494309D01*
X15387476Y-15360976D02*
X15387476Y-15399071D01*
X15463667Y-15360976D02*
X15463667Y-15399071D01*
X15758905Y-15637167D02*
X15749381Y-15627643D01*
X15730333Y-15599071D01*
X15720809Y-15580024D01*
X15711286Y-15551452D01*
X15701762Y-15503833D01*
X15701762Y-15465738D01*
X15711286Y-15418119D01*
X15720809Y-15389548D01*
X15730333Y-15370500D01*
X15749381Y-15341928D01*
X15758905Y-15332405D01*
X15863667Y-15446690D02*
X15844619Y-15437167D01*
X15835095Y-15427643D01*
X15825571Y-15408595D01*
X15825571Y-15399071D01*
X15835095Y-15380024D01*
X15844619Y-15370500D01*
X15863667Y-15360976D01*
X15901762Y-15360976D01*
X15920809Y-15370500D01*
X15930333Y-15380024D01*
X15939857Y-15399071D01*
X15939857Y-15408595D01*
X15930333Y-15427643D01*
X15920809Y-15437167D01*
X15901762Y-15446690D01*
X15863667Y-15446690D01*
X15844619Y-15456214D01*
X15835095Y-15465738D01*
X15825571Y-15484786D01*
X15825571Y-15522881D01*
X15835095Y-15541928D01*
X15844619Y-15551452D01*
X15863667Y-15560976D01*
X15901762Y-15560976D01*
X15920809Y-15551452D01*
X15930333Y-15541928D01*
X15939857Y-15522881D01*
X15939857Y-15484786D01*
X15930333Y-15465738D01*
X15920809Y-15456214D01*
X15901762Y-15446690D01*
X16177952Y-15560976D02*
X16177952Y-15360976D01*
X16263667Y-15560976D02*
X16263667Y-15456214D01*
X16254143Y-15437167D01*
X16235095Y-15427643D01*
X16206524Y-15427643D01*
X16187476Y-15437167D01*
X16177952Y-15446690D01*
X16387476Y-15560976D02*
X16368428Y-15551452D01*
X16358905Y-15541928D01*
X16349381Y-15522881D01*
X16349381Y-15465738D01*
X16358905Y-15446690D01*
X16368428Y-15437167D01*
X16387476Y-15427643D01*
X16416048Y-15427643D01*
X16435095Y-15437167D01*
X16444619Y-15446690D01*
X16454143Y-15465738D01*
X16454143Y-15522881D01*
X16444619Y-15541928D01*
X16435095Y-15551452D01*
X16416048Y-15560976D01*
X16387476Y-15560976D01*
X16568428Y-15560976D02*
X16549381Y-15551452D01*
X16539857Y-15532405D01*
X16539857Y-15360976D01*
X16720809Y-15551452D02*
X16701762Y-15560976D01*
X16663667Y-15560976D01*
X16644619Y-15551452D01*
X16635095Y-15532405D01*
X16635095Y-15456214D01*
X16644619Y-15437167D01*
X16663667Y-15427643D01*
X16701762Y-15427643D01*
X16720809Y-15437167D01*
X16730333Y-15456214D01*
X16730333Y-15475262D01*
X16635095Y-15494309D01*
X16806524Y-15551452D02*
X16825571Y-15560976D01*
X16863667Y-15560976D01*
X16882714Y-15551452D01*
X16892238Y-15532405D01*
X16892238Y-15522881D01*
X16882714Y-15503833D01*
X16863667Y-15494309D01*
X16835095Y-15494309D01*
X16816048Y-15484786D01*
X16806524Y-15465738D01*
X16806524Y-15456214D01*
X16816048Y-15437167D01*
X16835095Y-15427643D01*
X16863667Y-15427643D01*
X16882714Y-15437167D01*
X16958905Y-15637167D02*
X16968429Y-15627643D01*
X16987476Y-15599071D01*
X16997000Y-15580024D01*
X17006524Y-15551452D01*
X17016048Y-15503833D01*
X17016048Y-15465738D01*
X17006524Y-15418119D01*
X16997000Y-15389548D01*
X16987476Y-15370500D01*
X16968429Y-15341928D01*
X16958905Y-15332405D01*
D10*
X12137000Y-15784500D02*
X12187000Y-15734500D01*
X12137000Y-15684500D01*
X12087000Y-15734500D01*
X12137000Y-15784500D01*
D11*
X12549381Y-15824976D02*
X12435095Y-15824976D01*
X12492238Y-15824976D02*
X12492238Y-15624976D01*
X12473190Y-15653548D01*
X12454143Y-15672595D01*
X12435095Y-15682119D01*
X12635095Y-15805928D02*
X12644619Y-15815452D01*
X12635095Y-15824976D01*
X12625571Y-15815452D01*
X12635095Y-15805928D01*
X12635095Y-15824976D01*
X12768428Y-15624976D02*
X12787476Y-15624976D01*
X12806524Y-15634500D01*
X12816048Y-15644024D01*
X12825571Y-15663071D01*
X12835095Y-15701167D01*
X12835095Y-15748786D01*
X12825571Y-15786881D01*
X12816048Y-15805928D01*
X12806524Y-15815452D01*
X12787476Y-15824976D01*
X12768428Y-15824976D01*
X12749381Y-15815452D01*
X12739857Y-15805928D01*
X12730333Y-15786881D01*
X12720809Y-15748786D01*
X12720809Y-15701167D01*
X12730333Y-15663071D01*
X12739857Y-15644024D01*
X12749381Y-15634500D01*
X12768428Y-15624976D01*
X12958905Y-15624976D02*
X12977952Y-15624976D01*
X12997000Y-15634500D01*
X13006524Y-15644024D01*
X13016048Y-15663071D01*
X13025571Y-15701167D01*
X13025571Y-15748786D01*
X13016048Y-15786881D01*
X13006524Y-15805928D01*
X12997000Y-15815452D01*
X12977952Y-15824976D01*
X12958905Y-15824976D01*
X12939857Y-15815452D01*
X12930333Y-15805928D01*
X12920809Y-15786881D01*
X12911286Y-15748786D01*
X12911286Y-15701167D01*
X12920809Y-15663071D01*
X12930333Y-15644024D01*
X12939857Y-15634500D01*
X12958905Y-15624976D01*
X13149381Y-15624976D02*
X13168428Y-15624976D01*
X13187476Y-15634500D01*
X13197000Y-15644024D01*
X13206524Y-15663071D01*
X13216048Y-15701167D01*
X13216048Y-15748786D01*
X13206524Y-15786881D01*
X13197000Y-15805928D01*
X13187476Y-15815452D01*
X13168428Y-15824976D01*
X13149381Y-15824976D01*
X13130333Y-15815452D01*
X13120809Y-15805928D01*
X13111286Y-15786881D01*
X13101762Y-15748786D01*
X13101762Y-15701167D01*
X13111286Y-15663071D01*
X13120809Y-15644024D01*
X13130333Y-15634500D01*
X13149381Y-15624976D01*
X13301762Y-15824976D02*
X13301762Y-15691643D01*
X13301762Y-15710690D02*
X13311286Y-15701167D01*
X13330333Y-15691643D01*
X13358905Y-15691643D01*
X13377952Y-15701167D01*
X13387476Y-15720214D01*
X13387476Y-15824976D01*
X13387476Y-15720214D02*
X13397000Y-15701167D01*
X13416048Y-15691643D01*
X13444619Y-15691643D01*
X13463667Y-15701167D01*
X13473190Y-15720214D01*
X13473190Y-15824976D01*
X13568428Y-15824976D02*
X13568428Y-15691643D01*
X13568428Y-15710690D02*
X13577952Y-15701167D01*
X13597000Y-15691643D01*
X13625571Y-15691643D01*
X13644619Y-15701167D01*
X13654143Y-15720214D01*
X13654143Y-15824976D01*
X13654143Y-15720214D02*
X13663667Y-15701167D01*
X13682714Y-15691643D01*
X13711286Y-15691643D01*
X13730333Y-15701167D01*
X13739857Y-15720214D01*
X13739857Y-15824976D01*
X14130333Y-15615452D02*
X13958905Y-15872595D01*
X14387476Y-15624976D02*
X14406524Y-15624976D01*
X14425571Y-15634500D01*
X14435095Y-15644024D01*
X14444619Y-15663071D01*
X14454143Y-15701167D01*
X14454143Y-15748786D01*
X14444619Y-15786881D01*
X14435095Y-15805928D01*
X14425571Y-15815452D01*
X14406524Y-15824976D01*
X14387476Y-15824976D01*
X14368428Y-15815452D01*
X14358905Y-15805928D01*
X14349381Y-15786881D01*
X14339857Y-15748786D01*
X14339857Y-15701167D01*
X14349381Y-15663071D01*
X14358905Y-15644024D01*
X14368428Y-15634500D01*
X14387476Y-15624976D01*
X14539857Y-15805928D02*
X14549381Y-15815452D01*
X14539857Y-15824976D01*
X14530333Y-15815452D01*
X14539857Y-15805928D01*
X14539857Y-15824976D01*
X14673190Y-15624976D02*
X14692238Y-15624976D01*
X14711286Y-15634500D01*
X14720809Y-15644024D01*
X14730333Y-15663071D01*
X14739857Y-15701167D01*
X14739857Y-15748786D01*
X14730333Y-15786881D01*
X14720809Y-15805928D01*
X14711286Y-15815452D01*
X14692238Y-15824976D01*
X14673190Y-15824976D01*
X14654143Y-15815452D01*
X14644619Y-15805928D01*
X14635095Y-15786881D01*
X14625571Y-15748786D01*
X14625571Y-15701167D01*
X14635095Y-15663071D01*
X14644619Y-15644024D01*
X14654143Y-15634500D01*
X14673190Y-15624976D01*
X14806524Y-15624976D02*
X14930333Y-15624976D01*
X14863667Y-15701167D01*
X14892238Y-15701167D01*
X14911286Y-15710690D01*
X14920809Y-15720214D01*
X14930333Y-15739262D01*
X14930333Y-15786881D01*
X14920809Y-15805928D01*
X14911286Y-15815452D01*
X14892238Y-15824976D01*
X14835095Y-15824976D01*
X14816048Y-15815452D01*
X14806524Y-15805928D01*
X15025571Y-15824976D02*
X15063667Y-15824976D01*
X15082714Y-15815452D01*
X15092238Y-15805928D01*
X15111286Y-15777357D01*
X15120809Y-15739262D01*
X15120809Y-15663071D01*
X15111286Y-15644024D01*
X15101762Y-15634500D01*
X15082714Y-15624976D01*
X15044619Y-15624976D01*
X15025571Y-15634500D01*
X15016048Y-15644024D01*
X15006524Y-15663071D01*
X15006524Y-15710690D01*
X15016048Y-15729738D01*
X15025571Y-15739262D01*
X15044619Y-15748786D01*
X15082714Y-15748786D01*
X15101762Y-15739262D01*
X15111286Y-15729738D01*
X15120809Y-15710690D01*
X15292238Y-15691643D02*
X15292238Y-15824976D01*
X15244619Y-15615452D02*
X15197000Y-15758309D01*
X15320809Y-15758309D01*
X15387476Y-15624976D02*
X15387476Y-15663071D01*
X15463667Y-15624976D02*
X15463667Y-15663071D01*
X15758905Y-15901167D02*
X15749381Y-15891643D01*
X15730333Y-15863071D01*
X15720809Y-15844024D01*
X15711286Y-15815452D01*
X15701762Y-15767833D01*
X15701762Y-15729738D01*
X15711286Y-15682119D01*
X15720809Y-15653548D01*
X15730333Y-15634500D01*
X15749381Y-15605928D01*
X15758905Y-15596405D01*
X15920809Y-15691643D02*
X15920809Y-15824976D01*
X15873190Y-15615452D02*
X15825571Y-15758309D01*
X15949381Y-15758309D01*
X16006524Y-15624976D02*
X16130333Y-15624976D01*
X16063667Y-15701167D01*
X16092238Y-15701167D01*
X16111286Y-15710690D01*
X16120809Y-15720214D01*
X16130333Y-15739262D01*
X16130333Y-15786881D01*
X16120809Y-15805928D01*
X16111286Y-15815452D01*
X16092238Y-15824976D01*
X16035095Y-15824976D01*
X16016048Y-15815452D01*
X16006524Y-15805928D01*
X16368428Y-15824976D02*
X16368428Y-15624976D01*
X16454143Y-15824976D02*
X16454143Y-15720214D01*
X16444619Y-15701167D01*
X16425571Y-15691643D01*
X16397000Y-15691643D01*
X16377952Y-15701167D01*
X16368428Y-15710690D01*
X16577952Y-15824976D02*
X16558905Y-15815452D01*
X16549381Y-15805928D01*
X16539857Y-15786881D01*
X16539857Y-15729738D01*
X16549381Y-15710690D01*
X16558905Y-15701167D01*
X16577952Y-15691643D01*
X16606524Y-15691643D01*
X16625571Y-15701167D01*
X16635095Y-15710690D01*
X16644619Y-15729738D01*
X16644619Y-15786881D01*
X16635095Y-15805928D01*
X16625571Y-15815452D01*
X16606524Y-15824976D01*
X16577952Y-15824976D01*
X16758905Y-15824976D02*
X16739857Y-15815452D01*
X16730333Y-15796405D01*
X16730333Y-15624976D01*
X16911286Y-15815452D02*
X16892238Y-15824976D01*
X16854143Y-15824976D01*
X16835095Y-15815452D01*
X16825571Y-15796405D01*
X16825571Y-15720214D01*
X16835095Y-15701167D01*
X16854143Y-15691643D01*
X16892238Y-15691643D01*
X16911286Y-15701167D01*
X16920810Y-15720214D01*
X16920810Y-15739262D01*
X16825571Y-15758309D01*
X16997000Y-15815452D02*
X17016048Y-15824976D01*
X17054143Y-15824976D01*
X17073190Y-15815452D01*
X17082714Y-15796405D01*
X17082714Y-15786881D01*
X17073190Y-15767833D01*
X17054143Y-15758309D01*
X17025571Y-15758309D01*
X17006524Y-15748786D01*
X16997000Y-15729738D01*
X16997000Y-15720214D01*
X17006524Y-15701167D01*
X17025571Y-15691643D01*
X17054143Y-15691643D01*
X17073190Y-15701167D01*
X17149381Y-15901167D02*
X17158905Y-15891643D01*
X17177952Y-15863071D01*
X17187476Y-15844024D01*
X17197000Y-15815452D01*
X17206524Y-15767833D01*
X17206524Y-15729738D01*
X17197000Y-15682119D01*
X17187476Y-15653548D01*
X17177952Y-15634500D01*
X17158905Y-15605928D01*
X17149381Y-15596405D01*
D16*
X12077000Y-15943500D02*
X12187000Y-16053500D01*
X12187000Y-15943500D02*
X12077000Y-16053500D01*
X12187000Y-15998500D02*
G75*
G03*
X12187000Y-15998500I-55000J0D01*
G01*
D11*
X12549381Y-16088976D02*
X12435095Y-16088976D01*
X12492238Y-16088976D02*
X12492238Y-15888976D01*
X12473190Y-15917548D01*
X12454143Y-15936595D01*
X12435095Y-15946119D01*
X12635095Y-16069928D02*
X12644619Y-16079452D01*
X12635095Y-16088976D01*
X12625571Y-16079452D01*
X12635095Y-16069928D01*
X12635095Y-16088976D01*
X12835095Y-16088976D02*
X12720809Y-16088976D01*
X12777952Y-16088976D02*
X12777952Y-15888976D01*
X12758905Y-15917548D01*
X12739857Y-15936595D01*
X12720809Y-15946119D01*
X12958905Y-15888976D02*
X12977952Y-15888976D01*
X12997000Y-15898500D01*
X13006524Y-15908024D01*
X13016048Y-15927071D01*
X13025571Y-15965167D01*
X13025571Y-16012786D01*
X13016048Y-16050881D01*
X13006524Y-16069928D01*
X12997000Y-16079452D01*
X12977952Y-16088976D01*
X12958905Y-16088976D01*
X12939857Y-16079452D01*
X12930333Y-16069928D01*
X12920809Y-16050881D01*
X12911286Y-16012786D01*
X12911286Y-15965167D01*
X12920809Y-15927071D01*
X12930333Y-15908024D01*
X12939857Y-15898500D01*
X12958905Y-15888976D01*
X13149381Y-15888976D02*
X13168428Y-15888976D01*
X13187476Y-15898500D01*
X13197000Y-15908024D01*
X13206524Y-15927071D01*
X13216048Y-15965167D01*
X13216048Y-16012786D01*
X13206524Y-16050881D01*
X13197000Y-16069928D01*
X13187476Y-16079452D01*
X13168428Y-16088976D01*
X13149381Y-16088976D01*
X13130333Y-16079452D01*
X13120809Y-16069928D01*
X13111286Y-16050881D01*
X13101762Y-16012786D01*
X13101762Y-15965167D01*
X13111286Y-15927071D01*
X13120809Y-15908024D01*
X13130333Y-15898500D01*
X13149381Y-15888976D01*
X13301762Y-16088976D02*
X13301762Y-15955643D01*
X13301762Y-15974690D02*
X13311286Y-15965167D01*
X13330333Y-15955643D01*
X13358905Y-15955643D01*
X13377952Y-15965167D01*
X13387476Y-15984214D01*
X13387476Y-16088976D01*
X13387476Y-15984214D02*
X13397000Y-15965167D01*
X13416048Y-15955643D01*
X13444619Y-15955643D01*
X13463667Y-15965167D01*
X13473190Y-15984214D01*
X13473190Y-16088976D01*
X13568428Y-16088976D02*
X13568428Y-15955643D01*
X13568428Y-15974690D02*
X13577952Y-15965167D01*
X13597000Y-15955643D01*
X13625571Y-15955643D01*
X13644619Y-15965167D01*
X13654143Y-15984214D01*
X13654143Y-16088976D01*
X13654143Y-15984214D02*
X13663667Y-15965167D01*
X13682714Y-15955643D01*
X13711286Y-15955643D01*
X13730333Y-15965167D01*
X13739857Y-15984214D01*
X13739857Y-16088976D01*
X14130333Y-15879452D02*
X13958905Y-16136595D01*
X14387476Y-15888976D02*
X14406524Y-15888976D01*
X14425571Y-15898500D01*
X14435095Y-15908024D01*
X14444619Y-15927071D01*
X14454143Y-15965167D01*
X14454143Y-16012786D01*
X14444619Y-16050881D01*
X14435095Y-16069928D01*
X14425571Y-16079452D01*
X14406524Y-16088976D01*
X14387476Y-16088976D01*
X14368428Y-16079452D01*
X14358905Y-16069928D01*
X14349381Y-16050881D01*
X14339857Y-16012786D01*
X14339857Y-15965167D01*
X14349381Y-15927071D01*
X14358905Y-15908024D01*
X14368428Y-15898500D01*
X14387476Y-15888976D01*
X14539857Y-16069928D02*
X14549381Y-16079452D01*
X14539857Y-16088976D01*
X14530333Y-16079452D01*
X14539857Y-16069928D01*
X14539857Y-16088976D01*
X14673190Y-15888976D02*
X14692238Y-15888976D01*
X14711286Y-15898500D01*
X14720809Y-15908024D01*
X14730333Y-15927071D01*
X14739857Y-15965167D01*
X14739857Y-16012786D01*
X14730333Y-16050881D01*
X14720809Y-16069928D01*
X14711286Y-16079452D01*
X14692238Y-16088976D01*
X14673190Y-16088976D01*
X14654143Y-16079452D01*
X14644619Y-16069928D01*
X14635095Y-16050881D01*
X14625571Y-16012786D01*
X14625571Y-15965167D01*
X14635095Y-15927071D01*
X14644619Y-15908024D01*
X14654143Y-15898500D01*
X14673190Y-15888976D01*
X14911286Y-15955643D02*
X14911286Y-16088976D01*
X14863667Y-15879452D02*
X14816048Y-16022309D01*
X14939857Y-16022309D01*
X14997000Y-15888976D02*
X15120809Y-15888976D01*
X15054143Y-15965167D01*
X15082714Y-15965167D01*
X15101762Y-15974690D01*
X15111286Y-15984214D01*
X15120809Y-16003262D01*
X15120809Y-16050881D01*
X15111286Y-16069928D01*
X15101762Y-16079452D01*
X15082714Y-16088976D01*
X15025571Y-16088976D01*
X15006524Y-16079452D01*
X14997000Y-16069928D01*
X15187476Y-15888976D02*
X15311286Y-15888976D01*
X15244619Y-15965167D01*
X15273190Y-15965167D01*
X15292238Y-15974690D01*
X15301762Y-15984214D01*
X15311286Y-16003262D01*
X15311286Y-16050881D01*
X15301762Y-16069928D01*
X15292238Y-16079452D01*
X15273190Y-16088976D01*
X15216048Y-16088976D01*
X15197000Y-16079452D01*
X15187476Y-16069928D01*
X15387476Y-15888976D02*
X15387476Y-15927071D01*
X15463667Y-15888976D02*
X15463667Y-15927071D01*
X15758905Y-16165167D02*
X15749381Y-16155643D01*
X15730333Y-16127071D01*
X15720809Y-16108024D01*
X15711286Y-16079452D01*
X15701762Y-16031833D01*
X15701762Y-15993738D01*
X15711286Y-15946119D01*
X15720809Y-15917548D01*
X15730333Y-15898500D01*
X15749381Y-15869928D01*
X15758905Y-15860405D01*
X15816048Y-15888976D02*
X15949381Y-15888976D01*
X15863667Y-16088976D01*
X16177952Y-16088976D02*
X16177952Y-15888976D01*
X16263667Y-16088976D02*
X16263667Y-15984214D01*
X16254143Y-15965167D01*
X16235095Y-15955643D01*
X16206524Y-15955643D01*
X16187476Y-15965167D01*
X16177952Y-15974690D01*
X16387476Y-16088976D02*
X16368428Y-16079452D01*
X16358905Y-16069928D01*
X16349381Y-16050881D01*
X16349381Y-15993738D01*
X16358905Y-15974690D01*
X16368428Y-15965167D01*
X16387476Y-15955643D01*
X16416048Y-15955643D01*
X16435095Y-15965167D01*
X16444619Y-15974690D01*
X16454143Y-15993738D01*
X16454143Y-16050881D01*
X16444619Y-16069928D01*
X16435095Y-16079452D01*
X16416048Y-16088976D01*
X16387476Y-16088976D01*
X16568428Y-16088976D02*
X16549381Y-16079452D01*
X16539857Y-16060405D01*
X16539857Y-15888976D01*
X16720809Y-16079452D02*
X16701762Y-16088976D01*
X16663667Y-16088976D01*
X16644619Y-16079452D01*
X16635095Y-16060405D01*
X16635095Y-15984214D01*
X16644619Y-15965167D01*
X16663667Y-15955643D01*
X16701762Y-15955643D01*
X16720809Y-15965167D01*
X16730333Y-15984214D01*
X16730333Y-16003262D01*
X16635095Y-16022309D01*
X16806524Y-16079452D02*
X16825571Y-16088976D01*
X16863667Y-16088976D01*
X16882714Y-16079452D01*
X16892238Y-16060405D01*
X16892238Y-16050881D01*
X16882714Y-16031833D01*
X16863667Y-16022309D01*
X16835095Y-16022309D01*
X16816048Y-16012786D01*
X16806524Y-15993738D01*
X16806524Y-15984214D01*
X16816048Y-15965167D01*
X16835095Y-15955643D01*
X16863667Y-15955643D01*
X16882714Y-15965167D01*
X16958905Y-16165167D02*
X16968429Y-16155643D01*
X16987476Y-16127071D01*
X16997000Y-16108024D01*
X17006524Y-16079452D01*
X17016048Y-16031833D01*
X17016048Y-15993738D01*
X17006524Y-15946119D01*
X16997000Y-15917548D01*
X16987476Y-15898500D01*
X16968429Y-15869928D01*
X16958905Y-15860405D01*
M02*
