M48
; DRILL file {KiCad 6.0.11-3.fc36} date Thu 11 May 2023 07:00:32 PM JST
; FORMAT={-:-/ absolute / metric / decimal}
; #@! TF.CreationDate,2023-05-11T19:00:32+09:00
; #@! TF.GenerationSoftware,Kicad,Pcbnew,6.0.11-3.fc36
; #@! TF.FileFunction,Plated,1,2,PTH
FMAT,2
METRIC
; #@! TA.AperFunction,Plated,PTH,ViaDrill
T1C0.400
; #@! TA.AperFunction,Plated,PTH,ComponentDrill
T2C0.700
; #@! TA.AperFunction,Plated,PTH,ComponentDrill
T3C0.800
; #@! TA.AperFunction,Plated,PTH,ComponentDrill
T4C0.900
; #@! TA.AperFunction,Plated,PTH,ComponentDrill
T5C1.000
; #@! TA.AperFunction,Plated,PTH,ComponentDrill
T6C1.100
%
G90
G05
T1
X128.27Y-106.045
X155.257Y-93.027
X159.385Y-90.805
T2
X130.175Y-130.175
X130.175Y-137.795
X135.89Y-85.09
X139.7Y-122.555
X139.7Y-130.175
X143.51Y-85.09
X146.05Y-85.09
X146.05Y-91.155
X153.67Y-85.09
X153.67Y-91.155
X158.67Y-122.555
X158.67Y-130.175
X161.29Y-122.555
X161.29Y-130.175
X165.735Y-122.555
X165.735Y-130.175
X166.37Y-107.315
X166.37Y-114.935
X168.275Y-122.555
X168.275Y-130.175
T3
X124.412Y-88.9
X124.432Y-96.52
X126.912Y-88.9
X126.932Y-96.52
X130.81Y-106.045
X130.81Y-113.545
X132.08Y-85.785
X132.08Y-93.285
X135.9Y-88.275
X135.9Y-90.815
X135.9Y-93.355
X135.9Y-95.895
X135.95Y-109.915
X135.95Y-117.415
X136.525Y-130.175
X136.525Y-137.795
X139.7Y-109.915
X139.7Y-117.415
X143.5Y-103.495
X143.5Y-106.035
X143.5Y-108.575
X143.5Y-111.115
X143.5Y-113.655
X143.5Y-116.195
X143.5Y-118.735
X143.5Y-121.275
X143.5Y-123.815
X143.5Y-126.355
X143.5Y-128.895
X143.5Y-131.435
X143.5Y-133.975
X143.5Y-136.515
X143.52Y-88.275
X143.52Y-90.815
X143.52Y-93.355
X143.52Y-95.895
X146.11Y-88.265
X151.12Y-103.495
X151.12Y-106.035
X151.12Y-108.575
X151.12Y-111.115
X151.12Y-113.655
X151.12Y-116.195
X151.12Y-118.735
X151.12Y-121.275
X151.12Y-123.815
X151.12Y-126.355
X151.12Y-128.895
X151.12Y-131.435
X151.12Y-133.975
X151.12Y-136.515
X153.61Y-88.265
X154.305Y-130.235
X154.305Y-137.735
X156.21Y-107.425
X156.21Y-112.305
X160.655Y-107.315
X160.655Y-112.09
X163.155Y-107.315
X163.155Y-112.09
T4
X130.81Y-116.84
X130.81Y-119.38
X158.67Y-135.255
X161.21Y-135.255
X161.96Y-88.265
X164.5Y-88.265
X165.73Y-135.255
X168.27Y-135.255
T5
X124.46Y-102.255
X124.46Y-104.795
X124.46Y-107.335
X124.46Y-109.875
X124.46Y-112.415
X124.46Y-114.955
X124.46Y-117.495
X124.46Y-123.825
X124.46Y-126.365
X124.46Y-128.905
X124.46Y-131.445
X124.46Y-133.985
X124.46Y-136.525
X155.6Y-118.72
X158.14Y-118.72
X160.68Y-118.72
X161.925Y-98.425
X161.925Y-100.965
X163.22Y-118.72
X164.465Y-98.425
X164.465Y-100.965
X165.76Y-118.72
X167.005Y-98.425
X167.005Y-100.965
X168.3Y-118.72
X172.72Y-89.535
X172.72Y-92.075
X172.72Y-94.615
X172.72Y-97.155
X172.72Y-99.695
X172.72Y-102.235
X172.72Y-104.775
X172.72Y-107.315
X172.72Y-109.855
X172.72Y-112.395
X172.72Y-118.73
X172.72Y-121.27
X172.72Y-123.81
X172.72Y-126.35
X172.72Y-128.89
X172.72Y-131.43
X172.72Y-133.97
X172.72Y-136.51
T6
X130.1Y-122.845
X130.1Y-127.345
X130.81Y-97.155
X130.81Y-99.695
X130.81Y-102.235
X136.6Y-122.845
X136.6Y-127.345
T0
M30
