M48
; DRILL file {KiCad 6.0.11-3.fc36} date Thu 11 May 2023 07:02:28 PM JST
; FORMAT={-:-/ absolute / metric / decimal}
; #@! TF.CreationDate,2023-05-11T19:02:28+09:00
; #@! TF.GenerationSoftware,Kicad,Pcbnew,6.0.11-3.fc36
; #@! TF.FileFunction,Plated,1,2,PTH
FMAT,2
METRIC
; #@! TA.AperFunction,Plated,PTH,ViaDrill
T1C0.400
; #@! TA.AperFunction,Plated,PTH,ComponentDrill
T2C0.800
; #@! TA.AperFunction,Plated,PTH,ComponentDrill
T3C1.000
; #@! TA.AperFunction,Plated,PTH,ComponentDrill
T4C1.100
%
G90
G05
T1
X155.575Y-92.075
X157.48Y-89.535
T2
X130.185Y-102.225
X130.185Y-109.845
X132.725Y-102.225
X132.725Y-109.845
X135.265Y-102.225
X135.265Y-109.845
X137.805Y-102.225
X137.805Y-109.845
X143.5Y-103.495
X143.5Y-106.035
X143.5Y-108.575
X143.5Y-111.115
X143.5Y-113.655
X143.5Y-116.195
X143.5Y-118.735
X143.5Y-121.275
X143.5Y-123.815
X143.5Y-126.355
X143.5Y-128.895
X143.5Y-131.435
X143.5Y-133.975
X143.5Y-136.515
X151.12Y-103.495
X151.12Y-106.035
X151.12Y-108.575
X151.12Y-111.115
X151.12Y-113.655
X151.12Y-116.195
X151.12Y-118.735
X151.12Y-121.275
X151.12Y-123.815
X151.12Y-126.355
X151.12Y-128.895
X151.12Y-131.435
X151.12Y-133.975
X151.12Y-136.515
X153.67Y-137.16
X156.21Y-110.055
X156.21Y-114.935
X156.21Y-137.16
T3
X124.46Y-98.44
X124.46Y-100.98
X124.46Y-103.52
X124.46Y-106.06
X124.46Y-108.6
X124.46Y-111.14
X124.46Y-113.68
X124.46Y-116.22
X124.46Y-123.825
X124.46Y-126.365
X124.46Y-128.905
X124.46Y-131.445
X124.46Y-133.985
X124.46Y-136.525
X155.55Y-121.945
X158.09Y-121.945
X160.63Y-121.945
X161.925Y-98.425
X161.925Y-100.965
X163.17Y-121.945
X164.465Y-98.425
X164.465Y-100.965
X165.71Y-121.945
X167.005Y-98.425
X167.005Y-100.965
X168.25Y-121.945
X172.695Y-89.505
X172.695Y-92.045
X172.695Y-94.585
X172.695Y-97.125
X172.695Y-99.665
X172.695Y-102.205
X172.695Y-104.745
X172.695Y-107.285
X172.695Y-109.825
X172.695Y-112.365
X172.72Y-118.73
X172.72Y-121.27
X172.72Y-123.81
X172.72Y-126.35
X172.72Y-128.89
X172.72Y-131.43
X172.72Y-133.97
X172.72Y-136.51
T4
X130.81Y-117.475
X133.35Y-117.475
X135.89Y-117.475
X159.31Y-87.92
X159.31Y-92.42
X165.81Y-87.92
X165.81Y-92.42
T0
M30
