G04 #@! TF.GenerationSoftware,KiCad,Pcbnew,6.0.11-3.fc36*
G04 #@! TF.CreationDate,2023-05-11T19:02:21+09:00*
G04 #@! TF.ProjectId,Tetiduino,54657469-6475-4696-9e6f-2e6b69636164,rev?*
G04 #@! TF.SameCoordinates,Original*
G04 #@! TF.FileFunction,Legend,Top*
G04 #@! TF.FilePolarity,Positive*
%FSLAX46Y46*%
G04 Gerber Fmt 4.6, Leading zero omitted, Abs format (unit mm)*
G04 Created by KiCad (PCBNEW 6.0.11-3.fc36) date 2023-05-11 19:02:21*
%MOMM*%
%LPD*%
G01*
G04 APERTURE LIST*
G04 Aperture macros list*
%AMRoundRect*
0 Rectangle with rounded corners*
0 $1 Rounding radius*
0 $2 $3 $4 $5 $6 $7 $8 $9 X,Y pos of 4 corners*
0 Add a 4 corners polygon primitive as box body*
4,1,4,$2,$3,$4,$5,$6,$7,$8,$9,$2,$3,0*
0 Add four circle primitives for the rounded corners*
1,1,$1+$1,$2,$3*
1,1,$1+$1,$4,$5*
1,1,$1+$1,$6,$7*
1,1,$1+$1,$8,$9*
0 Add four rect primitives between the rounded corners*
20,1,$1+$1,$2,$3,$4,$5,0*
20,1,$1+$1,$4,$5,$6,$7,0*
20,1,$1+$1,$6,$7,$8,$9,0*
20,1,$1+$1,$8,$9,$2,$3,0*%
G04 Aperture macros list end*
%ADD10C,0.150000*%
%ADD11C,0.300000*%
%ADD12C,0.120000*%
%ADD13R,1.700000X1.700000*%
%ADD14O,1.700000X1.700000*%
%ADD15RoundRect,0.250000X-0.400000X-0.625000X0.400000X-0.625000X0.400000X0.625000X-0.400000X0.625000X0*%
%ADD16R,1.600000X1.600000*%
%ADD17O,1.600000X1.600000*%
%ADD18RoundRect,0.250000X-0.475000X0.337500X-0.475000X-0.337500X0.475000X-0.337500X0.475000X0.337500X0*%
%ADD19RoundRect,0.250000X-0.550000X1.500000X-0.550000X-1.500000X0.550000X-1.500000X0.550000X1.500000X0*%
%ADD20RoundRect,0.250000X0.475000X-0.337500X0.475000X0.337500X-0.475000X0.337500X-0.475000X-0.337500X0*%
%ADD21C,2.000000*%
%ADD22RoundRect,0.250001X-0.462499X-0.624999X0.462499X-0.624999X0.462499X0.624999X-0.462499X0.624999X0*%
%ADD23R,1.500000X2.000000*%
%ADD24R,3.800000X2.000000*%
%ADD25RoundRect,0.250001X0.624999X-0.462499X0.624999X0.462499X-0.624999X0.462499X-0.624999X-0.462499X0*%
%ADD26RoundRect,0.250000X-0.350000X-0.450000X0.350000X-0.450000X0.350000X0.450000X-0.350000X0.450000X0*%
%ADD27RoundRect,0.250000X-0.625000X0.400000X-0.625000X-0.400000X0.625000X-0.400000X0.625000X0.400000X0*%
%ADD28RoundRect,0.250000X0.450000X-0.350000X0.450000X0.350000X-0.450000X0.350000X-0.450000X-0.350000X0*%
%ADD29RoundRect,0.250000X0.400000X0.625000X-0.400000X0.625000X-0.400000X-0.625000X0.400000X-0.625000X0*%
%ADD30RoundRect,0.250000X0.625000X-0.400000X0.625000X0.400000X-0.625000X0.400000X-0.625000X-0.400000X0*%
%ADD31R,1.905000X2.000000*%
%ADD32O,1.905000X2.000000*%
%ADD33C,1.500000*%
G04 APERTURE END LIST*
D10*
X126285714Y-126531666D02*
X126761904Y-126531666D01*
X126190476Y-126817380D02*
X126523809Y-125817380D01*
X126857142Y-126817380D01*
X127714285Y-126817380D02*
X127142857Y-126817380D01*
X127428571Y-126817380D02*
X127428571Y-125817380D01*
X127333333Y-125960238D01*
X127238095Y-126055476D01*
X127142857Y-126103095D01*
X169989523Y-100147380D02*
X169418095Y-100147380D01*
X169703809Y-100147380D02*
X169703809Y-99147380D01*
X169608571Y-99290238D01*
X169513333Y-99385476D01*
X169418095Y-99433095D01*
X170322857Y-99147380D02*
X170941904Y-99147380D01*
X170608571Y-99528333D01*
X170751428Y-99528333D01*
X170846666Y-99575952D01*
X170894285Y-99623571D01*
X170941904Y-99718809D01*
X170941904Y-99956904D01*
X170894285Y-100052142D01*
X170846666Y-100099761D01*
X170751428Y-100147380D01*
X170465714Y-100147380D01*
X170370476Y-100099761D01*
X170322857Y-100052142D01*
X167298809Y-119308571D02*
X166965476Y-119308571D01*
X166965476Y-119832380D02*
X166965476Y-118832380D01*
X167441666Y-118832380D01*
X167679761Y-118832380D02*
X168251190Y-118832380D01*
X167965476Y-119832380D02*
X167965476Y-118832380D01*
X168584523Y-119832380D02*
X168584523Y-118832380D01*
X168822619Y-118832380D01*
X168965476Y-118880000D01*
X169060714Y-118975238D01*
X169108333Y-119070476D01*
X169155952Y-119260952D01*
X169155952Y-119403809D01*
X169108333Y-119594285D01*
X169060714Y-119689523D01*
X168965476Y-119784761D01*
X168822619Y-119832380D01*
X168584523Y-119832380D01*
X169584523Y-119832380D02*
X169584523Y-118832380D01*
X126523809Y-130532142D02*
X126571428Y-130579761D01*
X126523809Y-130627380D01*
X126476190Y-130579761D01*
X126523809Y-130532142D01*
X126523809Y-130627380D01*
X127000000Y-130532142D02*
X127047619Y-130579761D01*
X127000000Y-130627380D01*
X126952380Y-130579761D01*
X127000000Y-130532142D01*
X127000000Y-130627380D01*
X127476190Y-130532142D02*
X127523809Y-130579761D01*
X127476190Y-130627380D01*
X127428571Y-130579761D01*
X127476190Y-130532142D01*
X127476190Y-130627380D01*
X126809523Y-100417380D02*
X126333333Y-100417380D01*
X126285714Y-100893571D01*
X126333333Y-100845952D01*
X126428571Y-100798333D01*
X126666666Y-100798333D01*
X126761904Y-100845952D01*
X126809523Y-100893571D01*
X126857142Y-100988809D01*
X126857142Y-101226904D01*
X126809523Y-101322142D01*
X126761904Y-101369761D01*
X126666666Y-101417380D01*
X126428571Y-101417380D01*
X126333333Y-101369761D01*
X126285714Y-101322142D01*
X127142857Y-100417380D02*
X127476190Y-101417380D01*
X127809523Y-100417380D01*
X127087380Y-103957380D02*
X126754047Y-103481190D01*
X126515952Y-103957380D02*
X126515952Y-102957380D01*
X126896904Y-102957380D01*
X126992142Y-103005000D01*
X127039761Y-103052619D01*
X127087380Y-103147857D01*
X127087380Y-103290714D01*
X127039761Y-103385952D01*
X126992142Y-103433571D01*
X126896904Y-103481190D01*
X126515952Y-103481190D01*
X127468333Y-103909761D02*
X127611190Y-103957380D01*
X127849285Y-103957380D01*
X127944523Y-103909761D01*
X127992142Y-103862142D01*
X128039761Y-103766904D01*
X128039761Y-103671666D01*
X127992142Y-103576428D01*
X127944523Y-103528809D01*
X127849285Y-103481190D01*
X127658809Y-103433571D01*
X127563571Y-103385952D01*
X127515952Y-103338333D01*
X127468333Y-103243095D01*
X127468333Y-103147857D01*
X127515952Y-103052619D01*
X127563571Y-103005000D01*
X127658809Y-102957380D01*
X127896904Y-102957380D01*
X128039761Y-103005000D01*
X128325476Y-102957380D02*
X128896904Y-102957380D01*
X128611190Y-103957380D02*
X128611190Y-102957380D01*
X160107857Y-96337380D02*
X159774523Y-95861190D01*
X159536428Y-96337380D02*
X159536428Y-95337380D01*
X159917380Y-95337380D01*
X160012619Y-95385000D01*
X160060238Y-95432619D01*
X160107857Y-95527857D01*
X160107857Y-95670714D01*
X160060238Y-95765952D01*
X160012619Y-95813571D01*
X159917380Y-95861190D01*
X159536428Y-95861190D01*
X160488809Y-96289761D02*
X160631666Y-96337380D01*
X160869761Y-96337380D01*
X160965000Y-96289761D01*
X161012619Y-96242142D01*
X161060238Y-96146904D01*
X161060238Y-96051666D01*
X161012619Y-95956428D01*
X160965000Y-95908809D01*
X160869761Y-95861190D01*
X160679285Y-95813571D01*
X160584047Y-95765952D01*
X160536428Y-95718333D01*
X160488809Y-95623095D01*
X160488809Y-95527857D01*
X160536428Y-95432619D01*
X160584047Y-95385000D01*
X160679285Y-95337380D01*
X160917380Y-95337380D01*
X161060238Y-95385000D01*
X161345952Y-95337380D02*
X161917380Y-95337380D01*
X161631666Y-96337380D02*
X161631666Y-95337380D01*
X162965000Y-96289761D02*
X163107857Y-96337380D01*
X163345952Y-96337380D01*
X163441190Y-96289761D01*
X163488809Y-96242142D01*
X163536428Y-96146904D01*
X163536428Y-96051666D01*
X163488809Y-95956428D01*
X163441190Y-95908809D01*
X163345952Y-95861190D01*
X163155476Y-95813571D01*
X163060238Y-95765952D01*
X163012619Y-95718333D01*
X162965000Y-95623095D01*
X162965000Y-95527857D01*
X163012619Y-95432619D01*
X163060238Y-95385000D01*
X163155476Y-95337380D01*
X163393571Y-95337380D01*
X163536428Y-95385000D01*
X164536428Y-96242142D02*
X164488809Y-96289761D01*
X164345952Y-96337380D01*
X164250714Y-96337380D01*
X164107857Y-96289761D01*
X164012619Y-96194523D01*
X163965000Y-96099285D01*
X163917380Y-95908809D01*
X163917380Y-95765952D01*
X163965000Y-95575476D01*
X164012619Y-95480238D01*
X164107857Y-95385000D01*
X164250714Y-95337380D01*
X164345952Y-95337380D01*
X164488809Y-95385000D01*
X164536428Y-95432619D01*
X164965000Y-96337380D02*
X164965000Y-95337380D01*
X165536428Y-96337380D02*
X165107857Y-95765952D01*
X165536428Y-95337380D02*
X164965000Y-95908809D01*
X166726904Y-96337380D02*
X166726904Y-95337380D01*
X167060238Y-96051666D01*
X167393571Y-95337380D01*
X167393571Y-96337380D01*
X167822142Y-96289761D02*
X167965000Y-96337380D01*
X168203095Y-96337380D01*
X168298333Y-96289761D01*
X168345952Y-96242142D01*
X168393571Y-96146904D01*
X168393571Y-96051666D01*
X168345952Y-95956428D01*
X168298333Y-95908809D01*
X168203095Y-95861190D01*
X168012619Y-95813571D01*
X167917380Y-95765952D01*
X167869761Y-95718333D01*
X167822142Y-95623095D01*
X167822142Y-95527857D01*
X167869761Y-95432619D01*
X167917380Y-95385000D01*
X168012619Y-95337380D01*
X168250714Y-95337380D01*
X168393571Y-95385000D01*
X169012619Y-95337380D02*
X169203095Y-95337380D01*
X169298333Y-95385000D01*
X169393571Y-95480238D01*
X169441190Y-95670714D01*
X169441190Y-96004047D01*
X169393571Y-96194523D01*
X169298333Y-96289761D01*
X169203095Y-96337380D01*
X169012619Y-96337380D01*
X168917380Y-96289761D01*
X168822142Y-96194523D01*
X168774523Y-96004047D01*
X168774523Y-95670714D01*
X168822142Y-95480238D01*
X168917380Y-95385000D01*
X169012619Y-95337380D01*
X126873095Y-113165000D02*
X126777857Y-113117380D01*
X126635000Y-113117380D01*
X126492142Y-113165000D01*
X126396904Y-113260238D01*
X126349285Y-113355476D01*
X126301666Y-113545952D01*
X126301666Y-113688809D01*
X126349285Y-113879285D01*
X126396904Y-113974523D01*
X126492142Y-114069761D01*
X126635000Y-114117380D01*
X126730238Y-114117380D01*
X126873095Y-114069761D01*
X126920714Y-114022142D01*
X126920714Y-113688809D01*
X126730238Y-113688809D01*
X127349285Y-114117380D02*
X127349285Y-113117380D01*
X127920714Y-114117380D01*
X127920714Y-113117380D01*
X128396904Y-114117380D02*
X128396904Y-113117380D01*
X128635000Y-113117380D01*
X128777857Y-113165000D01*
X128873095Y-113260238D01*
X128920714Y-113355476D01*
X128968333Y-113545952D01*
X128968333Y-113688809D01*
X128920714Y-113879285D01*
X128873095Y-113974523D01*
X128777857Y-114069761D01*
X128635000Y-114117380D01*
X128396904Y-114117380D01*
X170719761Y-112245952D02*
X170624523Y-112198333D01*
X170576904Y-112150714D01*
X170529285Y-112055476D01*
X170529285Y-112007857D01*
X170576904Y-111912619D01*
X170624523Y-111865000D01*
X170719761Y-111817380D01*
X170910238Y-111817380D01*
X171005476Y-111865000D01*
X171053095Y-111912619D01*
X171100714Y-112007857D01*
X171100714Y-112055476D01*
X171053095Y-112150714D01*
X171005476Y-112198333D01*
X170910238Y-112245952D01*
X170719761Y-112245952D01*
X170624523Y-112293571D01*
X170576904Y-112341190D01*
X170529285Y-112436428D01*
X170529285Y-112626904D01*
X170576904Y-112722142D01*
X170624523Y-112769761D01*
X170719761Y-112817380D01*
X170910238Y-112817380D01*
X171005476Y-112769761D01*
X171053095Y-112722142D01*
X171100714Y-112626904D01*
X171100714Y-112436428D01*
X171053095Y-112341190D01*
X171005476Y-112293571D01*
X170910238Y-112245952D01*
X159791666Y-138882380D02*
X159791666Y-137882380D01*
X160172619Y-137882380D01*
X160267857Y-137930000D01*
X160315476Y-137977619D01*
X160363095Y-138072857D01*
X160363095Y-138215714D01*
X160315476Y-138310952D01*
X160267857Y-138358571D01*
X160172619Y-138406190D01*
X159791666Y-138406190D01*
X160696428Y-137882380D02*
X160934523Y-138882380D01*
X161125000Y-138168095D01*
X161315476Y-138882380D01*
X161553571Y-137882380D01*
X162505952Y-138882380D02*
X162172619Y-138406190D01*
X161934523Y-138882380D02*
X161934523Y-137882380D01*
X162315476Y-137882380D01*
X162410714Y-137930000D01*
X162458333Y-137977619D01*
X162505952Y-138072857D01*
X162505952Y-138215714D01*
X162458333Y-138310952D01*
X162410714Y-138358571D01*
X162315476Y-138406190D01*
X161934523Y-138406190D01*
X170529285Y-130992619D02*
X170576904Y-130945000D01*
X170672142Y-130897380D01*
X170910238Y-130897380D01*
X171005476Y-130945000D01*
X171053095Y-130992619D01*
X171100714Y-131087857D01*
X171100714Y-131183095D01*
X171053095Y-131325952D01*
X170481666Y-131897380D01*
X171100714Y-131897380D01*
X126809523Y-108037380D02*
X126333333Y-108037380D01*
X126285714Y-108513571D01*
X126333333Y-108465952D01*
X126428571Y-108418333D01*
X126666666Y-108418333D01*
X126761904Y-108465952D01*
X126809523Y-108513571D01*
X126857142Y-108608809D01*
X126857142Y-108846904D01*
X126809523Y-108942142D01*
X126761904Y-108989761D01*
X126666666Y-109037380D01*
X126428571Y-109037380D01*
X126333333Y-108989761D01*
X126285714Y-108942142D01*
X127142857Y-108037380D02*
X127476190Y-109037380D01*
X127809523Y-108037380D01*
X169989523Y-102687380D02*
X169418095Y-102687380D01*
X169703809Y-102687380D02*
X169703809Y-101687380D01*
X169608571Y-101830238D01*
X169513333Y-101925476D01*
X169418095Y-101973095D01*
X170370476Y-101782619D02*
X170418095Y-101735000D01*
X170513333Y-101687380D01*
X170751428Y-101687380D01*
X170846666Y-101735000D01*
X170894285Y-101782619D01*
X170941904Y-101877857D01*
X170941904Y-101973095D01*
X170894285Y-102115952D01*
X170322857Y-102687380D01*
X170941904Y-102687380D01*
X126476190Y-116657380D02*
X126476190Y-115657380D01*
X126952380Y-116657380D02*
X126952380Y-115657380D01*
X127523809Y-116657380D01*
X127523809Y-115657380D01*
X169989523Y-105227380D02*
X169418095Y-105227380D01*
X169703809Y-105227380D02*
X169703809Y-104227380D01*
X169608571Y-104370238D01*
X169513333Y-104465476D01*
X169418095Y-104513095D01*
X170941904Y-105227380D02*
X170370476Y-105227380D01*
X170656190Y-105227380D02*
X170656190Y-104227380D01*
X170560952Y-104370238D01*
X170465714Y-104465476D01*
X170370476Y-104513095D01*
X170624523Y-110307380D02*
X170815000Y-110307380D01*
X170910238Y-110259761D01*
X170957857Y-110212142D01*
X171053095Y-110069285D01*
X171100714Y-109878809D01*
X171100714Y-109497857D01*
X171053095Y-109402619D01*
X171005476Y-109355000D01*
X170910238Y-109307380D01*
X170719761Y-109307380D01*
X170624523Y-109355000D01*
X170576904Y-109402619D01*
X170529285Y-109497857D01*
X170529285Y-109735952D01*
X170576904Y-109831190D01*
X170624523Y-109878809D01*
X170719761Y-109926428D01*
X170910238Y-109926428D01*
X171005476Y-109878809D01*
X171053095Y-109831190D01*
X171100714Y-109735952D01*
X126285714Y-129071666D02*
X126761904Y-129071666D01*
X126190476Y-129357380D02*
X126523809Y-128357380D01*
X126857142Y-129357380D01*
X127142857Y-128452619D02*
X127190476Y-128405000D01*
X127285714Y-128357380D01*
X127523809Y-128357380D01*
X127619047Y-128405000D01*
X127666666Y-128452619D01*
X127714285Y-128547857D01*
X127714285Y-128643095D01*
X127666666Y-128785952D01*
X127095238Y-129357380D01*
X127714285Y-129357380D01*
X164933333Y-138882380D02*
X164600000Y-138406190D01*
X164361904Y-138882380D02*
X164361904Y-137882380D01*
X164742857Y-137882380D01*
X164838095Y-137930000D01*
X164885714Y-137977619D01*
X164933333Y-138072857D01*
X164933333Y-138215714D01*
X164885714Y-138310952D01*
X164838095Y-138358571D01*
X164742857Y-138406190D01*
X164361904Y-138406190D01*
X165266666Y-137882380D02*
X165933333Y-138882380D01*
X165933333Y-137882380D02*
X165266666Y-138882380D01*
X168354523Y-89939761D02*
X168497380Y-89987380D01*
X168735476Y-89987380D01*
X168830714Y-89939761D01*
X168878333Y-89892142D01*
X168925952Y-89796904D01*
X168925952Y-89701666D01*
X168878333Y-89606428D01*
X168830714Y-89558809D01*
X168735476Y-89511190D01*
X168545000Y-89463571D01*
X168449761Y-89415952D01*
X168402142Y-89368333D01*
X168354523Y-89273095D01*
X168354523Y-89177857D01*
X168402142Y-89082619D01*
X168449761Y-89035000D01*
X168545000Y-88987380D01*
X168783095Y-88987380D01*
X168925952Y-89035000D01*
X169925952Y-89892142D02*
X169878333Y-89939761D01*
X169735476Y-89987380D01*
X169640238Y-89987380D01*
X169497380Y-89939761D01*
X169402142Y-89844523D01*
X169354523Y-89749285D01*
X169306904Y-89558809D01*
X169306904Y-89415952D01*
X169354523Y-89225476D01*
X169402142Y-89130238D01*
X169497380Y-89035000D01*
X169640238Y-88987380D01*
X169735476Y-88987380D01*
X169878333Y-89035000D01*
X169925952Y-89082619D01*
X170830714Y-89987380D02*
X170354523Y-89987380D01*
X170354523Y-88987380D01*
D11*
X128700000Y-88253333D02*
X129900000Y-88253333D01*
X129300000Y-91753333D02*
X129300000Y-88253333D01*
X131400000Y-91586666D02*
X131200000Y-91753333D01*
X130800000Y-91753333D01*
X130600000Y-91586666D01*
X130500000Y-91253333D01*
X130500000Y-89920000D01*
X130600000Y-89586666D01*
X130800000Y-89420000D01*
X131200000Y-89420000D01*
X131400000Y-89586666D01*
X131500000Y-89920000D01*
X131500000Y-90253333D01*
X130500000Y-90586666D01*
X132100000Y-89420000D02*
X132900000Y-89420000D01*
X132400000Y-88253333D02*
X132400000Y-91253333D01*
X132500000Y-91586666D01*
X132700000Y-91753333D01*
X132900000Y-91753333D01*
X133600000Y-91753333D02*
X133600000Y-89420000D01*
X133600000Y-88253333D02*
X133500000Y-88420000D01*
X133600000Y-88586666D01*
X133700000Y-88420000D01*
X133600000Y-88253333D01*
X133600000Y-88586666D01*
X135500000Y-91753333D02*
X135500000Y-88253333D01*
X135500000Y-91586666D02*
X135300000Y-91753333D01*
X134900000Y-91753333D01*
X134700000Y-91586666D01*
X134600000Y-91420000D01*
X134500000Y-91086666D01*
X134500000Y-90086666D01*
X134600000Y-89753333D01*
X134700000Y-89586666D01*
X134900000Y-89420000D01*
X135300000Y-89420000D01*
X135500000Y-89586666D01*
X137400000Y-89420000D02*
X137400000Y-91753333D01*
X136500000Y-89420000D02*
X136500000Y-91253333D01*
X136600000Y-91586666D01*
X136800000Y-91753333D01*
X137100000Y-91753333D01*
X137300000Y-91586666D01*
X137400000Y-91420000D01*
X138400000Y-91753333D02*
X138400000Y-89420000D01*
X138400000Y-88253333D02*
X138300000Y-88420000D01*
X138400000Y-88586666D01*
X138500000Y-88420000D01*
X138400000Y-88253333D01*
X138400000Y-88586666D01*
X139400000Y-89420000D02*
X139400000Y-91753333D01*
X139400000Y-89753333D02*
X139500000Y-89586666D01*
X139700000Y-89420000D01*
X140000000Y-89420000D01*
X140200000Y-89586666D01*
X140300000Y-89920000D01*
X140300000Y-91753333D01*
X141600000Y-91753333D02*
X141400000Y-91586666D01*
X141300000Y-91420000D01*
X141200000Y-91086666D01*
X141200000Y-90086666D01*
X141300000Y-89753333D01*
X141400000Y-89586666D01*
X141600000Y-89420000D01*
X141900000Y-89420000D01*
X142100000Y-89586666D01*
X142200000Y-89753333D01*
X142300000Y-90086666D01*
X142300000Y-91086666D01*
X142200000Y-91420000D01*
X142100000Y-91586666D01*
X141900000Y-91753333D01*
X141600000Y-91753333D01*
X144600000Y-89420000D02*
X145100000Y-91753333D01*
X145600000Y-89420000D01*
X146300000Y-88586666D02*
X146400000Y-88420000D01*
X146600000Y-88253333D01*
X147100000Y-88253333D01*
X147300000Y-88420000D01*
X147400000Y-88586666D01*
X147500000Y-88920000D01*
X147500000Y-89253333D01*
X147400000Y-89753333D01*
X146200000Y-91753333D01*
X147500000Y-91753333D01*
X148400000Y-91420000D02*
X148500000Y-91586666D01*
X148400000Y-91753333D01*
X148300000Y-91586666D01*
X148400000Y-91420000D01*
X148400000Y-91753333D01*
X150500000Y-91753333D02*
X149300000Y-91753333D01*
X149900000Y-91753333D02*
X149900000Y-88253333D01*
X149700000Y-88753333D01*
X149500000Y-89086666D01*
X149300000Y-89253333D01*
D10*
X163004523Y-123912380D02*
X162528333Y-123912380D01*
X162480714Y-124388571D01*
X162528333Y-124340952D01*
X162623571Y-124293333D01*
X162861666Y-124293333D01*
X162956904Y-124340952D01*
X163004523Y-124388571D01*
X163052142Y-124483809D01*
X163052142Y-124721904D01*
X163004523Y-124817142D01*
X162956904Y-124864761D01*
X162861666Y-124912380D01*
X162623571Y-124912380D01*
X162528333Y-124864761D01*
X162480714Y-124817142D01*
X163337857Y-123912380D02*
X163671190Y-124912380D01*
X164004523Y-123912380D01*
X153567142Y-104957619D02*
X153614761Y-104910000D01*
X153710000Y-104862380D01*
X153948095Y-104862380D01*
X154043333Y-104910000D01*
X154090952Y-104957619D01*
X154138571Y-105052857D01*
X154138571Y-105148095D01*
X154090952Y-105290952D01*
X153519523Y-105862380D01*
X154138571Y-105862380D01*
X154757619Y-104862380D02*
X154852857Y-104862380D01*
X154948095Y-104910000D01*
X154995714Y-104957619D01*
X155043333Y-105052857D01*
X155090952Y-105243333D01*
X155090952Y-105481428D01*
X155043333Y-105671904D01*
X154995714Y-105767142D01*
X154948095Y-105814761D01*
X154852857Y-105862380D01*
X154757619Y-105862380D01*
X154662380Y-105814761D01*
X154614761Y-105767142D01*
X154567142Y-105671904D01*
X154519523Y-105481428D01*
X154519523Y-105243333D01*
X154567142Y-105052857D01*
X154614761Y-104957619D01*
X154662380Y-104910000D01*
X154757619Y-104862380D01*
X156281428Y-105862380D02*
X156281428Y-104862380D01*
X156614761Y-105576666D01*
X156948095Y-104862380D01*
X156948095Y-105862380D01*
X157424285Y-105862380D02*
X157424285Y-104862380D01*
X157424285Y-105338571D02*
X157995714Y-105338571D01*
X157995714Y-105862380D02*
X157995714Y-104862380D01*
X158376666Y-105195714D02*
X158900476Y-105195714D01*
X158376666Y-105862380D01*
X158900476Y-105862380D01*
X171005476Y-126105714D02*
X171005476Y-126772380D01*
X170767380Y-125724761D02*
X170529285Y-126439047D01*
X171148333Y-126439047D01*
X159893095Y-123912380D02*
X160464523Y-123912380D01*
X160178809Y-124912380D02*
X160178809Y-123912380D01*
X160702619Y-123912380D02*
X161369285Y-124912380D01*
X161369285Y-123912380D02*
X160702619Y-124912380D01*
X153797142Y-124912380D02*
X153797142Y-123912380D01*
X154035238Y-123912380D01*
X154178095Y-123960000D01*
X154273333Y-124055238D01*
X154320952Y-124150476D01*
X154368571Y-124340952D01*
X154368571Y-124483809D01*
X154320952Y-124674285D01*
X154273333Y-124769523D01*
X154178095Y-124864761D01*
X154035238Y-124912380D01*
X153797142Y-124912380D01*
X154654285Y-123912380D02*
X155225714Y-123912380D01*
X154940000Y-124912380D02*
X154940000Y-123912380D01*
X156130476Y-124912380D02*
X155797142Y-124436190D01*
X155559047Y-124912380D02*
X155559047Y-123912380D01*
X155940000Y-123912380D01*
X156035238Y-123960000D01*
X156082857Y-124007619D01*
X156130476Y-124102857D01*
X156130476Y-124245714D01*
X156082857Y-124340952D01*
X156035238Y-124388571D01*
X155940000Y-124436190D01*
X155559047Y-124436190D01*
X130712857Y-93797380D02*
X130712857Y-92797380D01*
X131093809Y-92797380D01*
X131189047Y-92845000D01*
X131236666Y-92892619D01*
X131284285Y-92987857D01*
X131284285Y-93130714D01*
X131236666Y-93225952D01*
X131189047Y-93273571D01*
X131093809Y-93321190D01*
X130712857Y-93321190D01*
X131712857Y-93797380D02*
X131712857Y-92797380D01*
X132189047Y-93797380D02*
X132189047Y-92797380D01*
X132760476Y-93797380D01*
X132760476Y-92797380D01*
X132998571Y-93892619D02*
X133760476Y-93892619D01*
X134522380Y-93797380D02*
X133950952Y-93797380D01*
X134236666Y-93797380D02*
X134236666Y-92797380D01*
X134141428Y-92940238D01*
X134046190Y-93035476D01*
X133950952Y-93083095D01*
X134855714Y-92797380D02*
X135474761Y-92797380D01*
X135141428Y-93178333D01*
X135284285Y-93178333D01*
X135379523Y-93225952D01*
X135427142Y-93273571D01*
X135474761Y-93368809D01*
X135474761Y-93606904D01*
X135427142Y-93702142D01*
X135379523Y-93749761D01*
X135284285Y-93797380D01*
X134998571Y-93797380D01*
X134903333Y-93749761D01*
X134855714Y-93702142D01*
X170481666Y-128357380D02*
X171100714Y-128357380D01*
X170767380Y-128738333D01*
X170910238Y-128738333D01*
X171005476Y-128785952D01*
X171053095Y-128833571D01*
X171100714Y-128928809D01*
X171100714Y-129166904D01*
X171053095Y-129262142D01*
X171005476Y-129309761D01*
X170910238Y-129357380D01*
X170624523Y-129357380D01*
X170529285Y-129309761D01*
X170481666Y-129262142D01*
X169989523Y-107767380D02*
X169418095Y-107767380D01*
X169703809Y-107767380D02*
X169703809Y-106767380D01*
X169608571Y-106910238D01*
X169513333Y-107005476D01*
X169418095Y-107053095D01*
X170608571Y-106767380D02*
X170703809Y-106767380D01*
X170799047Y-106815000D01*
X170846666Y-106862619D01*
X170894285Y-106957857D01*
X170941904Y-107148333D01*
X170941904Y-107386428D01*
X170894285Y-107576904D01*
X170846666Y-107672142D01*
X170799047Y-107719761D01*
X170703809Y-107767380D01*
X170608571Y-107767380D01*
X170513333Y-107719761D01*
X170465714Y-107672142D01*
X170418095Y-107576904D01*
X170370476Y-107386428D01*
X170370476Y-107148333D01*
X170418095Y-106957857D01*
X170465714Y-106862619D01*
X170513333Y-106815000D01*
X170608571Y-106767380D01*
X126873095Y-110625000D02*
X126777857Y-110577380D01*
X126635000Y-110577380D01*
X126492142Y-110625000D01*
X126396904Y-110720238D01*
X126349285Y-110815476D01*
X126301666Y-111005952D01*
X126301666Y-111148809D01*
X126349285Y-111339285D01*
X126396904Y-111434523D01*
X126492142Y-111529761D01*
X126635000Y-111577380D01*
X126730238Y-111577380D01*
X126873095Y-111529761D01*
X126920714Y-111482142D01*
X126920714Y-111148809D01*
X126730238Y-111148809D01*
X127349285Y-111577380D02*
X127349285Y-110577380D01*
X127920714Y-111577380D01*
X127920714Y-110577380D01*
X128396904Y-111577380D02*
X128396904Y-110577380D01*
X128635000Y-110577380D01*
X128777857Y-110625000D01*
X128873095Y-110720238D01*
X128920714Y-110815476D01*
X128968333Y-111005952D01*
X128968333Y-111148809D01*
X128920714Y-111339285D01*
X128873095Y-111434523D01*
X128777857Y-111529761D01*
X128635000Y-111577380D01*
X128396904Y-111577380D01*
X166243095Y-123960000D02*
X166147857Y-123912380D01*
X166005000Y-123912380D01*
X165862142Y-123960000D01*
X165766904Y-124055238D01*
X165719285Y-124150476D01*
X165671666Y-124340952D01*
X165671666Y-124483809D01*
X165719285Y-124674285D01*
X165766904Y-124769523D01*
X165862142Y-124864761D01*
X166005000Y-124912380D01*
X166100238Y-124912380D01*
X166243095Y-124864761D01*
X166290714Y-124817142D01*
X166290714Y-124483809D01*
X166100238Y-124483809D01*
X166719285Y-124912380D02*
X166719285Y-123912380D01*
X167290714Y-124912380D01*
X167290714Y-123912380D01*
X167766904Y-124912380D02*
X167766904Y-123912380D01*
X168005000Y-123912380D01*
X168147857Y-123960000D01*
X168243095Y-124055238D01*
X168290714Y-124150476D01*
X168338333Y-124340952D01*
X168338333Y-124483809D01*
X168290714Y-124674285D01*
X168243095Y-124769523D01*
X168147857Y-124864761D01*
X168005000Y-124912380D01*
X167766904Y-124912380D01*
X160115714Y-103005000D02*
X160020476Y-102957380D01*
X159877619Y-102957380D01*
X159734761Y-103005000D01*
X159639523Y-103100238D01*
X159591904Y-103195476D01*
X159544285Y-103385952D01*
X159544285Y-103528809D01*
X159591904Y-103719285D01*
X159639523Y-103814523D01*
X159734761Y-103909761D01*
X159877619Y-103957380D01*
X159972857Y-103957380D01*
X160115714Y-103909761D01*
X160163333Y-103862142D01*
X160163333Y-103528809D01*
X159972857Y-103528809D01*
X160591904Y-103957380D02*
X160591904Y-102957380D01*
X161163333Y-103957380D01*
X161163333Y-102957380D01*
X161639523Y-103957380D02*
X161639523Y-102957380D01*
X161877619Y-102957380D01*
X162020476Y-103005000D01*
X162115714Y-103100238D01*
X162163333Y-103195476D01*
X162210952Y-103385952D01*
X162210952Y-103528809D01*
X162163333Y-103719285D01*
X162115714Y-103814523D01*
X162020476Y-103909761D01*
X161877619Y-103957380D01*
X161639523Y-103957380D01*
X163401428Y-103957380D02*
X163401428Y-102957380D01*
X163734761Y-103671666D01*
X164068095Y-102957380D01*
X164068095Y-103957380D01*
X164496666Y-103909761D02*
X164639523Y-103957380D01*
X164877619Y-103957380D01*
X164972857Y-103909761D01*
X165020476Y-103862142D01*
X165068095Y-103766904D01*
X165068095Y-103671666D01*
X165020476Y-103576428D01*
X164972857Y-103528809D01*
X164877619Y-103481190D01*
X164687142Y-103433571D01*
X164591904Y-103385952D01*
X164544285Y-103338333D01*
X164496666Y-103243095D01*
X164496666Y-103147857D01*
X164544285Y-103052619D01*
X164591904Y-103005000D01*
X164687142Y-102957380D01*
X164925238Y-102957380D01*
X165068095Y-103005000D01*
X165496666Y-103957380D02*
X165496666Y-102957380D01*
X167210952Y-102957380D02*
X166734761Y-102957380D01*
X166687142Y-103433571D01*
X166734761Y-103385952D01*
X166830000Y-103338333D01*
X167068095Y-103338333D01*
X167163333Y-103385952D01*
X167210952Y-103433571D01*
X167258571Y-103528809D01*
X167258571Y-103766904D01*
X167210952Y-103862142D01*
X167163333Y-103909761D01*
X167068095Y-103957380D01*
X166830000Y-103957380D01*
X166734761Y-103909761D01*
X166687142Y-103862142D01*
X167544285Y-102957380D02*
X167877619Y-103957380D01*
X168210952Y-102957380D01*
X171053095Y-123277380D02*
X170576904Y-123277380D01*
X170529285Y-123753571D01*
X170576904Y-123705952D01*
X170672142Y-123658333D01*
X170910238Y-123658333D01*
X171005476Y-123705952D01*
X171053095Y-123753571D01*
X171100714Y-123848809D01*
X171100714Y-124086904D01*
X171053095Y-124182142D01*
X171005476Y-124229761D01*
X170910238Y-124277380D01*
X170672142Y-124277380D01*
X170576904Y-124229761D01*
X170529285Y-124182142D01*
X171100714Y-134437380D02*
X170529285Y-134437380D01*
X170815000Y-134437380D02*
X170815000Y-133437380D01*
X170719761Y-133580238D01*
X170624523Y-133675476D01*
X170529285Y-133723095D01*
X168330714Y-92479761D02*
X168473571Y-92527380D01*
X168711666Y-92527380D01*
X168806904Y-92479761D01*
X168854523Y-92432142D01*
X168902142Y-92336904D01*
X168902142Y-92241666D01*
X168854523Y-92146428D01*
X168806904Y-92098809D01*
X168711666Y-92051190D01*
X168521190Y-92003571D01*
X168425952Y-91955952D01*
X168378333Y-91908333D01*
X168330714Y-91813095D01*
X168330714Y-91717857D01*
X168378333Y-91622619D01*
X168425952Y-91575000D01*
X168521190Y-91527380D01*
X168759285Y-91527380D01*
X168902142Y-91575000D01*
X169330714Y-92527380D02*
X169330714Y-91527380D01*
X169568809Y-91527380D01*
X169711666Y-91575000D01*
X169806904Y-91670238D01*
X169854523Y-91765476D01*
X169902142Y-91955952D01*
X169902142Y-92098809D01*
X169854523Y-92289285D01*
X169806904Y-92384523D01*
X169711666Y-92479761D01*
X169568809Y-92527380D01*
X169330714Y-92527380D01*
X170283095Y-92241666D02*
X170759285Y-92241666D01*
X170187857Y-92527380D02*
X170521190Y-91527380D01*
X170854523Y-92527380D01*
X170767380Y-135962380D02*
X170862619Y-135962380D01*
X170957857Y-136010000D01*
X171005476Y-136057619D01*
X171053095Y-136152857D01*
X171100714Y-136343333D01*
X171100714Y-136581428D01*
X171053095Y-136771904D01*
X171005476Y-136867142D01*
X170957857Y-136914761D01*
X170862619Y-136962380D01*
X170767380Y-136962380D01*
X170672142Y-136914761D01*
X170624523Y-136867142D01*
X170576904Y-136771904D01*
X170529285Y-136581428D01*
X170529285Y-136343333D01*
X170576904Y-136152857D01*
X170624523Y-136057619D01*
X170672142Y-136010000D01*
X170767380Y-135962380D01*
X126396904Y-105497380D02*
X127015952Y-105497380D01*
X126682619Y-105878333D01*
X126825476Y-105878333D01*
X126920714Y-105925952D01*
X126968333Y-105973571D01*
X127015952Y-106068809D01*
X127015952Y-106306904D01*
X126968333Y-106402142D01*
X126920714Y-106449761D01*
X126825476Y-106497380D01*
X126539761Y-106497380D01*
X126444523Y-106449761D01*
X126396904Y-106402142D01*
X127301666Y-105497380D02*
X127635000Y-106497380D01*
X127968333Y-105497380D01*
X128206428Y-105497380D02*
X128825476Y-105497380D01*
X128492142Y-105878333D01*
X128635000Y-105878333D01*
X128730238Y-105925952D01*
X128777857Y-105973571D01*
X128825476Y-106068809D01*
X128825476Y-106306904D01*
X128777857Y-106402142D01*
X128730238Y-106449761D01*
X128635000Y-106497380D01*
X128349285Y-106497380D01*
X128254047Y-106449761D01*
X128206428Y-106402142D01*
X168148095Y-137882380D02*
X168719523Y-137882380D01*
X168433809Y-138882380D02*
X168433809Y-137882380D01*
X168957619Y-137882380D02*
X169624285Y-138882380D01*
X169624285Y-137882380D02*
X168957619Y-138882380D01*
X157948333Y-124912380D02*
X157615000Y-124436190D01*
X157376904Y-124912380D02*
X157376904Y-123912380D01*
X157757857Y-123912380D01*
X157853095Y-123960000D01*
X157900714Y-124007619D01*
X157948333Y-124102857D01*
X157948333Y-124245714D01*
X157900714Y-124340952D01*
X157853095Y-124388571D01*
X157757857Y-124436190D01*
X157376904Y-124436190D01*
X158281666Y-123912380D02*
X158948333Y-124912380D01*
X158948333Y-123912380D02*
X158281666Y-124912380D01*
X155099047Y-101161666D02*
X155575238Y-101161666D01*
X155003809Y-101447380D02*
X155337142Y-100447380D01*
X155670476Y-101447380D01*
X155860952Y-100447380D02*
X156194285Y-101447380D01*
X156527619Y-100447380D01*
X157432380Y-101447380D02*
X157099047Y-100971190D01*
X156860952Y-101447380D02*
X156860952Y-100447380D01*
X157241904Y-100447380D01*
X157337142Y-100495000D01*
X157384761Y-100542619D01*
X157432380Y-100637857D01*
X157432380Y-100780714D01*
X157384761Y-100875952D01*
X157337142Y-100923571D01*
X157241904Y-100971190D01*
X156860952Y-100971190D01*
X157860952Y-101447380D02*
X157860952Y-100447380D01*
X158289523Y-101399761D02*
X158432380Y-101447380D01*
X158670476Y-101447380D01*
X158765714Y-101399761D01*
X158813333Y-101352142D01*
X158860952Y-101256904D01*
X158860952Y-101161666D01*
X158813333Y-101066428D01*
X158765714Y-101018809D01*
X158670476Y-100971190D01*
X158480000Y-100923571D01*
X158384761Y-100875952D01*
X158337142Y-100828333D01*
X158289523Y-100733095D01*
X158289523Y-100637857D01*
X158337142Y-100542619D01*
X158384761Y-100495000D01*
X158480000Y-100447380D01*
X158718095Y-100447380D01*
X158860952Y-100495000D01*
X159289523Y-101447380D02*
X159289523Y-100447380D01*
X159670476Y-100447380D01*
X159765714Y-100495000D01*
X159813333Y-100542619D01*
X159860952Y-100637857D01*
X159860952Y-100780714D01*
X159813333Y-100875952D01*
X159765714Y-100923571D01*
X159670476Y-100971190D01*
X159289523Y-100971190D01*
X170481666Y-118197380D02*
X171148333Y-118197380D01*
X170719761Y-119197380D01*
X171005476Y-120737380D02*
X170815000Y-120737380D01*
X170719761Y-120785000D01*
X170672142Y-120832619D01*
X170576904Y-120975476D01*
X170529285Y-121165952D01*
X170529285Y-121546904D01*
X170576904Y-121642142D01*
X170624523Y-121689761D01*
X170719761Y-121737380D01*
X170910238Y-121737380D01*
X171005476Y-121689761D01*
X171053095Y-121642142D01*
X171100714Y-121546904D01*
X171100714Y-121308809D01*
X171053095Y-121213571D01*
X171005476Y-121165952D01*
X170910238Y-121118333D01*
X170719761Y-121118333D01*
X170624523Y-121165952D01*
X170576904Y-121213571D01*
X170529285Y-121308809D01*
X126285714Y-123991666D02*
X126761904Y-123991666D01*
X126190476Y-124277380D02*
X126523809Y-123277380D01*
X126857142Y-124277380D01*
X127380952Y-123277380D02*
X127476190Y-123277380D01*
X127571428Y-123325000D01*
X127619047Y-123372619D01*
X127666666Y-123467857D01*
X127714285Y-123658333D01*
X127714285Y-123896428D01*
X127666666Y-124086904D01*
X127619047Y-124182142D01*
X127571428Y-124229761D01*
X127476190Y-124277380D01*
X127380952Y-124277380D01*
X127285714Y-124229761D01*
X127238095Y-124182142D01*
X127190476Y-124086904D01*
X127142857Y-123896428D01*
X127142857Y-123658333D01*
X127190476Y-123467857D01*
X127238095Y-123372619D01*
X127285714Y-123325000D01*
X127380952Y-123277380D01*
X124126666Y-118197380D02*
X124126666Y-118911666D01*
X124079047Y-119054523D01*
X123983809Y-119149761D01*
X123840952Y-119197380D01*
X123745714Y-119197380D01*
X125031428Y-118530714D02*
X125031428Y-119197380D01*
X124793333Y-118149761D02*
X124555238Y-118864047D01*
X125174285Y-118864047D01*
X136358333Y-99512380D02*
X136025000Y-99036190D01*
X135786904Y-99512380D02*
X135786904Y-98512380D01*
X136167857Y-98512380D01*
X136263095Y-98560000D01*
X136310714Y-98607619D01*
X136358333Y-98702857D01*
X136358333Y-98845714D01*
X136310714Y-98940952D01*
X136263095Y-98988571D01*
X136167857Y-99036190D01*
X135786904Y-99036190D01*
X136691666Y-98512380D02*
X137310714Y-98512380D01*
X136977380Y-98893333D01*
X137120238Y-98893333D01*
X137215476Y-98940952D01*
X137263095Y-98988571D01*
X137310714Y-99083809D01*
X137310714Y-99321904D01*
X137263095Y-99417142D01*
X137215476Y-99464761D01*
X137120238Y-99512380D01*
X136834523Y-99512380D01*
X136739285Y-99464761D01*
X136691666Y-99417142D01*
X155471904Y-139517380D02*
X155471904Y-138517380D01*
X155710000Y-138517380D01*
X155852857Y-138565000D01*
X155948095Y-138660238D01*
X155995714Y-138755476D01*
X156043333Y-138945952D01*
X156043333Y-139088809D01*
X155995714Y-139279285D01*
X155948095Y-139374523D01*
X155852857Y-139469761D01*
X155710000Y-139517380D01*
X155471904Y-139517380D01*
X156995714Y-139517380D02*
X156424285Y-139517380D01*
X156710000Y-139517380D02*
X156710000Y-138517380D01*
X156614761Y-138660238D01*
X156519523Y-138755476D01*
X156424285Y-138803095D01*
X157748095Y-137612380D02*
X157748095Y-136612380D01*
X158319523Y-137612380D02*
X157890952Y-137040952D01*
X158319523Y-136612380D02*
X157748095Y-137183809D01*
X164933333Y-116562142D02*
X164885714Y-116609761D01*
X164742857Y-116657380D01*
X164647619Y-116657380D01*
X164504761Y-116609761D01*
X164409523Y-116514523D01*
X164361904Y-116419285D01*
X164314285Y-116228809D01*
X164314285Y-116085952D01*
X164361904Y-115895476D01*
X164409523Y-115800238D01*
X164504761Y-115705000D01*
X164647619Y-115657380D01*
X164742857Y-115657380D01*
X164885714Y-115705000D01*
X164933333Y-115752619D01*
X165266666Y-115657380D02*
X165933333Y-115657380D01*
X165504761Y-116657380D01*
X164933333Y-110212142D02*
X164885714Y-110259761D01*
X164742857Y-110307380D01*
X164647619Y-110307380D01*
X164504761Y-110259761D01*
X164409523Y-110164523D01*
X164361904Y-110069285D01*
X164314285Y-109878809D01*
X164314285Y-109735952D01*
X164361904Y-109545476D01*
X164409523Y-109450238D01*
X164504761Y-109355000D01*
X164647619Y-109307380D01*
X164742857Y-109307380D01*
X164885714Y-109355000D01*
X164933333Y-109402619D01*
X165504761Y-109735952D02*
X165409523Y-109688333D01*
X165361904Y-109640714D01*
X165314285Y-109545476D01*
X165314285Y-109497857D01*
X165361904Y-109402619D01*
X165409523Y-109355000D01*
X165504761Y-109307380D01*
X165695238Y-109307380D01*
X165790476Y-109355000D01*
X165838095Y-109402619D01*
X165885714Y-109497857D01*
X165885714Y-109545476D01*
X165838095Y-109640714D01*
X165790476Y-109688333D01*
X165695238Y-109735952D01*
X165504761Y-109735952D01*
X165409523Y-109783571D01*
X165361904Y-109831190D01*
X165314285Y-109926428D01*
X165314285Y-110116904D01*
X165361904Y-110212142D01*
X165409523Y-110259761D01*
X165504761Y-110307380D01*
X165695238Y-110307380D01*
X165790476Y-110259761D01*
X165838095Y-110212142D01*
X165885714Y-110116904D01*
X165885714Y-109926428D01*
X165838095Y-109831190D01*
X165790476Y-109783571D01*
X165695238Y-109735952D01*
X139668333Y-139422142D02*
X139620714Y-139469761D01*
X139477857Y-139517380D01*
X139382619Y-139517380D01*
X139239761Y-139469761D01*
X139144523Y-139374523D01*
X139096904Y-139279285D01*
X139049285Y-139088809D01*
X139049285Y-138945952D01*
X139096904Y-138755476D01*
X139144523Y-138660238D01*
X139239761Y-138565000D01*
X139382619Y-138517380D01*
X139477857Y-138517380D01*
X139620714Y-138565000D01*
X139668333Y-138612619D01*
X140096904Y-139517380D02*
X140096904Y-138517380D01*
X140477857Y-138517380D01*
X140573095Y-138565000D01*
X140620714Y-138612619D01*
X140668333Y-138707857D01*
X140668333Y-138850714D01*
X140620714Y-138945952D01*
X140573095Y-138993571D01*
X140477857Y-139041190D01*
X140096904Y-139041190D01*
X141049285Y-138612619D02*
X141096904Y-138565000D01*
X141192142Y-138517380D01*
X141430238Y-138517380D01*
X141525476Y-138565000D01*
X141573095Y-138612619D01*
X141620714Y-138707857D01*
X141620714Y-138803095D01*
X141573095Y-138945952D01*
X141001666Y-139517380D01*
X141620714Y-139517380D01*
X147788333Y-97512142D02*
X147740714Y-97559761D01*
X147597857Y-97607380D01*
X147502619Y-97607380D01*
X147359761Y-97559761D01*
X147264523Y-97464523D01*
X147216904Y-97369285D01*
X147169285Y-97178809D01*
X147169285Y-97035952D01*
X147216904Y-96845476D01*
X147264523Y-96750238D01*
X147359761Y-96655000D01*
X147502619Y-96607380D01*
X147597857Y-96607380D01*
X147740714Y-96655000D01*
X147788333Y-96702619D01*
X148121666Y-96607380D02*
X148740714Y-96607380D01*
X148407380Y-96988333D01*
X148550238Y-96988333D01*
X148645476Y-97035952D01*
X148693095Y-97083571D01*
X148740714Y-97178809D01*
X148740714Y-97416904D01*
X148693095Y-97512142D01*
X148645476Y-97559761D01*
X148550238Y-97607380D01*
X148264523Y-97607380D01*
X148169285Y-97559761D01*
X148121666Y-97512142D01*
X162393333Y-119737142D02*
X162345714Y-119784761D01*
X162202857Y-119832380D01*
X162107619Y-119832380D01*
X161964761Y-119784761D01*
X161869523Y-119689523D01*
X161821904Y-119594285D01*
X161774285Y-119403809D01*
X161774285Y-119260952D01*
X161821904Y-119070476D01*
X161869523Y-118975238D01*
X161964761Y-118880000D01*
X162107619Y-118832380D01*
X162202857Y-118832380D01*
X162345714Y-118880000D01*
X162393333Y-118927619D01*
X163250476Y-118832380D02*
X163060000Y-118832380D01*
X162964761Y-118880000D01*
X162917142Y-118927619D01*
X162821904Y-119070476D01*
X162774285Y-119260952D01*
X162774285Y-119641904D01*
X162821904Y-119737142D01*
X162869523Y-119784761D01*
X162964761Y-119832380D01*
X163155238Y-119832380D01*
X163250476Y-119784761D01*
X163298095Y-119737142D01*
X163345714Y-119641904D01*
X163345714Y-119403809D01*
X163298095Y-119308571D01*
X163250476Y-119260952D01*
X163155238Y-119213333D01*
X162964761Y-119213333D01*
X162869523Y-119260952D01*
X162821904Y-119308571D01*
X162774285Y-119403809D01*
X164766666Y-118832380D02*
X164766666Y-119546666D01*
X164719047Y-119689523D01*
X164623809Y-119784761D01*
X164480952Y-119832380D01*
X164385714Y-119832380D01*
X165671428Y-118832380D02*
X165480952Y-118832380D01*
X165385714Y-118880000D01*
X165338095Y-118927619D01*
X165242857Y-119070476D01*
X165195238Y-119260952D01*
X165195238Y-119641904D01*
X165242857Y-119737142D01*
X165290476Y-119784761D01*
X165385714Y-119832380D01*
X165576190Y-119832380D01*
X165671428Y-119784761D01*
X165719047Y-119737142D01*
X165766666Y-119641904D01*
X165766666Y-119403809D01*
X165719047Y-119308571D01*
X165671428Y-119260952D01*
X165576190Y-119213333D01*
X165385714Y-119213333D01*
X165290476Y-119260952D01*
X165242857Y-119308571D01*
X165195238Y-119403809D01*
X154876666Y-93749761D02*
X155019523Y-93797380D01*
X155257619Y-93797380D01*
X155352857Y-93749761D01*
X155400476Y-93702142D01*
X155448095Y-93606904D01*
X155448095Y-93511666D01*
X155400476Y-93416428D01*
X155352857Y-93368809D01*
X155257619Y-93321190D01*
X155067142Y-93273571D01*
X154971904Y-93225952D01*
X154924285Y-93178333D01*
X154876666Y-93083095D01*
X154876666Y-92987857D01*
X154924285Y-92892619D01*
X154971904Y-92845000D01*
X155067142Y-92797380D01*
X155305238Y-92797380D01*
X155448095Y-92845000D01*
X155781428Y-92797380D02*
X156019523Y-93797380D01*
X156210000Y-93083095D01*
X156400476Y-93797380D01*
X156638571Y-92797380D01*
X157543333Y-93797380D02*
X156971904Y-93797380D01*
X157257619Y-93797380D02*
X157257619Y-92797380D01*
X157162380Y-92940238D01*
X157067142Y-93035476D01*
X156971904Y-93083095D01*
X135786904Y-95702380D02*
X135786904Y-94702380D01*
X136025000Y-94702380D01*
X136167857Y-94750000D01*
X136263095Y-94845238D01*
X136310714Y-94940476D01*
X136358333Y-95130952D01*
X136358333Y-95273809D01*
X136310714Y-95464285D01*
X136263095Y-95559523D01*
X136167857Y-95654761D01*
X136025000Y-95702380D01*
X135786904Y-95702380D01*
X137263095Y-94702380D02*
X136786904Y-94702380D01*
X136739285Y-95178571D01*
X136786904Y-95130952D01*
X136882142Y-95083333D01*
X137120238Y-95083333D01*
X137215476Y-95130952D01*
X137263095Y-95178571D01*
X137310714Y-95273809D01*
X137310714Y-95511904D01*
X137263095Y-95607142D01*
X137215476Y-95654761D01*
X137120238Y-95702380D01*
X136882142Y-95702380D01*
X136786904Y-95654761D01*
X136739285Y-95607142D01*
X136652095Y-95972380D02*
X136652095Y-96781904D01*
X136699714Y-96877142D01*
X136747333Y-96924761D01*
X136842571Y-96972380D01*
X137033047Y-96972380D01*
X137128285Y-96924761D01*
X137175904Y-96877142D01*
X137223523Y-96781904D01*
X137223523Y-95972380D01*
X137604476Y-95972380D02*
X138223523Y-95972380D01*
X137890190Y-96353333D01*
X138033047Y-96353333D01*
X138128285Y-96400952D01*
X138175904Y-96448571D01*
X138223523Y-96543809D01*
X138223523Y-96781904D01*
X138175904Y-96877142D01*
X138128285Y-96924761D01*
X138033047Y-96972380D01*
X137747333Y-96972380D01*
X137652095Y-96924761D01*
X137604476Y-96877142D01*
X131278333Y-97449642D02*
X131230714Y-97497261D01*
X131087857Y-97544880D01*
X130992619Y-97544880D01*
X130849761Y-97497261D01*
X130754523Y-97402023D01*
X130706904Y-97306785D01*
X130659285Y-97116309D01*
X130659285Y-96973452D01*
X130706904Y-96782976D01*
X130754523Y-96687738D01*
X130849761Y-96592500D01*
X130992619Y-96544880D01*
X131087857Y-96544880D01*
X131230714Y-96592500D01*
X131278333Y-96640119D01*
X132230714Y-97544880D02*
X131659285Y-97544880D01*
X131945000Y-97544880D02*
X131945000Y-96544880D01*
X131849761Y-96687738D01*
X131754523Y-96782976D01*
X131659285Y-96830595D01*
X163732380Y-135978095D02*
X162732380Y-135978095D01*
X162732380Y-135740000D01*
X162780000Y-135597142D01*
X162875238Y-135501904D01*
X162970476Y-135454285D01*
X163160952Y-135406666D01*
X163303809Y-135406666D01*
X163494285Y-135454285D01*
X163589523Y-135501904D01*
X163684761Y-135597142D01*
X163732380Y-135740000D01*
X163732380Y-135978095D01*
X162732380Y-135073333D02*
X162732380Y-134454285D01*
X163113333Y-134787619D01*
X163113333Y-134644761D01*
X163160952Y-134549523D01*
X163208571Y-134501904D01*
X163303809Y-134454285D01*
X163541904Y-134454285D01*
X163637142Y-134501904D01*
X163684761Y-134549523D01*
X163732380Y-134644761D01*
X163732380Y-134930476D01*
X163684761Y-135025714D01*
X163637142Y-135073333D01*
X139573095Y-105487380D02*
X139573095Y-106296904D01*
X139620714Y-106392142D01*
X139668333Y-106439761D01*
X139763571Y-106487380D01*
X139954047Y-106487380D01*
X140049285Y-106439761D01*
X140096904Y-106392142D01*
X140144523Y-106296904D01*
X140144523Y-105487380D01*
X140573095Y-105582619D02*
X140620714Y-105535000D01*
X140715952Y-105487380D01*
X140954047Y-105487380D01*
X141049285Y-105535000D01*
X141096904Y-105582619D01*
X141144523Y-105677857D01*
X141144523Y-105773095D01*
X141096904Y-105915952D01*
X140525476Y-106487380D01*
X141144523Y-106487380D01*
X132278115Y-114752380D02*
X131944782Y-114276190D01*
X131706686Y-114752380D02*
X131706686Y-113752380D01*
X132087639Y-113752380D01*
X132182877Y-113800000D01*
X132230496Y-113847619D01*
X132278115Y-113942857D01*
X132278115Y-114085714D01*
X132230496Y-114180952D01*
X132182877Y-114228571D01*
X132087639Y-114276190D01*
X131706686Y-114276190D01*
X133230496Y-114752380D02*
X132659067Y-114752380D01*
X132944782Y-114752380D02*
X132944782Y-113752380D01*
X132849543Y-113895238D01*
X132754305Y-113990476D01*
X132659067Y-114038095D01*
X146548095Y-138297380D02*
X146548095Y-139106904D01*
X146595714Y-139202142D01*
X146643333Y-139249761D01*
X146738571Y-139297380D01*
X146929047Y-139297380D01*
X147024285Y-139249761D01*
X147071904Y-139202142D01*
X147119523Y-139106904D01*
X147119523Y-138297380D01*
X148119523Y-139297380D02*
X147548095Y-139297380D01*
X147833809Y-139297380D02*
X147833809Y-138297380D01*
X147738571Y-138440238D01*
X147643333Y-138535476D01*
X147548095Y-138583095D01*
X162698333Y-126182380D02*
X162365000Y-125706190D01*
X162126904Y-126182380D02*
X162126904Y-125182380D01*
X162507857Y-125182380D01*
X162603095Y-125230000D01*
X162650714Y-125277619D01*
X162698333Y-125372857D01*
X162698333Y-125515714D01*
X162650714Y-125610952D01*
X162603095Y-125658571D01*
X162507857Y-125706190D01*
X162126904Y-125706190D01*
X163269761Y-125610952D02*
X163174523Y-125563333D01*
X163126904Y-125515714D01*
X163079285Y-125420476D01*
X163079285Y-125372857D01*
X163126904Y-125277619D01*
X163174523Y-125230000D01*
X163269761Y-125182380D01*
X163460238Y-125182380D01*
X163555476Y-125230000D01*
X163603095Y-125277619D01*
X163650714Y-125372857D01*
X163650714Y-125420476D01*
X163603095Y-125515714D01*
X163555476Y-125563333D01*
X163460238Y-125610952D01*
X163269761Y-125610952D01*
X163174523Y-125658571D01*
X163126904Y-125706190D01*
X163079285Y-125801428D01*
X163079285Y-125991904D01*
X163126904Y-126087142D01*
X163174523Y-126134761D01*
X163269761Y-126182380D01*
X163460238Y-126182380D01*
X163555476Y-126134761D01*
X163603095Y-126087142D01*
X163650714Y-125991904D01*
X163650714Y-125801428D01*
X163603095Y-125706190D01*
X163555476Y-125658571D01*
X163460238Y-125610952D01*
X157453333Y-126182380D02*
X157120000Y-125706190D01*
X156881904Y-126182380D02*
X156881904Y-125182380D01*
X157262857Y-125182380D01*
X157358095Y-125230000D01*
X157405714Y-125277619D01*
X157453333Y-125372857D01*
X157453333Y-125515714D01*
X157405714Y-125610952D01*
X157358095Y-125658571D01*
X157262857Y-125706190D01*
X156881904Y-125706190D01*
X158310476Y-125515714D02*
X158310476Y-126182380D01*
X158072380Y-125134761D02*
X157834285Y-125849047D01*
X158453333Y-125849047D01*
X159993333Y-126182380D02*
X159660000Y-125706190D01*
X159421904Y-126182380D02*
X159421904Y-125182380D01*
X159802857Y-125182380D01*
X159898095Y-125230000D01*
X159945714Y-125277619D01*
X159993333Y-125372857D01*
X159993333Y-125515714D01*
X159945714Y-125610952D01*
X159898095Y-125658571D01*
X159802857Y-125706190D01*
X159421904Y-125706190D01*
X160898095Y-125182380D02*
X160421904Y-125182380D01*
X160374285Y-125658571D01*
X160421904Y-125610952D01*
X160517142Y-125563333D01*
X160755238Y-125563333D01*
X160850476Y-125610952D01*
X160898095Y-125658571D01*
X160945714Y-125753809D01*
X160945714Y-125991904D01*
X160898095Y-126087142D01*
X160850476Y-126134761D01*
X160755238Y-126182380D01*
X160517142Y-126182380D01*
X160421904Y-126134761D01*
X160374285Y-126087142D01*
X132048333Y-139422142D02*
X132000714Y-139469761D01*
X131857857Y-139517380D01*
X131762619Y-139517380D01*
X131619761Y-139469761D01*
X131524523Y-139374523D01*
X131476904Y-139279285D01*
X131429285Y-139088809D01*
X131429285Y-138945952D01*
X131476904Y-138755476D01*
X131524523Y-138660238D01*
X131619761Y-138565000D01*
X131762619Y-138517380D01*
X131857857Y-138517380D01*
X132000714Y-138565000D01*
X132048333Y-138612619D01*
X132476904Y-139517380D02*
X132476904Y-138517380D01*
X132857857Y-138517380D01*
X132953095Y-138565000D01*
X133000714Y-138612619D01*
X133048333Y-138707857D01*
X133048333Y-138850714D01*
X133000714Y-138945952D01*
X132953095Y-138993571D01*
X132857857Y-139041190D01*
X132476904Y-139041190D01*
X134000714Y-139517380D02*
X133429285Y-139517380D01*
X133715000Y-139517380D02*
X133715000Y-138517380D01*
X133619761Y-138660238D01*
X133524523Y-138755476D01*
X133429285Y-138803095D01*
X156678333Y-134437380D02*
X156345000Y-133961190D01*
X156106904Y-134437380D02*
X156106904Y-133437380D01*
X156487857Y-133437380D01*
X156583095Y-133485000D01*
X156630714Y-133532619D01*
X156678333Y-133627857D01*
X156678333Y-133770714D01*
X156630714Y-133865952D01*
X156583095Y-133913571D01*
X156487857Y-133961190D01*
X156106904Y-133961190D01*
X157154523Y-134437380D02*
X157345000Y-134437380D01*
X157440238Y-134389761D01*
X157487857Y-134342142D01*
X157583095Y-134199285D01*
X157630714Y-134008809D01*
X157630714Y-133627857D01*
X157583095Y-133532619D01*
X157535476Y-133485000D01*
X157440238Y-133437380D01*
X157249761Y-133437380D01*
X157154523Y-133485000D01*
X157106904Y-133532619D01*
X157059285Y-133627857D01*
X157059285Y-133865952D01*
X157106904Y-133961190D01*
X157154523Y-134008809D01*
X157249761Y-134056428D01*
X157440238Y-134056428D01*
X157535476Y-134008809D01*
X157583095Y-133961190D01*
X157630714Y-133865952D01*
X164933333Y-113482380D02*
X164600000Y-113006190D01*
X164361904Y-113482380D02*
X164361904Y-112482380D01*
X164742857Y-112482380D01*
X164838095Y-112530000D01*
X164885714Y-112577619D01*
X164933333Y-112672857D01*
X164933333Y-112815714D01*
X164885714Y-112910952D01*
X164838095Y-112958571D01*
X164742857Y-113006190D01*
X164361904Y-113006190D01*
X165266666Y-112482380D02*
X165933333Y-112482380D01*
X165504761Y-113482380D01*
X172386666Y-138517380D02*
X172386666Y-139231666D01*
X172339047Y-139374523D01*
X172243809Y-139469761D01*
X172100952Y-139517380D01*
X172005714Y-139517380D01*
X173386666Y-139517380D02*
X172815238Y-139517380D01*
X173100952Y-139517380D02*
X173100952Y-138517380D01*
X173005714Y-138660238D01*
X172910476Y-138755476D01*
X172815238Y-138803095D01*
X159051666Y-97877380D02*
X159051666Y-98591666D01*
X159004047Y-98734523D01*
X158908809Y-98829761D01*
X158765952Y-98877380D01*
X158670714Y-98877380D01*
X160004047Y-97877380D02*
X159527857Y-97877380D01*
X159480238Y-98353571D01*
X159527857Y-98305952D01*
X159623095Y-98258333D01*
X159861190Y-98258333D01*
X159956428Y-98305952D01*
X160004047Y-98353571D01*
X160051666Y-98448809D01*
X160051666Y-98686904D01*
X160004047Y-98782142D01*
X159956428Y-98829761D01*
X159861190Y-98877380D01*
X159623095Y-98877380D01*
X159527857Y-98829761D01*
X159480238Y-98782142D01*
X165238333Y-126182380D02*
X164905000Y-125706190D01*
X164666904Y-126182380D02*
X164666904Y-125182380D01*
X165047857Y-125182380D01*
X165143095Y-125230000D01*
X165190714Y-125277619D01*
X165238333Y-125372857D01*
X165238333Y-125515714D01*
X165190714Y-125610952D01*
X165143095Y-125658571D01*
X165047857Y-125706190D01*
X164666904Y-125706190D01*
X166095476Y-125182380D02*
X165905000Y-125182380D01*
X165809761Y-125230000D01*
X165762142Y-125277619D01*
X165666904Y-125420476D01*
X165619285Y-125610952D01*
X165619285Y-125991904D01*
X165666904Y-126087142D01*
X165714523Y-126134761D01*
X165809761Y-126182380D01*
X166000238Y-126182380D01*
X166095476Y-126134761D01*
X166143095Y-126087142D01*
X166190714Y-125991904D01*
X166190714Y-125753809D01*
X166143095Y-125658571D01*
X166095476Y-125610952D01*
X166000238Y-125563333D01*
X165809761Y-125563333D01*
X165714523Y-125610952D01*
X165666904Y-125658571D01*
X165619285Y-125753809D01*
X140168333Y-112481924D02*
X140120714Y-112529543D01*
X139977857Y-112577162D01*
X139882619Y-112577162D01*
X139739761Y-112529543D01*
X139644523Y-112434305D01*
X139596904Y-112339067D01*
X139549285Y-112148591D01*
X139549285Y-112005734D01*
X139596904Y-111815258D01*
X139644523Y-111720020D01*
X139739761Y-111624782D01*
X139882619Y-111577162D01*
X139977857Y-111577162D01*
X140120714Y-111624782D01*
X140168333Y-111672401D01*
X141073095Y-111577162D02*
X140596904Y-111577162D01*
X140549285Y-112053353D01*
X140596904Y-112005734D01*
X140692142Y-111958115D01*
X140930238Y-111958115D01*
X141025476Y-112005734D01*
X141073095Y-112053353D01*
X141120714Y-112148591D01*
X141120714Y-112386686D01*
X141073095Y-112481924D01*
X141025476Y-112529543D01*
X140930238Y-112577162D01*
X140692142Y-112577162D01*
X140596904Y-112529543D01*
X140549285Y-112481924D01*
X132588095Y-121197380D02*
X132588095Y-122006904D01*
X132635714Y-122102142D01*
X132683333Y-122149761D01*
X132778571Y-122197380D01*
X132969047Y-122197380D01*
X133064285Y-122149761D01*
X133111904Y-122102142D01*
X133159523Y-122006904D01*
X133159523Y-121197380D01*
X134064285Y-121530714D02*
X134064285Y-122197380D01*
X133826190Y-121149761D02*
X133588095Y-121864047D01*
X134207142Y-121864047D01*
X167542380Y-135978095D02*
X166542380Y-135978095D01*
X166542380Y-135740000D01*
X166590000Y-135597142D01*
X166685238Y-135501904D01*
X166780476Y-135454285D01*
X166970952Y-135406666D01*
X167113809Y-135406666D01*
X167304285Y-135454285D01*
X167399523Y-135501904D01*
X167494761Y-135597142D01*
X167542380Y-135740000D01*
X167542380Y-135978095D01*
X166637619Y-135025714D02*
X166590000Y-134978095D01*
X166542380Y-134882857D01*
X166542380Y-134644761D01*
X166590000Y-134549523D01*
X166637619Y-134501904D01*
X166732857Y-134454285D01*
X166828095Y-134454285D01*
X166970952Y-134501904D01*
X167542380Y-135073333D01*
X167542380Y-134454285D01*
X124126666Y-138517380D02*
X124126666Y-139231666D01*
X124079047Y-139374523D01*
X123983809Y-139469761D01*
X123840952Y-139517380D01*
X123745714Y-139517380D01*
X124555238Y-138612619D02*
X124602857Y-138565000D01*
X124698095Y-138517380D01*
X124936190Y-138517380D01*
X125031428Y-138565000D01*
X125079047Y-138612619D01*
X125126666Y-138707857D01*
X125126666Y-138803095D01*
X125079047Y-138945952D01*
X124507619Y-139517380D01*
X125126666Y-139517380D01*
X159543809Y-109831190D02*
X159543809Y-110307380D01*
X159210476Y-109307380D02*
X159543809Y-109831190D01*
X159877142Y-109307380D01*
X160734285Y-110307380D02*
X160162857Y-110307380D01*
X160448571Y-110307380D02*
X160448571Y-109307380D01*
X160353333Y-109450238D01*
X160258095Y-109545476D01*
X160162857Y-109593095D01*
X140168333Y-123547142D02*
X140120714Y-123594761D01*
X139977857Y-123642380D01*
X139882619Y-123642380D01*
X139739761Y-123594761D01*
X139644523Y-123499523D01*
X139596904Y-123404285D01*
X139549285Y-123213809D01*
X139549285Y-123070952D01*
X139596904Y-122880476D01*
X139644523Y-122785238D01*
X139739761Y-122690000D01*
X139882619Y-122642380D01*
X139977857Y-122642380D01*
X140120714Y-122690000D01*
X140168333Y-122737619D01*
X141025476Y-122975714D02*
X141025476Y-123642380D01*
X140787380Y-122594761D02*
X140549285Y-123309047D01*
X141168333Y-123309047D01*
X159757380Y-135993095D02*
X158757380Y-135993095D01*
X158757380Y-135755000D01*
X158805000Y-135612142D01*
X158900238Y-135516904D01*
X158995476Y-135469285D01*
X159185952Y-135421666D01*
X159328809Y-135421666D01*
X159519285Y-135469285D01*
X159614523Y-135516904D01*
X159709761Y-135612142D01*
X159757380Y-135755000D01*
X159757380Y-135993095D01*
X159090714Y-134564523D02*
X159757380Y-134564523D01*
X158709761Y-134802619D02*
X159424047Y-135040714D01*
X159424047Y-134421666D01*
X154773333Y-126087142D02*
X154725714Y-126134761D01*
X154582857Y-126182380D01*
X154487619Y-126182380D01*
X154344761Y-126134761D01*
X154249523Y-126039523D01*
X154201904Y-125944285D01*
X154154285Y-125753809D01*
X154154285Y-125610952D01*
X154201904Y-125420476D01*
X154249523Y-125325238D01*
X154344761Y-125230000D01*
X154487619Y-125182380D01*
X154582857Y-125182380D01*
X154725714Y-125230000D01*
X154773333Y-125277619D01*
X155154285Y-125277619D02*
X155201904Y-125230000D01*
X155297142Y-125182380D01*
X155535238Y-125182380D01*
X155630476Y-125230000D01*
X155678095Y-125277619D01*
X155725714Y-125372857D01*
X155725714Y-125468095D01*
X155678095Y-125610952D01*
X155106666Y-126182380D01*
X155725714Y-126182380D01*
X172361666Y-114587380D02*
X172361666Y-115301666D01*
X172314047Y-115444523D01*
X172218809Y-115539761D01*
X172075952Y-115587380D01*
X171980714Y-115587380D01*
X172742619Y-114587380D02*
X173361666Y-114587380D01*
X173028333Y-114968333D01*
X173171190Y-114968333D01*
X173266428Y-115015952D01*
X173314047Y-115063571D01*
X173361666Y-115158809D01*
X173361666Y-115396904D01*
X173314047Y-115492142D01*
X173266428Y-115539761D01*
X173171190Y-115587380D01*
X172885476Y-115587380D01*
X172790238Y-115539761D01*
X172742619Y-115492142D01*
X167467142Y-126182380D02*
X167133809Y-125706190D01*
X166895714Y-126182380D02*
X166895714Y-125182380D01*
X167276666Y-125182380D01*
X167371904Y-125230000D01*
X167419523Y-125277619D01*
X167467142Y-125372857D01*
X167467142Y-125515714D01*
X167419523Y-125610952D01*
X167371904Y-125658571D01*
X167276666Y-125706190D01*
X166895714Y-125706190D01*
X168419523Y-126182380D02*
X167848095Y-126182380D01*
X168133809Y-126182380D02*
X168133809Y-125182380D01*
X168038571Y-125325238D01*
X167943333Y-125420476D01*
X167848095Y-125468095D01*
X169038571Y-125182380D02*
X169133809Y-125182380D01*
X169229047Y-125230000D01*
X169276666Y-125277619D01*
X169324285Y-125372857D01*
X169371904Y-125563333D01*
X169371904Y-125801428D01*
X169324285Y-125991904D01*
X169276666Y-126087142D01*
X169229047Y-126134761D01*
X169133809Y-126182380D01*
X169038571Y-126182380D01*
X168943333Y-126134761D01*
X168895714Y-126087142D01*
X168848095Y-125991904D01*
X168800476Y-125801428D01*
X168800476Y-125563333D01*
X168848095Y-125372857D01*
X168895714Y-125277619D01*
X168943333Y-125230000D01*
X169038571Y-125182380D01*
X136628551Y-114752380D02*
X136295218Y-114276190D01*
X136057122Y-114752380D02*
X136057122Y-113752380D01*
X136438075Y-113752380D01*
X136533313Y-113800000D01*
X136580932Y-113847619D01*
X136628551Y-113942857D01*
X136628551Y-114085714D01*
X136580932Y-114180952D01*
X136533313Y-114228571D01*
X136438075Y-114276190D01*
X136057122Y-114276190D01*
X137009503Y-113847619D02*
X137057122Y-113800000D01*
X137152360Y-113752380D01*
X137390456Y-113752380D01*
X137485694Y-113800000D01*
X137533313Y-113847619D01*
X137580932Y-113942857D01*
X137580932Y-114038095D01*
X137533313Y-114180952D01*
X136961884Y-114752380D01*
X137580932Y-114752380D01*
D12*
X125790000Y-97110000D02*
X125790000Y-98440000D01*
X124460000Y-97110000D02*
X125790000Y-97110000D01*
X125790000Y-99710000D02*
X125790000Y-117550000D01*
X123130000Y-99710000D02*
X125790000Y-99710000D01*
X123130000Y-117550000D02*
X125790000Y-117550000D01*
X123130000Y-99710000D02*
X123130000Y-117550000D01*
X132342936Y-99907500D02*
X133797064Y-99907500D01*
X132342936Y-98087500D02*
X133797064Y-98087500D01*
X154996371Y-137160000D02*
X155110000Y-137160000D01*
X154996371Y-137160000D02*
G75*
G03*
X154996371Y-137160000I-1326371J0D01*
G01*
X163930000Y-115943748D02*
X163930000Y-116466252D01*
X162460000Y-115943748D02*
X162460000Y-116466252D01*
X162460000Y-109593748D02*
X162460000Y-110116252D01*
X163930000Y-109593748D02*
X163930000Y-110116252D01*
X140046250Y-130576250D02*
X139258750Y-130576250D01*
X135459437Y-131210000D02*
X134395000Y-132274437D01*
X140150563Y-131210000D02*
X141215000Y-132274437D01*
X134395000Y-138030000D02*
X136745000Y-138030000D01*
X134395000Y-132274437D02*
X134395000Y-138030000D01*
X141215000Y-132274437D02*
X141215000Y-138030000D01*
X135459437Y-131210000D02*
X136745000Y-131210000D01*
X140150563Y-131210000D02*
X138865000Y-131210000D01*
X141215000Y-138030000D02*
X138865000Y-138030000D01*
X139652500Y-130182500D02*
X139652500Y-130970000D01*
X147220000Y-94643752D02*
X147220000Y-94121248D01*
X148690000Y-94643752D02*
X148690000Y-94121248D01*
X159930000Y-118453752D02*
X159930000Y-117931248D01*
X161400000Y-118453752D02*
X161400000Y-117931248D01*
X169580000Y-123275000D02*
X168250000Y-123275000D01*
X154220000Y-120615000D02*
X154220000Y-123275000D01*
X166980000Y-120615000D02*
X154220000Y-120615000D01*
X169580000Y-121945000D02*
X169580000Y-123275000D01*
X166980000Y-120615000D02*
X166980000Y-123275000D01*
X166980000Y-123275000D02*
X154220000Y-123275000D01*
X159060000Y-89420000D02*
X159060000Y-90920000D01*
X164810000Y-86920000D02*
X160310000Y-86920000D01*
X166060000Y-90920000D02*
X166060000Y-89420000D01*
X160310000Y-93420000D02*
X164810000Y-93420000D01*
X134670000Y-94052500D02*
X130610000Y-94052500D01*
X130610000Y-94052500D02*
X130610000Y-96322500D01*
X130610000Y-96322500D02*
X134670000Y-96322500D01*
X138830000Y-98430000D02*
X140090000Y-98430000D01*
X138830000Y-94670000D02*
X138830000Y-98430000D01*
X145650000Y-98430000D02*
X144390000Y-98430000D01*
X145650000Y-92420000D02*
X145650000Y-98430000D01*
X128525000Y-97353752D02*
X128525000Y-96831248D01*
X129995000Y-97353752D02*
X129995000Y-96831248D01*
X163965000Y-137700000D02*
X166235000Y-137700000D01*
X163965000Y-133640000D02*
X163965000Y-137700000D01*
X166235000Y-137700000D02*
X166235000Y-133640000D01*
X128855000Y-107035000D02*
X128855000Y-108685000D01*
X128855000Y-108685000D02*
X139135000Y-108685000D01*
X128855000Y-103385000D02*
X128855000Y-105035000D01*
X139135000Y-103385000D02*
X128855000Y-103385000D01*
X139135000Y-108685000D02*
X139135000Y-103385000D01*
X128855000Y-107035000D02*
G75*
G03*
X128855000Y-105035000I0J1000000D01*
G01*
X132217718Y-111670000D02*
X132671846Y-111670000D01*
X132217718Y-113140000D02*
X132671846Y-113140000D01*
X149960000Y-102165000D02*
X144660000Y-102165000D01*
X148310000Y-137845000D02*
X149960000Y-137845000D01*
X149960000Y-137845000D02*
X149960000Y-102165000D01*
X144660000Y-102165000D02*
X144660000Y-137845000D01*
X144660000Y-137845000D02*
X146310000Y-137845000D01*
X148310000Y-137845000D02*
G75*
G03*
X146310000Y-137845000I-1000000J0D01*
G01*
X163775000Y-128532936D02*
X163775000Y-129987064D01*
X161955000Y-128532936D02*
X161955000Y-129987064D01*
X158530000Y-128532936D02*
X158530000Y-129987064D01*
X156710000Y-128532936D02*
X156710000Y-129987064D01*
X159250000Y-128532936D02*
X159250000Y-129987064D01*
X161070000Y-128532936D02*
X161070000Y-129987064D01*
X132022500Y-130182500D02*
X132022500Y-130970000D01*
X132520563Y-131210000D02*
X133585000Y-132274437D01*
X127829437Y-131210000D02*
X129115000Y-131210000D01*
X133585000Y-132274437D02*
X133585000Y-138030000D01*
X132520563Y-131210000D02*
X131235000Y-131210000D01*
X133585000Y-138030000D02*
X131235000Y-138030000D01*
X126765000Y-138030000D02*
X129115000Y-138030000D01*
X126765000Y-132274437D02*
X126765000Y-138030000D01*
X127829437Y-131210000D02*
X126765000Y-132274437D01*
X132416250Y-130576250D02*
X131628750Y-130576250D01*
X155675000Y-134212064D02*
X155675000Y-133757936D01*
X154205000Y-134212064D02*
X154205000Y-133757936D01*
X162652064Y-113940000D02*
X161197936Y-113940000D01*
X162652064Y-112120000D02*
X161197936Y-112120000D01*
X171390000Y-137840000D02*
X171390000Y-136510000D01*
X174050000Y-117400000D02*
X171390000Y-117400000D01*
X174050000Y-135240000D02*
X174050000Y-117400000D01*
X174050000Y-135240000D02*
X171390000Y-135240000D01*
X171390000Y-135240000D02*
X171390000Y-117400000D01*
X172720000Y-137840000D02*
X171390000Y-137840000D01*
X165735000Y-97095000D02*
X165735000Y-99695000D01*
X165735000Y-97095000D02*
X160595000Y-97095000D01*
X168335000Y-99695000D02*
X168335000Y-102295000D01*
X168335000Y-102295000D02*
X160595000Y-102295000D01*
X168335000Y-97095000D02*
X168335000Y-98425000D01*
X167005000Y-97095000D02*
X168335000Y-97095000D01*
X160595000Y-97095000D02*
X160595000Y-102295000D01*
X165735000Y-99695000D02*
X168335000Y-99695000D01*
X164495000Y-129987064D02*
X164495000Y-128532936D01*
X166315000Y-129987064D02*
X166315000Y-128532936D01*
X141070000Y-115196252D02*
X141070000Y-114673748D01*
X139600000Y-115196252D02*
X139600000Y-114673748D01*
X128230000Y-120745000D02*
X128230000Y-116104000D01*
X138470000Y-120745000D02*
X128230000Y-120745000D01*
X138470000Y-116104000D02*
X128230000Y-116104000D01*
X138470000Y-119235000D02*
X128230000Y-119235000D01*
X138470000Y-120745000D02*
X138470000Y-116104000D01*
X135200000Y-120745000D02*
X135200000Y-119235000D01*
X131499000Y-120745000D02*
X131499000Y-119235000D01*
X170045000Y-137700000D02*
X170045000Y-133640000D01*
X167775000Y-133640000D02*
X167775000Y-137700000D01*
X167775000Y-137700000D02*
X170045000Y-137700000D01*
X125790000Y-122495000D02*
X125790000Y-123825000D01*
X123130000Y-125095000D02*
X125790000Y-125095000D01*
X124460000Y-122495000D02*
X125790000Y-122495000D01*
X123130000Y-137855000D02*
X125790000Y-137855000D01*
X125790000Y-125095000D02*
X125790000Y-137855000D01*
X123130000Y-125095000D02*
X123130000Y-137855000D01*
X153685000Y-115695000D02*
X153685000Y-109295000D01*
X158735000Y-115695000D02*
X158735000Y-109295000D01*
X158735000Y-109295000D02*
G75*
G03*
X153685000Y-109295000I-2525000J0D01*
G01*
X153685000Y-115695000D02*
G75*
G03*
X158735000Y-115695000I2525000J0D01*
G01*
X141070000Y-119753748D02*
X141070000Y-120276252D01*
X139600000Y-119753748D02*
X139600000Y-120276252D01*
X162260000Y-137715000D02*
X162260000Y-133655000D01*
X159990000Y-137715000D02*
X162260000Y-137715000D01*
X159990000Y-133655000D02*
X159990000Y-137715000D01*
X154205000Y-129801252D02*
X154205000Y-129278748D01*
X155675000Y-129801252D02*
X155675000Y-129278748D01*
X172695000Y-113695000D02*
X171365000Y-113695000D01*
X174025000Y-111095000D02*
X171365000Y-111095000D01*
X174025000Y-88175000D02*
X171365000Y-88175000D01*
X171365000Y-113695000D02*
X171365000Y-112365000D01*
X174025000Y-111095000D02*
X174025000Y-88175000D01*
X171365000Y-111095000D02*
X171365000Y-88175000D01*
X169020000Y-128532936D02*
X169020000Y-129987064D01*
X167200000Y-128532936D02*
X167200000Y-129987064D01*
X136568154Y-111670000D02*
X137022282Y-111670000D01*
X136568154Y-113140000D02*
X137022282Y-113140000D01*
%LPC*%
D13*
X124460000Y-98440000D03*
D14*
X124460000Y-100980000D03*
X124460000Y-103520000D03*
X124460000Y-106060000D03*
X124460000Y-108600000D03*
X124460000Y-111140000D03*
X124460000Y-113680000D03*
X124460000Y-116220000D03*
D15*
X131520000Y-98997500D03*
X134620000Y-98997500D03*
D16*
X156210000Y-137160000D03*
D17*
X153670000Y-137160000D03*
D18*
X163195000Y-115167500D03*
X163195000Y-117242500D03*
X163195000Y-108817500D03*
X163195000Y-110892500D03*
D19*
X137805000Y-131920000D03*
X137805000Y-137320000D03*
D20*
X147955000Y-95420000D03*
X147955000Y-93345000D03*
X160665000Y-119230000D03*
X160665000Y-117155000D03*
D13*
X168250000Y-121945000D03*
D14*
X165710000Y-121945000D03*
X163170000Y-121945000D03*
X160630000Y-121945000D03*
X158090000Y-121945000D03*
X155550000Y-121945000D03*
D21*
X165810000Y-92420000D03*
X159310000Y-92420000D03*
X159310000Y-87920000D03*
X165810000Y-87920000D03*
D22*
X131582500Y-95187500D03*
X134557500Y-95187500D03*
D23*
X144540000Y-93370000D03*
D24*
X142240000Y-99670000D03*
D23*
X142240000Y-93370000D03*
X139940000Y-93370000D03*
D20*
X129260000Y-98130000D03*
X129260000Y-96055000D03*
D25*
X165100000Y-136727500D03*
X165100000Y-133752500D03*
D16*
X130185000Y-109845000D03*
D17*
X132725000Y-109845000D03*
X135265000Y-109845000D03*
X137805000Y-109845000D03*
X137805000Y-102225000D03*
X135265000Y-102225000D03*
X132725000Y-102225000D03*
X130185000Y-102225000D03*
D26*
X131444782Y-112405000D03*
X133444782Y-112405000D03*
D16*
X151120000Y-136515000D03*
D17*
X151120000Y-133975000D03*
X151120000Y-131435000D03*
X151120000Y-128895000D03*
X151120000Y-126355000D03*
X151120000Y-123815000D03*
X151120000Y-121275000D03*
X151120000Y-118735000D03*
X151120000Y-116195000D03*
X151120000Y-113655000D03*
X151120000Y-111115000D03*
X151120000Y-108575000D03*
X151120000Y-106035000D03*
X151120000Y-103495000D03*
X143500000Y-103495000D03*
X143500000Y-106035000D03*
X143500000Y-108575000D03*
X143500000Y-111115000D03*
X143500000Y-113655000D03*
X143500000Y-116195000D03*
X143500000Y-118735000D03*
X143500000Y-121275000D03*
X143500000Y-123815000D03*
X143500000Y-126355000D03*
X143500000Y-128895000D03*
X143500000Y-131435000D03*
X143500000Y-133975000D03*
X143500000Y-136515000D03*
D27*
X162865000Y-127710000D03*
X162865000Y-130810000D03*
X157620000Y-127710000D03*
X157620000Y-130810000D03*
X160160000Y-127710000D03*
X160160000Y-130810000D03*
D19*
X130175000Y-131920000D03*
X130175000Y-137320000D03*
D28*
X154940000Y-134985000D03*
X154940000Y-132985000D03*
D29*
X163475000Y-113030000D03*
X160375000Y-113030000D03*
D13*
X172720000Y-136510000D03*
D14*
X172720000Y-133970000D03*
X172720000Y-131430000D03*
X172720000Y-128890000D03*
X172720000Y-126350000D03*
X172720000Y-123810000D03*
X172720000Y-121270000D03*
X172720000Y-118730000D03*
D13*
X167005000Y-98425000D03*
D14*
X167005000Y-100965000D03*
X164465000Y-98425000D03*
X164465000Y-100965000D03*
X161925000Y-98425000D03*
X161925000Y-100965000D03*
D30*
X165405000Y-130810000D03*
X165405000Y-127710000D03*
D20*
X140335000Y-115972500D03*
X140335000Y-113897500D03*
D31*
X135890000Y-117475000D03*
D32*
X133350000Y-117475000D03*
X130810000Y-117475000D03*
D25*
X168910000Y-136727500D03*
X168910000Y-133752500D03*
D13*
X124460000Y-123825000D03*
D14*
X124460000Y-126365000D03*
X124460000Y-128905000D03*
X124460000Y-131445000D03*
X124460000Y-133985000D03*
X124460000Y-136525000D03*
D33*
X156210000Y-114935000D03*
X156210000Y-110055000D03*
D18*
X140335000Y-118977500D03*
X140335000Y-121052500D03*
D25*
X161125000Y-136742500D03*
X161125000Y-133767500D03*
D20*
X154940000Y-130577500D03*
X154940000Y-128502500D03*
D13*
X172695000Y-112365000D03*
D14*
X172695000Y-109825000D03*
X172695000Y-107285000D03*
X172695000Y-104745000D03*
X172695000Y-102205000D03*
X172695000Y-99665000D03*
X172695000Y-97125000D03*
X172695000Y-94585000D03*
X172695000Y-92045000D03*
X172695000Y-89505000D03*
D27*
X168110000Y-127710000D03*
X168110000Y-130810000D03*
D26*
X135795218Y-112405000D03*
X137795218Y-112405000D03*
M02*
