G04 #@! TF.GenerationSoftware,KiCad,Pcbnew,6.0.11-3.fc36*
G04 #@! TF.CreationDate,2023-04-04T19:14:44+09:00*
G04 #@! TF.ProjectId,Tetiduino,54657469-6475-4696-9e6f-2e6b69636164,rev?*
G04 #@! TF.SameCoordinates,Original*
G04 #@! TF.FileFunction,Copper,L2,Bot*
G04 #@! TF.FilePolarity,Positive*
%FSLAX46Y46*%
G04 Gerber Fmt 4.6, Leading zero omitted, Abs format (unit mm)*
G04 Created by KiCad (PCBNEW 6.0.11-3.fc36) date 2023-04-04 19:14:44*
%MOMM*%
%LPD*%
G01*
G04 APERTURE LIST*
G04 #@! TA.AperFunction,ComponentPad*
%ADD10R,1.700000X1.700000*%
G04 #@! TD*
G04 #@! TA.AperFunction,ComponentPad*
%ADD11O,1.700000X1.700000*%
G04 #@! TD*
G04 #@! TA.AperFunction,ComponentPad*
%ADD12R,1.600000X1.600000*%
G04 #@! TD*
G04 #@! TA.AperFunction,ComponentPad*
%ADD13O,1.600000X1.600000*%
G04 #@! TD*
G04 #@! TA.AperFunction,ComponentPad*
%ADD14C,2.000000*%
G04 #@! TD*
G04 #@! TA.AperFunction,ComponentPad*
%ADD15R,1.905000X2.000000*%
G04 #@! TD*
G04 #@! TA.AperFunction,ComponentPad*
%ADD16O,1.905000X2.000000*%
G04 #@! TD*
G04 #@! TA.AperFunction,ComponentPad*
%ADD17C,1.500000*%
G04 #@! TD*
G04 #@! TA.AperFunction,ViaPad*
%ADD18C,0.800000*%
G04 #@! TD*
G04 #@! TA.AperFunction,Conductor*
%ADD19C,0.300000*%
G04 #@! TD*
G04 #@! TA.AperFunction,Conductor*
%ADD20C,0.600000*%
G04 #@! TD*
G04 APERTURE END LIST*
D10*
X124460000Y-98440000D03*
D11*
X124460000Y-100980000D03*
X124460000Y-103520000D03*
X124460000Y-106060000D03*
X124460000Y-108600000D03*
X124460000Y-111140000D03*
X124460000Y-113680000D03*
X124460000Y-116220000D03*
D12*
X156210000Y-137160000D03*
D13*
X153670000Y-137160000D03*
D10*
X168250000Y-121945000D03*
D11*
X165710000Y-121945000D03*
X163170000Y-121945000D03*
X160630000Y-121945000D03*
X158090000Y-121945000D03*
X155550000Y-121945000D03*
D14*
X165810000Y-92420000D03*
X159310000Y-92420000D03*
X159310000Y-87920000D03*
X165810000Y-87920000D03*
D12*
X130185000Y-109845000D03*
D13*
X132725000Y-109845000D03*
X135265000Y-109845000D03*
X137805000Y-109845000D03*
X137805000Y-102225000D03*
X135265000Y-102225000D03*
X132725000Y-102225000D03*
X130185000Y-102225000D03*
D12*
X151120000Y-136515000D03*
D13*
X151120000Y-133975000D03*
X151120000Y-131435000D03*
X151120000Y-128895000D03*
X151120000Y-126355000D03*
X151120000Y-123815000D03*
X151120000Y-121275000D03*
X151120000Y-118735000D03*
X151120000Y-116195000D03*
X151120000Y-113655000D03*
X151120000Y-111115000D03*
X151120000Y-108575000D03*
X151120000Y-106035000D03*
X151120000Y-103495000D03*
X143500000Y-103495000D03*
X143500000Y-106035000D03*
X143500000Y-108575000D03*
X143500000Y-111115000D03*
X143500000Y-113655000D03*
X143500000Y-116195000D03*
X143500000Y-118735000D03*
X143500000Y-121275000D03*
X143500000Y-123815000D03*
X143500000Y-126355000D03*
X143500000Y-128895000D03*
X143500000Y-131435000D03*
X143500000Y-133975000D03*
X143500000Y-136515000D03*
D10*
X172720000Y-136510000D03*
D11*
X172720000Y-133970000D03*
X172720000Y-131430000D03*
X172720000Y-128890000D03*
X172720000Y-126350000D03*
X172720000Y-123810000D03*
X172720000Y-121270000D03*
X172720000Y-118730000D03*
D10*
X167005000Y-98425000D03*
D11*
X167005000Y-100965000D03*
X164465000Y-98425000D03*
X164465000Y-100965000D03*
X161925000Y-98425000D03*
X161925000Y-100965000D03*
D15*
X135890000Y-117475000D03*
D16*
X133350000Y-117475000D03*
X130810000Y-117475000D03*
D10*
X124460000Y-123825000D03*
D11*
X124460000Y-126365000D03*
X124460000Y-128905000D03*
X124460000Y-131445000D03*
X124460000Y-133985000D03*
X124460000Y-136525000D03*
D17*
X156210000Y-114935000D03*
X156210000Y-110055000D03*
D10*
X172695000Y-112365000D03*
D11*
X172695000Y-109825000D03*
X172695000Y-107285000D03*
X172695000Y-104745000D03*
X172695000Y-102205000D03*
X172695000Y-99665000D03*
X172695000Y-97125000D03*
X172695000Y-94585000D03*
X172695000Y-92045000D03*
X172695000Y-89505000D03*
D18*
X155575000Y-92075000D03*
X157480000Y-89535000D03*
D19*
X141605000Y-94615000D02*
X171450000Y-94615000D01*
X136525000Y-111760000D02*
X136525000Y-99695000D01*
X136525000Y-99695000D02*
X141605000Y-94615000D01*
X171480000Y-94585000D02*
X172695000Y-94585000D01*
X171450000Y-94615000D02*
X171480000Y-94585000D01*
X143500000Y-118735000D02*
X136525000Y-111760000D01*
D20*
X163145000Y-119380000D02*
X153670000Y-119380000D01*
X165710000Y-121945000D02*
X163145000Y-119380000D01*
X165810000Y-87920000D02*
X159310000Y-87920000D01*
X153670000Y-119380000D02*
X153025000Y-118735000D01*
X135890000Y-117475000D02*
X139700000Y-117475000D01*
X153025000Y-118735000D02*
X151120000Y-118735000D01*
X165710000Y-121945000D02*
X168250000Y-121945000D01*
X139700000Y-117475000D02*
X143500000Y-121275000D01*
X126380000Y-108600000D02*
X133350000Y-115570000D01*
X155575000Y-139065000D02*
X156210000Y-138430000D01*
X133350000Y-115570000D02*
X133350000Y-117475000D01*
X124460000Y-108600000D02*
X126380000Y-108600000D01*
X143500000Y-116195000D02*
X146040000Y-116195000D01*
X148590000Y-121920000D02*
X148590000Y-137795000D01*
X149860000Y-139065000D02*
X155575000Y-139065000D01*
X156210000Y-138430000D02*
X156210000Y-137160000D01*
X146040000Y-116195000D02*
X151120000Y-121275000D01*
X148590000Y-137795000D02*
X149860000Y-139065000D01*
X151120000Y-121275000D02*
X149235000Y-121275000D01*
X149235000Y-121275000D02*
X148590000Y-121920000D01*
D19*
X154295000Y-128895000D02*
X156830000Y-131430000D01*
X156830000Y-131430000D02*
X172720000Y-131430000D01*
X151120000Y-128895000D02*
X154295000Y-128895000D01*
X151120000Y-126355000D02*
X155565000Y-126355000D01*
X158130000Y-128890000D02*
X172720000Y-128890000D01*
X155565000Y-126355000D02*
X158115000Y-128905000D01*
X151120000Y-123815000D02*
X156230000Y-123815000D01*
X156230000Y-123815000D02*
X158765000Y-126350000D01*
X158765000Y-126350000D02*
X172720000Y-126350000D01*
X154305000Y-116205000D02*
X156210000Y-118110000D01*
X169545000Y-120635000D02*
X172720000Y-123810000D01*
X154305000Y-114300000D02*
X154305000Y-116205000D01*
X169545000Y-120635000D02*
X169530000Y-120635000D01*
X151120000Y-111115000D02*
X154305000Y-114300000D01*
X156210000Y-118110000D02*
X167005000Y-118110000D01*
X169530000Y-120635000D02*
X167005000Y-118110000D01*
X151755000Y-108575000D02*
X151120000Y-108575000D01*
X165100000Y-113665000D02*
X156845000Y-113665000D01*
X156845000Y-113665000D02*
X151755000Y-108575000D01*
X170815000Y-119365000D02*
X170800000Y-119365000D01*
X172720000Y-121270000D02*
X170815000Y-119365000D01*
X170800000Y-119365000D02*
X165100000Y-113665000D01*
X158750000Y-110490000D02*
X165735000Y-110490000D01*
X172720000Y-117475000D02*
X172720000Y-118730000D01*
X165735000Y-110490000D02*
X172720000Y-117475000D01*
X151120000Y-106035000D02*
X154295000Y-106035000D01*
X154295000Y-106035000D02*
X158750000Y-110490000D01*
X143490000Y-123825000D02*
X143500000Y-123815000D01*
X124460000Y-123825000D02*
X143490000Y-123825000D01*
X124460000Y-126365000D02*
X143490000Y-126365000D01*
X143490000Y-126365000D02*
X143500000Y-126355000D01*
X143490000Y-128905000D02*
X143500000Y-128895000D01*
X124460000Y-128905000D02*
X143490000Y-128905000D01*
X143500000Y-131435000D02*
X124470000Y-131435000D01*
X124470000Y-131435000D02*
X124460000Y-131445000D01*
X124460000Y-133985000D02*
X143490000Y-133985000D01*
X155575000Y-92075000D02*
X156800000Y-90850000D01*
X156800000Y-90850000D02*
X171500000Y-90850000D01*
X171500000Y-90850000D02*
X172695000Y-92045000D01*
X143490000Y-133985000D02*
X143500000Y-133975000D01*
X143500000Y-136515000D02*
X124470000Y-136515000D01*
X157510000Y-89505000D02*
X172695000Y-89505000D01*
X124470000Y-136515000D02*
X124460000Y-136525000D01*
X157480000Y-89535000D02*
X157510000Y-89505000D01*
X154295000Y-103495000D02*
X151120000Y-103495000D01*
X159385000Y-108585000D02*
X154295000Y-103495000D01*
X167640000Y-108585000D02*
X159385000Y-108585000D01*
X167640000Y-108585000D02*
X171420000Y-112365000D01*
X171420000Y-112365000D02*
X172695000Y-112365000D01*
X171480000Y-109825000D02*
X172695000Y-109825000D01*
X143500000Y-103495000D02*
X143500000Y-102245000D01*
X167640000Y-106045000D02*
X171450000Y-109855000D01*
X144780000Y-100965000D02*
X154305000Y-100965000D01*
X171450000Y-109855000D02*
X171480000Y-109825000D01*
X159385000Y-106045000D02*
X167640000Y-106045000D01*
X154305000Y-100965000D02*
X159385000Y-106045000D01*
X143500000Y-102245000D02*
X144780000Y-100965000D01*
X159310000Y-92420000D02*
X165810000Y-92420000D01*
X158385000Y-93345000D02*
X159310000Y-92420000D01*
X136525000Y-93345000D02*
X158385000Y-93345000D01*
X124460000Y-103520000D02*
X126350000Y-103520000D01*
X126350000Y-103520000D02*
X136525000Y-93345000D01*
D20*
X132725000Y-108595000D02*
X132725000Y-109845000D01*
X130190000Y-106060000D02*
X132725000Y-108595000D01*
X124460000Y-106060000D02*
X130190000Y-106060000D01*
X124460000Y-116220000D02*
X125715000Y-117475000D01*
X125715000Y-117475000D02*
X130810000Y-117475000D01*
D19*
X141605000Y-104140000D02*
X141605000Y-102235000D01*
X171450000Y-107315000D02*
X171480000Y-107285000D01*
X168910000Y-104775000D02*
X171450000Y-107315000D01*
X143500000Y-106035000D02*
X141605000Y-104140000D01*
X160655000Y-104775000D02*
X168910000Y-104775000D01*
X144145000Y-99695000D02*
X155575000Y-99695000D01*
X171480000Y-107285000D02*
X172695000Y-107285000D01*
X141605000Y-102235000D02*
X144145000Y-99695000D01*
X155575000Y-99695000D02*
X160655000Y-104775000D01*
X140335000Y-101600000D02*
X143510000Y-98425000D01*
X140335000Y-105410000D02*
X140335000Y-101600000D01*
X156845000Y-98425000D02*
X161970000Y-103550000D01*
X169590000Y-103550000D02*
X170785000Y-104745000D01*
X161970000Y-103550000D02*
X169590000Y-103550000D01*
X143500000Y-108575000D02*
X140335000Y-105410000D01*
X170785000Y-104745000D02*
X172695000Y-104745000D01*
X143510000Y-98425000D02*
X156845000Y-98425000D01*
X158115000Y-97155000D02*
X160585000Y-99625000D01*
X143500000Y-111115000D02*
X139065000Y-106680000D01*
X164465000Y-100965000D02*
X165665000Y-102165000D01*
X172655000Y-102165000D02*
X172695000Y-102205000D01*
X160585000Y-99625000D02*
X163125000Y-99625000D01*
X142875000Y-97155000D02*
X158115000Y-97155000D01*
X165665000Y-102165000D02*
X172655000Y-102165000D01*
X139065000Y-106680000D02*
X139065000Y-100965000D01*
X163125000Y-99625000D02*
X164465000Y-100965000D01*
X139065000Y-100965000D02*
X142875000Y-97155000D01*
X137795000Y-100330000D02*
X142230000Y-95895000D01*
X163205000Y-95895000D02*
X164465000Y-97155000D01*
X171480000Y-99665000D02*
X171450000Y-99695000D01*
X172695000Y-99665000D02*
X171480000Y-99665000D01*
X142230000Y-95895000D02*
X163205000Y-95895000D01*
X143500000Y-113655000D02*
X137795000Y-107950000D01*
X167650000Y-95895000D02*
X163205000Y-95895000D01*
X171450000Y-99695000D02*
X167650000Y-95895000D01*
X137795000Y-107950000D02*
X137795000Y-100330000D01*
X164465000Y-97155000D02*
X164465000Y-98425000D01*
G04 #@! TA.AperFunction,Conductor*
G36*
X173160304Y-85618502D02*
G01*
X173181278Y-85635405D01*
X174714595Y-87168723D01*
X174748621Y-87231035D01*
X174751500Y-87257818D01*
X174751500Y-137745633D01*
X174750000Y-137765018D01*
X174747690Y-137779851D01*
X174747690Y-137779855D01*
X174746309Y-137788724D01*
X174747473Y-137797626D01*
X174747473Y-137797629D01*
X174748439Y-137805012D01*
X174749233Y-137829591D01*
X174734660Y-138051922D01*
X174732509Y-138068262D01*
X174683889Y-138312693D01*
X174679625Y-138328606D01*
X174601487Y-138558793D01*
X174599516Y-138564600D01*
X174593209Y-138579826D01*
X174482984Y-138803342D01*
X174474743Y-138817616D01*
X174336287Y-139024829D01*
X174326254Y-139037905D01*
X174161932Y-139225278D01*
X174150278Y-139236932D01*
X173962905Y-139401254D01*
X173949829Y-139411287D01*
X173742616Y-139549743D01*
X173728342Y-139557984D01*
X173504826Y-139668209D01*
X173489602Y-139674515D01*
X173253606Y-139754625D01*
X173237696Y-139758888D01*
X173147195Y-139776890D01*
X172993262Y-139807509D01*
X172976922Y-139809660D01*
X172828134Y-139819413D01*
X172761763Y-139823763D01*
X172738650Y-139822733D01*
X172735146Y-139822690D01*
X172726276Y-139821309D01*
X172717374Y-139822473D01*
X172717372Y-139822473D01*
X172703915Y-139824233D01*
X172694714Y-139825436D01*
X172678379Y-139826500D01*
X156261333Y-139826500D01*
X156193212Y-139806498D01*
X156146719Y-139752842D01*
X156136615Y-139682568D01*
X156166109Y-139617988D01*
X156172549Y-139611094D01*
X156206584Y-139577296D01*
X156206587Y-139577293D01*
X156209082Y-139574815D01*
X156209740Y-139573778D01*
X156210838Y-139572554D01*
X156775112Y-139008279D01*
X156776050Y-139007350D01*
X156835475Y-138949157D01*
X156835476Y-138949156D01*
X156840507Y-138944229D01*
X156844322Y-138938310D01*
X156844328Y-138938302D01*
X156863994Y-138907786D01*
X156871427Y-138897441D01*
X156898476Y-138863557D01*
X156913073Y-138833362D01*
X156920602Y-138819945D01*
X156934948Y-138797684D01*
X156938765Y-138791762D01*
X156941173Y-138785145D01*
X156941176Y-138785140D01*
X156953592Y-138751027D01*
X156958553Y-138739284D01*
X156974353Y-138706600D01*
X156974356Y-138706591D01*
X156977421Y-138700251D01*
X156984966Y-138667572D01*
X156989334Y-138652825D01*
X157000803Y-138621315D01*
X157001685Y-138614330D01*
X157001687Y-138614323D01*
X157006237Y-138578308D01*
X157008469Y-138565770D01*
X157008739Y-138564600D01*
X157010081Y-138558790D01*
X157044886Y-138496914D01*
X157104938Y-138465098D01*
X157104778Y-138464425D01*
X157107373Y-138463808D01*
X157107622Y-138463676D01*
X157108512Y-138463537D01*
X157112459Y-138462599D01*
X157120316Y-138461745D01*
X157256705Y-138410615D01*
X157373261Y-138323261D01*
X157460615Y-138206705D01*
X157511745Y-138070316D01*
X157518500Y-138008134D01*
X157518500Y-136311866D01*
X157511745Y-136249684D01*
X157460615Y-136113295D01*
X157373261Y-135996739D01*
X157256705Y-135909385D01*
X157120316Y-135858255D01*
X157058134Y-135851500D01*
X155361866Y-135851500D01*
X155299684Y-135858255D01*
X155163295Y-135909385D01*
X155046739Y-135996739D01*
X154959385Y-136113295D01*
X154908255Y-136249684D01*
X154907083Y-136260474D01*
X154906197Y-136262606D01*
X154905575Y-136265222D01*
X154905152Y-136265121D01*
X154879845Y-136326035D01*
X154821483Y-136366463D01*
X154750529Y-136368922D01*
X154689510Y-136332629D01*
X154682511Y-136323969D01*
X154679354Y-136320207D01*
X154676198Y-136315700D01*
X154514300Y-136153802D01*
X154509792Y-136150645D01*
X154509789Y-136150643D01*
X154431611Y-136095902D01*
X154326749Y-136022477D01*
X154321767Y-136020154D01*
X154321762Y-136020151D01*
X154124225Y-135928039D01*
X154124224Y-135928039D01*
X154119243Y-135925716D01*
X154113935Y-135924294D01*
X154113933Y-135924293D01*
X153903402Y-135867881D01*
X153903400Y-135867881D01*
X153898087Y-135866457D01*
X153670000Y-135846502D01*
X153441913Y-135866457D01*
X153436600Y-135867881D01*
X153436598Y-135867881D01*
X153226067Y-135924293D01*
X153226065Y-135924294D01*
X153220757Y-135925716D01*
X153215776Y-135928039D01*
X153215775Y-135928039D01*
X153018238Y-136020151D01*
X153018233Y-136020154D01*
X153013251Y-136022477D01*
X152908389Y-136095902D01*
X152830211Y-136150643D01*
X152830208Y-136150645D01*
X152825700Y-136153802D01*
X152663802Y-136315700D01*
X152660645Y-136320208D01*
X152660643Y-136320211D01*
X152657713Y-136324396D01*
X152602256Y-136368724D01*
X152531637Y-136376033D01*
X152468276Y-136344002D01*
X152432291Y-136282801D01*
X152428500Y-136252125D01*
X152428500Y-135666866D01*
X152421745Y-135604684D01*
X152370615Y-135468295D01*
X152283261Y-135351739D01*
X152166705Y-135264385D01*
X152030316Y-135213255D01*
X152019526Y-135212083D01*
X152017394Y-135211197D01*
X152014778Y-135210575D01*
X152014879Y-135210152D01*
X151953965Y-135184845D01*
X151913537Y-135126483D01*
X151911078Y-135055529D01*
X151947371Y-134994510D01*
X151956031Y-134987511D01*
X151959793Y-134984354D01*
X151964300Y-134981198D01*
X152126198Y-134819300D01*
X152143921Y-134793990D01*
X152235289Y-134663502D01*
X152257523Y-134631749D01*
X152259846Y-134626767D01*
X152259849Y-134626762D01*
X152351961Y-134429225D01*
X152351961Y-134429224D01*
X152354284Y-134424243D01*
X152362753Y-134392639D01*
X152412119Y-134208402D01*
X152412119Y-134208400D01*
X152413543Y-134203087D01*
X152433498Y-133975000D01*
X152413543Y-133746913D01*
X152412119Y-133741598D01*
X152355707Y-133531067D01*
X152355706Y-133531065D01*
X152354284Y-133525757D01*
X152261062Y-133325840D01*
X152259849Y-133323238D01*
X152259846Y-133323233D01*
X152257523Y-133318251D01*
X152139332Y-133149457D01*
X152129357Y-133135211D01*
X152129355Y-133135208D01*
X152126198Y-133130700D01*
X151964300Y-132968802D01*
X151959792Y-132965645D01*
X151959789Y-132965643D01*
X151798632Y-132852800D01*
X151776749Y-132837477D01*
X151771767Y-132835154D01*
X151771762Y-132835151D01*
X151737543Y-132819195D01*
X151684258Y-132772278D01*
X151664797Y-132704001D01*
X151685339Y-132636041D01*
X151737543Y-132590805D01*
X151771762Y-132574849D01*
X151771767Y-132574846D01*
X151776749Y-132572523D01*
X151900069Y-132486173D01*
X151959789Y-132444357D01*
X151959792Y-132444355D01*
X151964300Y-132441198D01*
X152126198Y-132279300D01*
X152143921Y-132253990D01*
X152254366Y-132096257D01*
X152257523Y-132091749D01*
X152259846Y-132086767D01*
X152259849Y-132086762D01*
X152351961Y-131889225D01*
X152351961Y-131889224D01*
X152354284Y-131884243D01*
X152362753Y-131852639D01*
X152412119Y-131668402D01*
X152412119Y-131668400D01*
X152413543Y-131663087D01*
X152433498Y-131435000D01*
X152413543Y-131206913D01*
X152412119Y-131201598D01*
X152355707Y-130991067D01*
X152355706Y-130991065D01*
X152354284Y-130985757D01*
X152261062Y-130785840D01*
X152259849Y-130783238D01*
X152259846Y-130783233D01*
X152257523Y-130778251D01*
X152139332Y-130609457D01*
X152129357Y-130595211D01*
X152129355Y-130595208D01*
X152126198Y-130590700D01*
X151964300Y-130428802D01*
X151959792Y-130425645D01*
X151959789Y-130425643D01*
X151798632Y-130312800D01*
X151776749Y-130297477D01*
X151771767Y-130295154D01*
X151771762Y-130295151D01*
X151737543Y-130279195D01*
X151684258Y-130232278D01*
X151664797Y-130164001D01*
X151685339Y-130096041D01*
X151737543Y-130050805D01*
X151771762Y-130034849D01*
X151771767Y-130034846D01*
X151776749Y-130032523D01*
X151900069Y-129946173D01*
X151959789Y-129904357D01*
X151959792Y-129904355D01*
X151964300Y-129901198D01*
X152126198Y-129739300D01*
X152143921Y-129713990D01*
X152218675Y-129607229D01*
X152274132Y-129562901D01*
X152321888Y-129553500D01*
X153970050Y-129553500D01*
X154038171Y-129573502D01*
X154059145Y-129590405D01*
X156306341Y-131837600D01*
X156314331Y-131846381D01*
X156314339Y-131846390D01*
X156318584Y-131853080D01*
X156324359Y-131858503D01*
X156370274Y-131901620D01*
X156373116Y-131904375D01*
X156393667Y-131924926D01*
X156396801Y-131927357D01*
X156397163Y-131927638D01*
X156406191Y-131935348D01*
X156439867Y-131966972D01*
X156446818Y-131970793D01*
X156446819Y-131970794D01*
X156458655Y-131977301D01*
X156475184Y-131988158D01*
X156485869Y-131996447D01*
X156485871Y-131996448D01*
X156492131Y-132001304D01*
X156534544Y-132019657D01*
X156545181Y-132024868D01*
X156585663Y-132047124D01*
X156593342Y-132049096D01*
X156593343Y-132049096D01*
X156606434Y-132052457D01*
X156625136Y-132058859D01*
X156644823Y-132067379D01*
X156652652Y-132068619D01*
X156690448Y-132074605D01*
X156702074Y-132077013D01*
X156739135Y-132086529D01*
X156739136Y-132086529D01*
X156746812Y-132088500D01*
X156768258Y-132088500D01*
X156787968Y-132090051D01*
X156809151Y-132093406D01*
X156855135Y-132089059D01*
X156866994Y-132088500D01*
X171459594Y-132088500D01*
X171527715Y-132108502D01*
X171567027Y-132148665D01*
X171619987Y-132235088D01*
X171766250Y-132403938D01*
X171938126Y-132546632D01*
X171986414Y-132574849D01*
X172011445Y-132589476D01*
X172060169Y-132641114D01*
X172073240Y-132710897D01*
X172046509Y-132776669D01*
X172006055Y-132810027D01*
X171993607Y-132816507D01*
X171989474Y-132819610D01*
X171989471Y-132819612D01*
X171945269Y-132852800D01*
X171814965Y-132950635D01*
X171660629Y-133112138D01*
X171534743Y-133296680D01*
X171440688Y-133499305D01*
X171380989Y-133714570D01*
X171357251Y-133936695D01*
X171357548Y-133941848D01*
X171357548Y-133941851D01*
X171363011Y-134036590D01*
X171370110Y-134159715D01*
X171371247Y-134164761D01*
X171371248Y-134164767D01*
X171373490Y-134174715D01*
X171419222Y-134377639D01*
X171503266Y-134584616D01*
X171619987Y-134775088D01*
X171766250Y-134943938D01*
X171770230Y-134947242D01*
X171774981Y-134951187D01*
X171814616Y-135010090D01*
X171816113Y-135081071D01*
X171778997Y-135141593D01*
X171738724Y-135166112D01*
X171623295Y-135209385D01*
X171506739Y-135296739D01*
X171419385Y-135413295D01*
X171368255Y-135549684D01*
X171361500Y-135611866D01*
X171361500Y-137408134D01*
X171368255Y-137470316D01*
X171419385Y-137606705D01*
X171506739Y-137723261D01*
X171623295Y-137810615D01*
X171759684Y-137861745D01*
X171821866Y-137868500D01*
X173618134Y-137868500D01*
X173680316Y-137861745D01*
X173816705Y-137810615D01*
X173933261Y-137723261D01*
X174020615Y-137606705D01*
X174071745Y-137470316D01*
X174078500Y-137408134D01*
X174078500Y-135611866D01*
X174071745Y-135549684D01*
X174020615Y-135413295D01*
X173933261Y-135296739D01*
X173816705Y-135209385D01*
X173751245Y-135184845D01*
X173698203Y-135164960D01*
X173641439Y-135122318D01*
X173616739Y-135055756D01*
X173631947Y-134986408D01*
X173653493Y-134957727D01*
X173758096Y-134853489D01*
X173817594Y-134770689D01*
X173885435Y-134676277D01*
X173888453Y-134672077D01*
X173898215Y-134652326D01*
X173985136Y-134476453D01*
X173985137Y-134476451D01*
X173987430Y-134471811D01*
X174052370Y-134258069D01*
X174081529Y-134036590D01*
X174083156Y-133970000D01*
X174064852Y-133747361D01*
X174010431Y-133530702D01*
X173921354Y-133325840D01*
X173800014Y-133138277D01*
X173649670Y-132973051D01*
X173645619Y-132969852D01*
X173645615Y-132969848D01*
X173478414Y-132837800D01*
X173478410Y-132837798D01*
X173474359Y-132834598D01*
X173433053Y-132811796D01*
X173383084Y-132761364D01*
X173368312Y-132691921D01*
X173393428Y-132625516D01*
X173420780Y-132598909D01*
X173477674Y-132558327D01*
X173599860Y-132471173D01*
X173758096Y-132313489D01*
X173888453Y-132132077D01*
X173897634Y-132113502D01*
X173985136Y-131936453D01*
X173985137Y-131936451D01*
X173987430Y-131931811D01*
X174052370Y-131718069D01*
X174081529Y-131496590D01*
X174083156Y-131430000D01*
X174064852Y-131207361D01*
X174010431Y-130990702D01*
X173921354Y-130785840D01*
X173800014Y-130598277D01*
X173649670Y-130433051D01*
X173645619Y-130429852D01*
X173645615Y-130429848D01*
X173478414Y-130297800D01*
X173478410Y-130297798D01*
X173474359Y-130294598D01*
X173433053Y-130271796D01*
X173383084Y-130221364D01*
X173368312Y-130151921D01*
X173393428Y-130085516D01*
X173420780Y-130058909D01*
X173477674Y-130018327D01*
X173599860Y-129931173D01*
X173758096Y-129773489D01*
X173888453Y-129592077D01*
X173897634Y-129573502D01*
X173985136Y-129396453D01*
X173985137Y-129396451D01*
X173987430Y-129391811D01*
X174052370Y-129178069D01*
X174081529Y-128956590D01*
X174083156Y-128890000D01*
X174064852Y-128667361D01*
X174010431Y-128450702D01*
X173921354Y-128245840D01*
X173800014Y-128058277D01*
X173649670Y-127893051D01*
X173645619Y-127889852D01*
X173645615Y-127889848D01*
X173478414Y-127757800D01*
X173478410Y-127757798D01*
X173474359Y-127754598D01*
X173433053Y-127731796D01*
X173383084Y-127681364D01*
X173368312Y-127611921D01*
X173393428Y-127545516D01*
X173420780Y-127518909D01*
X173477674Y-127478327D01*
X173599860Y-127391173D01*
X173758096Y-127233489D01*
X173888453Y-127052077D01*
X173897634Y-127033502D01*
X173985136Y-126856453D01*
X173985137Y-126856451D01*
X173987430Y-126851811D01*
X174052370Y-126638069D01*
X174081529Y-126416590D01*
X174083156Y-126350000D01*
X174064852Y-126127361D01*
X174010431Y-125910702D01*
X173921354Y-125705840D01*
X173800014Y-125518277D01*
X173649670Y-125353051D01*
X173645619Y-125349852D01*
X173645615Y-125349848D01*
X173478414Y-125217800D01*
X173478410Y-125217798D01*
X173474359Y-125214598D01*
X173433053Y-125191796D01*
X173383084Y-125141364D01*
X173368312Y-125071921D01*
X173393428Y-125005516D01*
X173420780Y-124978909D01*
X173464603Y-124947650D01*
X173599860Y-124851173D01*
X173758096Y-124693489D01*
X173817594Y-124610689D01*
X173885435Y-124516277D01*
X173888453Y-124512077D01*
X173896950Y-124494886D01*
X173985136Y-124316453D01*
X173985137Y-124316451D01*
X173987430Y-124311811D01*
X174052370Y-124098069D01*
X174081529Y-123876590D01*
X174083156Y-123810000D01*
X174064852Y-123587361D01*
X174010431Y-123370702D01*
X173921354Y-123165840D01*
X173824843Y-123016657D01*
X173802822Y-122982617D01*
X173802820Y-122982614D01*
X173800014Y-122978277D01*
X173649670Y-122813051D01*
X173645619Y-122809852D01*
X173645615Y-122809848D01*
X173478414Y-122677800D01*
X173478410Y-122677798D01*
X173474359Y-122674598D01*
X173433053Y-122651796D01*
X173383084Y-122601364D01*
X173368312Y-122531921D01*
X173393428Y-122465516D01*
X173420780Y-122438909D01*
X173464603Y-122407650D01*
X173599860Y-122311173D01*
X173603966Y-122307082D01*
X173754435Y-122157137D01*
X173758096Y-122153489D01*
X173771587Y-122134715D01*
X173885435Y-121976277D01*
X173888453Y-121972077D01*
X173906157Y-121936257D01*
X173985136Y-121776453D01*
X173985137Y-121776451D01*
X173987430Y-121771811D01*
X174052370Y-121558069D01*
X174081529Y-121336590D01*
X174082358Y-121302651D01*
X174083074Y-121273365D01*
X174083074Y-121273361D01*
X174083156Y-121270000D01*
X174064852Y-121047361D01*
X174010431Y-120830702D01*
X173921354Y-120625840D01*
X173869050Y-120544990D01*
X173802822Y-120442617D01*
X173802820Y-120442614D01*
X173800014Y-120438277D01*
X173649670Y-120273051D01*
X173645619Y-120269852D01*
X173645615Y-120269848D01*
X173478414Y-120137800D01*
X173478410Y-120137798D01*
X173474359Y-120134598D01*
X173433053Y-120111796D01*
X173383084Y-120061364D01*
X173368312Y-119991921D01*
X173393428Y-119925516D01*
X173420780Y-119898909D01*
X173479366Y-119857120D01*
X173599860Y-119771173D01*
X173758096Y-119613489D01*
X173888453Y-119432077D01*
X173906157Y-119396257D01*
X173985136Y-119236453D01*
X173985137Y-119236451D01*
X173987430Y-119231811D01*
X174052370Y-119018069D01*
X174081529Y-118796590D01*
X174082020Y-118776510D01*
X174083074Y-118733365D01*
X174083074Y-118733361D01*
X174083156Y-118730000D01*
X174064852Y-118507361D01*
X174010431Y-118290702D01*
X173921354Y-118085840D01*
X173800014Y-117898277D01*
X173649670Y-117733051D01*
X173645619Y-117729852D01*
X173645615Y-117729848D01*
X173478414Y-117597800D01*
X173478410Y-117597798D01*
X173474359Y-117594598D01*
X173469835Y-117592101D01*
X173469831Y-117592098D01*
X173443755Y-117577703D01*
X173393784Y-117527270D01*
X173378711Y-117471352D01*
X173378562Y-117466610D01*
X173378500Y-117462653D01*
X173378500Y-117433568D01*
X173377946Y-117429179D01*
X173377013Y-117417337D01*
X173376353Y-117396317D01*
X173375562Y-117371169D01*
X173369580Y-117350579D01*
X173365570Y-117331216D01*
X173363875Y-117317796D01*
X173363875Y-117317795D01*
X173362882Y-117309936D01*
X173359966Y-117302571D01*
X173359965Y-117302567D01*
X173345874Y-117266979D01*
X173342035Y-117255769D01*
X173329145Y-117211400D01*
X173318225Y-117192935D01*
X173309534Y-117175195D01*
X173301635Y-117155244D01*
X173274482Y-117117871D01*
X173267967Y-117107952D01*
X173248493Y-117075023D01*
X173248490Y-117075019D01*
X173244453Y-117068193D01*
X173229289Y-117053029D01*
X173216448Y-117037995D01*
X173214119Y-117034789D01*
X173203841Y-117020643D01*
X173168247Y-116991197D01*
X173159468Y-116983208D01*
X166258655Y-110082395D01*
X166250665Y-110073615D01*
X166250663Y-110073613D01*
X166246416Y-110066920D01*
X166233723Y-110055000D01*
X166194743Y-110018396D01*
X166191901Y-110015641D01*
X166171333Y-109995073D01*
X166167826Y-109992353D01*
X166158804Y-109984647D01*
X166125133Y-109953028D01*
X166118181Y-109949206D01*
X166106342Y-109942697D01*
X166089818Y-109931843D01*
X166079132Y-109923555D01*
X166072868Y-109918696D01*
X166065596Y-109915549D01*
X166065594Y-109915548D01*
X166030465Y-109900346D01*
X166019805Y-109895124D01*
X165986284Y-109876695D01*
X165986282Y-109876694D01*
X165979337Y-109872876D01*
X165958559Y-109867541D01*
X165939869Y-109861142D01*
X165920176Y-109852620D01*
X165874552Y-109845394D01*
X165862929Y-109842987D01*
X165834270Y-109835629D01*
X165818188Y-109831500D01*
X165796741Y-109831500D01*
X165777031Y-109829949D01*
X165763677Y-109827834D01*
X165755848Y-109826594D01*
X165709859Y-109830941D01*
X165698004Y-109831500D01*
X159074949Y-109831500D01*
X159006828Y-109811498D01*
X158985854Y-109794595D01*
X156905405Y-107714145D01*
X154818655Y-105627395D01*
X154810665Y-105618615D01*
X154810663Y-105618613D01*
X154806416Y-105611920D01*
X154754742Y-105563395D01*
X154751901Y-105560641D01*
X154731333Y-105540073D01*
X154727826Y-105537353D01*
X154718804Y-105529647D01*
X154690913Y-105503456D01*
X154685133Y-105498028D01*
X154678181Y-105494206D01*
X154666342Y-105487697D01*
X154649818Y-105476843D01*
X154639132Y-105468555D01*
X154632868Y-105463696D01*
X154625596Y-105460549D01*
X154625594Y-105460548D01*
X154590465Y-105445346D01*
X154579805Y-105440124D01*
X154546284Y-105421695D01*
X154546282Y-105421694D01*
X154539337Y-105417876D01*
X154518559Y-105412541D01*
X154499869Y-105406142D01*
X154480176Y-105397620D01*
X154436404Y-105390687D01*
X154434552Y-105390394D01*
X154422929Y-105387987D01*
X154394928Y-105380798D01*
X154378188Y-105376500D01*
X154356741Y-105376500D01*
X154337031Y-105374949D01*
X154315848Y-105371594D01*
X154269859Y-105375941D01*
X154258004Y-105376500D01*
X152321888Y-105376500D01*
X152253767Y-105356498D01*
X152218675Y-105322771D01*
X152211114Y-105311972D01*
X152166282Y-105247945D01*
X152129357Y-105195211D01*
X152129355Y-105195208D01*
X152126198Y-105190700D01*
X151964300Y-105028802D01*
X151959792Y-105025645D01*
X151959789Y-105025643D01*
X151881611Y-104970902D01*
X151776749Y-104897477D01*
X151771767Y-104895154D01*
X151771762Y-104895151D01*
X151737543Y-104879195D01*
X151684258Y-104832278D01*
X151664797Y-104764001D01*
X151685339Y-104696041D01*
X151737543Y-104650805D01*
X151771762Y-104634849D01*
X151771767Y-104634846D01*
X151776749Y-104632523D01*
X151926706Y-104527522D01*
X151959789Y-104504357D01*
X151959792Y-104504355D01*
X151964300Y-104501198D01*
X152126198Y-104339300D01*
X152136150Y-104325088D01*
X152172123Y-104273713D01*
X152218676Y-104207228D01*
X152274132Y-104162901D01*
X152321888Y-104153500D01*
X153970050Y-104153500D01*
X154038171Y-104173502D01*
X154059145Y-104190405D01*
X158861345Y-108992605D01*
X158869335Y-109001385D01*
X158873584Y-109008080D01*
X158879362Y-109013506D01*
X158879363Y-109013507D01*
X158925257Y-109056604D01*
X158928099Y-109059359D01*
X158948667Y-109079927D01*
X158952170Y-109082644D01*
X158961195Y-109090352D01*
X158994867Y-109121972D01*
X159001818Y-109125793D01*
X159001819Y-109125794D01*
X159013658Y-109132303D01*
X159030182Y-109143157D01*
X159040271Y-109150982D01*
X159047132Y-109156304D01*
X159054404Y-109159451D01*
X159054406Y-109159452D01*
X159089535Y-109174654D01*
X159100195Y-109179876D01*
X159124500Y-109193238D01*
X159140663Y-109202124D01*
X159161441Y-109207459D01*
X159180131Y-109213858D01*
X159199824Y-109222380D01*
X159231880Y-109227457D01*
X159245448Y-109229606D01*
X159257071Y-109232013D01*
X159284539Y-109239065D01*
X159301812Y-109243500D01*
X159323259Y-109243500D01*
X159342969Y-109245051D01*
X159364152Y-109248406D01*
X159410141Y-109244059D01*
X159421996Y-109243500D01*
X167315050Y-109243500D01*
X167383171Y-109263502D01*
X167404145Y-109280405D01*
X170896341Y-112772600D01*
X170904331Y-112781381D01*
X170904339Y-112781390D01*
X170908584Y-112788080D01*
X170914359Y-112793503D01*
X170960274Y-112836620D01*
X170963116Y-112839375D01*
X170983667Y-112859926D01*
X170986801Y-112862357D01*
X170987163Y-112862638D01*
X170996191Y-112870348D01*
X171029867Y-112901972D01*
X171036818Y-112905793D01*
X171036819Y-112905794D01*
X171048655Y-112912301D01*
X171065183Y-112923157D01*
X171082131Y-112936304D01*
X171124545Y-112954659D01*
X171135183Y-112959871D01*
X171175663Y-112982124D01*
X171183340Y-112984095D01*
X171183345Y-112984097D01*
X171196426Y-112987455D01*
X171215134Y-112993860D01*
X171220750Y-112996290D01*
X171227550Y-112999233D01*
X171227553Y-112999234D01*
X171234823Y-113002380D01*
X171242650Y-113003620D01*
X171245653Y-113004492D01*
X171305488Y-113042705D01*
X171335166Y-113107201D01*
X171336500Y-113125489D01*
X171336500Y-113263134D01*
X171343255Y-113325316D01*
X171394385Y-113461705D01*
X171481739Y-113578261D01*
X171598295Y-113665615D01*
X171734684Y-113716745D01*
X171796866Y-113723500D01*
X173593134Y-113723500D01*
X173655316Y-113716745D01*
X173791705Y-113665615D01*
X173908261Y-113578261D01*
X173995615Y-113461705D01*
X174046745Y-113325316D01*
X174053500Y-113263134D01*
X174053500Y-111466866D01*
X174046745Y-111404684D01*
X173995615Y-111268295D01*
X173908261Y-111151739D01*
X173791705Y-111064385D01*
X173779132Y-111059672D01*
X173673203Y-111019960D01*
X173616439Y-110977318D01*
X173591739Y-110910756D01*
X173606947Y-110841408D01*
X173628493Y-110812727D01*
X173686105Y-110755316D01*
X173733096Y-110708489D01*
X173744085Y-110693197D01*
X173860435Y-110531277D01*
X173863453Y-110527077D01*
X173867739Y-110518406D01*
X173960136Y-110331453D01*
X173960137Y-110331451D01*
X173962430Y-110326811D01*
X174016988Y-110147240D01*
X174025865Y-110118023D01*
X174025865Y-110118021D01*
X174027370Y-110113069D01*
X174056529Y-109891590D01*
X174056986Y-109872876D01*
X174058074Y-109828365D01*
X174058074Y-109828361D01*
X174058156Y-109825000D01*
X174039852Y-109602361D01*
X173985431Y-109385702D01*
X173896354Y-109180840D01*
X173832642Y-109082356D01*
X173777822Y-108997617D01*
X173777820Y-108997614D01*
X173775014Y-108993277D01*
X173624670Y-108828051D01*
X173620619Y-108824852D01*
X173620615Y-108824848D01*
X173453414Y-108692800D01*
X173453410Y-108692798D01*
X173449359Y-108689598D01*
X173408053Y-108666796D01*
X173358084Y-108616364D01*
X173343312Y-108546921D01*
X173368428Y-108480516D01*
X173395780Y-108453909D01*
X173465249Y-108404357D01*
X173574860Y-108326173D01*
X173631475Y-108269756D01*
X173660740Y-108240593D01*
X173733096Y-108168489D01*
X173761253Y-108129305D01*
X173860435Y-107991277D01*
X173863453Y-107987077D01*
X173867739Y-107978406D01*
X173960136Y-107791453D01*
X173960137Y-107791451D01*
X173962430Y-107786811D01*
X174027370Y-107573069D01*
X174056529Y-107351590D01*
X174057077Y-107329174D01*
X174058074Y-107288365D01*
X174058074Y-107288361D01*
X174058156Y-107285000D01*
X174039852Y-107062361D01*
X173985431Y-106845702D01*
X173896354Y-106640840D01*
X173832642Y-106542356D01*
X173777822Y-106457617D01*
X173777820Y-106457614D01*
X173775014Y-106453277D01*
X173624670Y-106288051D01*
X173620619Y-106284852D01*
X173620615Y-106284848D01*
X173453414Y-106152800D01*
X173453410Y-106152798D01*
X173449359Y-106149598D01*
X173408053Y-106126796D01*
X173358084Y-106076364D01*
X173343312Y-106006921D01*
X173368428Y-105940516D01*
X173395780Y-105913909D01*
X173465249Y-105864357D01*
X173574860Y-105786173D01*
X173631475Y-105729756D01*
X173711875Y-105649636D01*
X173733096Y-105628489D01*
X173761253Y-105589305D01*
X173860435Y-105451277D01*
X173863453Y-105447077D01*
X173866890Y-105440124D01*
X173960136Y-105251453D01*
X173960137Y-105251451D01*
X173962430Y-105246811D01*
X174027370Y-105033069D01*
X174056529Y-104811590D01*
X174057077Y-104789174D01*
X174058074Y-104748365D01*
X174058074Y-104748361D01*
X174058156Y-104745000D01*
X174039852Y-104522361D01*
X173985431Y-104305702D01*
X173896354Y-104100840D01*
X173833603Y-104003841D01*
X173777822Y-103917617D01*
X173777820Y-103917614D01*
X173775014Y-103913277D01*
X173624670Y-103748051D01*
X173620619Y-103744852D01*
X173620615Y-103744848D01*
X173453414Y-103612800D01*
X173453410Y-103612798D01*
X173449359Y-103609598D01*
X173408053Y-103586796D01*
X173358084Y-103536364D01*
X173343312Y-103466921D01*
X173368428Y-103400516D01*
X173395780Y-103373909D01*
X173439603Y-103342650D01*
X173574860Y-103246173D01*
X173586718Y-103234357D01*
X173729435Y-103092137D01*
X173733096Y-103088489D01*
X173744085Y-103073197D01*
X173860435Y-102911277D01*
X173863453Y-102907077D01*
X173866890Y-102900124D01*
X173960136Y-102711453D01*
X173960137Y-102711451D01*
X173962430Y-102706811D01*
X174012823Y-102540950D01*
X174025865Y-102498023D01*
X174025865Y-102498021D01*
X174027370Y-102493069D01*
X174056529Y-102271590D01*
X174056795Y-102260716D01*
X174058074Y-102208365D01*
X174058074Y-102208361D01*
X174058156Y-102205000D01*
X174039852Y-101982361D01*
X173985431Y-101765702D01*
X173896354Y-101560840D01*
X173825621Y-101451504D01*
X173777822Y-101377617D01*
X173777820Y-101377614D01*
X173775014Y-101373277D01*
X173624670Y-101208051D01*
X173620619Y-101204852D01*
X173620615Y-101204848D01*
X173453414Y-101072800D01*
X173453410Y-101072798D01*
X173449359Y-101069598D01*
X173408053Y-101046796D01*
X173358084Y-100996364D01*
X173343312Y-100926921D01*
X173368428Y-100860516D01*
X173395780Y-100833909D01*
X173464827Y-100784658D01*
X173574860Y-100706173D01*
X173581875Y-100699183D01*
X173679047Y-100602349D01*
X173733096Y-100548489D01*
X173738692Y-100540702D01*
X173860435Y-100371277D01*
X173863453Y-100367077D01*
X173867739Y-100358406D01*
X173960136Y-100171453D01*
X173960137Y-100171451D01*
X173962430Y-100166811D01*
X174016281Y-99989568D01*
X174025865Y-99958023D01*
X174025865Y-99958021D01*
X174027370Y-99953069D01*
X174056529Y-99731590D01*
X174057443Y-99694174D01*
X174058074Y-99668365D01*
X174058074Y-99668361D01*
X174058156Y-99665000D01*
X174039852Y-99442361D01*
X173985431Y-99225702D01*
X173896354Y-99020840D01*
X173775014Y-98833277D01*
X173624670Y-98668051D01*
X173620619Y-98664852D01*
X173620615Y-98664848D01*
X173453414Y-98532800D01*
X173453410Y-98532798D01*
X173449359Y-98529598D01*
X173407569Y-98506529D01*
X173357598Y-98456097D01*
X173342826Y-98386654D01*
X173367942Y-98320248D01*
X173395294Y-98293641D01*
X173570328Y-98168792D01*
X173578200Y-98162139D01*
X173729052Y-98011812D01*
X173735730Y-98003965D01*
X173860003Y-97831020D01*
X173865313Y-97822183D01*
X173959670Y-97631267D01*
X173963469Y-97621672D01*
X174025377Y-97417910D01*
X174027555Y-97407837D01*
X174028986Y-97396962D01*
X174026775Y-97382778D01*
X174013617Y-97379000D01*
X171378225Y-97379000D01*
X171364694Y-97382973D01*
X171363257Y-97392966D01*
X171393565Y-97527446D01*
X171396645Y-97537275D01*
X171476770Y-97734603D01*
X171481413Y-97743794D01*
X171592694Y-97925388D01*
X171598777Y-97933699D01*
X171738213Y-98094667D01*
X171745580Y-98101883D01*
X171909434Y-98237916D01*
X171917881Y-98243831D01*
X171986969Y-98284203D01*
X172035693Y-98335842D01*
X172048764Y-98405625D01*
X172022033Y-98471396D01*
X171981584Y-98504752D01*
X171968607Y-98511507D01*
X171964474Y-98514610D01*
X171964471Y-98514612D01*
X171794100Y-98642530D01*
X171789965Y-98645635D01*
X171786393Y-98649373D01*
X171655176Y-98786683D01*
X171593651Y-98822113D01*
X171522739Y-98818656D01*
X171474987Y-98788727D01*
X168174855Y-95488595D01*
X168140829Y-95426283D01*
X168145894Y-95355468D01*
X168188441Y-95298632D01*
X168254961Y-95273821D01*
X168263950Y-95273500D01*
X171367944Y-95273500D01*
X171379800Y-95274059D01*
X171379803Y-95274059D01*
X171387537Y-95275788D01*
X171449198Y-95273850D01*
X171517912Y-95291702D01*
X171560587Y-95333952D01*
X171594987Y-95390088D01*
X171741250Y-95558938D01*
X171913126Y-95701632D01*
X171986955Y-95744774D01*
X172035679Y-95796412D01*
X172048750Y-95866195D01*
X172022019Y-95931967D01*
X171981562Y-95965327D01*
X171973457Y-95969546D01*
X171964738Y-95975036D01*
X171794433Y-96102905D01*
X171786726Y-96109748D01*
X171639590Y-96263717D01*
X171633104Y-96271727D01*
X171513098Y-96447649D01*
X171508000Y-96456623D01*
X171418338Y-96649783D01*
X171414775Y-96659470D01*
X171359389Y-96859183D01*
X171360912Y-96867607D01*
X171373292Y-96871000D01*
X174013344Y-96871000D01*
X174026875Y-96867027D01*
X174028180Y-96857947D01*
X173986214Y-96690875D01*
X173982894Y-96681124D01*
X173897972Y-96485814D01*
X173893105Y-96476739D01*
X173777426Y-96297926D01*
X173771136Y-96289757D01*
X173627806Y-96132240D01*
X173620273Y-96125215D01*
X173453139Y-95993222D01*
X173444556Y-95987520D01*
X173407602Y-95967120D01*
X173357631Y-95916687D01*
X173342859Y-95847245D01*
X173367975Y-95780839D01*
X173395327Y-95754232D01*
X173418797Y-95737491D01*
X173574860Y-95626173D01*
X173733096Y-95468489D01*
X173863453Y-95287077D01*
X173868001Y-95277876D01*
X173960136Y-95091453D01*
X173960137Y-95091451D01*
X173962430Y-95086811D01*
X174027370Y-94873069D01*
X174056529Y-94651590D01*
X174058156Y-94585000D01*
X174039852Y-94362361D01*
X173985431Y-94145702D01*
X173896354Y-93940840D01*
X173775014Y-93753277D01*
X173624670Y-93588051D01*
X173620619Y-93584852D01*
X173620615Y-93584848D01*
X173453414Y-93452800D01*
X173453410Y-93452798D01*
X173449359Y-93449598D01*
X173408053Y-93426796D01*
X173358084Y-93376364D01*
X173343312Y-93306921D01*
X173368428Y-93240516D01*
X173395780Y-93213909D01*
X173439603Y-93182650D01*
X173574860Y-93086173D01*
X173733096Y-92928489D01*
X173752615Y-92901326D01*
X173860435Y-92751277D01*
X173863453Y-92747077D01*
X173884232Y-92705035D01*
X173960136Y-92551453D01*
X173960137Y-92551451D01*
X173962430Y-92546811D01*
X174027370Y-92333069D01*
X174056529Y-92111590D01*
X174057458Y-92073558D01*
X174058074Y-92048365D01*
X174058074Y-92048361D01*
X174058156Y-92045000D01*
X174039852Y-91822361D01*
X173985431Y-91605702D01*
X173896354Y-91400840D01*
X173823201Y-91287763D01*
X173777822Y-91217617D01*
X173777820Y-91217614D01*
X173775014Y-91213277D01*
X173624670Y-91048051D01*
X173620619Y-91044852D01*
X173620615Y-91044848D01*
X173453414Y-90912800D01*
X173453410Y-90912798D01*
X173449359Y-90909598D01*
X173408053Y-90886796D01*
X173358084Y-90836364D01*
X173343312Y-90766921D01*
X173368428Y-90700516D01*
X173395780Y-90673909D01*
X173439603Y-90642650D01*
X173574860Y-90546173D01*
X173733096Y-90388489D01*
X173799904Y-90295516D01*
X173860435Y-90211277D01*
X173863453Y-90207077D01*
X173930240Y-90071944D01*
X173960136Y-90011453D01*
X173960137Y-90011451D01*
X173962430Y-90006811D01*
X174027370Y-89793069D01*
X174056529Y-89571590D01*
X174057423Y-89535000D01*
X174058074Y-89508365D01*
X174058074Y-89508361D01*
X174058156Y-89505000D01*
X174039852Y-89282361D01*
X173985431Y-89065702D01*
X173896354Y-88860840D01*
X173823201Y-88747763D01*
X173777822Y-88677617D01*
X173777820Y-88677614D01*
X173775014Y-88673277D01*
X173624670Y-88508051D01*
X173620619Y-88504852D01*
X173620615Y-88504848D01*
X173453414Y-88372800D01*
X173453410Y-88372798D01*
X173449359Y-88369598D01*
X173253789Y-88261638D01*
X173248920Y-88259914D01*
X173248916Y-88259912D01*
X173048087Y-88188795D01*
X173048083Y-88188794D01*
X173043212Y-88187069D01*
X173038119Y-88186162D01*
X173038116Y-88186161D01*
X172828373Y-88148800D01*
X172828367Y-88148799D01*
X172823284Y-88147894D01*
X172749452Y-88146992D01*
X172605081Y-88145228D01*
X172605079Y-88145228D01*
X172599911Y-88145165D01*
X172379091Y-88178955D01*
X172166756Y-88248357D01*
X171968607Y-88351507D01*
X171964474Y-88354610D01*
X171964471Y-88354612D01*
X171914659Y-88392012D01*
X171789965Y-88485635D01*
X171635629Y-88647138D01*
X171632715Y-88651410D01*
X171632714Y-88651411D01*
X171537149Y-88791504D01*
X171482238Y-88836507D01*
X171433061Y-88846500D01*
X167235853Y-88846500D01*
X167167732Y-88826498D01*
X167121239Y-88772842D01*
X167111135Y-88702568D01*
X167128421Y-88654664D01*
X167155208Y-88610952D01*
X167159687Y-88602163D01*
X167246734Y-88392012D01*
X167249783Y-88382627D01*
X167302885Y-88161446D01*
X167304428Y-88151699D01*
X167322275Y-87924930D01*
X167322275Y-87915070D01*
X167304428Y-87688301D01*
X167302885Y-87678554D01*
X167249783Y-87457373D01*
X167246734Y-87447988D01*
X167159687Y-87237837D01*
X167155205Y-87229042D01*
X167052568Y-87061555D01*
X167042110Y-87052093D01*
X167033334Y-87055876D01*
X165899095Y-88190115D01*
X165836783Y-88224141D01*
X165765968Y-88219076D01*
X165720905Y-88190115D01*
X164589710Y-87058920D01*
X164577330Y-87052160D01*
X164569680Y-87057887D01*
X164464795Y-87229042D01*
X164460313Y-87237837D01*
X164373266Y-87447988D01*
X164370217Y-87457373D01*
X164317115Y-87678554D01*
X164315572Y-87688301D01*
X164297725Y-87915070D01*
X164297725Y-87924930D01*
X164315572Y-88151699D01*
X164317115Y-88161446D01*
X164370217Y-88382627D01*
X164373266Y-88392012D01*
X164460313Y-88602163D01*
X164464792Y-88610952D01*
X164491579Y-88654664D01*
X164510118Y-88723198D01*
X164488662Y-88790875D01*
X164434023Y-88836208D01*
X164384147Y-88846500D01*
X160735853Y-88846500D01*
X160667732Y-88826498D01*
X160621239Y-88772842D01*
X160611135Y-88702568D01*
X160628421Y-88654664D01*
X160655208Y-88610952D01*
X160659687Y-88602163D01*
X160746734Y-88392012D01*
X160749783Y-88382627D01*
X160802885Y-88161446D01*
X160804428Y-88151699D01*
X160822275Y-87924930D01*
X160822275Y-87915070D01*
X160804428Y-87688301D01*
X160802885Y-87678554D01*
X160749783Y-87457373D01*
X160746734Y-87447988D01*
X160659687Y-87237837D01*
X160655205Y-87229042D01*
X160552568Y-87061555D01*
X160542110Y-87052093D01*
X160533334Y-87055876D01*
X159399095Y-88190115D01*
X159336783Y-88224141D01*
X159265968Y-88219076D01*
X159220905Y-88190115D01*
X158089710Y-87058920D01*
X158077330Y-87052160D01*
X158069680Y-87057887D01*
X157964795Y-87229042D01*
X157960313Y-87237837D01*
X157873266Y-87447988D01*
X157870217Y-87457373D01*
X157817115Y-87678554D01*
X157815572Y-87688301D01*
X157797725Y-87915070D01*
X157797725Y-87924930D01*
X157815572Y-88151699D01*
X157817115Y-88161446D01*
X157870217Y-88382627D01*
X157873266Y-88392012D01*
X157917517Y-88498842D01*
X157925106Y-88569431D01*
X157893327Y-88632918D01*
X157832269Y-88669146D01*
X157763962Y-88666951D01*
X157762288Y-88666206D01*
X157755841Y-88664836D01*
X157755839Y-88664835D01*
X157581944Y-88627872D01*
X157581939Y-88627872D01*
X157575487Y-88626500D01*
X157384513Y-88626500D01*
X157378061Y-88627872D01*
X157378056Y-88627872D01*
X157305000Y-88643401D01*
X157197712Y-88666206D01*
X157191682Y-88668891D01*
X157191681Y-88668891D01*
X157029278Y-88741197D01*
X157029276Y-88741198D01*
X157023248Y-88743882D01*
X156868747Y-88856134D01*
X156740960Y-88998056D01*
X156645473Y-89163444D01*
X156586458Y-89345072D01*
X156585768Y-89351633D01*
X156585768Y-89351635D01*
X156572598Y-89476944D01*
X156566496Y-89535000D01*
X156586458Y-89724928D01*
X156645473Y-89906556D01*
X156706036Y-90011453D01*
X156712756Y-90023093D01*
X156729494Y-90092088D01*
X156706274Y-90159180D01*
X156650467Y-90203067D01*
X156640058Y-90206471D01*
X156634936Y-90207118D01*
X156627566Y-90210036D01*
X156591982Y-90224125D01*
X156580747Y-90227971D01*
X156544016Y-90238642D01*
X156544013Y-90238643D01*
X156536400Y-90240855D01*
X156517935Y-90251775D01*
X156500195Y-90260466D01*
X156480244Y-90268365D01*
X156442874Y-90295516D01*
X156432952Y-90302033D01*
X156400023Y-90321507D01*
X156400019Y-90321510D01*
X156393193Y-90325547D01*
X156378029Y-90340711D01*
X156362996Y-90353551D01*
X156345643Y-90366159D01*
X156327170Y-90388489D01*
X156316198Y-90401752D01*
X156308208Y-90410532D01*
X155589145Y-91129595D01*
X155526833Y-91163621D01*
X155500050Y-91166500D01*
X155479513Y-91166500D01*
X155473061Y-91167872D01*
X155473056Y-91167872D01*
X155386113Y-91186353D01*
X155292712Y-91206206D01*
X155286682Y-91208891D01*
X155286681Y-91208891D01*
X155124278Y-91281197D01*
X155124276Y-91281198D01*
X155118248Y-91283882D01*
X154963747Y-91396134D01*
X154835960Y-91538056D01*
X154740473Y-91703444D01*
X154681458Y-91885072D01*
X154680768Y-91891633D01*
X154680768Y-91891635D01*
X154667608Y-92016851D01*
X154661496Y-92075000D01*
X154662186Y-92081565D01*
X154678814Y-92239767D01*
X154681458Y-92264928D01*
X154740473Y-92446556D01*
X154769887Y-92497502D01*
X154786624Y-92566494D01*
X154763404Y-92633586D01*
X154707597Y-92677474D01*
X154660767Y-92686500D01*
X136607056Y-92686500D01*
X136595200Y-92685941D01*
X136595197Y-92685941D01*
X136587463Y-92684212D01*
X136532446Y-92685941D01*
X136516631Y-92686438D01*
X136512673Y-92686500D01*
X136483568Y-92686500D01*
X136479168Y-92687056D01*
X136467336Y-92687988D01*
X136421169Y-92689438D01*
X136400579Y-92695420D01*
X136381218Y-92699430D01*
X136374230Y-92700312D01*
X136367796Y-92701125D01*
X136367795Y-92701125D01*
X136359936Y-92702118D01*
X136352571Y-92705034D01*
X136352567Y-92705035D01*
X136316979Y-92719126D01*
X136305769Y-92722965D01*
X136261400Y-92735855D01*
X136242935Y-92746775D01*
X136225195Y-92755466D01*
X136205244Y-92763365D01*
X136167874Y-92790516D01*
X136157952Y-92797033D01*
X136125023Y-92816507D01*
X136125019Y-92816510D01*
X136118193Y-92820547D01*
X136103029Y-92835711D01*
X136087996Y-92848551D01*
X136070643Y-92861159D01*
X136052755Y-92882782D01*
X136041198Y-92896752D01*
X136033208Y-92905532D01*
X126114145Y-102824595D01*
X126051833Y-102858621D01*
X126025050Y-102861500D01*
X125720632Y-102861500D01*
X125652511Y-102841498D01*
X125614840Y-102803940D01*
X125542822Y-102692617D01*
X125542820Y-102692614D01*
X125540014Y-102688277D01*
X125389670Y-102523051D01*
X125385619Y-102519852D01*
X125385615Y-102519848D01*
X125218414Y-102387800D01*
X125218410Y-102387798D01*
X125214359Y-102384598D01*
X125173053Y-102361796D01*
X125123084Y-102311364D01*
X125108312Y-102241921D01*
X125133428Y-102175516D01*
X125160780Y-102148909D01*
X125213478Y-102111320D01*
X125339860Y-102021173D01*
X125352285Y-102008792D01*
X125426304Y-101935031D01*
X125498096Y-101863489D01*
X125557594Y-101780689D01*
X125625435Y-101686277D01*
X125628453Y-101682077D01*
X125638998Y-101660742D01*
X125725136Y-101486453D01*
X125725137Y-101486451D01*
X125727430Y-101481811D01*
X125792370Y-101268069D01*
X125821529Y-101046590D01*
X125821611Y-101043240D01*
X125823074Y-100983365D01*
X125823074Y-100983361D01*
X125823156Y-100980000D01*
X125804852Y-100757361D01*
X125750431Y-100540702D01*
X125661354Y-100335840D01*
X125608320Y-100253862D01*
X125542822Y-100152617D01*
X125542820Y-100152614D01*
X125540014Y-100148277D01*
X125536532Y-100144450D01*
X125392798Y-99986488D01*
X125361746Y-99922642D01*
X125370141Y-99852143D01*
X125415317Y-99797375D01*
X125441761Y-99783706D01*
X125548297Y-99743767D01*
X125556705Y-99740615D01*
X125673261Y-99653261D01*
X125760615Y-99536705D01*
X125811745Y-99400316D01*
X125818500Y-99338134D01*
X125818500Y-97541866D01*
X125811745Y-97479684D01*
X125760615Y-97343295D01*
X125673261Y-97226739D01*
X125556705Y-97139385D01*
X125420316Y-97088255D01*
X125358134Y-97081500D01*
X123561866Y-97081500D01*
X123499684Y-97088255D01*
X123363295Y-97139385D01*
X123246739Y-97226739D01*
X123159385Y-97343295D01*
X123108255Y-97479684D01*
X123101500Y-97541866D01*
X123101500Y-99338134D01*
X123108255Y-99400316D01*
X123159385Y-99536705D01*
X123246739Y-99653261D01*
X123363295Y-99740615D01*
X123371704Y-99743767D01*
X123371705Y-99743768D01*
X123480451Y-99784535D01*
X123537216Y-99827176D01*
X123561916Y-99893738D01*
X123546709Y-99963087D01*
X123527316Y-99989568D01*
X123410888Y-100111403D01*
X123400629Y-100122138D01*
X123397715Y-100126410D01*
X123397714Y-100126411D01*
X123345714Y-100202640D01*
X123274743Y-100306680D01*
X123241344Y-100378632D01*
X123189753Y-100489777D01*
X123180688Y-100509305D01*
X123120989Y-100724570D01*
X123097251Y-100946695D01*
X123097548Y-100951848D01*
X123097548Y-100951851D01*
X123104337Y-101069598D01*
X123110110Y-101169715D01*
X123111247Y-101174761D01*
X123111248Y-101174767D01*
X123125299Y-101237115D01*
X123159222Y-101387639D01*
X123207486Y-101506500D01*
X123227786Y-101556492D01*
X123243266Y-101594616D01*
X123283581Y-101660405D01*
X123354838Y-101776685D01*
X123359987Y-101785088D01*
X123506250Y-101953938D01*
X123678126Y-102096632D01*
X123739445Y-102132464D01*
X123751445Y-102139476D01*
X123800169Y-102191114D01*
X123813240Y-102260897D01*
X123786509Y-102326669D01*
X123746055Y-102360027D01*
X123733607Y-102366507D01*
X123729474Y-102369610D01*
X123729471Y-102369612D01*
X123565042Y-102493069D01*
X123554965Y-102500635D01*
X123551393Y-102504373D01*
X123407249Y-102655211D01*
X123400629Y-102662138D01*
X123397715Y-102666410D01*
X123397714Y-102666411D01*
X123363151Y-102717079D01*
X123274743Y-102846680D01*
X123236738Y-102928555D01*
X123192715Y-103023396D01*
X123180688Y-103049305D01*
X123120989Y-103264570D01*
X123097251Y-103486695D01*
X123097548Y-103491848D01*
X123097548Y-103491851D01*
X123104337Y-103609598D01*
X123110110Y-103709715D01*
X123111247Y-103714761D01*
X123111248Y-103714767D01*
X123119610Y-103751870D01*
X123159222Y-103927639D01*
X123204377Y-104038842D01*
X123236612Y-104118228D01*
X123243266Y-104134616D01*
X123287763Y-104207229D01*
X123345198Y-104300954D01*
X123359987Y-104325088D01*
X123506250Y-104493938D01*
X123678126Y-104636632D01*
X123733049Y-104668726D01*
X123751445Y-104679476D01*
X123800169Y-104731114D01*
X123813240Y-104800897D01*
X123786509Y-104866669D01*
X123746055Y-104900027D01*
X123733607Y-104906507D01*
X123729474Y-104909610D01*
X123729471Y-104909612D01*
X123565042Y-105033069D01*
X123554965Y-105040635D01*
X123512521Y-105085050D01*
X123407249Y-105195211D01*
X123400629Y-105202138D01*
X123397715Y-105206410D01*
X123397714Y-105206411D01*
X123340015Y-105290995D01*
X123274743Y-105386680D01*
X123241344Y-105458632D01*
X123192715Y-105563396D01*
X123180688Y-105589305D01*
X123120989Y-105804570D01*
X123097251Y-106026695D01*
X123097548Y-106031848D01*
X123097548Y-106031851D01*
X123104522Y-106152800D01*
X123110110Y-106249715D01*
X123111247Y-106254761D01*
X123111248Y-106254767D01*
X123119610Y-106291870D01*
X123159222Y-106467639D01*
X123211782Y-106597080D01*
X123240359Y-106667456D01*
X123243266Y-106674616D01*
X123283581Y-106740405D01*
X123345198Y-106840954D01*
X123359987Y-106865088D01*
X123506250Y-107033938D01*
X123678126Y-107176632D01*
X123733049Y-107208726D01*
X123751445Y-107219476D01*
X123800169Y-107271114D01*
X123813240Y-107340897D01*
X123786509Y-107406669D01*
X123746055Y-107440027D01*
X123733607Y-107446507D01*
X123729474Y-107449610D01*
X123729471Y-107449612D01*
X123565042Y-107573069D01*
X123554965Y-107580635D01*
X123512521Y-107625050D01*
X123407249Y-107735211D01*
X123400629Y-107742138D01*
X123397715Y-107746410D01*
X123397714Y-107746411D01*
X123343939Y-107825242D01*
X123274743Y-107926680D01*
X123235813Y-108010548D01*
X123188073Y-108113396D01*
X123180688Y-108129305D01*
X123120989Y-108344570D01*
X123097251Y-108566695D01*
X123097548Y-108571848D01*
X123097548Y-108571851D01*
X123104522Y-108692800D01*
X123110110Y-108789715D01*
X123111247Y-108794761D01*
X123111248Y-108794767D01*
X123127725Y-108867880D01*
X123159222Y-109007639D01*
X123211782Y-109137080D01*
X123240359Y-109207456D01*
X123243266Y-109214616D01*
X123283581Y-109280405D01*
X123350611Y-109389787D01*
X123359987Y-109405088D01*
X123506250Y-109573938D01*
X123678126Y-109716632D01*
X123725204Y-109744142D01*
X123751955Y-109759774D01*
X123800679Y-109811412D01*
X123813750Y-109881195D01*
X123787019Y-109946967D01*
X123746562Y-109980327D01*
X123738457Y-109984546D01*
X123729738Y-109990036D01*
X123559433Y-110117905D01*
X123551726Y-110124748D01*
X123404590Y-110278717D01*
X123398104Y-110286727D01*
X123278098Y-110462649D01*
X123273000Y-110471623D01*
X123183338Y-110664783D01*
X123179775Y-110674470D01*
X123124389Y-110874183D01*
X123125912Y-110882607D01*
X123138292Y-110886000D01*
X125778344Y-110886000D01*
X125791875Y-110882027D01*
X125793180Y-110872947D01*
X125751214Y-110705875D01*
X125747894Y-110696124D01*
X125662972Y-110500814D01*
X125658105Y-110491739D01*
X125542426Y-110312926D01*
X125536136Y-110304757D01*
X125392806Y-110147240D01*
X125385273Y-110140215D01*
X125218139Y-110008222D01*
X125209556Y-110002520D01*
X125172602Y-109982120D01*
X125122631Y-109931687D01*
X125107859Y-109862245D01*
X125132975Y-109795839D01*
X125160327Y-109769232D01*
X125195502Y-109744142D01*
X125339860Y-109641173D01*
X125352844Y-109628235D01*
X125421209Y-109560107D01*
X125498096Y-109483489D01*
X125501169Y-109479213D01*
X125514276Y-109460973D01*
X125570271Y-109417326D01*
X125616598Y-109408500D01*
X125992918Y-109408500D01*
X126061039Y-109428502D01*
X126082013Y-109445405D01*
X132504595Y-115867986D01*
X132538621Y-115930298D01*
X132541500Y-115957081D01*
X132541500Y-116144514D01*
X132521498Y-116212635D01*
X132491154Y-116245273D01*
X132475899Y-116256727D01*
X132403283Y-116311249D01*
X132376680Y-116331223D01*
X132373108Y-116334961D01*
X132245400Y-116468600D01*
X132210699Y-116504912D01*
X132185465Y-116541903D01*
X132130556Y-116586904D01*
X132060032Y-116595075D01*
X131996284Y-116563821D01*
X131975589Y-116539340D01*
X131974311Y-116537365D01*
X131971502Y-116533023D01*
X131809814Y-116355330D01*
X131684961Y-116256727D01*
X131625330Y-116209633D01*
X131625325Y-116209630D01*
X131621276Y-116206432D01*
X131616760Y-116203939D01*
X131616757Y-116203937D01*
X131415474Y-116092823D01*
X131415470Y-116092821D01*
X131410950Y-116090326D01*
X131406081Y-116088602D01*
X131406077Y-116088600D01*
X131189360Y-116011856D01*
X131189356Y-116011855D01*
X131184485Y-116010130D01*
X131179392Y-116009223D01*
X131179389Y-116009222D01*
X130953052Y-115968905D01*
X130953046Y-115968904D01*
X130947963Y-115967999D01*
X130859075Y-115966913D01*
X130712907Y-115965127D01*
X130712905Y-115965127D01*
X130707737Y-115965064D01*
X130470256Y-116001404D01*
X130395313Y-116025899D01*
X130246817Y-116074434D01*
X130246811Y-116074437D01*
X130241899Y-116076042D01*
X130237313Y-116078429D01*
X130237309Y-116078431D01*
X130114164Y-116142537D01*
X130028800Y-116186975D01*
X130018112Y-116195000D01*
X129863283Y-116311249D01*
X129836680Y-116331223D01*
X129833108Y-116334961D01*
X129705400Y-116468600D01*
X129670699Y-116504912D01*
X129667790Y-116509177D01*
X129667784Y-116509185D01*
X129597987Y-116611504D01*
X129543076Y-116656507D01*
X129493899Y-116666500D01*
X126102082Y-116666500D01*
X126033961Y-116646498D01*
X126012987Y-116629595D01*
X125847836Y-116464444D01*
X125813810Y-116402132D01*
X125812009Y-116358903D01*
X125821092Y-116289911D01*
X125821092Y-116289907D01*
X125821529Y-116286590D01*
X125821797Y-116275626D01*
X125823074Y-116223365D01*
X125823074Y-116223361D01*
X125823156Y-116220000D01*
X125804852Y-115997361D01*
X125750431Y-115780702D01*
X125661354Y-115575840D01*
X125604385Y-115487779D01*
X125542822Y-115392617D01*
X125542820Y-115392614D01*
X125540014Y-115388277D01*
X125389670Y-115223051D01*
X125385619Y-115219852D01*
X125385615Y-115219848D01*
X125218414Y-115087800D01*
X125218410Y-115087798D01*
X125214359Y-115084598D01*
X125172569Y-115061529D01*
X125122598Y-115011097D01*
X125107826Y-114941654D01*
X125132942Y-114875248D01*
X125160294Y-114848641D01*
X125335328Y-114723792D01*
X125343200Y-114717139D01*
X125494052Y-114566812D01*
X125500730Y-114558965D01*
X125625003Y-114386020D01*
X125630313Y-114377183D01*
X125724670Y-114186267D01*
X125728469Y-114176672D01*
X125790377Y-113972910D01*
X125792555Y-113962837D01*
X125793986Y-113951962D01*
X125791775Y-113937778D01*
X125778617Y-113934000D01*
X123143225Y-113934000D01*
X123129694Y-113937973D01*
X123128257Y-113947966D01*
X123158565Y-114082446D01*
X123161645Y-114092275D01*
X123241770Y-114289603D01*
X123246413Y-114298794D01*
X123357694Y-114480388D01*
X123363777Y-114488699D01*
X123503213Y-114649667D01*
X123510580Y-114656883D01*
X123674434Y-114792916D01*
X123682881Y-114798831D01*
X123751969Y-114839203D01*
X123800693Y-114890842D01*
X123813764Y-114960625D01*
X123787033Y-115026396D01*
X123746584Y-115059752D01*
X123733607Y-115066507D01*
X123729474Y-115069610D01*
X123729471Y-115069612D01*
X123559100Y-115197530D01*
X123554965Y-115200635D01*
X123536605Y-115219848D01*
X123407249Y-115355211D01*
X123400629Y-115362138D01*
X123397715Y-115366410D01*
X123397714Y-115366411D01*
X123329619Y-115466235D01*
X123274743Y-115546680D01*
X123260232Y-115577941D01*
X123183837Y-115742522D01*
X123180688Y-115749305D01*
X123120989Y-115964570D01*
X123097251Y-116186695D01*
X123097548Y-116191848D01*
X123097548Y-116191851D01*
X123106597Y-116348784D01*
X123110110Y-116409715D01*
X123111247Y-116414761D01*
X123111248Y-116414767D01*
X123114321Y-116428402D01*
X123159222Y-116627639D01*
X123243266Y-116834616D01*
X123245965Y-116839020D01*
X123354167Y-117015590D01*
X123359987Y-117025088D01*
X123506250Y-117193938D01*
X123678126Y-117336632D01*
X123871000Y-117449338D01*
X123875825Y-117451180D01*
X123875826Y-117451181D01*
X123913046Y-117465394D01*
X124079692Y-117529030D01*
X124084760Y-117530061D01*
X124084763Y-117530062D01*
X124151084Y-117543555D01*
X124298597Y-117573567D01*
X124303772Y-117573757D01*
X124303774Y-117573757D01*
X124516673Y-117581564D01*
X124516677Y-117581564D01*
X124521837Y-117581753D01*
X124599227Y-117571839D01*
X124669336Y-117583023D01*
X124704331Y-117607723D01*
X125136766Y-118040158D01*
X125137694Y-118041095D01*
X125181512Y-118085840D01*
X125200771Y-118105507D01*
X125237221Y-118128998D01*
X125247546Y-118136417D01*
X125281443Y-118163476D01*
X125287784Y-118166541D01*
X125287785Y-118166542D01*
X125311637Y-118178072D01*
X125325054Y-118185601D01*
X125353238Y-118203765D01*
X125359855Y-118206173D01*
X125359860Y-118206176D01*
X125393973Y-118218592D01*
X125405716Y-118223553D01*
X125438403Y-118239354D01*
X125438408Y-118239356D01*
X125444749Y-118242421D01*
X125451607Y-118244004D01*
X125451609Y-118244005D01*
X125477426Y-118249965D01*
X125492169Y-118254332D01*
X125523685Y-118265803D01*
X125530675Y-118266686D01*
X125530683Y-118266688D01*
X125566701Y-118271238D01*
X125579253Y-118273474D01*
X125614614Y-118281638D01*
X125614617Y-118281638D01*
X125621485Y-118283224D01*
X125628531Y-118283249D01*
X125628534Y-118283249D01*
X125662056Y-118283366D01*
X125662938Y-118283395D01*
X125663769Y-118283500D01*
X125700419Y-118283500D01*
X125700859Y-118283501D01*
X125799343Y-118283845D01*
X125799348Y-118283845D01*
X125802870Y-118283857D01*
X125804070Y-118283589D01*
X125805707Y-118283500D01*
X129493593Y-118283500D01*
X129561714Y-118303502D01*
X129599385Y-118341060D01*
X129645245Y-118411948D01*
X129648498Y-118416977D01*
X129810186Y-118594670D01*
X129885823Y-118654404D01*
X129994670Y-118740367D01*
X129994675Y-118740370D01*
X129998724Y-118743568D01*
X130003240Y-118746061D01*
X130003243Y-118746063D01*
X130204526Y-118857177D01*
X130204530Y-118857179D01*
X130209050Y-118859674D01*
X130213919Y-118861398D01*
X130213923Y-118861400D01*
X130430640Y-118938144D01*
X130430644Y-118938145D01*
X130435515Y-118939870D01*
X130440608Y-118940777D01*
X130440611Y-118940778D01*
X130666948Y-118981095D01*
X130666954Y-118981096D01*
X130672037Y-118982001D01*
X130753804Y-118983000D01*
X130907093Y-118984873D01*
X130907095Y-118984873D01*
X130912263Y-118984936D01*
X131149744Y-118948596D01*
X131261997Y-118911906D01*
X131373183Y-118875566D01*
X131373189Y-118875563D01*
X131378101Y-118873958D01*
X131382687Y-118871571D01*
X131382691Y-118871569D01*
X131586607Y-118765416D01*
X131591200Y-118763025D01*
X131725646Y-118662080D01*
X131779185Y-118621882D01*
X131779188Y-118621880D01*
X131783320Y-118618777D01*
X131916218Y-118479707D01*
X131945730Y-118448825D01*
X131945731Y-118448824D01*
X131949301Y-118445088D01*
X131974535Y-118408097D01*
X132029444Y-118363096D01*
X132099968Y-118354925D01*
X132163716Y-118386179D01*
X132184411Y-118410660D01*
X132185689Y-118412635D01*
X132188498Y-118416977D01*
X132350186Y-118594670D01*
X132425823Y-118654404D01*
X132534670Y-118740367D01*
X132534675Y-118740370D01*
X132538724Y-118743568D01*
X132543240Y-118746061D01*
X132543243Y-118746063D01*
X132744526Y-118857177D01*
X132744530Y-118857179D01*
X132749050Y-118859674D01*
X132753919Y-118861398D01*
X132753923Y-118861400D01*
X132970640Y-118938144D01*
X132970644Y-118938145D01*
X132975515Y-118939870D01*
X132980608Y-118940777D01*
X132980611Y-118940778D01*
X133206948Y-118981095D01*
X133206954Y-118981096D01*
X133212037Y-118982001D01*
X133293804Y-118983000D01*
X133447093Y-118984873D01*
X133447095Y-118984873D01*
X133452263Y-118984936D01*
X133689744Y-118948596D01*
X133801997Y-118911906D01*
X133913183Y-118875566D01*
X133913189Y-118875563D01*
X133918101Y-118873958D01*
X133922687Y-118871571D01*
X133922691Y-118871569D01*
X134126607Y-118765416D01*
X134131200Y-118763025D01*
X134286700Y-118646272D01*
X134353182Y-118621367D01*
X134422578Y-118636359D01*
X134472852Y-118686489D01*
X134480333Y-118702803D01*
X134484176Y-118713054D01*
X134492714Y-118728649D01*
X134569215Y-118830724D01*
X134581776Y-118843285D01*
X134683851Y-118919786D01*
X134699446Y-118928324D01*
X134819894Y-118973478D01*
X134835149Y-118977105D01*
X134886014Y-118982631D01*
X134892828Y-118983000D01*
X135617885Y-118983000D01*
X135633124Y-118978525D01*
X135634329Y-118977135D01*
X135636000Y-118969452D01*
X135636000Y-118964884D01*
X136144000Y-118964884D01*
X136148475Y-118980123D01*
X136149865Y-118981328D01*
X136157548Y-118982999D01*
X136887169Y-118982999D01*
X136893990Y-118982629D01*
X136944852Y-118977105D01*
X136960104Y-118973479D01*
X137080554Y-118928324D01*
X137096149Y-118919786D01*
X137198224Y-118843285D01*
X137210785Y-118830724D01*
X137287286Y-118728649D01*
X137295824Y-118713054D01*
X137340978Y-118592606D01*
X137344605Y-118577351D01*
X137350131Y-118526486D01*
X137350500Y-118519672D01*
X137350500Y-117747115D01*
X137346025Y-117731876D01*
X137344635Y-117730671D01*
X137336952Y-117729000D01*
X136162115Y-117729000D01*
X136146876Y-117733475D01*
X136145671Y-117734865D01*
X136144000Y-117742548D01*
X136144000Y-118964884D01*
X135636000Y-118964884D01*
X135636000Y-117202885D01*
X136144000Y-117202885D01*
X136148475Y-117218124D01*
X136149865Y-117219329D01*
X136157548Y-117221000D01*
X137332384Y-117221000D01*
X137347623Y-117216525D01*
X137348828Y-117215135D01*
X137350499Y-117207452D01*
X137350499Y-116430331D01*
X137350129Y-116423510D01*
X137344605Y-116372648D01*
X137340979Y-116357396D01*
X137295824Y-116236946D01*
X137287286Y-116221351D01*
X137210785Y-116119276D01*
X137198224Y-116106715D01*
X137096149Y-116030214D01*
X137080554Y-116021676D01*
X136960106Y-115976522D01*
X136944851Y-115972895D01*
X136893986Y-115967369D01*
X136887172Y-115967000D01*
X136162115Y-115967000D01*
X136146876Y-115971475D01*
X136145671Y-115972865D01*
X136144000Y-115980548D01*
X136144000Y-117202885D01*
X135636000Y-117202885D01*
X135636000Y-115985116D01*
X135631525Y-115969877D01*
X135630135Y-115968672D01*
X135622452Y-115967001D01*
X134892831Y-115967001D01*
X134886010Y-115967371D01*
X134835148Y-115972895D01*
X134819896Y-115976521D01*
X134699446Y-116021676D01*
X134683851Y-116030214D01*
X134581776Y-116106715D01*
X134569215Y-116119276D01*
X134492714Y-116221351D01*
X134484176Y-116236945D01*
X134479840Y-116248513D01*
X134437199Y-116305279D01*
X134370638Y-116329980D01*
X134301289Y-116314774D01*
X134283765Y-116303168D01*
X134281204Y-116301145D01*
X134206408Y-116242075D01*
X134165345Y-116184158D01*
X134158500Y-116143193D01*
X134158500Y-115579260D01*
X134158507Y-115577941D01*
X134158894Y-115541014D01*
X134159451Y-115487779D01*
X134150289Y-115445403D01*
X134148230Y-115432832D01*
X134146305Y-115415665D01*
X134143397Y-115389745D01*
X134135272Y-115366411D01*
X134132367Y-115358070D01*
X134128204Y-115343258D01*
X134122609Y-115317381D01*
X134121119Y-115310490D01*
X134102793Y-115271189D01*
X134098008Y-115259406D01*
X134083745Y-115218448D01*
X134065979Y-115190016D01*
X134058640Y-115176499D01*
X134047440Y-115152481D01*
X134047438Y-115152477D01*
X134044463Y-115146098D01*
X134029735Y-115127110D01*
X134017891Y-115111840D01*
X134010597Y-115101385D01*
X133991359Y-115070598D01*
X133987626Y-115064624D01*
X133959024Y-115035821D01*
X133958439Y-115035196D01*
X133957922Y-115034530D01*
X133931932Y-115008540D01*
X133859815Y-114935918D01*
X133858778Y-114935260D01*
X133857549Y-114934157D01*
X130291987Y-111368595D01*
X130257961Y-111306283D01*
X130263026Y-111235468D01*
X130305573Y-111178632D01*
X130372093Y-111153821D01*
X130381082Y-111153500D01*
X131033134Y-111153500D01*
X131095316Y-111146745D01*
X131231705Y-111095615D01*
X131348261Y-111008261D01*
X131435615Y-110891705D01*
X131486745Y-110755316D01*
X131487917Y-110744526D01*
X131488803Y-110742394D01*
X131489425Y-110739778D01*
X131489848Y-110739879D01*
X131515155Y-110678965D01*
X131573517Y-110638537D01*
X131644471Y-110636078D01*
X131705490Y-110672371D01*
X131712489Y-110681031D01*
X131715643Y-110684789D01*
X131718802Y-110689300D01*
X131880700Y-110851198D01*
X131885208Y-110854355D01*
X131885211Y-110854357D01*
X131926542Y-110883297D01*
X132068251Y-110982523D01*
X132073233Y-110984846D01*
X132073238Y-110984849D01*
X132243943Y-111064449D01*
X132275757Y-111079284D01*
X132281065Y-111080706D01*
X132281067Y-111080707D01*
X132491598Y-111137119D01*
X132491600Y-111137119D01*
X132496913Y-111138543D01*
X132725000Y-111158498D01*
X132953087Y-111138543D01*
X132958400Y-111137119D01*
X132958402Y-111137119D01*
X133168933Y-111080707D01*
X133168935Y-111080706D01*
X133174243Y-111079284D01*
X133206057Y-111064449D01*
X133376762Y-110984849D01*
X133376767Y-110984846D01*
X133381749Y-110982523D01*
X133523458Y-110883297D01*
X133564789Y-110854357D01*
X133564792Y-110854355D01*
X133569300Y-110851198D01*
X133731198Y-110689300D01*
X133736544Y-110681666D01*
X133848036Y-110522438D01*
X133862523Y-110501749D01*
X133864846Y-110496767D01*
X133864849Y-110496762D01*
X133880805Y-110462543D01*
X133927722Y-110409258D01*
X133995999Y-110389797D01*
X134063959Y-110410339D01*
X134109195Y-110462543D01*
X134125151Y-110496762D01*
X134125154Y-110496767D01*
X134127477Y-110501749D01*
X134141964Y-110522438D01*
X134253457Y-110681666D01*
X134258802Y-110689300D01*
X134420700Y-110851198D01*
X134425208Y-110854355D01*
X134425211Y-110854357D01*
X134466542Y-110883297D01*
X134608251Y-110982523D01*
X134613233Y-110984846D01*
X134613238Y-110984849D01*
X134783943Y-111064449D01*
X134815757Y-111079284D01*
X134821065Y-111080706D01*
X134821067Y-111080707D01*
X135031598Y-111137119D01*
X135031600Y-111137119D01*
X135036913Y-111138543D01*
X135265000Y-111158498D01*
X135493087Y-111138543D01*
X135498400Y-111137119D01*
X135498402Y-111137119D01*
X135707889Y-111080987D01*
X135778865Y-111082677D01*
X135837661Y-111122471D01*
X135865609Y-111187735D01*
X135866500Y-111202694D01*
X135866500Y-111677944D01*
X135865941Y-111689800D01*
X135864212Y-111697537D01*
X135864461Y-111705459D01*
X135866438Y-111768369D01*
X135866500Y-111772327D01*
X135866500Y-111801432D01*
X135867056Y-111805832D01*
X135867988Y-111817664D01*
X135869438Y-111863831D01*
X135871650Y-111871444D01*
X135871650Y-111871445D01*
X135875419Y-111884416D01*
X135879430Y-111903782D01*
X135882118Y-111925064D01*
X135885034Y-111932429D01*
X135885035Y-111932433D01*
X135899126Y-111968021D01*
X135902965Y-111979231D01*
X135915855Y-112023600D01*
X135926775Y-112042065D01*
X135935466Y-112059805D01*
X135943365Y-112079756D01*
X135965097Y-112109667D01*
X135970516Y-112117126D01*
X135977033Y-112127048D01*
X135996507Y-112159977D01*
X135996510Y-112159981D01*
X136000547Y-112166807D01*
X136015711Y-112181971D01*
X136028551Y-112197004D01*
X136041159Y-112214357D01*
X136076752Y-112243802D01*
X136085532Y-112251792D01*
X142183376Y-118349636D01*
X142217402Y-118411948D01*
X142215988Y-118471341D01*
X142208515Y-118499234D01*
X142206457Y-118506913D01*
X142186502Y-118735000D01*
X142206457Y-118963087D01*
X142207881Y-118968400D01*
X142207881Y-118968402D01*
X142218750Y-119008963D01*
X142265716Y-119184243D01*
X142268039Y-119189224D01*
X142268039Y-119189225D01*
X142360151Y-119386762D01*
X142360154Y-119386767D01*
X142362477Y-119391749D01*
X142493802Y-119579300D01*
X142655700Y-119741198D01*
X142660208Y-119744355D01*
X142660211Y-119744357D01*
X142702790Y-119774171D01*
X142843251Y-119872523D01*
X142848233Y-119874846D01*
X142848238Y-119874849D01*
X142883049Y-119891081D01*
X142936334Y-119937998D01*
X142955795Y-120006275D01*
X142935253Y-120074235D01*
X142883049Y-120119471D01*
X142848489Y-120135586D01*
X142838993Y-120141069D01*
X142660533Y-120266028D01*
X142652125Y-120273084D01*
X142498084Y-120427125D01*
X142491028Y-120435533D01*
X142366069Y-120613993D01*
X142360586Y-120623489D01*
X142268510Y-120820947D01*
X142264764Y-120831239D01*
X142218606Y-121003503D01*
X142218942Y-121017599D01*
X142226884Y-121021000D01*
X144767967Y-121021000D01*
X144781498Y-121017027D01*
X144782727Y-121008478D01*
X144735236Y-120831239D01*
X144731490Y-120820947D01*
X144639414Y-120623489D01*
X144633931Y-120613993D01*
X144508972Y-120435533D01*
X144501916Y-120427125D01*
X144347875Y-120273084D01*
X144339467Y-120266028D01*
X144161007Y-120141069D01*
X144151511Y-120135586D01*
X144116951Y-120119471D01*
X144063666Y-120072554D01*
X144044205Y-120004277D01*
X144064747Y-119936317D01*
X144116951Y-119891081D01*
X144151762Y-119874849D01*
X144151767Y-119874846D01*
X144156749Y-119872523D01*
X144297210Y-119774171D01*
X144339789Y-119744357D01*
X144339792Y-119744355D01*
X144344300Y-119741198D01*
X144506198Y-119579300D01*
X144637523Y-119391749D01*
X144639846Y-119386767D01*
X144639849Y-119386762D01*
X144731961Y-119189225D01*
X144731961Y-119189224D01*
X144734284Y-119184243D01*
X144781251Y-119008963D01*
X144792119Y-118968402D01*
X144792119Y-118968400D01*
X144793543Y-118963087D01*
X144813498Y-118735000D01*
X144793543Y-118506913D01*
X144792118Y-118501595D01*
X144735707Y-118291067D01*
X144735706Y-118291065D01*
X144734284Y-118285757D01*
X144731961Y-118280775D01*
X144639849Y-118083238D01*
X144639846Y-118083233D01*
X144637523Y-118078251D01*
X144564098Y-117973389D01*
X144509357Y-117895211D01*
X144509355Y-117895208D01*
X144506198Y-117890700D01*
X144344300Y-117728802D01*
X144339792Y-117725645D01*
X144339789Y-117725643D01*
X144213272Y-117637055D01*
X144156749Y-117597477D01*
X144151767Y-117595154D01*
X144151762Y-117595151D01*
X144117543Y-117579195D01*
X144064258Y-117532278D01*
X144044797Y-117464001D01*
X144065339Y-117396041D01*
X144117543Y-117350805D01*
X144151762Y-117334849D01*
X144151767Y-117334846D01*
X144156749Y-117332523D01*
X144316020Y-117221000D01*
X144339789Y-117204357D01*
X144339792Y-117204355D01*
X144344300Y-117201198D01*
X144505093Y-117040405D01*
X144567405Y-117006379D01*
X144594188Y-117003500D01*
X145652918Y-117003500D01*
X145721039Y-117023502D01*
X145742013Y-117040405D01*
X149005105Y-120303497D01*
X149039131Y-120365809D01*
X149034066Y-120436624D01*
X148991519Y-120493460D01*
X148969263Y-120506785D01*
X148936194Y-120522205D01*
X148924411Y-120526990D01*
X148883448Y-120541255D01*
X148877473Y-120544989D01*
X148877470Y-120544990D01*
X148855005Y-120559027D01*
X148841488Y-120566366D01*
X148817486Y-120577559D01*
X148811098Y-120580538D01*
X148805533Y-120584855D01*
X148805531Y-120584856D01*
X148776847Y-120607106D01*
X148766388Y-120614402D01*
X148735596Y-120633642D01*
X148735593Y-120633644D01*
X148729624Y-120637374D01*
X148724629Y-120642334D01*
X148724628Y-120642335D01*
X148700821Y-120665976D01*
X148700196Y-120666561D01*
X148699530Y-120667078D01*
X148673540Y-120693068D01*
X148600918Y-120765185D01*
X148600260Y-120766222D01*
X148599157Y-120767451D01*
X148024842Y-121341766D01*
X148023905Y-121342694D01*
X147959493Y-121405771D01*
X147936002Y-121442221D01*
X147928583Y-121452546D01*
X147901524Y-121486443D01*
X147898459Y-121492784D01*
X147898458Y-121492785D01*
X147886928Y-121516637D01*
X147879399Y-121530054D01*
X147861235Y-121558238D01*
X147858827Y-121564855D01*
X147858824Y-121564860D01*
X147846408Y-121598973D01*
X147841447Y-121610716D01*
X147825646Y-121643403D01*
X147825644Y-121643408D01*
X147822579Y-121649749D01*
X147820996Y-121656607D01*
X147820995Y-121656609D01*
X147815035Y-121682426D01*
X147810668Y-121697169D01*
X147799197Y-121728685D01*
X147798314Y-121735675D01*
X147798312Y-121735683D01*
X147793762Y-121771701D01*
X147791526Y-121784253D01*
X147781776Y-121826485D01*
X147781751Y-121833531D01*
X147781751Y-121833534D01*
X147781634Y-121867056D01*
X147781605Y-121867938D01*
X147781500Y-121868769D01*
X147781500Y-121905507D01*
X147781143Y-122007870D01*
X147781411Y-122009070D01*
X147781500Y-122010708D01*
X147781500Y-137785786D01*
X147781493Y-137787106D01*
X147780549Y-137877221D01*
X147789711Y-137919597D01*
X147791769Y-137932163D01*
X147796603Y-137975255D01*
X147798919Y-137981906D01*
X147798920Y-137981910D01*
X147807633Y-138006930D01*
X147811796Y-138021742D01*
X147818881Y-138054510D01*
X147837208Y-138093813D01*
X147841990Y-138105589D01*
X147856255Y-138146552D01*
X147859989Y-138152527D01*
X147859990Y-138152530D01*
X147874027Y-138174995D01*
X147881366Y-138188512D01*
X147889850Y-138206705D01*
X147895538Y-138218902D01*
X147899855Y-138224467D01*
X147899856Y-138224469D01*
X147922106Y-138253153D01*
X147929402Y-138263612D01*
X147952374Y-138300376D01*
X147957334Y-138305371D01*
X147957335Y-138305372D01*
X147980976Y-138329179D01*
X147981561Y-138329804D01*
X147982078Y-138330470D01*
X148008068Y-138356460D01*
X148080185Y-138429082D01*
X148081222Y-138429740D01*
X148082451Y-138430843D01*
X149263013Y-139611405D01*
X149297039Y-139673717D01*
X149291974Y-139744532D01*
X149249427Y-139801368D01*
X149182907Y-139826179D01*
X149173918Y-139826500D01*
X124509367Y-139826500D01*
X124489982Y-139825000D01*
X124475149Y-139822690D01*
X124475145Y-139822690D01*
X124466276Y-139821309D01*
X124457374Y-139822473D01*
X124457371Y-139822473D01*
X124449988Y-139823439D01*
X124425409Y-139824233D01*
X124380799Y-139821309D01*
X124203078Y-139809660D01*
X124186738Y-139807509D01*
X124032805Y-139776890D01*
X123942304Y-139758888D01*
X123926394Y-139754625D01*
X123690398Y-139674515D01*
X123675174Y-139668209D01*
X123451658Y-139557984D01*
X123437384Y-139549743D01*
X123230171Y-139411287D01*
X123217095Y-139401254D01*
X123029722Y-139236932D01*
X123018068Y-139225278D01*
X122853746Y-139037905D01*
X122843713Y-139024829D01*
X122705257Y-138817616D01*
X122697016Y-138803342D01*
X122586791Y-138579826D01*
X122580484Y-138564600D01*
X122578513Y-138558793D01*
X122500375Y-138328606D01*
X122496111Y-138312693D01*
X122447491Y-138068262D01*
X122445340Y-138051922D01*
X122431476Y-137840407D01*
X122432650Y-137817232D01*
X122432334Y-137817204D01*
X122432770Y-137812344D01*
X122433576Y-137807552D01*
X122433729Y-137795000D01*
X122429773Y-137767376D01*
X122428500Y-137749514D01*
X122428500Y-136491695D01*
X123097251Y-136491695D01*
X123097548Y-136496848D01*
X123097548Y-136496851D01*
X123098910Y-136520475D01*
X123110110Y-136714715D01*
X123111247Y-136719761D01*
X123111248Y-136719767D01*
X123135304Y-136826508D01*
X123159222Y-136932639D01*
X123243266Y-137139616D01*
X123359987Y-137330088D01*
X123506250Y-137498938D01*
X123678126Y-137641632D01*
X123871000Y-137754338D01*
X124079692Y-137834030D01*
X124084760Y-137835061D01*
X124084763Y-137835062D01*
X124192017Y-137856883D01*
X124298597Y-137878567D01*
X124303772Y-137878757D01*
X124303774Y-137878757D01*
X124516673Y-137886564D01*
X124516677Y-137886564D01*
X124521837Y-137886753D01*
X124526957Y-137886097D01*
X124526959Y-137886097D01*
X124738288Y-137859025D01*
X124738289Y-137859025D01*
X124743416Y-137858368D01*
X124803283Y-137840407D01*
X124952429Y-137795661D01*
X124952434Y-137795659D01*
X124957384Y-137794174D01*
X125157994Y-137695896D01*
X125339860Y-137566173D01*
X125381823Y-137524357D01*
X125481210Y-137425316D01*
X125498096Y-137408489D01*
X125530642Y-137363197D01*
X125628453Y-137227077D01*
X125630224Y-137228350D01*
X125675685Y-137186507D01*
X125731439Y-137173500D01*
X142298112Y-137173500D01*
X142366233Y-137193502D01*
X142401325Y-137227229D01*
X142476080Y-137333990D01*
X142493802Y-137359300D01*
X142655700Y-137521198D01*
X142660208Y-137524355D01*
X142660211Y-137524357D01*
X142719931Y-137566173D01*
X142843251Y-137652523D01*
X142848233Y-137654846D01*
X142848238Y-137654849D01*
X143042927Y-137745633D01*
X143050757Y-137749284D01*
X143056065Y-137750706D01*
X143056067Y-137750707D01*
X143266598Y-137807119D01*
X143266600Y-137807119D01*
X143271913Y-137808543D01*
X143500000Y-137828498D01*
X143728087Y-137808543D01*
X143733400Y-137807119D01*
X143733402Y-137807119D01*
X143943933Y-137750707D01*
X143943935Y-137750706D01*
X143949243Y-137749284D01*
X143957073Y-137745633D01*
X144151762Y-137654849D01*
X144151767Y-137654846D01*
X144156749Y-137652523D01*
X144280069Y-137566173D01*
X144339789Y-137524357D01*
X144339792Y-137524355D01*
X144344300Y-137521198D01*
X144506198Y-137359300D01*
X144523921Y-137333990D01*
X144634366Y-137176257D01*
X144637523Y-137171749D01*
X144639846Y-137166767D01*
X144639849Y-137166762D01*
X144731961Y-136969225D01*
X144731961Y-136969224D01*
X144734284Y-136964243D01*
X144742753Y-136932639D01*
X144792119Y-136748402D01*
X144792119Y-136748400D01*
X144793543Y-136743087D01*
X144813498Y-136515000D01*
X144793543Y-136286913D01*
X144792119Y-136281598D01*
X144735707Y-136071067D01*
X144735706Y-136071065D01*
X144734284Y-136065757D01*
X144726755Y-136049610D01*
X144639849Y-135863238D01*
X144639846Y-135863233D01*
X144637523Y-135858251D01*
X144506198Y-135670700D01*
X144344300Y-135508802D01*
X144339792Y-135505645D01*
X144339789Y-135505643D01*
X144207902Y-135413295D01*
X144156749Y-135377477D01*
X144151767Y-135375154D01*
X144151762Y-135375151D01*
X144117543Y-135359195D01*
X144064258Y-135312278D01*
X144044797Y-135244001D01*
X144065339Y-135176041D01*
X144117543Y-135130805D01*
X144151762Y-135114849D01*
X144151767Y-135114846D01*
X144156749Y-135112523D01*
X144280069Y-135026173D01*
X144339789Y-134984357D01*
X144339792Y-134984355D01*
X144344300Y-134981198D01*
X144506198Y-134819300D01*
X144523921Y-134793990D01*
X144615289Y-134663502D01*
X144637523Y-134631749D01*
X144639846Y-134626767D01*
X144639849Y-134626762D01*
X144731961Y-134429225D01*
X144731961Y-134429224D01*
X144734284Y-134424243D01*
X144742753Y-134392639D01*
X144792119Y-134208402D01*
X144792119Y-134208400D01*
X144793543Y-134203087D01*
X144813498Y-133975000D01*
X144793543Y-133746913D01*
X144792119Y-133741598D01*
X144735707Y-133531067D01*
X144735706Y-133531065D01*
X144734284Y-133525757D01*
X144641062Y-133325840D01*
X144639849Y-133323238D01*
X144639846Y-133323233D01*
X144637523Y-133318251D01*
X144519332Y-133149457D01*
X144509357Y-133135211D01*
X144509355Y-133135208D01*
X144506198Y-133130700D01*
X144344300Y-132968802D01*
X144339792Y-132965645D01*
X144339789Y-132965643D01*
X144178632Y-132852800D01*
X144156749Y-132837477D01*
X144151767Y-132835154D01*
X144151762Y-132835151D01*
X144117543Y-132819195D01*
X144064258Y-132772278D01*
X144044797Y-132704001D01*
X144065339Y-132636041D01*
X144117543Y-132590805D01*
X144151762Y-132574849D01*
X144151767Y-132574846D01*
X144156749Y-132572523D01*
X144280069Y-132486173D01*
X144339789Y-132444357D01*
X144339792Y-132444355D01*
X144344300Y-132441198D01*
X144506198Y-132279300D01*
X144523921Y-132253990D01*
X144634366Y-132096257D01*
X144637523Y-132091749D01*
X144639846Y-132086767D01*
X144639849Y-132086762D01*
X144731961Y-131889225D01*
X144731961Y-131889224D01*
X144734284Y-131884243D01*
X144742753Y-131852639D01*
X144792119Y-131668402D01*
X144792119Y-131668400D01*
X144793543Y-131663087D01*
X144813498Y-131435000D01*
X144793543Y-131206913D01*
X144792119Y-131201598D01*
X144735707Y-130991067D01*
X144735706Y-130991065D01*
X144734284Y-130985757D01*
X144641062Y-130785840D01*
X144639849Y-130783238D01*
X144639846Y-130783233D01*
X144637523Y-130778251D01*
X144519332Y-130609457D01*
X144509357Y-130595211D01*
X144509355Y-130595208D01*
X144506198Y-130590700D01*
X144344300Y-130428802D01*
X144339792Y-130425645D01*
X144339789Y-130425643D01*
X144178632Y-130312800D01*
X144156749Y-130297477D01*
X144151767Y-130295154D01*
X144151762Y-130295151D01*
X144117543Y-130279195D01*
X144064258Y-130232278D01*
X144044797Y-130164001D01*
X144065339Y-130096041D01*
X144117543Y-130050805D01*
X144151762Y-130034849D01*
X144151767Y-130034846D01*
X144156749Y-130032523D01*
X144280069Y-129946173D01*
X144339789Y-129904357D01*
X144339792Y-129904355D01*
X144344300Y-129901198D01*
X144506198Y-129739300D01*
X144523921Y-129713990D01*
X144609285Y-129592077D01*
X144637523Y-129551749D01*
X144639846Y-129546767D01*
X144639849Y-129546762D01*
X144731961Y-129349225D01*
X144731961Y-129349224D01*
X144734284Y-129344243D01*
X144742753Y-129312639D01*
X144792119Y-129128402D01*
X144792119Y-129128400D01*
X144793543Y-129123087D01*
X144813498Y-128895000D01*
X144793543Y-128666913D01*
X144792119Y-128661598D01*
X144735707Y-128451067D01*
X144735706Y-128451065D01*
X144734284Y-128445757D01*
X144714291Y-128402881D01*
X144639849Y-128243238D01*
X144639846Y-128243233D01*
X144637523Y-128238251D01*
X144519332Y-128069457D01*
X144509357Y-128055211D01*
X144509355Y-128055208D01*
X144506198Y-128050700D01*
X144344300Y-127888802D01*
X144339792Y-127885645D01*
X144339789Y-127885643D01*
X144178632Y-127772800D01*
X144156749Y-127757477D01*
X144151767Y-127755154D01*
X144151762Y-127755151D01*
X144117543Y-127739195D01*
X144064258Y-127692278D01*
X144044797Y-127624001D01*
X144065339Y-127556041D01*
X144117543Y-127510805D01*
X144151762Y-127494849D01*
X144151767Y-127494846D01*
X144156749Y-127492523D01*
X144280069Y-127406173D01*
X144339789Y-127364357D01*
X144339792Y-127364355D01*
X144344300Y-127361198D01*
X144506198Y-127199300D01*
X144523921Y-127173990D01*
X144609285Y-127052077D01*
X144637523Y-127011749D01*
X144639846Y-127006767D01*
X144639849Y-127006762D01*
X144731961Y-126809225D01*
X144731961Y-126809224D01*
X144734284Y-126804243D01*
X144742753Y-126772639D01*
X144792119Y-126588402D01*
X144792119Y-126588400D01*
X144793543Y-126583087D01*
X144813498Y-126355000D01*
X144793543Y-126126913D01*
X144792119Y-126121598D01*
X144735707Y-125911067D01*
X144735706Y-125911065D01*
X144734284Y-125905757D01*
X144714291Y-125862881D01*
X144639849Y-125703238D01*
X144639846Y-125703233D01*
X144637523Y-125698251D01*
X144519327Y-125529450D01*
X144509357Y-125515211D01*
X144509355Y-125515208D01*
X144506198Y-125510700D01*
X144344300Y-125348802D01*
X144339792Y-125345645D01*
X144339789Y-125345643D01*
X144261611Y-125290902D01*
X144156749Y-125217477D01*
X144151767Y-125215154D01*
X144151762Y-125215151D01*
X144117543Y-125199195D01*
X144064258Y-125152278D01*
X144044797Y-125084001D01*
X144065339Y-125016041D01*
X144117543Y-124970805D01*
X144151762Y-124954849D01*
X144151767Y-124954846D01*
X144156749Y-124952523D01*
X144297210Y-124854171D01*
X144339789Y-124824357D01*
X144339792Y-124824355D01*
X144344300Y-124821198D01*
X144506198Y-124659300D01*
X144534424Y-124618990D01*
X144609285Y-124512077D01*
X144637523Y-124471749D01*
X144639846Y-124466767D01*
X144639849Y-124466762D01*
X144731961Y-124269225D01*
X144731961Y-124269224D01*
X144734284Y-124264243D01*
X144793543Y-124043087D01*
X144813498Y-123815000D01*
X144793543Y-123586913D01*
X144755698Y-123445673D01*
X144735707Y-123371067D01*
X144735706Y-123371065D01*
X144734284Y-123365757D01*
X144714291Y-123322881D01*
X144639849Y-123163238D01*
X144639846Y-123163233D01*
X144637523Y-123158251D01*
X144549859Y-123033054D01*
X144509357Y-122975211D01*
X144509355Y-122975208D01*
X144506198Y-122970700D01*
X144344300Y-122808802D01*
X144339792Y-122805645D01*
X144339789Y-122805643D01*
X144229324Y-122728295D01*
X144156749Y-122677477D01*
X144151767Y-122675154D01*
X144151762Y-122675151D01*
X144116951Y-122658919D01*
X144063666Y-122612002D01*
X144044205Y-122543725D01*
X144064747Y-122475765D01*
X144116951Y-122430529D01*
X144151511Y-122414414D01*
X144161007Y-122408931D01*
X144339467Y-122283972D01*
X144347875Y-122276916D01*
X144501916Y-122122875D01*
X144508972Y-122114467D01*
X144633931Y-121936007D01*
X144639414Y-121926511D01*
X144731490Y-121729053D01*
X144735236Y-121718761D01*
X144781394Y-121546497D01*
X144781058Y-121532401D01*
X144773116Y-121529000D01*
X142232033Y-121529000D01*
X142218502Y-121532973D01*
X142217273Y-121541522D01*
X142264764Y-121718761D01*
X142268510Y-121729053D01*
X142360586Y-121926511D01*
X142366069Y-121936007D01*
X142491028Y-122114467D01*
X142498084Y-122122875D01*
X142652125Y-122276916D01*
X142660533Y-122283972D01*
X142838993Y-122408931D01*
X142848489Y-122414414D01*
X142883049Y-122430529D01*
X142936334Y-122477446D01*
X142955795Y-122545723D01*
X142935253Y-122613683D01*
X142883049Y-122658919D01*
X142848238Y-122675151D01*
X142848233Y-122675154D01*
X142843251Y-122677477D01*
X142770676Y-122728295D01*
X142660211Y-122805643D01*
X142660208Y-122805645D01*
X142655700Y-122808802D01*
X142493802Y-122970700D01*
X142490645Y-122975208D01*
X142490643Y-122975211D01*
X142482794Y-122986421D01*
X142394538Y-123112464D01*
X142394323Y-123112771D01*
X142338866Y-123157099D01*
X142291110Y-123166500D01*
X125944500Y-123166500D01*
X125876379Y-123146498D01*
X125829886Y-123092842D01*
X125818500Y-123040500D01*
X125818500Y-122926866D01*
X125811745Y-122864684D01*
X125760615Y-122728295D01*
X125673261Y-122611739D01*
X125556705Y-122524385D01*
X125420316Y-122473255D01*
X125358134Y-122466500D01*
X123561866Y-122466500D01*
X123499684Y-122473255D01*
X123363295Y-122524385D01*
X123246739Y-122611739D01*
X123159385Y-122728295D01*
X123108255Y-122864684D01*
X123101500Y-122926866D01*
X123101500Y-124723134D01*
X123108255Y-124785316D01*
X123159385Y-124921705D01*
X123246739Y-125038261D01*
X123363295Y-125125615D01*
X123371704Y-125128767D01*
X123371705Y-125128768D01*
X123480451Y-125169535D01*
X123537216Y-125212176D01*
X123561916Y-125278738D01*
X123546709Y-125348087D01*
X123527316Y-125374568D01*
X123418535Y-125488401D01*
X123400629Y-125507138D01*
X123274743Y-125691680D01*
X123241642Y-125762990D01*
X123185752Y-125883396D01*
X123180688Y-125894305D01*
X123120989Y-126109570D01*
X123097251Y-126331695D01*
X123097548Y-126336848D01*
X123097548Y-126336851D01*
X123098910Y-126360475D01*
X123110110Y-126554715D01*
X123111247Y-126559761D01*
X123111248Y-126559767D01*
X123127739Y-126632939D01*
X123159222Y-126772639D01*
X123209842Y-126897301D01*
X123238194Y-126967124D01*
X123243266Y-126979616D01*
X123264030Y-127013500D01*
X123348099Y-127150688D01*
X123359987Y-127170088D01*
X123506250Y-127338938D01*
X123678126Y-127481632D01*
X123728050Y-127510805D01*
X123751445Y-127524476D01*
X123800169Y-127576114D01*
X123813240Y-127645897D01*
X123786509Y-127711669D01*
X123746055Y-127745027D01*
X123733607Y-127751507D01*
X123729474Y-127754610D01*
X123729471Y-127754612D01*
X123559100Y-127882530D01*
X123554965Y-127885635D01*
X123547878Y-127893051D01*
X123418535Y-128028401D01*
X123400629Y-128047138D01*
X123274743Y-128231680D01*
X123241642Y-128302990D01*
X123185752Y-128423396D01*
X123180688Y-128434305D01*
X123120989Y-128649570D01*
X123097251Y-128871695D01*
X123097548Y-128876848D01*
X123097548Y-128876851D01*
X123098910Y-128900475D01*
X123110110Y-129094715D01*
X123111247Y-129099761D01*
X123111248Y-129099767D01*
X123127739Y-129172939D01*
X123159222Y-129312639D01*
X123243266Y-129519616D01*
X123273223Y-129568502D01*
X123348099Y-129690688D01*
X123359987Y-129710088D01*
X123506250Y-129878938D01*
X123678126Y-130021632D01*
X123728050Y-130050805D01*
X123751445Y-130064476D01*
X123800169Y-130116114D01*
X123813240Y-130185897D01*
X123786509Y-130251669D01*
X123746055Y-130285027D01*
X123733607Y-130291507D01*
X123729474Y-130294610D01*
X123729471Y-130294612D01*
X123559100Y-130422530D01*
X123554965Y-130425635D01*
X123547878Y-130433051D01*
X123418535Y-130568401D01*
X123400629Y-130587138D01*
X123274743Y-130771680D01*
X123180688Y-130974305D01*
X123120989Y-131189570D01*
X123097251Y-131411695D01*
X123097548Y-131416848D01*
X123097548Y-131416851D01*
X123098910Y-131440475D01*
X123110110Y-131634715D01*
X123111247Y-131639761D01*
X123111248Y-131639767D01*
X123127739Y-131712939D01*
X123159222Y-131852639D01*
X123209842Y-131977301D01*
X123238194Y-132047124D01*
X123243266Y-132059616D01*
X123264030Y-132093500D01*
X123348099Y-132230688D01*
X123359987Y-132250088D01*
X123506250Y-132418938D01*
X123678126Y-132561632D01*
X123728050Y-132590805D01*
X123751445Y-132604476D01*
X123800169Y-132656114D01*
X123813240Y-132725897D01*
X123786509Y-132791669D01*
X123746055Y-132825027D01*
X123733607Y-132831507D01*
X123729474Y-132834610D01*
X123729471Y-132834612D01*
X123559100Y-132962530D01*
X123554965Y-132965635D01*
X123547878Y-132973051D01*
X123418535Y-133108401D01*
X123400629Y-133127138D01*
X123274743Y-133311680D01*
X123227715Y-133412993D01*
X123185334Y-133504297D01*
X123180688Y-133514305D01*
X123120989Y-133729570D01*
X123097251Y-133951695D01*
X123097548Y-133956848D01*
X123097548Y-133956851D01*
X123098910Y-133980475D01*
X123110110Y-134174715D01*
X123111247Y-134179761D01*
X123111248Y-134179767D01*
X123127739Y-134252939D01*
X123159222Y-134392639D01*
X123243266Y-134599616D01*
X123359987Y-134790088D01*
X123506250Y-134958938D01*
X123678126Y-135101632D01*
X123713526Y-135122318D01*
X123751445Y-135144476D01*
X123800169Y-135196114D01*
X123813240Y-135265897D01*
X123786509Y-135331669D01*
X123746055Y-135365027D01*
X123733607Y-135371507D01*
X123729474Y-135374610D01*
X123729471Y-135374612D01*
X123559100Y-135502530D01*
X123554965Y-135505635D01*
X123400629Y-135667138D01*
X123274743Y-135851680D01*
X123227716Y-135952992D01*
X123193997Y-136025634D01*
X123180688Y-136054305D01*
X123120989Y-136269570D01*
X123097251Y-136491695D01*
X122428500Y-136491695D01*
X122428500Y-113414183D01*
X123124389Y-113414183D01*
X123125912Y-113422607D01*
X123138292Y-113426000D01*
X124187885Y-113426000D01*
X124203124Y-113421525D01*
X124204329Y-113420135D01*
X124206000Y-113412452D01*
X124206000Y-113407885D01*
X124714000Y-113407885D01*
X124718475Y-113423124D01*
X124719865Y-113424329D01*
X124727548Y-113426000D01*
X125778344Y-113426000D01*
X125791875Y-113422027D01*
X125793180Y-113412947D01*
X125751214Y-113245875D01*
X125747894Y-113236124D01*
X125662972Y-113040814D01*
X125658105Y-113031739D01*
X125542426Y-112852926D01*
X125536136Y-112844757D01*
X125392806Y-112687240D01*
X125385273Y-112680215D01*
X125218139Y-112548222D01*
X125209552Y-112542517D01*
X125172116Y-112521851D01*
X125122146Y-112471419D01*
X125107374Y-112401976D01*
X125132490Y-112335571D01*
X125159842Y-112308964D01*
X125335327Y-112183792D01*
X125343200Y-112177139D01*
X125494052Y-112026812D01*
X125500730Y-112018965D01*
X125625003Y-111846020D01*
X125630313Y-111837183D01*
X125724670Y-111646267D01*
X125728469Y-111636672D01*
X125790377Y-111432910D01*
X125792555Y-111422837D01*
X125793986Y-111411962D01*
X125791775Y-111397778D01*
X125778617Y-111394000D01*
X124732115Y-111394000D01*
X124716876Y-111398475D01*
X124715671Y-111399865D01*
X124714000Y-111407548D01*
X124714000Y-113407885D01*
X124206000Y-113407885D01*
X124206000Y-111412115D01*
X124201525Y-111396876D01*
X124200135Y-111395671D01*
X124192452Y-111394000D01*
X123143225Y-111394000D01*
X123129694Y-111397973D01*
X123128257Y-111407966D01*
X123158565Y-111542446D01*
X123161645Y-111552275D01*
X123241770Y-111749603D01*
X123246413Y-111758794D01*
X123357694Y-111940388D01*
X123363777Y-111948699D01*
X123503213Y-112109667D01*
X123510580Y-112116883D01*
X123674434Y-112252916D01*
X123682881Y-112258831D01*
X123752479Y-112299501D01*
X123801203Y-112351140D01*
X123814274Y-112420923D01*
X123787543Y-112486694D01*
X123747087Y-112520053D01*
X123738462Y-112524542D01*
X123729738Y-112530036D01*
X123559433Y-112657905D01*
X123551726Y-112664748D01*
X123404590Y-112818717D01*
X123398104Y-112826727D01*
X123278098Y-113002649D01*
X123273000Y-113011623D01*
X123183338Y-113204783D01*
X123179775Y-113214470D01*
X123124389Y-113414183D01*
X122428500Y-113414183D01*
X122428500Y-89797817D01*
X122448502Y-89729696D01*
X122465405Y-89708722D01*
X124633723Y-87540405D01*
X124696035Y-87506379D01*
X124722818Y-87503500D01*
X147883928Y-87503500D01*
X147896058Y-87504855D01*
X147896097Y-87504373D01*
X147905044Y-87505093D01*
X147913800Y-87507074D01*
X147967508Y-87503742D01*
X147975310Y-87503500D01*
X147991513Y-87503500D01*
X148000429Y-87502223D01*
X148001878Y-87502016D01*
X148011928Y-87500987D01*
X148050216Y-87498611D01*
X148059177Y-87498055D01*
X148067623Y-87495006D01*
X148070514Y-87494407D01*
X148087480Y-87490178D01*
X148090305Y-87489352D01*
X148099187Y-87488080D01*
X148142298Y-87468478D01*
X148151649Y-87464672D01*
X148187735Y-87451645D01*
X148196181Y-87448596D01*
X148203429Y-87443301D01*
X148206027Y-87441920D01*
X148221145Y-87433085D01*
X148223614Y-87431506D01*
X148231782Y-87427792D01*
X148267653Y-87396884D01*
X148275569Y-87390599D01*
X148282615Y-87385452D01*
X148282620Y-87385447D01*
X148286552Y-87382575D01*
X148297527Y-87371600D01*
X148304375Y-87365242D01*
X148335323Y-87338576D01*
X148335324Y-87338575D01*
X148342127Y-87332713D01*
X148347011Y-87325178D01*
X148352458Y-87318934D01*
X148362058Y-87307069D01*
X148981237Y-86687890D01*
X158442093Y-86687890D01*
X158445876Y-86696666D01*
X159297188Y-87547978D01*
X159311132Y-87555592D01*
X159312965Y-87555461D01*
X159319580Y-87551210D01*
X160171080Y-86699710D01*
X160177534Y-86687890D01*
X164942093Y-86687890D01*
X164945876Y-86696666D01*
X165797188Y-87547978D01*
X165811132Y-87555592D01*
X165812965Y-87555461D01*
X165819580Y-87551210D01*
X166671080Y-86699710D01*
X166677840Y-86687330D01*
X166672113Y-86679680D01*
X166500958Y-86574795D01*
X166492163Y-86570313D01*
X166282012Y-86483266D01*
X166272627Y-86480217D01*
X166051446Y-86427115D01*
X166041699Y-86425572D01*
X165814930Y-86407725D01*
X165805070Y-86407725D01*
X165578301Y-86425572D01*
X165568554Y-86427115D01*
X165347373Y-86480217D01*
X165337988Y-86483266D01*
X165127837Y-86570313D01*
X165119042Y-86574795D01*
X164951555Y-86677432D01*
X164942093Y-86687890D01*
X160177534Y-86687890D01*
X160177840Y-86687330D01*
X160172113Y-86679680D01*
X160000958Y-86574795D01*
X159992163Y-86570313D01*
X159782012Y-86483266D01*
X159772627Y-86480217D01*
X159551446Y-86427115D01*
X159541699Y-86425572D01*
X159314930Y-86407725D01*
X159305070Y-86407725D01*
X159078301Y-86425572D01*
X159068554Y-86427115D01*
X158847373Y-86480217D01*
X158837988Y-86483266D01*
X158627837Y-86570313D01*
X158619042Y-86574795D01*
X158451555Y-86677432D01*
X158442093Y-86687890D01*
X148981237Y-86687890D01*
X150033723Y-85635405D01*
X150096035Y-85601379D01*
X150122818Y-85598500D01*
X173092183Y-85598500D01*
X173160304Y-85618502D01*
G37*
G04 #@! TD.AperFunction*
G04 #@! TA.AperFunction,Conductor*
G36*
X152641531Y-113568245D02*
G01*
X152648114Y-113574374D01*
X153609595Y-114535855D01*
X153643621Y-114598167D01*
X153646500Y-114624950D01*
X153646500Y-116122944D01*
X153645941Y-116134800D01*
X153644212Y-116142537D01*
X153644461Y-116150459D01*
X153646438Y-116213369D01*
X153646500Y-116217327D01*
X153646500Y-116246432D01*
X153647056Y-116250832D01*
X153647988Y-116262664D01*
X153649438Y-116308831D01*
X153655042Y-116328118D01*
X153655419Y-116329416D01*
X153659430Y-116348782D01*
X153662118Y-116370064D01*
X153665034Y-116377429D01*
X153665035Y-116377433D01*
X153679126Y-116413021D01*
X153682965Y-116424231D01*
X153695855Y-116468600D01*
X153706775Y-116487065D01*
X153715466Y-116504805D01*
X153723365Y-116524756D01*
X153732526Y-116537365D01*
X153750516Y-116562126D01*
X153757033Y-116572048D01*
X153776507Y-116604977D01*
X153776510Y-116604981D01*
X153780547Y-116611807D01*
X153795711Y-116626971D01*
X153808551Y-116642004D01*
X153821159Y-116659357D01*
X153856752Y-116688802D01*
X153865532Y-116696792D01*
X155686345Y-118517605D01*
X155694335Y-118526385D01*
X155698584Y-118533080D01*
X155704362Y-118538506D01*
X155704363Y-118538507D01*
X155750257Y-118581604D01*
X155753099Y-118584359D01*
X155773667Y-118604927D01*
X155777170Y-118607644D01*
X155786195Y-118615352D01*
X155819867Y-118646972D01*
X155826818Y-118650793D01*
X155826819Y-118650794D01*
X155838658Y-118657303D01*
X155855182Y-118668157D01*
X155865271Y-118675982D01*
X155872132Y-118681304D01*
X155879404Y-118684451D01*
X155879406Y-118684452D01*
X155914535Y-118699654D01*
X155925196Y-118704876D01*
X155965663Y-118727124D01*
X155986441Y-118732459D01*
X156005131Y-118738858D01*
X156024824Y-118747380D01*
X156068596Y-118754313D01*
X156070448Y-118754606D01*
X156082071Y-118757013D01*
X156105488Y-118763025D01*
X156126812Y-118768500D01*
X156148259Y-118768500D01*
X156167969Y-118770051D01*
X156189152Y-118773406D01*
X156235141Y-118769059D01*
X156246996Y-118768500D01*
X166680050Y-118768500D01*
X166748171Y-118788502D01*
X166769145Y-118805405D01*
X167870316Y-119906575D01*
X168467095Y-120503354D01*
X168501120Y-120565666D01*
X168504000Y-120592449D01*
X168504000Y-121672885D01*
X168508475Y-121688124D01*
X168509865Y-121689329D01*
X168517548Y-121691000D01*
X169607999Y-121691000D01*
X169607999Y-121693936D01*
X169650878Y-121693935D01*
X169704477Y-121725737D01*
X171362101Y-123383361D01*
X171396127Y-123445673D01*
X171394424Y-123506125D01*
X171380989Y-123554570D01*
X171357251Y-123776695D01*
X171357548Y-123781848D01*
X171357548Y-123781851D01*
X171363011Y-123876590D01*
X171370110Y-123999715D01*
X171371247Y-124004761D01*
X171371248Y-124004767D01*
X171378649Y-124037607D01*
X171419222Y-124217639D01*
X171503266Y-124424616D01*
X171505965Y-124429020D01*
X171616563Y-124609500D01*
X171619987Y-124615088D01*
X171766250Y-124783938D01*
X171938126Y-124926632D01*
X171986414Y-124954849D01*
X172011445Y-124969476D01*
X172060169Y-125021114D01*
X172073240Y-125090897D01*
X172046509Y-125156669D01*
X172006055Y-125190027D01*
X171993607Y-125196507D01*
X171989474Y-125199610D01*
X171989471Y-125199612D01*
X171819100Y-125327530D01*
X171814965Y-125330635D01*
X171660629Y-125492138D01*
X171657715Y-125496410D01*
X171657714Y-125496411D01*
X171562149Y-125636504D01*
X171507238Y-125681507D01*
X171458061Y-125691500D01*
X159089949Y-125691500D01*
X159021828Y-125671498D01*
X159000854Y-125654595D01*
X157887639Y-124541379D01*
X156753655Y-123407395D01*
X156745665Y-123398615D01*
X156745663Y-123398613D01*
X156741416Y-123391920D01*
X156689742Y-123343395D01*
X156686901Y-123340641D01*
X156666333Y-123320073D01*
X156662826Y-123317353D01*
X156653804Y-123309647D01*
X156646726Y-123303000D01*
X156620133Y-123278028D01*
X156613181Y-123274206D01*
X156601342Y-123267697D01*
X156584818Y-123256843D01*
X156574132Y-123248555D01*
X156567868Y-123243696D01*
X156560596Y-123240549D01*
X156560594Y-123240548D01*
X156525465Y-123225346D01*
X156514805Y-123220124D01*
X156503982Y-123214174D01*
X156474337Y-123197876D01*
X156467568Y-123196138D01*
X156411922Y-123152719D01*
X156388447Y-123085716D01*
X156404924Y-123016657D01*
X156430107Y-122986421D01*
X156429860Y-122986173D01*
X156432526Y-122983516D01*
X156440861Y-122975211D01*
X156584435Y-122832137D01*
X156588096Y-122828489D01*
X156602243Y-122808802D01*
X156718453Y-122647077D01*
X156719776Y-122648028D01*
X156766645Y-122604857D01*
X156836580Y-122592625D01*
X156902026Y-122620144D01*
X156929875Y-122651994D01*
X156943727Y-122674598D01*
X156989987Y-122750088D01*
X157136250Y-122918938D01*
X157308126Y-123061632D01*
X157501000Y-123174338D01*
X157505825Y-123176180D01*
X157505826Y-123176181D01*
X157542216Y-123190077D01*
X157709692Y-123254030D01*
X157714760Y-123255061D01*
X157714763Y-123255062D01*
X157809862Y-123274410D01*
X157928597Y-123298567D01*
X157933772Y-123298757D01*
X157933774Y-123298757D01*
X158146673Y-123306564D01*
X158146677Y-123306564D01*
X158151837Y-123306753D01*
X158156957Y-123306097D01*
X158156959Y-123306097D01*
X158368288Y-123279025D01*
X158368289Y-123279025D01*
X158373416Y-123278368D01*
X158378366Y-123276883D01*
X158582429Y-123215661D01*
X158582434Y-123215659D01*
X158587384Y-123214174D01*
X158787994Y-123115896D01*
X158969860Y-122986173D01*
X158980861Y-122975211D01*
X159124435Y-122832137D01*
X159128096Y-122828489D01*
X159142243Y-122808802D01*
X159258453Y-122647077D01*
X159259776Y-122648028D01*
X159306645Y-122604857D01*
X159376580Y-122592625D01*
X159442026Y-122620144D01*
X159469875Y-122651994D01*
X159483727Y-122674598D01*
X159529987Y-122750088D01*
X159676250Y-122918938D01*
X159848126Y-123061632D01*
X160041000Y-123174338D01*
X160045825Y-123176180D01*
X160045826Y-123176181D01*
X160082216Y-123190077D01*
X160249692Y-123254030D01*
X160254760Y-123255061D01*
X160254763Y-123255062D01*
X160349862Y-123274410D01*
X160468597Y-123298567D01*
X160473772Y-123298757D01*
X160473774Y-123298757D01*
X160686673Y-123306564D01*
X160686677Y-123306564D01*
X160691837Y-123306753D01*
X160696957Y-123306097D01*
X160696959Y-123306097D01*
X160908288Y-123279025D01*
X160908289Y-123279025D01*
X160913416Y-123278368D01*
X160918366Y-123276883D01*
X161122429Y-123215661D01*
X161122434Y-123215659D01*
X161127384Y-123214174D01*
X161327994Y-123115896D01*
X161509860Y-122986173D01*
X161520861Y-122975211D01*
X161664435Y-122832137D01*
X161668096Y-122828489D01*
X161682243Y-122808802D01*
X161798453Y-122647077D01*
X161799776Y-122648028D01*
X161846645Y-122604857D01*
X161916580Y-122592625D01*
X161982026Y-122620144D01*
X162009875Y-122651994D01*
X162023727Y-122674598D01*
X162069987Y-122750088D01*
X162216250Y-122918938D01*
X162388126Y-123061632D01*
X162581000Y-123174338D01*
X162585825Y-123176180D01*
X162585826Y-123176181D01*
X162622216Y-123190077D01*
X162789692Y-123254030D01*
X162794760Y-123255061D01*
X162794763Y-123255062D01*
X162889862Y-123274410D01*
X163008597Y-123298567D01*
X163013772Y-123298757D01*
X163013774Y-123298757D01*
X163226673Y-123306564D01*
X163226677Y-123306564D01*
X163231837Y-123306753D01*
X163236957Y-123306097D01*
X163236959Y-123306097D01*
X163448288Y-123279025D01*
X163448289Y-123279025D01*
X163453416Y-123278368D01*
X163458366Y-123276883D01*
X163662429Y-123215661D01*
X163662434Y-123215659D01*
X163667384Y-123214174D01*
X163867994Y-123115896D01*
X164049860Y-122986173D01*
X164060861Y-122975211D01*
X164204435Y-122832137D01*
X164208096Y-122828489D01*
X164222243Y-122808802D01*
X164338453Y-122647077D01*
X164339640Y-122647930D01*
X164386960Y-122604362D01*
X164456897Y-122592145D01*
X164522338Y-122619678D01*
X164550166Y-122651511D01*
X164607694Y-122745388D01*
X164613777Y-122753699D01*
X164753213Y-122914667D01*
X164760580Y-122921883D01*
X164924434Y-123057916D01*
X164932881Y-123063831D01*
X165116756Y-123171279D01*
X165126042Y-123175729D01*
X165325001Y-123251703D01*
X165334899Y-123254579D01*
X165438250Y-123275606D01*
X165452299Y-123274410D01*
X165456000Y-123264065D01*
X165456000Y-123263517D01*
X165964000Y-123263517D01*
X165968064Y-123277359D01*
X165981478Y-123279393D01*
X165988184Y-123278534D01*
X165998262Y-123276392D01*
X166202255Y-123215191D01*
X166211842Y-123211433D01*
X166403095Y-123117739D01*
X166411945Y-123112464D01*
X166585328Y-122988792D01*
X166593200Y-122982139D01*
X166698286Y-122877418D01*
X166760657Y-122843501D01*
X166831464Y-122848689D01*
X166888226Y-122891335D01*
X166905208Y-122922439D01*
X166946675Y-123033052D01*
X166955214Y-123048649D01*
X167031715Y-123150724D01*
X167044276Y-123163285D01*
X167146351Y-123239786D01*
X167161946Y-123248324D01*
X167282394Y-123293478D01*
X167297649Y-123297105D01*
X167348514Y-123302631D01*
X167355328Y-123303000D01*
X167977885Y-123303000D01*
X167993124Y-123298525D01*
X167994329Y-123297135D01*
X167996000Y-123289452D01*
X167996000Y-123284884D01*
X168504000Y-123284884D01*
X168508475Y-123300123D01*
X168509865Y-123301328D01*
X168517548Y-123302999D01*
X169144669Y-123302999D01*
X169151490Y-123302629D01*
X169202352Y-123297105D01*
X169217604Y-123293479D01*
X169338054Y-123248324D01*
X169353649Y-123239786D01*
X169455724Y-123163285D01*
X169468285Y-123150724D01*
X169544786Y-123048649D01*
X169553324Y-123033054D01*
X169598478Y-122912606D01*
X169602105Y-122897351D01*
X169607631Y-122846486D01*
X169608000Y-122839672D01*
X169608000Y-122217115D01*
X169603525Y-122201876D01*
X169602135Y-122200671D01*
X169594452Y-122199000D01*
X168522115Y-122199000D01*
X168506876Y-122203475D01*
X168505671Y-122204865D01*
X168504000Y-122212548D01*
X168504000Y-123284884D01*
X167996000Y-123284884D01*
X167996000Y-122217115D01*
X167991525Y-122201876D01*
X167990135Y-122200671D01*
X167982452Y-122199000D01*
X165982115Y-122199000D01*
X165966876Y-122203475D01*
X165965671Y-122204865D01*
X165964000Y-122212548D01*
X165964000Y-123263517D01*
X165456000Y-123263517D01*
X165456000Y-121672885D01*
X165964000Y-121672885D01*
X165968475Y-121688124D01*
X165969865Y-121689329D01*
X165977548Y-121691000D01*
X167977885Y-121691000D01*
X167993124Y-121686525D01*
X167994329Y-121685135D01*
X167996000Y-121677452D01*
X167996000Y-120605116D01*
X167991525Y-120589877D01*
X167990135Y-120588672D01*
X167982452Y-120587001D01*
X167355331Y-120587001D01*
X167348510Y-120587371D01*
X167297648Y-120592895D01*
X167282396Y-120596521D01*
X167161946Y-120641676D01*
X167146351Y-120650214D01*
X167044276Y-120726715D01*
X167031715Y-120739276D01*
X166955214Y-120841351D01*
X166946676Y-120856946D01*
X166905100Y-120967849D01*
X166862458Y-121024613D01*
X166795897Y-121049313D01*
X166726548Y-121034105D01*
X166693925Y-121008419D01*
X166642806Y-120952240D01*
X166635273Y-120945215D01*
X166468139Y-120813222D01*
X166459552Y-120807517D01*
X166273117Y-120704599D01*
X166263705Y-120700369D01*
X166062959Y-120629280D01*
X166052988Y-120626646D01*
X165981837Y-120613972D01*
X165968540Y-120615432D01*
X165964000Y-120629989D01*
X165964000Y-121672885D01*
X165456000Y-121672885D01*
X165456000Y-120628102D01*
X165452082Y-120614758D01*
X165437806Y-120612771D01*
X165399324Y-120618660D01*
X165389288Y-120621051D01*
X165186868Y-120687212D01*
X165177359Y-120691209D01*
X164988463Y-120789542D01*
X164979738Y-120795036D01*
X164809433Y-120922905D01*
X164801726Y-120929748D01*
X164654590Y-121083717D01*
X164648109Y-121091722D01*
X164543498Y-121245074D01*
X164488587Y-121290076D01*
X164418062Y-121298247D01*
X164354315Y-121266993D01*
X164333618Y-121242509D01*
X164252822Y-121117617D01*
X164252820Y-121117614D01*
X164250014Y-121113277D01*
X164099670Y-120948051D01*
X164095619Y-120944852D01*
X164095615Y-120944848D01*
X163928414Y-120812800D01*
X163928410Y-120812798D01*
X163924359Y-120809598D01*
X163888028Y-120789542D01*
X163872136Y-120780769D01*
X163728789Y-120701638D01*
X163723920Y-120699914D01*
X163723916Y-120699912D01*
X163523087Y-120628795D01*
X163523083Y-120628794D01*
X163518212Y-120627069D01*
X163513119Y-120626162D01*
X163513116Y-120626161D01*
X163303373Y-120588800D01*
X163303367Y-120588799D01*
X163298284Y-120587894D01*
X163224452Y-120586992D01*
X163080081Y-120585228D01*
X163080079Y-120585228D01*
X163074911Y-120585165D01*
X162854091Y-120618955D01*
X162641756Y-120688357D01*
X162443607Y-120791507D01*
X162439474Y-120794610D01*
X162439471Y-120794612D01*
X162269100Y-120922530D01*
X162264965Y-120925635D01*
X162261393Y-120929373D01*
X162161309Y-121034105D01*
X162110629Y-121087138D01*
X162003201Y-121244621D01*
X161948293Y-121289621D01*
X161877768Y-121297792D01*
X161814021Y-121266538D01*
X161793324Y-121242054D01*
X161712822Y-121117617D01*
X161712820Y-121117614D01*
X161710014Y-121113277D01*
X161559670Y-120948051D01*
X161555619Y-120944852D01*
X161555615Y-120944848D01*
X161388414Y-120812800D01*
X161388410Y-120812798D01*
X161384359Y-120809598D01*
X161348028Y-120789542D01*
X161332136Y-120780769D01*
X161188789Y-120701638D01*
X161183920Y-120699914D01*
X161183916Y-120699912D01*
X160983087Y-120628795D01*
X160983083Y-120628794D01*
X160978212Y-120627069D01*
X160973119Y-120626162D01*
X160973116Y-120626161D01*
X160763373Y-120588800D01*
X160763367Y-120588799D01*
X160758284Y-120587894D01*
X160684452Y-120586992D01*
X160540081Y-120585228D01*
X160540079Y-120585228D01*
X160534911Y-120585165D01*
X160314091Y-120618955D01*
X160101756Y-120688357D01*
X159903607Y-120791507D01*
X159899474Y-120794610D01*
X159899471Y-120794612D01*
X159729100Y-120922530D01*
X159724965Y-120925635D01*
X159721393Y-120929373D01*
X159621309Y-121034105D01*
X159570629Y-121087138D01*
X159463201Y-121244621D01*
X159408293Y-121289621D01*
X159337768Y-121297792D01*
X159274021Y-121266538D01*
X159253324Y-121242054D01*
X159172822Y-121117617D01*
X159172820Y-121117614D01*
X159170014Y-121113277D01*
X159019670Y-120948051D01*
X159015619Y-120944852D01*
X159015615Y-120944848D01*
X158848414Y-120812800D01*
X158848410Y-120812798D01*
X158844359Y-120809598D01*
X158808028Y-120789542D01*
X158792136Y-120780769D01*
X158648789Y-120701638D01*
X158643920Y-120699914D01*
X158643916Y-120699912D01*
X158443087Y-120628795D01*
X158443083Y-120628794D01*
X158438212Y-120627069D01*
X158433119Y-120626162D01*
X158433116Y-120626161D01*
X158223373Y-120588800D01*
X158223367Y-120588799D01*
X158218284Y-120587894D01*
X158144452Y-120586992D01*
X158000081Y-120585228D01*
X158000079Y-120585228D01*
X157994911Y-120585165D01*
X157774091Y-120618955D01*
X157561756Y-120688357D01*
X157363607Y-120791507D01*
X157359474Y-120794610D01*
X157359471Y-120794612D01*
X157189100Y-120922530D01*
X157184965Y-120925635D01*
X157181393Y-120929373D01*
X157081309Y-121034105D01*
X157030629Y-121087138D01*
X156923201Y-121244621D01*
X156868293Y-121289621D01*
X156797768Y-121297792D01*
X156734021Y-121266538D01*
X156713324Y-121242054D01*
X156632822Y-121117617D01*
X156632820Y-121117614D01*
X156630014Y-121113277D01*
X156479670Y-120948051D01*
X156475619Y-120944852D01*
X156475615Y-120944848D01*
X156308414Y-120812800D01*
X156308410Y-120812798D01*
X156304359Y-120809598D01*
X156268028Y-120789542D01*
X156252136Y-120780769D01*
X156108789Y-120701638D01*
X156103920Y-120699914D01*
X156103916Y-120699912D01*
X155903087Y-120628795D01*
X155903083Y-120628794D01*
X155898212Y-120627069D01*
X155893119Y-120626162D01*
X155893116Y-120626161D01*
X155683373Y-120588800D01*
X155683367Y-120588799D01*
X155678284Y-120587894D01*
X155604452Y-120586992D01*
X155460081Y-120585228D01*
X155460079Y-120585228D01*
X155454911Y-120585165D01*
X155234091Y-120618955D01*
X155021756Y-120688357D01*
X154823607Y-120791507D01*
X154819474Y-120794610D01*
X154819471Y-120794612D01*
X154649100Y-120922530D01*
X154644965Y-120925635D01*
X154641393Y-120929373D01*
X154541309Y-121034105D01*
X154490629Y-121087138D01*
X154487720Y-121091403D01*
X154487714Y-121091411D01*
X154475404Y-121109457D01*
X154364743Y-121271680D01*
X154270688Y-121474305D01*
X154210989Y-121689570D01*
X154187251Y-121911695D01*
X154187548Y-121916848D01*
X154187548Y-121916851D01*
X154198961Y-122114789D01*
X154200110Y-122134715D01*
X154201247Y-122139761D01*
X154201248Y-122139767D01*
X154215606Y-122203475D01*
X154249222Y-122352639D01*
X154300013Y-122477722D01*
X154326031Y-122541797D01*
X154333266Y-122559616D01*
X154384942Y-122643944D01*
X154447291Y-122745688D01*
X154449987Y-122750088D01*
X154596250Y-122918938D01*
X154600230Y-122922242D01*
X154613858Y-122933557D01*
X154653493Y-122992460D01*
X154654990Y-123063441D01*
X154617874Y-123123963D01*
X154553930Y-123154812D01*
X154533372Y-123156500D01*
X152321888Y-123156500D01*
X152253767Y-123136498D01*
X152218675Y-123102771D01*
X152187268Y-123057916D01*
X152137206Y-122986421D01*
X152129357Y-122975211D01*
X152129355Y-122975208D01*
X152126198Y-122970700D01*
X151964300Y-122808802D01*
X151959792Y-122805645D01*
X151959789Y-122805643D01*
X151849324Y-122728295D01*
X151776749Y-122677477D01*
X151771767Y-122675154D01*
X151771762Y-122675151D01*
X151737543Y-122659195D01*
X151684258Y-122612278D01*
X151664797Y-122544001D01*
X151685339Y-122476041D01*
X151737543Y-122430805D01*
X151771762Y-122414849D01*
X151771767Y-122414846D01*
X151776749Y-122412523D01*
X151917210Y-122314171D01*
X151959789Y-122284357D01*
X151959792Y-122284355D01*
X151964300Y-122281198D01*
X152126198Y-122119300D01*
X152257523Y-121931749D01*
X152259846Y-121926767D01*
X152259849Y-121926762D01*
X152351961Y-121729225D01*
X152351961Y-121729224D01*
X152354284Y-121724243D01*
X152363192Y-121691000D01*
X152412119Y-121508402D01*
X152412119Y-121508400D01*
X152413543Y-121503087D01*
X152433498Y-121275000D01*
X152413543Y-121046913D01*
X152403244Y-121008478D01*
X152355707Y-120831067D01*
X152355706Y-120831065D01*
X152354284Y-120825757D01*
X152327096Y-120767451D01*
X152259849Y-120623238D01*
X152259846Y-120623233D01*
X152257523Y-120618251D01*
X152150600Y-120465549D01*
X152129357Y-120435211D01*
X152129355Y-120435208D01*
X152126198Y-120430700D01*
X151964300Y-120268802D01*
X151959792Y-120265645D01*
X151959789Y-120265643D01*
X151813765Y-120163396D01*
X151776749Y-120137477D01*
X151771767Y-120135154D01*
X151771762Y-120135151D01*
X151736951Y-120118919D01*
X151683666Y-120072002D01*
X151664205Y-120003725D01*
X151684747Y-119935765D01*
X151736951Y-119890529D01*
X151771511Y-119874414D01*
X151781007Y-119868931D01*
X151959467Y-119743972D01*
X151967875Y-119736916D01*
X152121916Y-119582875D01*
X152128972Y-119574467D01*
X152253931Y-119396007D01*
X152259414Y-119386511D01*
X152351490Y-119189053D01*
X152355236Y-119178761D01*
X152401394Y-119006497D01*
X152401058Y-118992401D01*
X152393116Y-118989000D01*
X150992000Y-118989000D01*
X150923879Y-118968998D01*
X150877386Y-118915342D01*
X150866000Y-118863000D01*
X150866000Y-118607000D01*
X150886002Y-118538879D01*
X150939658Y-118492386D01*
X150992000Y-118481000D01*
X152387967Y-118481000D01*
X152401498Y-118477027D01*
X152402727Y-118468478D01*
X152355236Y-118291239D01*
X152351490Y-118280947D01*
X152259414Y-118083489D01*
X152253931Y-118073993D01*
X152128972Y-117895533D01*
X152121916Y-117887125D01*
X151967875Y-117733084D01*
X151959467Y-117726028D01*
X151781007Y-117601069D01*
X151771511Y-117595586D01*
X151736951Y-117579471D01*
X151683666Y-117532554D01*
X151664205Y-117464277D01*
X151684747Y-117396317D01*
X151736951Y-117351081D01*
X151771762Y-117334849D01*
X151771767Y-117334846D01*
X151776749Y-117332523D01*
X151936020Y-117221000D01*
X151959789Y-117204357D01*
X151959792Y-117204355D01*
X151964300Y-117201198D01*
X152126198Y-117039300D01*
X152136150Y-117025088D01*
X152254366Y-116856257D01*
X152257523Y-116851749D01*
X152259846Y-116846767D01*
X152259849Y-116846762D01*
X152351961Y-116649225D01*
X152351961Y-116649224D01*
X152354284Y-116644243D01*
X152360085Y-116622596D01*
X152412119Y-116428402D01*
X152412119Y-116428400D01*
X152413543Y-116423087D01*
X152433498Y-116195000D01*
X152413543Y-115966913D01*
X152403732Y-115930298D01*
X152355707Y-115751067D01*
X152355706Y-115751065D01*
X152354284Y-115745757D01*
X152351961Y-115740775D01*
X152259849Y-115543238D01*
X152259846Y-115543233D01*
X152257523Y-115538251D01*
X152163657Y-115404197D01*
X152129357Y-115355211D01*
X152129355Y-115355208D01*
X152126198Y-115350700D01*
X151964300Y-115188802D01*
X151959792Y-115185645D01*
X151959789Y-115185643D01*
X151839456Y-115101385D01*
X151776749Y-115057477D01*
X151771767Y-115055154D01*
X151771762Y-115055151D01*
X151737543Y-115039195D01*
X151684258Y-114992278D01*
X151664797Y-114924001D01*
X151685339Y-114856041D01*
X151737543Y-114810805D01*
X151771762Y-114794849D01*
X151771767Y-114794846D01*
X151776749Y-114792523D01*
X151894148Y-114710319D01*
X151959789Y-114664357D01*
X151959792Y-114664355D01*
X151964300Y-114661198D01*
X152126198Y-114499300D01*
X152130771Y-114492770D01*
X152218357Y-114367683D01*
X152257523Y-114311749D01*
X152259846Y-114306767D01*
X152259849Y-114306762D01*
X152351961Y-114109225D01*
X152351961Y-114109224D01*
X152354284Y-114104243D01*
X152377408Y-114017946D01*
X152412119Y-113888402D01*
X152412119Y-113888400D01*
X152413543Y-113883087D01*
X152433498Y-113655000D01*
X152435455Y-113655171D01*
X152453021Y-113595348D01*
X152506677Y-113548855D01*
X152576951Y-113538751D01*
X152641531Y-113568245D01*
G37*
G04 #@! TD.AperFunction*
G04 #@! TA.AperFunction,Conductor*
G36*
X138001121Y-109611002D02*
G01*
X138047614Y-109664658D01*
X138059000Y-109717000D01*
X138059000Y-111112967D01*
X138062973Y-111126498D01*
X138071522Y-111127727D01*
X138248761Y-111080236D01*
X138259053Y-111076490D01*
X138456511Y-110984414D01*
X138466007Y-110978931D01*
X138644467Y-110853972D01*
X138652875Y-110846916D01*
X138806916Y-110692875D01*
X138813972Y-110684467D01*
X138938931Y-110506007D01*
X138944414Y-110496511D01*
X139016509Y-110341903D01*
X139063427Y-110288618D01*
X139131704Y-110269157D01*
X139199664Y-110289699D01*
X139219796Y-110306055D01*
X142183376Y-113269635D01*
X142217402Y-113331947D01*
X142215988Y-113391340D01*
X142207882Y-113421594D01*
X142206457Y-113426913D01*
X142186502Y-113655000D01*
X142206457Y-113883087D01*
X142207881Y-113888400D01*
X142207881Y-113888402D01*
X142242593Y-114017946D01*
X142265716Y-114104243D01*
X142268039Y-114109224D01*
X142268039Y-114109225D01*
X142360151Y-114306762D01*
X142360154Y-114306767D01*
X142362477Y-114311749D01*
X142401643Y-114367683D01*
X142489230Y-114492770D01*
X142493802Y-114499300D01*
X142655700Y-114661198D01*
X142660208Y-114664355D01*
X142660211Y-114664357D01*
X142725852Y-114710319D01*
X142843251Y-114792523D01*
X142848233Y-114794846D01*
X142848238Y-114794849D01*
X142882457Y-114810805D01*
X142935742Y-114857722D01*
X142955203Y-114925999D01*
X142934661Y-114993959D01*
X142882457Y-115039195D01*
X142848238Y-115055151D01*
X142848233Y-115055154D01*
X142843251Y-115057477D01*
X142780544Y-115101385D01*
X142660211Y-115185643D01*
X142660208Y-115185645D01*
X142655700Y-115188802D01*
X142493802Y-115350700D01*
X142490645Y-115355208D01*
X142490643Y-115355211D01*
X142456343Y-115404197D01*
X142362477Y-115538251D01*
X142360154Y-115543233D01*
X142360151Y-115543238D01*
X142268039Y-115740775D01*
X142265716Y-115745757D01*
X142264294Y-115751065D01*
X142264293Y-115751067D01*
X142216268Y-115930298D01*
X142206457Y-115966913D01*
X142186502Y-116195000D01*
X142184545Y-116194829D01*
X142166979Y-116254652D01*
X142113323Y-116301145D01*
X142043049Y-116311249D01*
X141978469Y-116281755D01*
X141971886Y-116275626D01*
X137220405Y-111524145D01*
X137186379Y-111461833D01*
X137183500Y-111435050D01*
X137183500Y-111195491D01*
X137203502Y-111127370D01*
X137257158Y-111080877D01*
X137327432Y-111070773D01*
X137352592Y-111077089D01*
X137361237Y-111080235D01*
X137533503Y-111126394D01*
X137547599Y-111126058D01*
X137551000Y-111118116D01*
X137551000Y-109717000D01*
X137571002Y-109648879D01*
X137624658Y-109602386D01*
X137677000Y-109591000D01*
X137933000Y-109591000D01*
X138001121Y-109611002D01*
G37*
G04 #@! TD.AperFunction*
G04 #@! TA.AperFunction,Conductor*
G36*
X157858171Y-97833502D02*
G01*
X157879145Y-97850405D01*
X160061341Y-100032600D01*
X160069331Y-100041381D01*
X160069339Y-100041390D01*
X160073584Y-100048080D01*
X160079359Y-100053503D01*
X160125274Y-100096620D01*
X160128116Y-100099375D01*
X160148667Y-100119926D01*
X160151801Y-100122357D01*
X160152163Y-100122638D01*
X160161191Y-100130348D01*
X160194867Y-100161972D01*
X160201818Y-100165793D01*
X160201819Y-100165794D01*
X160213655Y-100172301D01*
X160230184Y-100183158D01*
X160240869Y-100191447D01*
X160240871Y-100191448D01*
X160247131Y-100196304D01*
X160289544Y-100214657D01*
X160300181Y-100219868D01*
X160340663Y-100242124D01*
X160348342Y-100244096D01*
X160348343Y-100244096D01*
X160361434Y-100247457D01*
X160380136Y-100253859D01*
X160399823Y-100262379D01*
X160407652Y-100263619D01*
X160445448Y-100269605D01*
X160457074Y-100272013D01*
X160494135Y-100281529D01*
X160494136Y-100281529D01*
X160501812Y-100283500D01*
X160523258Y-100283500D01*
X160542969Y-100285051D01*
X160564151Y-100288406D01*
X160563625Y-100291725D01*
X160616465Y-100309018D01*
X160661290Y-100364076D01*
X160669232Y-100434626D01*
X160659412Y-100465925D01*
X160648340Y-100489777D01*
X160644775Y-100499470D01*
X160589389Y-100699183D01*
X160590912Y-100707607D01*
X160603292Y-100711000D01*
X162053000Y-100711000D01*
X162121121Y-100731002D01*
X162167614Y-100784658D01*
X162179000Y-100837000D01*
X162179000Y-102283517D01*
X162183064Y-102297359D01*
X162196478Y-102299393D01*
X162203184Y-102298534D01*
X162213262Y-102296392D01*
X162417255Y-102235191D01*
X162426842Y-102231433D01*
X162618095Y-102137739D01*
X162626945Y-102132464D01*
X162800328Y-102008792D01*
X162808200Y-102002139D01*
X162959052Y-101851812D01*
X162965730Y-101843965D01*
X163093022Y-101666819D01*
X163094279Y-101667722D01*
X163141373Y-101624362D01*
X163211311Y-101612145D01*
X163276751Y-101639678D01*
X163304579Y-101671511D01*
X163311054Y-101682077D01*
X163364987Y-101770088D01*
X163368367Y-101773990D01*
X163374170Y-101780689D01*
X163511250Y-101938938D01*
X163683126Y-102081632D01*
X163876000Y-102194338D01*
X163880825Y-102196180D01*
X163880826Y-102196181D01*
X163898372Y-102202881D01*
X164084692Y-102274030D01*
X164089760Y-102275061D01*
X164089763Y-102275062D01*
X164178482Y-102293112D01*
X164303597Y-102318567D01*
X164308772Y-102318757D01*
X164308774Y-102318757D01*
X164521673Y-102326564D01*
X164521677Y-102326564D01*
X164526837Y-102326753D01*
X164531957Y-102326097D01*
X164531959Y-102326097D01*
X164601153Y-102317233D01*
X164748416Y-102298368D01*
X164767632Y-102292603D01*
X164838626Y-102292185D01*
X164892934Y-102324193D01*
X165141341Y-102572600D01*
X165149331Y-102581381D01*
X165149339Y-102581390D01*
X165153584Y-102588080D01*
X165159359Y-102593503D01*
X165205273Y-102636619D01*
X165208115Y-102639374D01*
X165228667Y-102659926D01*
X165231801Y-102662357D01*
X165232163Y-102662638D01*
X165241184Y-102670342D01*
X165244711Y-102673654D01*
X165280673Y-102734866D01*
X165277833Y-102805806D01*
X165237091Y-102863949D01*
X165171382Y-102890835D01*
X165158454Y-102891500D01*
X162294950Y-102891500D01*
X162226829Y-102871498D01*
X162205855Y-102854595D01*
X161707905Y-102356645D01*
X161673879Y-102294333D01*
X161671000Y-102267550D01*
X161671000Y-101237115D01*
X161666525Y-101221876D01*
X161665135Y-101220671D01*
X161657452Y-101219000D01*
X160622450Y-101219000D01*
X160554329Y-101198998D01*
X160533355Y-101182095D01*
X157379855Y-98028595D01*
X157345829Y-97966283D01*
X157350894Y-97895468D01*
X157393441Y-97838632D01*
X157459961Y-97813821D01*
X157468950Y-97813500D01*
X157790050Y-97813500D01*
X157858171Y-97833502D01*
G37*
G04 #@! TD.AperFunction*
M02*
