G04 #@! TF.GenerationSoftware,KiCad,Pcbnew,6.0.11-3.fc36*
G04 #@! TF.CreationDate,2023-04-04T19:14:45+09:00*
G04 #@! TF.ProjectId,Tetiduino,54657469-6475-4696-9e6f-2e6b69636164,rev?*
G04 #@! TF.SameCoordinates,Original*
G04 #@! TF.FileFunction,Soldermask,Bot*
G04 #@! TF.FilePolarity,Negative*
%FSLAX46Y46*%
G04 Gerber Fmt 4.6, Leading zero omitted, Abs format (unit mm)*
G04 Created by KiCad (PCBNEW 6.0.11-3.fc36) date 2023-04-04 19:14:45*
%MOMM*%
%LPD*%
G01*
G04 APERTURE LIST*
%ADD10R,1.700000X1.700000*%
%ADD11O,1.700000X1.700000*%
%ADD12R,1.600000X1.600000*%
%ADD13O,1.600000X1.600000*%
%ADD14C,2.000000*%
%ADD15R,1.905000X2.000000*%
%ADD16O,1.905000X2.000000*%
%ADD17C,1.500000*%
G04 APERTURE END LIST*
D10*
X124460000Y-98440000D03*
D11*
X124460000Y-100980000D03*
X124460000Y-103520000D03*
X124460000Y-106060000D03*
X124460000Y-108600000D03*
X124460000Y-111140000D03*
X124460000Y-113680000D03*
X124460000Y-116220000D03*
D12*
X156210000Y-137160000D03*
D13*
X153670000Y-137160000D03*
D10*
X168250000Y-121945000D03*
D11*
X165710000Y-121945000D03*
X163170000Y-121945000D03*
X160630000Y-121945000D03*
X158090000Y-121945000D03*
X155550000Y-121945000D03*
D14*
X165810000Y-92420000D03*
X159310000Y-92420000D03*
X159310000Y-87920000D03*
X165810000Y-87920000D03*
D12*
X130185000Y-109845000D03*
D13*
X132725000Y-109845000D03*
X135265000Y-109845000D03*
X137805000Y-109845000D03*
X137805000Y-102225000D03*
X135265000Y-102225000D03*
X132725000Y-102225000D03*
X130185000Y-102225000D03*
D12*
X151120000Y-136515000D03*
D13*
X151120000Y-133975000D03*
X151120000Y-131435000D03*
X151120000Y-128895000D03*
X151120000Y-126355000D03*
X151120000Y-123815000D03*
X151120000Y-121275000D03*
X151120000Y-118735000D03*
X151120000Y-116195000D03*
X151120000Y-113655000D03*
X151120000Y-111115000D03*
X151120000Y-108575000D03*
X151120000Y-106035000D03*
X151120000Y-103495000D03*
X143500000Y-103495000D03*
X143500000Y-106035000D03*
X143500000Y-108575000D03*
X143500000Y-111115000D03*
X143500000Y-113655000D03*
X143500000Y-116195000D03*
X143500000Y-118735000D03*
X143500000Y-121275000D03*
X143500000Y-123815000D03*
X143500000Y-126355000D03*
X143500000Y-128895000D03*
X143500000Y-131435000D03*
X143500000Y-133975000D03*
X143500000Y-136515000D03*
D10*
X172720000Y-136510000D03*
D11*
X172720000Y-133970000D03*
X172720000Y-131430000D03*
X172720000Y-128890000D03*
X172720000Y-126350000D03*
X172720000Y-123810000D03*
X172720000Y-121270000D03*
X172720000Y-118730000D03*
D10*
X167005000Y-98425000D03*
D11*
X167005000Y-100965000D03*
X164465000Y-98425000D03*
X164465000Y-100965000D03*
X161925000Y-98425000D03*
X161925000Y-100965000D03*
D15*
X135890000Y-117475000D03*
D16*
X133350000Y-117475000D03*
X130810000Y-117475000D03*
D10*
X124460000Y-123825000D03*
D11*
X124460000Y-126365000D03*
X124460000Y-128905000D03*
X124460000Y-131445000D03*
X124460000Y-133985000D03*
X124460000Y-136525000D03*
D17*
X156210000Y-114935000D03*
X156210000Y-110055000D03*
D10*
X172695000Y-112365000D03*
D11*
X172695000Y-109825000D03*
X172695000Y-107285000D03*
X172695000Y-104745000D03*
X172695000Y-102205000D03*
X172695000Y-99665000D03*
X172695000Y-97125000D03*
X172695000Y-94585000D03*
X172695000Y-92045000D03*
X172695000Y-89505000D03*
M02*
